%TF.GenerationSoftware,KiCad,Pcbnew,8.0.1*%
%TF.CreationDate,2024-06-25T20:54:33-05:00*%
%TF.ProjectId,nobs,6e6f6273-2e6b-4696-9361-645f70636258,rev?*%
%TF.SameCoordinates,Original*%
%TF.FileFunction,Legend,Top*%
%TF.FilePolarity,Positive*%
%FSLAX46Y46*%
G04 Gerber Fmt 4.6, Leading zero omitted, Abs format (unit mm)*
G04 Created by KiCad (PCBNEW 8.0.1) date 2024-06-25 20:54:33*
%MOMM*%
%LPD*%
G01*
G04 APERTURE LIST*
%ADD10C,0.101600*%
%ADD11C,0.150000*%
%ADD12C,0.120000*%
G04 APERTURE END LIST*
D10*
X218809222Y-53395405D02*
X218809222Y-54423500D01*
X218809222Y-54423500D02*
X218869699Y-54544452D01*
X218869699Y-54544452D02*
X218930175Y-54604929D01*
X218930175Y-54604929D02*
X219051127Y-54665405D01*
X219051127Y-54665405D02*
X219293032Y-54665405D01*
X219293032Y-54665405D02*
X219413984Y-54604929D01*
X219413984Y-54604929D02*
X219474461Y-54544452D01*
X219474461Y-54544452D02*
X219534937Y-54423500D01*
X219534937Y-54423500D02*
X219534937Y-53395405D01*
X220079222Y-54604929D02*
X220260651Y-54665405D01*
X220260651Y-54665405D02*
X220563032Y-54665405D01*
X220563032Y-54665405D02*
X220683984Y-54604929D01*
X220683984Y-54604929D02*
X220744460Y-54544452D01*
X220744460Y-54544452D02*
X220804937Y-54423500D01*
X220804937Y-54423500D02*
X220804937Y-54302548D01*
X220804937Y-54302548D02*
X220744460Y-54181595D01*
X220744460Y-54181595D02*
X220683984Y-54121119D01*
X220683984Y-54121119D02*
X220563032Y-54060643D01*
X220563032Y-54060643D02*
X220321127Y-54000167D01*
X220321127Y-54000167D02*
X220200175Y-53939690D01*
X220200175Y-53939690D02*
X220139698Y-53879214D01*
X220139698Y-53879214D02*
X220079222Y-53758262D01*
X220079222Y-53758262D02*
X220079222Y-53637309D01*
X220079222Y-53637309D02*
X220139698Y-53516357D01*
X220139698Y-53516357D02*
X220200175Y-53455881D01*
X220200175Y-53455881D02*
X220321127Y-53395405D01*
X220321127Y-53395405D02*
X220623508Y-53395405D01*
X220623508Y-53395405D02*
X220804937Y-53455881D01*
X221772556Y-54000167D02*
X221953984Y-54060643D01*
X221953984Y-54060643D02*
X222014461Y-54121119D01*
X222014461Y-54121119D02*
X222074937Y-54242071D01*
X222074937Y-54242071D02*
X222074937Y-54423500D01*
X222074937Y-54423500D02*
X222014461Y-54544452D01*
X222014461Y-54544452D02*
X221953984Y-54604929D01*
X221953984Y-54604929D02*
X221833032Y-54665405D01*
X221833032Y-54665405D02*
X221349222Y-54665405D01*
X221349222Y-54665405D02*
X221349222Y-53395405D01*
X221349222Y-53395405D02*
X221772556Y-53395405D01*
X221772556Y-53395405D02*
X221893508Y-53455881D01*
X221893508Y-53455881D02*
X221953984Y-53516357D01*
X221953984Y-53516357D02*
X222014461Y-53637309D01*
X222014461Y-53637309D02*
X222014461Y-53758262D01*
X222014461Y-53758262D02*
X221953984Y-53879214D01*
X221953984Y-53879214D02*
X221893508Y-53939690D01*
X221893508Y-53939690D02*
X221772556Y-54000167D01*
X221772556Y-54000167D02*
X221349222Y-54000167D01*
X223586841Y-54665405D02*
X223586841Y-53395405D01*
X223586841Y-53395405D02*
X224010175Y-54302548D01*
X224010175Y-54302548D02*
X224433508Y-53395405D01*
X224433508Y-53395405D02*
X224433508Y-54665405D01*
X225038270Y-54665405D02*
X225038270Y-53395405D01*
X225643032Y-54665405D02*
X225643032Y-53395405D01*
X225643032Y-53395405D02*
X225945413Y-53395405D01*
X225945413Y-53395405D02*
X226126842Y-53455881D01*
X226126842Y-53455881D02*
X226247794Y-53576833D01*
X226247794Y-53576833D02*
X226308271Y-53697786D01*
X226308271Y-53697786D02*
X226368747Y-53939690D01*
X226368747Y-53939690D02*
X226368747Y-54121119D01*
X226368747Y-54121119D02*
X226308271Y-54363024D01*
X226308271Y-54363024D02*
X226247794Y-54483976D01*
X226247794Y-54483976D02*
X226126842Y-54604929D01*
X226126842Y-54604929D02*
X225945413Y-54665405D01*
X225945413Y-54665405D02*
X225643032Y-54665405D01*
X226913032Y-54665405D02*
X226913032Y-53395405D01*
X228485413Y-54665405D02*
X228485413Y-53395405D01*
X229211128Y-54665405D02*
X228666842Y-53939690D01*
X229211128Y-53395405D02*
X228485413Y-54121119D01*
X229755413Y-53818738D02*
X229755413Y-54665405D01*
X229755413Y-53939690D02*
X229815890Y-53879214D01*
X229815890Y-53879214D02*
X229936842Y-53818738D01*
X229936842Y-53818738D02*
X230118271Y-53818738D01*
X230118271Y-53818738D02*
X230239223Y-53879214D01*
X230239223Y-53879214D02*
X230299699Y-54000167D01*
X230299699Y-54000167D02*
X230299699Y-54665405D01*
X231085890Y-54665405D02*
X230964938Y-54604929D01*
X230964938Y-54604929D02*
X230904461Y-54544452D01*
X230904461Y-54544452D02*
X230843985Y-54423500D01*
X230843985Y-54423500D02*
X230843985Y-54060643D01*
X230843985Y-54060643D02*
X230904461Y-53939690D01*
X230904461Y-53939690D02*
X230964938Y-53879214D01*
X230964938Y-53879214D02*
X231085890Y-53818738D01*
X231085890Y-53818738D02*
X231267319Y-53818738D01*
X231267319Y-53818738D02*
X231388271Y-53879214D01*
X231388271Y-53879214D02*
X231448747Y-53939690D01*
X231448747Y-53939690D02*
X231509223Y-54060643D01*
X231509223Y-54060643D02*
X231509223Y-54423500D01*
X231509223Y-54423500D02*
X231448747Y-54544452D01*
X231448747Y-54544452D02*
X231388271Y-54604929D01*
X231388271Y-54604929D02*
X231267319Y-54665405D01*
X231267319Y-54665405D02*
X231085890Y-54665405D01*
X232053509Y-54665405D02*
X232053509Y-53395405D01*
X232053509Y-53879214D02*
X232174462Y-53818738D01*
X232174462Y-53818738D02*
X232416367Y-53818738D01*
X232416367Y-53818738D02*
X232537319Y-53879214D01*
X232537319Y-53879214D02*
X232597795Y-53939690D01*
X232597795Y-53939690D02*
X232658271Y-54060643D01*
X232658271Y-54060643D02*
X232658271Y-54423500D01*
X232658271Y-54423500D02*
X232597795Y-54544452D01*
X232597795Y-54544452D02*
X232537319Y-54604929D01*
X232537319Y-54604929D02*
X232416367Y-54665405D01*
X232416367Y-54665405D02*
X232174462Y-54665405D01*
X232174462Y-54665405D02*
X232053509Y-54604929D01*
X233142081Y-54604929D02*
X233263034Y-54665405D01*
X233263034Y-54665405D02*
X233504938Y-54665405D01*
X233504938Y-54665405D02*
X233625891Y-54604929D01*
X233625891Y-54604929D02*
X233686367Y-54483976D01*
X233686367Y-54483976D02*
X233686367Y-54423500D01*
X233686367Y-54423500D02*
X233625891Y-54302548D01*
X233625891Y-54302548D02*
X233504938Y-54242071D01*
X233504938Y-54242071D02*
X233323510Y-54242071D01*
X233323510Y-54242071D02*
X233202557Y-54181595D01*
X233202557Y-54181595D02*
X233142081Y-54060643D01*
X233142081Y-54060643D02*
X233142081Y-54000167D01*
X233142081Y-54000167D02*
X233202557Y-53879214D01*
X233202557Y-53879214D02*
X233323510Y-53818738D01*
X233323510Y-53818738D02*
X233504938Y-53818738D01*
X233504938Y-53818738D02*
X233625891Y-53879214D01*
X235016843Y-53818738D02*
X235500652Y-53818738D01*
X235198271Y-54665405D02*
X235198271Y-53576833D01*
X235198271Y-53576833D02*
X235258748Y-53455881D01*
X235258748Y-53455881D02*
X235379700Y-53395405D01*
X235379700Y-53395405D02*
X235500652Y-53395405D01*
X236105414Y-54665405D02*
X235984462Y-54604929D01*
X235984462Y-54604929D02*
X235923985Y-54544452D01*
X235923985Y-54544452D02*
X235863509Y-54423500D01*
X235863509Y-54423500D02*
X235863509Y-54060643D01*
X235863509Y-54060643D02*
X235923985Y-53939690D01*
X235923985Y-53939690D02*
X235984462Y-53879214D01*
X235984462Y-53879214D02*
X236105414Y-53818738D01*
X236105414Y-53818738D02*
X236286843Y-53818738D01*
X236286843Y-53818738D02*
X236407795Y-53879214D01*
X236407795Y-53879214D02*
X236468271Y-53939690D01*
X236468271Y-53939690D02*
X236528747Y-54060643D01*
X236528747Y-54060643D02*
X236528747Y-54423500D01*
X236528747Y-54423500D02*
X236468271Y-54544452D01*
X236468271Y-54544452D02*
X236407795Y-54604929D01*
X236407795Y-54604929D02*
X236286843Y-54665405D01*
X236286843Y-54665405D02*
X236105414Y-54665405D01*
X237073033Y-54665405D02*
X237073033Y-53818738D01*
X237073033Y-54060643D02*
X237133510Y-53939690D01*
X237133510Y-53939690D02*
X237193986Y-53879214D01*
X237193986Y-53879214D02*
X237314938Y-53818738D01*
X237314938Y-53818738D02*
X237435891Y-53818738D01*
X239552557Y-54544452D02*
X239492081Y-54604929D01*
X239492081Y-54604929D02*
X239310652Y-54665405D01*
X239310652Y-54665405D02*
X239189700Y-54665405D01*
X239189700Y-54665405D02*
X239008271Y-54604929D01*
X239008271Y-54604929D02*
X238887319Y-54483976D01*
X238887319Y-54483976D02*
X238826842Y-54363024D01*
X238826842Y-54363024D02*
X238766366Y-54121119D01*
X238766366Y-54121119D02*
X238766366Y-53939690D01*
X238766366Y-53939690D02*
X238826842Y-53697786D01*
X238826842Y-53697786D02*
X238887319Y-53576833D01*
X238887319Y-53576833D02*
X239008271Y-53455881D01*
X239008271Y-53455881D02*
X239189700Y-53395405D01*
X239189700Y-53395405D02*
X239310652Y-53395405D01*
X239310652Y-53395405D02*
X239492081Y-53455881D01*
X239492081Y-53455881D02*
X239552557Y-53516357D01*
X239975890Y-53818738D02*
X240278271Y-54665405D01*
X240580652Y-53818738D02*
X240278271Y-54665405D01*
X240278271Y-54665405D02*
X240157319Y-54967786D01*
X240157319Y-54967786D02*
X240096842Y-55028262D01*
X240096842Y-55028262D02*
X239975890Y-55088738D01*
X241064461Y-53818738D02*
X241064461Y-54665405D01*
X241064461Y-53939690D02*
X241124938Y-53879214D01*
X241124938Y-53879214D02*
X241245890Y-53818738D01*
X241245890Y-53818738D02*
X241427319Y-53818738D01*
X241427319Y-53818738D02*
X241548271Y-53879214D01*
X241548271Y-53879214D02*
X241608747Y-54000167D01*
X241608747Y-54000167D02*
X241608747Y-54665405D01*
X242032081Y-53818738D02*
X242515890Y-53818738D01*
X242213509Y-53395405D02*
X242213509Y-54483976D01*
X242213509Y-54483976D02*
X242273986Y-54604929D01*
X242273986Y-54604929D02*
X242394938Y-54665405D01*
X242394938Y-54665405D02*
X242515890Y-54665405D01*
X242939223Y-54665405D02*
X242939223Y-53395405D01*
X243483509Y-54665405D02*
X243483509Y-54000167D01*
X243483509Y-54000167D02*
X243423033Y-53879214D01*
X243423033Y-53879214D02*
X243302081Y-53818738D01*
X243302081Y-53818738D02*
X243120652Y-53818738D01*
X243120652Y-53818738D02*
X242999700Y-53879214D01*
X242999700Y-53879214D02*
X242939223Y-53939690D01*
X244632557Y-54604929D02*
X244511605Y-54665405D01*
X244511605Y-54665405D02*
X244269700Y-54665405D01*
X244269700Y-54665405D02*
X244148748Y-54604929D01*
X244148748Y-54604929D02*
X244088271Y-54544452D01*
X244088271Y-54544452D02*
X244027795Y-54423500D01*
X244027795Y-54423500D02*
X244027795Y-54060643D01*
X244027795Y-54060643D02*
X244088271Y-53939690D01*
X244088271Y-53939690D02*
X244148748Y-53879214D01*
X244148748Y-53879214D02*
X244269700Y-53818738D01*
X244269700Y-53818738D02*
X244511605Y-53818738D01*
X244511605Y-53818738D02*
X244632557Y-53879214D01*
X245721128Y-54665405D02*
X245721128Y-54000167D01*
X245721128Y-54000167D02*
X245660652Y-53879214D01*
X245660652Y-53879214D02*
X245539700Y-53818738D01*
X245539700Y-53818738D02*
X245297795Y-53818738D01*
X245297795Y-53818738D02*
X245176842Y-53879214D01*
X245721128Y-54604929D02*
X245600176Y-54665405D01*
X245600176Y-54665405D02*
X245297795Y-54665405D01*
X245297795Y-54665405D02*
X245176842Y-54604929D01*
X245176842Y-54604929D02*
X245116366Y-54483976D01*
X245116366Y-54483976D02*
X245116366Y-54363024D01*
X245116366Y-54363024D02*
X245176842Y-54242071D01*
X245176842Y-54242071D02*
X245297795Y-54181595D01*
X245297795Y-54181595D02*
X245600176Y-54181595D01*
X245600176Y-54181595D02*
X245721128Y-54121119D01*
X246325890Y-54665405D02*
X246325890Y-53818738D01*
X246325890Y-54060643D02*
X246386367Y-53939690D01*
X246386367Y-53939690D02*
X246446843Y-53879214D01*
X246446843Y-53879214D02*
X246567795Y-53818738D01*
X246567795Y-53818738D02*
X246688748Y-53818738D01*
X246930652Y-53818738D02*
X247414461Y-53818738D01*
X247112080Y-53395405D02*
X247112080Y-54483976D01*
X247112080Y-54483976D02*
X247172557Y-54604929D01*
X247172557Y-54604929D02*
X247293509Y-54665405D01*
X247293509Y-54665405D02*
X247414461Y-54665405D01*
X218748746Y-56347177D02*
X219353508Y-56347177D01*
X218627794Y-56710034D02*
X219051127Y-55440034D01*
X219051127Y-55440034D02*
X219474461Y-56710034D01*
X219897793Y-56710034D02*
X219897793Y-55863367D01*
X219897793Y-56105272D02*
X219958270Y-55984319D01*
X219958270Y-55984319D02*
X220018746Y-55923843D01*
X220018746Y-55923843D02*
X220139698Y-55863367D01*
X220139698Y-55863367D02*
X220260651Y-55863367D01*
X220865412Y-56710034D02*
X220744460Y-56649558D01*
X220744460Y-56649558D02*
X220683983Y-56528605D01*
X220683983Y-56528605D02*
X220683983Y-55440034D01*
X221530650Y-56710034D02*
X221409698Y-56649558D01*
X221409698Y-56649558D02*
X221349221Y-56589081D01*
X221349221Y-56589081D02*
X221288745Y-56468129D01*
X221288745Y-56468129D02*
X221288745Y-56105272D01*
X221288745Y-56105272D02*
X221349221Y-55984319D01*
X221349221Y-55984319D02*
X221409698Y-55923843D01*
X221409698Y-55923843D02*
X221530650Y-55863367D01*
X221530650Y-55863367D02*
X221712079Y-55863367D01*
X221712079Y-55863367D02*
X221833031Y-55923843D01*
X221833031Y-55923843D02*
X221893507Y-55984319D01*
X221893507Y-55984319D02*
X221953983Y-56105272D01*
X221953983Y-56105272D02*
X221953983Y-56468129D01*
X221953983Y-56468129D02*
X221893507Y-56589081D01*
X221893507Y-56589081D02*
X221833031Y-56649558D01*
X221833031Y-56649558D02*
X221712079Y-56710034D01*
X221712079Y-56710034D02*
X221530650Y-56710034D01*
X223405412Y-56649558D02*
X223586841Y-56710034D01*
X223586841Y-56710034D02*
X223889222Y-56710034D01*
X223889222Y-56710034D02*
X224010174Y-56649558D01*
X224010174Y-56649558D02*
X224070650Y-56589081D01*
X224070650Y-56589081D02*
X224131127Y-56468129D01*
X224131127Y-56468129D02*
X224131127Y-56347177D01*
X224131127Y-56347177D02*
X224070650Y-56226224D01*
X224070650Y-56226224D02*
X224010174Y-56165748D01*
X224010174Y-56165748D02*
X223889222Y-56105272D01*
X223889222Y-56105272D02*
X223647317Y-56044796D01*
X223647317Y-56044796D02*
X223526365Y-55984319D01*
X223526365Y-55984319D02*
X223465888Y-55923843D01*
X223465888Y-55923843D02*
X223405412Y-55802891D01*
X223405412Y-55802891D02*
X223405412Y-55681938D01*
X223405412Y-55681938D02*
X223465888Y-55560986D01*
X223465888Y-55560986D02*
X223526365Y-55500510D01*
X223526365Y-55500510D02*
X223647317Y-55440034D01*
X223647317Y-55440034D02*
X223949698Y-55440034D01*
X223949698Y-55440034D02*
X224131127Y-55500510D01*
X224675412Y-56710034D02*
X224675412Y-55863367D01*
X224675412Y-55440034D02*
X224614936Y-55500510D01*
X224614936Y-55500510D02*
X224675412Y-55560986D01*
X224675412Y-55560986D02*
X224735889Y-55500510D01*
X224735889Y-55500510D02*
X224675412Y-55440034D01*
X224675412Y-55440034D02*
X224675412Y-55560986D01*
X225763984Y-56649558D02*
X225643032Y-56710034D01*
X225643032Y-56710034D02*
X225401127Y-56710034D01*
X225401127Y-56710034D02*
X225280174Y-56649558D01*
X225280174Y-56649558D02*
X225219698Y-56528605D01*
X225219698Y-56528605D02*
X225219698Y-56044796D01*
X225219698Y-56044796D02*
X225280174Y-55923843D01*
X225280174Y-55923843D02*
X225401127Y-55863367D01*
X225401127Y-55863367D02*
X225643032Y-55863367D01*
X225643032Y-55863367D02*
X225763984Y-55923843D01*
X225763984Y-55923843D02*
X225824460Y-56044796D01*
X225824460Y-56044796D02*
X225824460Y-56165748D01*
X225824460Y-56165748D02*
X225219698Y-56286700D01*
X226368745Y-56710034D02*
X226368745Y-55863367D01*
X226368745Y-55984319D02*
X226429222Y-55923843D01*
X226429222Y-55923843D02*
X226550174Y-55863367D01*
X226550174Y-55863367D02*
X226731603Y-55863367D01*
X226731603Y-55863367D02*
X226852555Y-55923843D01*
X226852555Y-55923843D02*
X226913031Y-56044796D01*
X226913031Y-56044796D02*
X226913031Y-56710034D01*
X226913031Y-56044796D02*
X226973507Y-55923843D01*
X226973507Y-55923843D02*
X227094460Y-55863367D01*
X227094460Y-55863367D02*
X227275888Y-55863367D01*
X227275888Y-55863367D02*
X227396841Y-55923843D01*
X227396841Y-55923843D02*
X227457317Y-56044796D01*
X227457317Y-56044796D02*
X227457317Y-56710034D01*
X228001602Y-56649558D02*
X228122555Y-56710034D01*
X228122555Y-56710034D02*
X228364459Y-56710034D01*
X228364459Y-56710034D02*
X228485412Y-56649558D01*
X228485412Y-56649558D02*
X228545888Y-56528605D01*
X228545888Y-56528605D02*
X228545888Y-56468129D01*
X228545888Y-56468129D02*
X228485412Y-56347177D01*
X228485412Y-56347177D02*
X228364459Y-56286700D01*
X228364459Y-56286700D02*
X228183031Y-56286700D01*
X228183031Y-56286700D02*
X228062078Y-56226224D01*
X228062078Y-56226224D02*
X228001602Y-56105272D01*
X228001602Y-56105272D02*
X228001602Y-56044796D01*
X228001602Y-56044796D02*
X228062078Y-55923843D01*
X228062078Y-55923843D02*
X228183031Y-55863367D01*
X228183031Y-55863367D02*
X228364459Y-55863367D01*
X228364459Y-55863367D02*
X228485412Y-55923843D01*
X229573983Y-56649558D02*
X229453031Y-56710034D01*
X229453031Y-56710034D02*
X229211126Y-56710034D01*
X229211126Y-56710034D02*
X229090173Y-56649558D01*
X229090173Y-56649558D02*
X229029697Y-56528605D01*
X229029697Y-56528605D02*
X229029697Y-56044796D01*
X229029697Y-56044796D02*
X229090173Y-55923843D01*
X229090173Y-55923843D02*
X229211126Y-55863367D01*
X229211126Y-55863367D02*
X229453031Y-55863367D01*
X229453031Y-55863367D02*
X229573983Y-55923843D01*
X229573983Y-55923843D02*
X229634459Y-56044796D01*
X229634459Y-56044796D02*
X229634459Y-56165748D01*
X229634459Y-56165748D02*
X229029697Y-56286700D01*
X230178744Y-55863367D02*
X230178744Y-56710034D01*
X230178744Y-55984319D02*
X230239221Y-55923843D01*
X230239221Y-55923843D02*
X230360173Y-55863367D01*
X230360173Y-55863367D02*
X230541602Y-55863367D01*
X230541602Y-55863367D02*
X230662554Y-55923843D01*
X230662554Y-55923843D02*
X230723030Y-56044796D01*
X230723030Y-56044796D02*
X230723030Y-56710034D01*
X219534937Y-58633710D02*
X219474461Y-58694187D01*
X219474461Y-58694187D02*
X219293032Y-58754663D01*
X219293032Y-58754663D02*
X219172080Y-58754663D01*
X219172080Y-58754663D02*
X218990651Y-58694187D01*
X218990651Y-58694187D02*
X218869699Y-58573234D01*
X218869699Y-58573234D02*
X218809222Y-58452282D01*
X218809222Y-58452282D02*
X218748746Y-58210377D01*
X218748746Y-58210377D02*
X218748746Y-58028948D01*
X218748746Y-58028948D02*
X218809222Y-57787044D01*
X218809222Y-57787044D02*
X218869699Y-57666091D01*
X218869699Y-57666091D02*
X218990651Y-57545139D01*
X218990651Y-57545139D02*
X219172080Y-57484663D01*
X219172080Y-57484663D02*
X219293032Y-57484663D01*
X219293032Y-57484663D02*
X219474461Y-57545139D01*
X219474461Y-57545139D02*
X219534937Y-57605615D01*
X220623508Y-58754663D02*
X220623508Y-58089425D01*
X220623508Y-58089425D02*
X220563032Y-57968472D01*
X220563032Y-57968472D02*
X220442080Y-57907996D01*
X220442080Y-57907996D02*
X220200175Y-57907996D01*
X220200175Y-57907996D02*
X220079222Y-57968472D01*
X220623508Y-58694187D02*
X220502556Y-58754663D01*
X220502556Y-58754663D02*
X220200175Y-58754663D01*
X220200175Y-58754663D02*
X220079222Y-58694187D01*
X220079222Y-58694187D02*
X220018746Y-58573234D01*
X220018746Y-58573234D02*
X220018746Y-58452282D01*
X220018746Y-58452282D02*
X220079222Y-58331329D01*
X220079222Y-58331329D02*
X220200175Y-58270853D01*
X220200175Y-58270853D02*
X220502556Y-58270853D01*
X220502556Y-58270853D02*
X220623508Y-58210377D01*
X221409699Y-58754663D02*
X221288747Y-58694187D01*
X221288747Y-58694187D02*
X221228270Y-58573234D01*
X221228270Y-58573234D02*
X221228270Y-57484663D01*
X222377318Y-58694187D02*
X222256366Y-58754663D01*
X222256366Y-58754663D02*
X222014461Y-58754663D01*
X222014461Y-58754663D02*
X221893508Y-58694187D01*
X221893508Y-58694187D02*
X221833032Y-58573234D01*
X221833032Y-58573234D02*
X221833032Y-58089425D01*
X221833032Y-58089425D02*
X221893508Y-57968472D01*
X221893508Y-57968472D02*
X222014461Y-57907996D01*
X222014461Y-57907996D02*
X222256366Y-57907996D01*
X222256366Y-57907996D02*
X222377318Y-57968472D01*
X222377318Y-57968472D02*
X222437794Y-58089425D01*
X222437794Y-58089425D02*
X222437794Y-58210377D01*
X222437794Y-58210377D02*
X221833032Y-58331329D01*
X222982079Y-58754663D02*
X222982079Y-57484663D01*
X222982079Y-57968472D02*
X223103032Y-57907996D01*
X223103032Y-57907996D02*
X223344937Y-57907996D01*
X223344937Y-57907996D02*
X223465889Y-57968472D01*
X223465889Y-57968472D02*
X223526365Y-58028948D01*
X223526365Y-58028948D02*
X223586841Y-58149901D01*
X223586841Y-58149901D02*
X223586841Y-58512758D01*
X223586841Y-58512758D02*
X223526365Y-58633710D01*
X223526365Y-58633710D02*
X223465889Y-58694187D01*
X223465889Y-58694187D02*
X223344937Y-58754663D01*
X223344937Y-58754663D02*
X223103032Y-58754663D01*
X223103032Y-58754663D02*
X222982079Y-58694187D01*
X225763985Y-57545139D02*
X225643032Y-57484663D01*
X225643032Y-57484663D02*
X225461604Y-57484663D01*
X225461604Y-57484663D02*
X225280175Y-57545139D01*
X225280175Y-57545139D02*
X225159223Y-57666091D01*
X225159223Y-57666091D02*
X225098746Y-57787044D01*
X225098746Y-57787044D02*
X225038270Y-58028948D01*
X225038270Y-58028948D02*
X225038270Y-58210377D01*
X225038270Y-58210377D02*
X225098746Y-58452282D01*
X225098746Y-58452282D02*
X225159223Y-58573234D01*
X225159223Y-58573234D02*
X225280175Y-58694187D01*
X225280175Y-58694187D02*
X225461604Y-58754663D01*
X225461604Y-58754663D02*
X225582556Y-58754663D01*
X225582556Y-58754663D02*
X225763985Y-58694187D01*
X225763985Y-58694187D02*
X225824461Y-58633710D01*
X225824461Y-58633710D02*
X225824461Y-58210377D01*
X225824461Y-58210377D02*
X225582556Y-58210377D01*
X226852556Y-58694187D02*
X226731604Y-58754663D01*
X226731604Y-58754663D02*
X226489699Y-58754663D01*
X226489699Y-58754663D02*
X226368746Y-58694187D01*
X226368746Y-58694187D02*
X226308270Y-58573234D01*
X226308270Y-58573234D02*
X226308270Y-58089425D01*
X226308270Y-58089425D02*
X226368746Y-57968472D01*
X226368746Y-57968472D02*
X226489699Y-57907996D01*
X226489699Y-57907996D02*
X226731604Y-57907996D01*
X226731604Y-57907996D02*
X226852556Y-57968472D01*
X226852556Y-57968472D02*
X226913032Y-58089425D01*
X226913032Y-58089425D02*
X226913032Y-58210377D01*
X226913032Y-58210377D02*
X226308270Y-58331329D01*
X227457317Y-57907996D02*
X227457317Y-58754663D01*
X227457317Y-58028948D02*
X227517794Y-57968472D01*
X227517794Y-57968472D02*
X227638746Y-57907996D01*
X227638746Y-57907996D02*
X227820175Y-57907996D01*
X227820175Y-57907996D02*
X227941127Y-57968472D01*
X227941127Y-57968472D02*
X228001603Y-58089425D01*
X228001603Y-58089425D02*
X228001603Y-58754663D01*
X228606365Y-58754663D02*
X228606365Y-57484663D01*
X229150651Y-58754663D02*
X229150651Y-58089425D01*
X229150651Y-58089425D02*
X229090175Y-57968472D01*
X229090175Y-57968472D02*
X228969223Y-57907996D01*
X228969223Y-57907996D02*
X228787794Y-57907996D01*
X228787794Y-57907996D02*
X228666842Y-57968472D01*
X228666842Y-57968472D02*
X228606365Y-58028948D01*
X230239223Y-58694187D02*
X230118271Y-58754663D01*
X230118271Y-58754663D02*
X229876366Y-58754663D01*
X229876366Y-58754663D02*
X229755413Y-58694187D01*
X229755413Y-58694187D02*
X229694937Y-58573234D01*
X229694937Y-58573234D02*
X229694937Y-58089425D01*
X229694937Y-58089425D02*
X229755413Y-57968472D01*
X229755413Y-57968472D02*
X229876366Y-57907996D01*
X229876366Y-57907996D02*
X230118271Y-57907996D01*
X230118271Y-57907996D02*
X230239223Y-57968472D01*
X230239223Y-57968472D02*
X230299699Y-58089425D01*
X230299699Y-58089425D02*
X230299699Y-58210377D01*
X230299699Y-58210377D02*
X229694937Y-58331329D01*
X230843984Y-58754663D02*
X230843984Y-57907996D01*
X230843984Y-57484663D02*
X230783508Y-57545139D01*
X230783508Y-57545139D02*
X230843984Y-57605615D01*
X230843984Y-57605615D02*
X230904461Y-57545139D01*
X230904461Y-57545139D02*
X230843984Y-57484663D01*
X230843984Y-57484663D02*
X230843984Y-57605615D01*
X231448746Y-58754663D02*
X231448746Y-57907996D01*
X231448746Y-58028948D02*
X231509223Y-57968472D01*
X231509223Y-57968472D02*
X231630175Y-57907996D01*
X231630175Y-57907996D02*
X231811604Y-57907996D01*
X231811604Y-57907996D02*
X231932556Y-57968472D01*
X231932556Y-57968472D02*
X231993032Y-58089425D01*
X231993032Y-58089425D02*
X231993032Y-58754663D01*
X231993032Y-58089425D02*
X232053508Y-57968472D01*
X232053508Y-57968472D02*
X232174461Y-57907996D01*
X232174461Y-57907996D02*
X232355889Y-57907996D01*
X232355889Y-57907996D02*
X232476842Y-57968472D01*
X232476842Y-57968472D02*
X232537318Y-58089425D01*
X232537318Y-58089425D02*
X232537318Y-58754663D01*
X233625889Y-58694187D02*
X233504937Y-58754663D01*
X233504937Y-58754663D02*
X233263032Y-58754663D01*
X233263032Y-58754663D02*
X233142079Y-58694187D01*
X233142079Y-58694187D02*
X233081603Y-58573234D01*
X233081603Y-58573234D02*
X233081603Y-58089425D01*
X233081603Y-58089425D02*
X233142079Y-57968472D01*
X233142079Y-57968472D02*
X233263032Y-57907996D01*
X233263032Y-57907996D02*
X233504937Y-57907996D01*
X233504937Y-57907996D02*
X233625889Y-57968472D01*
X233625889Y-57968472D02*
X233686365Y-58089425D01*
X233686365Y-58089425D02*
X233686365Y-58210377D01*
X233686365Y-58210377D02*
X233081603Y-58331329D01*
X234230650Y-58754663D02*
X234230650Y-57907996D01*
X234230650Y-58149901D02*
X234291127Y-58028948D01*
X234291127Y-58028948D02*
X234351603Y-57968472D01*
X234351603Y-57968472D02*
X234472555Y-57907996D01*
X234472555Y-57907996D02*
X234593508Y-57907996D01*
X218748746Y-59650244D02*
X218809222Y-59589768D01*
X218809222Y-59589768D02*
X218930175Y-59529292D01*
X218930175Y-59529292D02*
X219232556Y-59529292D01*
X219232556Y-59529292D02*
X219353508Y-59589768D01*
X219353508Y-59589768D02*
X219413984Y-59650244D01*
X219413984Y-59650244D02*
X219474461Y-59771196D01*
X219474461Y-59771196D02*
X219474461Y-59892149D01*
X219474461Y-59892149D02*
X219413984Y-60073577D01*
X219413984Y-60073577D02*
X218688270Y-60799292D01*
X218688270Y-60799292D02*
X219474461Y-60799292D01*
X220260651Y-59529292D02*
X220381604Y-59529292D01*
X220381604Y-59529292D02*
X220502556Y-59589768D01*
X220502556Y-59589768D02*
X220563032Y-59650244D01*
X220563032Y-59650244D02*
X220623508Y-59771196D01*
X220623508Y-59771196D02*
X220683985Y-60013101D01*
X220683985Y-60013101D02*
X220683985Y-60315482D01*
X220683985Y-60315482D02*
X220623508Y-60557387D01*
X220623508Y-60557387D02*
X220563032Y-60678339D01*
X220563032Y-60678339D02*
X220502556Y-60738816D01*
X220502556Y-60738816D02*
X220381604Y-60799292D01*
X220381604Y-60799292D02*
X220260651Y-60799292D01*
X220260651Y-60799292D02*
X220139699Y-60738816D01*
X220139699Y-60738816D02*
X220079223Y-60678339D01*
X220079223Y-60678339D02*
X220018746Y-60557387D01*
X220018746Y-60557387D02*
X219958270Y-60315482D01*
X219958270Y-60315482D02*
X219958270Y-60013101D01*
X219958270Y-60013101D02*
X220018746Y-59771196D01*
X220018746Y-59771196D02*
X220079223Y-59650244D01*
X220079223Y-59650244D02*
X220139699Y-59589768D01*
X220139699Y-59589768D02*
X220260651Y-59529292D01*
X221167794Y-59650244D02*
X221228270Y-59589768D01*
X221228270Y-59589768D02*
X221349223Y-59529292D01*
X221349223Y-59529292D02*
X221651604Y-59529292D01*
X221651604Y-59529292D02*
X221772556Y-59589768D01*
X221772556Y-59589768D02*
X221833032Y-59650244D01*
X221833032Y-59650244D02*
X221893509Y-59771196D01*
X221893509Y-59771196D02*
X221893509Y-59892149D01*
X221893509Y-59892149D02*
X221833032Y-60073577D01*
X221833032Y-60073577D02*
X221107318Y-60799292D01*
X221107318Y-60799292D02*
X221893509Y-60799292D01*
X222982080Y-59952625D02*
X222982080Y-60799292D01*
X222679699Y-59468816D02*
X222377318Y-60375958D01*
X222377318Y-60375958D02*
X223163509Y-60375958D01*
D11*
X162614819Y-59181904D02*
X163424342Y-59181904D01*
X163424342Y-59181904D02*
X163519580Y-59134285D01*
X163519580Y-59134285D02*
X163567200Y-59086666D01*
X163567200Y-59086666D02*
X163614819Y-58991428D01*
X163614819Y-58991428D02*
X163614819Y-58800952D01*
X163614819Y-58800952D02*
X163567200Y-58705714D01*
X163567200Y-58705714D02*
X163519580Y-58658095D01*
X163519580Y-58658095D02*
X163424342Y-58610476D01*
X163424342Y-58610476D02*
X162614819Y-58610476D01*
X163614819Y-57610476D02*
X163614819Y-58181904D01*
X163614819Y-57896190D02*
X162614819Y-57896190D01*
X162614819Y-57896190D02*
X162757676Y-57991428D01*
X162757676Y-57991428D02*
X162852914Y-58086666D01*
X162852914Y-58086666D02*
X162900533Y-58181904D01*
X235794819Y-75881428D02*
X235318628Y-76214761D01*
X235794819Y-76452856D02*
X234794819Y-76452856D01*
X234794819Y-76452856D02*
X234794819Y-76071904D01*
X234794819Y-76071904D02*
X234842438Y-75976666D01*
X234842438Y-75976666D02*
X234890057Y-75929047D01*
X234890057Y-75929047D02*
X234985295Y-75881428D01*
X234985295Y-75881428D02*
X235128152Y-75881428D01*
X235128152Y-75881428D02*
X235223390Y-75929047D01*
X235223390Y-75929047D02*
X235271009Y-75976666D01*
X235271009Y-75976666D02*
X235318628Y-76071904D01*
X235318628Y-76071904D02*
X235318628Y-76452856D01*
X234794819Y-75595713D02*
X235794819Y-75262380D01*
X235794819Y-75262380D02*
X234794819Y-74929047D01*
X235794819Y-74071904D02*
X235794819Y-74643332D01*
X235794819Y-74357618D02*
X234794819Y-74357618D01*
X234794819Y-74357618D02*
X234937676Y-74452856D01*
X234937676Y-74452856D02*
X235032914Y-74548094D01*
X235032914Y-74548094D02*
X235080533Y-74643332D01*
X234890057Y-73690951D02*
X234842438Y-73643332D01*
X234842438Y-73643332D02*
X234794819Y-73548094D01*
X234794819Y-73548094D02*
X234794819Y-73309999D01*
X234794819Y-73309999D02*
X234842438Y-73214761D01*
X234842438Y-73214761D02*
X234890057Y-73167142D01*
X234890057Y-73167142D02*
X234985295Y-73119523D01*
X234985295Y-73119523D02*
X235080533Y-73119523D01*
X235080533Y-73119523D02*
X235223390Y-73167142D01*
X235223390Y-73167142D02*
X235794819Y-73738570D01*
X235794819Y-73738570D02*
X235794819Y-73119523D01*
X199594819Y-75881428D02*
X199118628Y-76214761D01*
X199594819Y-76452856D02*
X198594819Y-76452856D01*
X198594819Y-76452856D02*
X198594819Y-76071904D01*
X198594819Y-76071904D02*
X198642438Y-75976666D01*
X198642438Y-75976666D02*
X198690057Y-75929047D01*
X198690057Y-75929047D02*
X198785295Y-75881428D01*
X198785295Y-75881428D02*
X198928152Y-75881428D01*
X198928152Y-75881428D02*
X199023390Y-75929047D01*
X199023390Y-75929047D02*
X199071009Y-75976666D01*
X199071009Y-75976666D02*
X199118628Y-76071904D01*
X199118628Y-76071904D02*
X199118628Y-76452856D01*
X198594819Y-75595713D02*
X199594819Y-75262380D01*
X199594819Y-75262380D02*
X198594819Y-74929047D01*
X199594819Y-74071904D02*
X199594819Y-74643332D01*
X199594819Y-74357618D02*
X198594819Y-74357618D01*
X198594819Y-74357618D02*
X198737676Y-74452856D01*
X198737676Y-74452856D02*
X198832914Y-74548094D01*
X198832914Y-74548094D02*
X198880533Y-74643332D01*
X199594819Y-73119523D02*
X199594819Y-73690951D01*
X199594819Y-73405237D02*
X198594819Y-73405237D01*
X198594819Y-73405237D02*
X198737676Y-73500475D01*
X198737676Y-73500475D02*
X198832914Y-73595713D01*
X198832914Y-73595713D02*
X198880533Y-73690951D01*
X163394819Y-75881428D02*
X162918628Y-76214761D01*
X163394819Y-76452856D02*
X162394819Y-76452856D01*
X162394819Y-76452856D02*
X162394819Y-76071904D01*
X162394819Y-76071904D02*
X162442438Y-75976666D01*
X162442438Y-75976666D02*
X162490057Y-75929047D01*
X162490057Y-75929047D02*
X162585295Y-75881428D01*
X162585295Y-75881428D02*
X162728152Y-75881428D01*
X162728152Y-75881428D02*
X162823390Y-75929047D01*
X162823390Y-75929047D02*
X162871009Y-75976666D01*
X162871009Y-75976666D02*
X162918628Y-76071904D01*
X162918628Y-76071904D02*
X162918628Y-76452856D01*
X162394819Y-75595713D02*
X163394819Y-75262380D01*
X163394819Y-75262380D02*
X162394819Y-74929047D01*
X163394819Y-74071904D02*
X163394819Y-74643332D01*
X163394819Y-74357618D02*
X162394819Y-74357618D01*
X162394819Y-74357618D02*
X162537676Y-74452856D01*
X162537676Y-74452856D02*
X162632914Y-74548094D01*
X162632914Y-74548094D02*
X162680533Y-74643332D01*
X162394819Y-73452856D02*
X162394819Y-73357618D01*
X162394819Y-73357618D02*
X162442438Y-73262380D01*
X162442438Y-73262380D02*
X162490057Y-73214761D01*
X162490057Y-73214761D02*
X162585295Y-73167142D01*
X162585295Y-73167142D02*
X162775771Y-73119523D01*
X162775771Y-73119523D02*
X163013866Y-73119523D01*
X163013866Y-73119523D02*
X163204342Y-73167142D01*
X163204342Y-73167142D02*
X163299580Y-73214761D01*
X163299580Y-73214761D02*
X163347200Y-73262380D01*
X163347200Y-73262380D02*
X163394819Y-73357618D01*
X163394819Y-73357618D02*
X163394819Y-73452856D01*
X163394819Y-73452856D02*
X163347200Y-73548094D01*
X163347200Y-73548094D02*
X163299580Y-73595713D01*
X163299580Y-73595713D02*
X163204342Y-73643332D01*
X163204342Y-73643332D02*
X163013866Y-73690951D01*
X163013866Y-73690951D02*
X162775771Y-73690951D01*
X162775771Y-73690951D02*
X162585295Y-73643332D01*
X162585295Y-73643332D02*
X162490057Y-73595713D01*
X162490057Y-73595713D02*
X162442438Y-73548094D01*
X162442438Y-73548094D02*
X162394819Y-73452856D01*
X127194819Y-75405238D02*
X126718628Y-75738571D01*
X127194819Y-75976666D02*
X126194819Y-75976666D01*
X126194819Y-75976666D02*
X126194819Y-75595714D01*
X126194819Y-75595714D02*
X126242438Y-75500476D01*
X126242438Y-75500476D02*
X126290057Y-75452857D01*
X126290057Y-75452857D02*
X126385295Y-75405238D01*
X126385295Y-75405238D02*
X126528152Y-75405238D01*
X126528152Y-75405238D02*
X126623390Y-75452857D01*
X126623390Y-75452857D02*
X126671009Y-75500476D01*
X126671009Y-75500476D02*
X126718628Y-75595714D01*
X126718628Y-75595714D02*
X126718628Y-75976666D01*
X126194819Y-75119523D02*
X127194819Y-74786190D01*
X127194819Y-74786190D02*
X126194819Y-74452857D01*
X127194819Y-74071904D02*
X127194819Y-73881428D01*
X127194819Y-73881428D02*
X127147200Y-73786190D01*
X127147200Y-73786190D02*
X127099580Y-73738571D01*
X127099580Y-73738571D02*
X126956723Y-73643333D01*
X126956723Y-73643333D02*
X126766247Y-73595714D01*
X126766247Y-73595714D02*
X126385295Y-73595714D01*
X126385295Y-73595714D02*
X126290057Y-73643333D01*
X126290057Y-73643333D02*
X126242438Y-73690952D01*
X126242438Y-73690952D02*
X126194819Y-73786190D01*
X126194819Y-73786190D02*
X126194819Y-73976666D01*
X126194819Y-73976666D02*
X126242438Y-74071904D01*
X126242438Y-74071904D02*
X126290057Y-74119523D01*
X126290057Y-74119523D02*
X126385295Y-74167142D01*
X126385295Y-74167142D02*
X126623390Y-74167142D01*
X126623390Y-74167142D02*
X126718628Y-74119523D01*
X126718628Y-74119523D02*
X126766247Y-74071904D01*
X126766247Y-74071904D02*
X126813866Y-73976666D01*
X126813866Y-73976666D02*
X126813866Y-73786190D01*
X126813866Y-73786190D02*
X126766247Y-73690952D01*
X126766247Y-73690952D02*
X126718628Y-73643333D01*
X126718628Y-73643333D02*
X126623390Y-73595714D01*
X90994819Y-75405238D02*
X90518628Y-75738571D01*
X90994819Y-75976666D02*
X89994819Y-75976666D01*
X89994819Y-75976666D02*
X89994819Y-75595714D01*
X89994819Y-75595714D02*
X90042438Y-75500476D01*
X90042438Y-75500476D02*
X90090057Y-75452857D01*
X90090057Y-75452857D02*
X90185295Y-75405238D01*
X90185295Y-75405238D02*
X90328152Y-75405238D01*
X90328152Y-75405238D02*
X90423390Y-75452857D01*
X90423390Y-75452857D02*
X90471009Y-75500476D01*
X90471009Y-75500476D02*
X90518628Y-75595714D01*
X90518628Y-75595714D02*
X90518628Y-75976666D01*
X89994819Y-75119523D02*
X90994819Y-74786190D01*
X90994819Y-74786190D02*
X89994819Y-74452857D01*
X90423390Y-73976666D02*
X90375771Y-74071904D01*
X90375771Y-74071904D02*
X90328152Y-74119523D01*
X90328152Y-74119523D02*
X90232914Y-74167142D01*
X90232914Y-74167142D02*
X90185295Y-74167142D01*
X90185295Y-74167142D02*
X90090057Y-74119523D01*
X90090057Y-74119523D02*
X90042438Y-74071904D01*
X90042438Y-74071904D02*
X89994819Y-73976666D01*
X89994819Y-73976666D02*
X89994819Y-73786190D01*
X89994819Y-73786190D02*
X90042438Y-73690952D01*
X90042438Y-73690952D02*
X90090057Y-73643333D01*
X90090057Y-73643333D02*
X90185295Y-73595714D01*
X90185295Y-73595714D02*
X90232914Y-73595714D01*
X90232914Y-73595714D02*
X90328152Y-73643333D01*
X90328152Y-73643333D02*
X90375771Y-73690952D01*
X90375771Y-73690952D02*
X90423390Y-73786190D01*
X90423390Y-73786190D02*
X90423390Y-73976666D01*
X90423390Y-73976666D02*
X90471009Y-74071904D01*
X90471009Y-74071904D02*
X90518628Y-74119523D01*
X90518628Y-74119523D02*
X90613866Y-74167142D01*
X90613866Y-74167142D02*
X90804342Y-74167142D01*
X90804342Y-74167142D02*
X90899580Y-74119523D01*
X90899580Y-74119523D02*
X90947200Y-74071904D01*
X90947200Y-74071904D02*
X90994819Y-73976666D01*
X90994819Y-73976666D02*
X90994819Y-73786190D01*
X90994819Y-73786190D02*
X90947200Y-73690952D01*
X90947200Y-73690952D02*
X90899580Y-73643333D01*
X90899580Y-73643333D02*
X90804342Y-73595714D01*
X90804342Y-73595714D02*
X90613866Y-73595714D01*
X90613866Y-73595714D02*
X90518628Y-73643333D01*
X90518628Y-73643333D02*
X90471009Y-73690952D01*
X90471009Y-73690952D02*
X90423390Y-73786190D01*
X54794819Y-75405238D02*
X54318628Y-75738571D01*
X54794819Y-75976666D02*
X53794819Y-75976666D01*
X53794819Y-75976666D02*
X53794819Y-75595714D01*
X53794819Y-75595714D02*
X53842438Y-75500476D01*
X53842438Y-75500476D02*
X53890057Y-75452857D01*
X53890057Y-75452857D02*
X53985295Y-75405238D01*
X53985295Y-75405238D02*
X54128152Y-75405238D01*
X54128152Y-75405238D02*
X54223390Y-75452857D01*
X54223390Y-75452857D02*
X54271009Y-75500476D01*
X54271009Y-75500476D02*
X54318628Y-75595714D01*
X54318628Y-75595714D02*
X54318628Y-75976666D01*
X53794819Y-75119523D02*
X54794819Y-74786190D01*
X54794819Y-74786190D02*
X53794819Y-74452857D01*
X53794819Y-74214761D02*
X53794819Y-73548095D01*
X53794819Y-73548095D02*
X54794819Y-73976666D01*
X235794819Y-38090238D02*
X235318628Y-38423571D01*
X235794819Y-38661666D02*
X234794819Y-38661666D01*
X234794819Y-38661666D02*
X234794819Y-38280714D01*
X234794819Y-38280714D02*
X234842438Y-38185476D01*
X234842438Y-38185476D02*
X234890057Y-38137857D01*
X234890057Y-38137857D02*
X234985295Y-38090238D01*
X234985295Y-38090238D02*
X235128152Y-38090238D01*
X235128152Y-38090238D02*
X235223390Y-38137857D01*
X235223390Y-38137857D02*
X235271009Y-38185476D01*
X235271009Y-38185476D02*
X235318628Y-38280714D01*
X235318628Y-38280714D02*
X235318628Y-38661666D01*
X234794819Y-37804523D02*
X235794819Y-37471190D01*
X235794819Y-37471190D02*
X234794819Y-37137857D01*
X234794819Y-36375952D02*
X234794819Y-36566428D01*
X234794819Y-36566428D02*
X234842438Y-36661666D01*
X234842438Y-36661666D02*
X234890057Y-36709285D01*
X234890057Y-36709285D02*
X235032914Y-36804523D01*
X235032914Y-36804523D02*
X235223390Y-36852142D01*
X235223390Y-36852142D02*
X235604342Y-36852142D01*
X235604342Y-36852142D02*
X235699580Y-36804523D01*
X235699580Y-36804523D02*
X235747200Y-36756904D01*
X235747200Y-36756904D02*
X235794819Y-36661666D01*
X235794819Y-36661666D02*
X235794819Y-36471190D01*
X235794819Y-36471190D02*
X235747200Y-36375952D01*
X235747200Y-36375952D02*
X235699580Y-36328333D01*
X235699580Y-36328333D02*
X235604342Y-36280714D01*
X235604342Y-36280714D02*
X235366247Y-36280714D01*
X235366247Y-36280714D02*
X235271009Y-36328333D01*
X235271009Y-36328333D02*
X235223390Y-36375952D01*
X235223390Y-36375952D02*
X235175771Y-36471190D01*
X235175771Y-36471190D02*
X235175771Y-36661666D01*
X235175771Y-36661666D02*
X235223390Y-36756904D01*
X235223390Y-36756904D02*
X235271009Y-36804523D01*
X235271009Y-36804523D02*
X235366247Y-36852142D01*
X199594819Y-38090238D02*
X199118628Y-38423571D01*
X199594819Y-38661666D02*
X198594819Y-38661666D01*
X198594819Y-38661666D02*
X198594819Y-38280714D01*
X198594819Y-38280714D02*
X198642438Y-38185476D01*
X198642438Y-38185476D02*
X198690057Y-38137857D01*
X198690057Y-38137857D02*
X198785295Y-38090238D01*
X198785295Y-38090238D02*
X198928152Y-38090238D01*
X198928152Y-38090238D02*
X199023390Y-38137857D01*
X199023390Y-38137857D02*
X199071009Y-38185476D01*
X199071009Y-38185476D02*
X199118628Y-38280714D01*
X199118628Y-38280714D02*
X199118628Y-38661666D01*
X198594819Y-37804523D02*
X199594819Y-37471190D01*
X199594819Y-37471190D02*
X198594819Y-37137857D01*
X198594819Y-36328333D02*
X198594819Y-36804523D01*
X198594819Y-36804523D02*
X199071009Y-36852142D01*
X199071009Y-36852142D02*
X199023390Y-36804523D01*
X199023390Y-36804523D02*
X198975771Y-36709285D01*
X198975771Y-36709285D02*
X198975771Y-36471190D01*
X198975771Y-36471190D02*
X199023390Y-36375952D01*
X199023390Y-36375952D02*
X199071009Y-36328333D01*
X199071009Y-36328333D02*
X199166247Y-36280714D01*
X199166247Y-36280714D02*
X199404342Y-36280714D01*
X199404342Y-36280714D02*
X199499580Y-36328333D01*
X199499580Y-36328333D02*
X199547200Y-36375952D01*
X199547200Y-36375952D02*
X199594819Y-36471190D01*
X199594819Y-36471190D02*
X199594819Y-36709285D01*
X199594819Y-36709285D02*
X199547200Y-36804523D01*
X199547200Y-36804523D02*
X199499580Y-36852142D01*
X163394819Y-38090238D02*
X162918628Y-38423571D01*
X163394819Y-38661666D02*
X162394819Y-38661666D01*
X162394819Y-38661666D02*
X162394819Y-38280714D01*
X162394819Y-38280714D02*
X162442438Y-38185476D01*
X162442438Y-38185476D02*
X162490057Y-38137857D01*
X162490057Y-38137857D02*
X162585295Y-38090238D01*
X162585295Y-38090238D02*
X162728152Y-38090238D01*
X162728152Y-38090238D02*
X162823390Y-38137857D01*
X162823390Y-38137857D02*
X162871009Y-38185476D01*
X162871009Y-38185476D02*
X162918628Y-38280714D01*
X162918628Y-38280714D02*
X162918628Y-38661666D01*
X162394819Y-37804523D02*
X163394819Y-37471190D01*
X163394819Y-37471190D02*
X162394819Y-37137857D01*
X162728152Y-36375952D02*
X163394819Y-36375952D01*
X162347200Y-36614047D02*
X163061485Y-36852142D01*
X163061485Y-36852142D02*
X163061485Y-36233095D01*
X127194819Y-38090238D02*
X126718628Y-38423571D01*
X127194819Y-38661666D02*
X126194819Y-38661666D01*
X126194819Y-38661666D02*
X126194819Y-38280714D01*
X126194819Y-38280714D02*
X126242438Y-38185476D01*
X126242438Y-38185476D02*
X126290057Y-38137857D01*
X126290057Y-38137857D02*
X126385295Y-38090238D01*
X126385295Y-38090238D02*
X126528152Y-38090238D01*
X126528152Y-38090238D02*
X126623390Y-38137857D01*
X126623390Y-38137857D02*
X126671009Y-38185476D01*
X126671009Y-38185476D02*
X126718628Y-38280714D01*
X126718628Y-38280714D02*
X126718628Y-38661666D01*
X126194819Y-37804523D02*
X127194819Y-37471190D01*
X127194819Y-37471190D02*
X126194819Y-37137857D01*
X126194819Y-36899761D02*
X126194819Y-36280714D01*
X126194819Y-36280714D02*
X126575771Y-36614047D01*
X126575771Y-36614047D02*
X126575771Y-36471190D01*
X126575771Y-36471190D02*
X126623390Y-36375952D01*
X126623390Y-36375952D02*
X126671009Y-36328333D01*
X126671009Y-36328333D02*
X126766247Y-36280714D01*
X126766247Y-36280714D02*
X127004342Y-36280714D01*
X127004342Y-36280714D02*
X127099580Y-36328333D01*
X127099580Y-36328333D02*
X127147200Y-36375952D01*
X127147200Y-36375952D02*
X127194819Y-36471190D01*
X127194819Y-36471190D02*
X127194819Y-36756904D01*
X127194819Y-36756904D02*
X127147200Y-36852142D01*
X127147200Y-36852142D02*
X127099580Y-36899761D01*
X90994819Y-38090238D02*
X90518628Y-38423571D01*
X90994819Y-38661666D02*
X89994819Y-38661666D01*
X89994819Y-38661666D02*
X89994819Y-38280714D01*
X89994819Y-38280714D02*
X90042438Y-38185476D01*
X90042438Y-38185476D02*
X90090057Y-38137857D01*
X90090057Y-38137857D02*
X90185295Y-38090238D01*
X90185295Y-38090238D02*
X90328152Y-38090238D01*
X90328152Y-38090238D02*
X90423390Y-38137857D01*
X90423390Y-38137857D02*
X90471009Y-38185476D01*
X90471009Y-38185476D02*
X90518628Y-38280714D01*
X90518628Y-38280714D02*
X90518628Y-38661666D01*
X89994819Y-37804523D02*
X90994819Y-37471190D01*
X90994819Y-37471190D02*
X89994819Y-37137857D01*
X90090057Y-36852142D02*
X90042438Y-36804523D01*
X90042438Y-36804523D02*
X89994819Y-36709285D01*
X89994819Y-36709285D02*
X89994819Y-36471190D01*
X89994819Y-36471190D02*
X90042438Y-36375952D01*
X90042438Y-36375952D02*
X90090057Y-36328333D01*
X90090057Y-36328333D02*
X90185295Y-36280714D01*
X90185295Y-36280714D02*
X90280533Y-36280714D01*
X90280533Y-36280714D02*
X90423390Y-36328333D01*
X90423390Y-36328333D02*
X90994819Y-36899761D01*
X90994819Y-36899761D02*
X90994819Y-36280714D01*
X54794819Y-38090238D02*
X54318628Y-38423571D01*
X54794819Y-38661666D02*
X53794819Y-38661666D01*
X53794819Y-38661666D02*
X53794819Y-38280714D01*
X53794819Y-38280714D02*
X53842438Y-38185476D01*
X53842438Y-38185476D02*
X53890057Y-38137857D01*
X53890057Y-38137857D02*
X53985295Y-38090238D01*
X53985295Y-38090238D02*
X54128152Y-38090238D01*
X54128152Y-38090238D02*
X54223390Y-38137857D01*
X54223390Y-38137857D02*
X54271009Y-38185476D01*
X54271009Y-38185476D02*
X54318628Y-38280714D01*
X54318628Y-38280714D02*
X54318628Y-38661666D01*
X53794819Y-37804523D02*
X54794819Y-37471190D01*
X54794819Y-37471190D02*
X53794819Y-37137857D01*
X54794819Y-36280714D02*
X54794819Y-36852142D01*
X54794819Y-36566428D02*
X53794819Y-36566428D01*
X53794819Y-36566428D02*
X53937676Y-36661666D01*
X53937676Y-36661666D02*
X54032914Y-36756904D01*
X54032914Y-36756904D02*
X54080533Y-36852142D01*
X83653333Y-47509580D02*
X83605714Y-47557200D01*
X83605714Y-47557200D02*
X83462857Y-47604819D01*
X83462857Y-47604819D02*
X83367619Y-47604819D01*
X83367619Y-47604819D02*
X83224762Y-47557200D01*
X83224762Y-47557200D02*
X83129524Y-47461961D01*
X83129524Y-47461961D02*
X83081905Y-47366723D01*
X83081905Y-47366723D02*
X83034286Y-47176247D01*
X83034286Y-47176247D02*
X83034286Y-47033390D01*
X83034286Y-47033390D02*
X83081905Y-46842914D01*
X83081905Y-46842914D02*
X83129524Y-46747676D01*
X83129524Y-46747676D02*
X83224762Y-46652438D01*
X83224762Y-46652438D02*
X83367619Y-46604819D01*
X83367619Y-46604819D02*
X83462857Y-46604819D01*
X83462857Y-46604819D02*
X83605714Y-46652438D01*
X83605714Y-46652438D02*
X83653333Y-46700057D01*
X84034286Y-46700057D02*
X84081905Y-46652438D01*
X84081905Y-46652438D02*
X84177143Y-46604819D01*
X84177143Y-46604819D02*
X84415238Y-46604819D01*
X84415238Y-46604819D02*
X84510476Y-46652438D01*
X84510476Y-46652438D02*
X84558095Y-46700057D01*
X84558095Y-46700057D02*
X84605714Y-46795295D01*
X84605714Y-46795295D02*
X84605714Y-46890533D01*
X84605714Y-46890533D02*
X84558095Y-47033390D01*
X84558095Y-47033390D02*
X83986667Y-47604819D01*
X83986667Y-47604819D02*
X84605714Y-47604819D01*
X164525833Y-66559580D02*
X164478214Y-66607200D01*
X164478214Y-66607200D02*
X164335357Y-66654819D01*
X164335357Y-66654819D02*
X164240119Y-66654819D01*
X164240119Y-66654819D02*
X164097262Y-66607200D01*
X164097262Y-66607200D02*
X164002024Y-66511961D01*
X164002024Y-66511961D02*
X163954405Y-66416723D01*
X163954405Y-66416723D02*
X163906786Y-66226247D01*
X163906786Y-66226247D02*
X163906786Y-66083390D01*
X163906786Y-66083390D02*
X163954405Y-65892914D01*
X163954405Y-65892914D02*
X164002024Y-65797676D01*
X164002024Y-65797676D02*
X164097262Y-65702438D01*
X164097262Y-65702438D02*
X164240119Y-65654819D01*
X164240119Y-65654819D02*
X164335357Y-65654819D01*
X164335357Y-65654819D02*
X164478214Y-65702438D01*
X164478214Y-65702438D02*
X164525833Y-65750057D01*
X165478214Y-66654819D02*
X164906786Y-66654819D01*
X165192500Y-66654819D02*
X165192500Y-65654819D01*
X165192500Y-65654819D02*
X165097262Y-65797676D01*
X165097262Y-65797676D02*
X165002024Y-65892914D01*
X165002024Y-65892914D02*
X164906786Y-65940533D01*
D12*
%TO.C,U1*%
X162320000Y-54560000D02*
X162055000Y-54560000D01*
X146700000Y-54560000D02*
X146965000Y-54560000D01*
X162320000Y-58420000D02*
X162320000Y-54560000D01*
X162320000Y-58420000D02*
X162320000Y-62280000D01*
X146700000Y-58420000D02*
X146700000Y-54560000D01*
X146700000Y-58420000D02*
X146700000Y-62280000D01*
X162320000Y-62280000D02*
X162055000Y-62280000D01*
X146700000Y-62280000D02*
X146965000Y-62280000D01*
X162525000Y-54047500D02*
X162055000Y-53707500D01*
X162525000Y-53367500D01*
X162525000Y-54047500D01*
G36*
X162525000Y-54047500D02*
G01*
X162055000Y-53707500D01*
X162525000Y-53367500D01*
X162525000Y-54047500D01*
G37*
%TO.C,RV12*%
X238030000Y-80280000D02*
X238030000Y-75560000D01*
X239210000Y-80280000D02*
X238030000Y-80280000D01*
X242110000Y-80280000D02*
X241580000Y-80280000D01*
X244560000Y-80280000D02*
X243730000Y-80280000D01*
X247770000Y-80280000D02*
X246280000Y-80280000D01*
X247770000Y-80280000D02*
X247770000Y-75560000D01*
X238030000Y-71750000D02*
X238030000Y-68690000D01*
X247770000Y-71750000D02*
X247770000Y-68690000D01*
X247770000Y-68690000D02*
X238030000Y-68690000D01*
%TO.C,RV11*%
X211570000Y-68690000D02*
X201830000Y-68690000D01*
X211570000Y-71750000D02*
X211570000Y-68690000D01*
X201830000Y-71750000D02*
X201830000Y-68690000D01*
X211570000Y-80280000D02*
X211570000Y-75560000D01*
X211570000Y-80280000D02*
X210080000Y-80280000D01*
X208360000Y-80280000D02*
X207530000Y-80280000D01*
X205910000Y-80280000D02*
X205380000Y-80280000D01*
X203010000Y-80280000D02*
X201830000Y-80280000D01*
X201830000Y-80280000D02*
X201830000Y-75560000D01*
%TO.C,RV10*%
X165630000Y-80280000D02*
X165630000Y-75560000D01*
X166810000Y-80280000D02*
X165630000Y-80280000D01*
X169710000Y-80280000D02*
X169180000Y-80280000D01*
X172160000Y-80280000D02*
X171330000Y-80280000D01*
X175370000Y-80280000D02*
X173880000Y-80280000D01*
X175370000Y-80280000D02*
X175370000Y-75560000D01*
X165630000Y-71750000D02*
X165630000Y-68690000D01*
X175370000Y-71750000D02*
X175370000Y-68690000D01*
X175370000Y-68690000D02*
X165630000Y-68690000D01*
%TO.C,RV9*%
X129430000Y-80280000D02*
X129430000Y-75560000D01*
X130610000Y-80280000D02*
X129430000Y-80280000D01*
X133510000Y-80280000D02*
X132980000Y-80280000D01*
X135960000Y-80280000D02*
X135130000Y-80280000D01*
X139170000Y-80280000D02*
X137680000Y-80280000D01*
X139170000Y-80280000D02*
X139170000Y-75560000D01*
X129430000Y-71750000D02*
X129430000Y-68690000D01*
X139170000Y-71750000D02*
X139170000Y-68690000D01*
X139170000Y-68690000D02*
X129430000Y-68690000D01*
%TO.C,RV8*%
X93230000Y-80280000D02*
X93230000Y-75560000D01*
X94410000Y-80280000D02*
X93230000Y-80280000D01*
X97310000Y-80280000D02*
X96780000Y-80280000D01*
X99760000Y-80280000D02*
X98930000Y-80280000D01*
X102970000Y-80280000D02*
X101480000Y-80280000D01*
X102970000Y-80280000D02*
X102970000Y-75560000D01*
X93230000Y-71750000D02*
X93230000Y-68690000D01*
X102970000Y-71750000D02*
X102970000Y-68690000D01*
X102970000Y-68690000D02*
X93230000Y-68690000D01*
%TO.C,RV7*%
X66770000Y-68690000D02*
X57030000Y-68690000D01*
X66770000Y-71750000D02*
X66770000Y-68690000D01*
X57030000Y-71750000D02*
X57030000Y-68690000D01*
X66770000Y-80280000D02*
X66770000Y-75560000D01*
X66770000Y-80280000D02*
X65280000Y-80280000D01*
X63560000Y-80280000D02*
X62730000Y-80280000D01*
X61110000Y-80280000D02*
X60580000Y-80280000D01*
X58210000Y-80280000D02*
X57030000Y-80280000D01*
X57030000Y-80280000D02*
X57030000Y-75560000D01*
%TO.C,RV6*%
X238030000Y-42965000D02*
X238030000Y-38245000D01*
X239210000Y-42965000D02*
X238030000Y-42965000D01*
X242110000Y-42965000D02*
X241580000Y-42965000D01*
X244560000Y-42965000D02*
X243730000Y-42965000D01*
X247770000Y-42965000D02*
X246280000Y-42965000D01*
X247770000Y-42965000D02*
X247770000Y-38245000D01*
X238030000Y-34435000D02*
X238030000Y-31375000D01*
X247770000Y-34435000D02*
X247770000Y-31375000D01*
X247770000Y-31375000D02*
X238030000Y-31375000D01*
%TO.C,RV5*%
X201830000Y-42965000D02*
X201830000Y-38245000D01*
X203010000Y-42965000D02*
X201830000Y-42965000D01*
X205910000Y-42965000D02*
X205380000Y-42965000D01*
X208360000Y-42965000D02*
X207530000Y-42965000D01*
X211570000Y-42965000D02*
X210080000Y-42965000D01*
X211570000Y-42965000D02*
X211570000Y-38245000D01*
X201830000Y-34435000D02*
X201830000Y-31375000D01*
X211570000Y-34435000D02*
X211570000Y-31375000D01*
X211570000Y-31375000D02*
X201830000Y-31375000D01*
%TO.C,RV4*%
X165630000Y-42965000D02*
X165630000Y-38245000D01*
X166810000Y-42965000D02*
X165630000Y-42965000D01*
X169710000Y-42965000D02*
X169180000Y-42965000D01*
X172160000Y-42965000D02*
X171330000Y-42965000D01*
X175370000Y-42965000D02*
X173880000Y-42965000D01*
X175370000Y-42965000D02*
X175370000Y-38245000D01*
X165630000Y-34435000D02*
X165630000Y-31375000D01*
X175370000Y-34435000D02*
X175370000Y-31375000D01*
X175370000Y-31375000D02*
X165630000Y-31375000D01*
%TO.C,RV3*%
X129430000Y-42965000D02*
X129430000Y-38245000D01*
X130610000Y-42965000D02*
X129430000Y-42965000D01*
X133510000Y-42965000D02*
X132980000Y-42965000D01*
X135960000Y-42965000D02*
X135130000Y-42965000D01*
X139170000Y-42965000D02*
X137680000Y-42965000D01*
X139170000Y-42965000D02*
X139170000Y-38245000D01*
X129430000Y-34435000D02*
X129430000Y-31375000D01*
X139170000Y-34435000D02*
X139170000Y-31375000D01*
X139170000Y-31375000D02*
X129430000Y-31375000D01*
%TO.C,RV2*%
X102970000Y-31375000D02*
X93230000Y-31375000D01*
X102970000Y-34435000D02*
X102970000Y-31375000D01*
X93230000Y-34435000D02*
X93230000Y-31375000D01*
X102970000Y-42965000D02*
X102970000Y-38245000D01*
X102970000Y-42965000D02*
X101480000Y-42965000D01*
X99760000Y-42965000D02*
X98930000Y-42965000D01*
X97310000Y-42965000D02*
X96780000Y-42965000D01*
X94410000Y-42965000D02*
X93230000Y-42965000D01*
X93230000Y-42965000D02*
X93230000Y-38245000D01*
%TO.C,RV1*%
X66770000Y-31375000D02*
X57030000Y-31375000D01*
X66770000Y-34435000D02*
X66770000Y-31375000D01*
X57030000Y-34435000D02*
X57030000Y-31375000D01*
X66770000Y-42965000D02*
X66770000Y-38245000D01*
X66770000Y-42965000D02*
X65280000Y-42965000D01*
X63560000Y-42965000D02*
X62730000Y-42965000D01*
X61110000Y-42965000D02*
X60580000Y-42965000D01*
X58210000Y-42965000D02*
X57030000Y-42965000D01*
X57030000Y-42965000D02*
X57030000Y-38245000D01*
%TO.C,C2*%
X83966267Y-46230000D02*
X83673733Y-46230000D01*
X83966267Y-45210000D02*
X83673733Y-45210000D01*
%TO.C,C1*%
X164838767Y-65280000D02*
X164546233Y-65280000D01*
X164838767Y-64260000D02*
X164546233Y-64260000D01*
%TD*%
M02*
