%TF.GenerationSoftware,KiCad,Pcbnew,8.0.1*%
%TF.CreationDate,2024-06-25T20:54:33-05:00*%
%TF.ProjectId,nobs,6e6f6273-2e6b-4696-9361-645f70636258,rev?*%
%TF.SameCoordinates,Original*%
%TF.FileFunction,Copper,L2,Bot*%
%TF.FilePolarity,Positive*%
%FSLAX46Y46*%
G04 Gerber Fmt 4.6, Leading zero omitted, Abs format (unit mm)*
G04 Created by KiCad (PCBNEW 8.0.1) date 2024-06-25 20:54:33*
%MOMM*%
%LPD*%
G01*
G04 APERTURE LIST*
%TA.AperFunction,ComponentPad*%
%ADD10R,1.600000X1.600000*%
%TD*%
%TA.AperFunction,ComponentPad*%
%ADD11O,1.600000X1.600000*%
%TD*%
%TA.AperFunction,ComponentPad*%
%ADD12O,2.720000X3.240000*%
%TD*%
%TA.AperFunction,ComponentPad*%
%ADD13R,1.800000X1.800000*%
%TD*%
%TA.AperFunction,ComponentPad*%
%ADD14C,1.800000*%
%TD*%
%TA.AperFunction,ViaPad*%
%ADD15C,0.600000*%
%TD*%
%TA.AperFunction,Conductor*%
%ADD16C,0.200000*%
%TD*%
G04 APERTURE END LIST*
D10*
%TO.P,A1,1,D1/TX*%
%TO.N,unconnected-(A1-D1{slash}TX-Pad1)*%
X91440000Y-66040000D03*
D11*
%TO.P,A1,2,D0/RX*%
%TO.N,unconnected-(A1-D0{slash}RX-Pad2)*%
X88900000Y-66040000D03*
%TO.P,A1,3,~{RESET}*%
%TO.N,unconnected-(A1-~{RESET}-Pad3)*%
X86360000Y-66040000D03*
%TO.P,A1,4,GND*%
%TO.N,GND*%
X83820000Y-66040000D03*
%TO.P,A1,5,D2*%
%TO.N,/S0*%
X81280000Y-66040000D03*
%TO.P,A1,6,D3*%
%TO.N,/S1*%
X78740000Y-66040000D03*
%TO.P,A1,7,D4*%
%TO.N,/S2*%
X76200000Y-66040000D03*
%TO.P,A1,8,D5*%
%TO.N,/S3*%
X73660000Y-66040000D03*
%TO.P,A1,9,D6*%
%TO.N,unconnected-(A1-D6-Pad9)*%
X71120000Y-66040000D03*
%TO.P,A1,10,D7*%
%TO.N,unconnected-(A1-D7-Pad10)*%
X68580000Y-66040000D03*
%TO.P,A1,11,D8*%
%TO.N,unconnected-(A1-D8-Pad11)*%
X66040000Y-66040000D03*
%TO.P,A1,12,D9*%
%TO.N,unconnected-(A1-D9-Pad12)*%
X63500000Y-66040000D03*
%TO.P,A1,13,D10*%
%TO.N,unconnected-(A1-D10-Pad13)*%
X60960000Y-66040000D03*
%TO.P,A1,14,D11*%
%TO.N,unconnected-(A1-D11-Pad14)*%
X58420000Y-66040000D03*
%TO.P,A1,15,D12*%
%TO.N,unconnected-(A1-D12-Pad15)*%
X55880000Y-66040000D03*
%TO.P,A1,16,D13*%
%TO.N,unconnected-(A1-D13-Pad16)*%
X55880000Y-50800000D03*
%TO.P,A1,17,3V3*%
%TO.N,unconnected-(A1-3V3-Pad17)*%
X58420000Y-50800000D03*
%TO.P,A1,18,AREF*%
%TO.N,unconnected-(A1-AREF-Pad18)*%
X60960000Y-50800000D03*
%TO.P,A1,19,A0*%
%TO.N,Net-(A1-A0)*%
X63500000Y-50800000D03*
%TO.P,A1,20,A1*%
%TO.N,unconnected-(A1-A1-Pad20)*%
X66040000Y-50800000D03*
%TO.P,A1,21,A2*%
%TO.N,unconnected-(A1-A2-Pad21)*%
X68580000Y-50800000D03*
%TO.P,A1,22,A3*%
%TO.N,unconnected-(A1-A3-Pad22)*%
X71120000Y-50800000D03*
%TO.P,A1,23,A4*%
%TO.N,unconnected-(A1-A4-Pad23)*%
X73660000Y-50800000D03*
%TO.P,A1,24,A5*%
%TO.N,unconnected-(A1-A5-Pad24)*%
X76200000Y-50800000D03*
%TO.P,A1,25,A6*%
%TO.N,unconnected-(A1-A6-Pad25)*%
X78740000Y-50800000D03*
%TO.P,A1,26,A7*%
%TO.N,unconnected-(A1-A7-Pad26)*%
X81280000Y-50800000D03*
%TO.P,A1,27,+5V*%
%TO.N,+5V*%
X83820000Y-50800000D03*
%TO.P,A1,28,~{RESET}*%
%TO.N,unconnected-(A1-~{RESET}-Pad28)*%
X86360000Y-50800000D03*
%TO.P,A1,29,GND*%
%TO.N,GND*%
X88900000Y-50800000D03*
%TO.P,A1,30,VIN*%
%TO.N,unconnected-(A1-VIN-Pad30)*%
X91440000Y-50800000D03*
%TD*%
D12*
%TO.P,RV12,*%
%TO.N,*%
X238150000Y-73660000D03*
X247650000Y-73660000D03*
D13*
%TO.P,RV12,1,1*%
%TO.N,+5V*%
X240400000Y-81160000D03*
D14*
%TO.P,RV12,2,2*%
%TO.N,Net-(U1-I11)*%
X242900000Y-81160000D03*
%TO.P,RV12,3,3*%
%TO.N,GND*%
X245400000Y-81160000D03*
%TO.P,RV12,4*%
%TO.N,N/C*%
X240400000Y-83660000D03*
%TO.P,RV12,5*%
X242900000Y-83660000D03*
%TO.P,RV12,6*%
X245400000Y-83660000D03*
%TD*%
%TO.P,RV11,6*%
%TO.N,N/C*%
X209200000Y-83660000D03*
%TO.P,RV11,5*%
X206700000Y-83660000D03*
%TO.P,RV11,4*%
X204200000Y-83660000D03*
%TO.P,RV11,3,3*%
%TO.N,GND*%
X209200000Y-81160000D03*
%TO.P,RV11,2,2*%
%TO.N,Net-(U1-I10)*%
X206700000Y-81160000D03*
D13*
%TO.P,RV11,1,1*%
%TO.N,+5V*%
X204200000Y-81160000D03*
D12*
%TO.P,RV11,*%
%TO.N,*%
X211450000Y-73660000D03*
X201950000Y-73660000D03*
%TD*%
%TO.P,RV10,*%
%TO.N,*%
X165750000Y-73660000D03*
X175250000Y-73660000D03*
D13*
%TO.P,RV10,1,1*%
%TO.N,+5V*%
X168000000Y-81160000D03*
D14*
%TO.P,RV10,2,2*%
%TO.N,Net-(U1-I9)*%
X170500000Y-81160000D03*
%TO.P,RV10,3,3*%
%TO.N,GND*%
X173000000Y-81160000D03*
%TO.P,RV10,4*%
%TO.N,N/C*%
X168000000Y-83660000D03*
%TO.P,RV10,5*%
X170500000Y-83660000D03*
%TO.P,RV10,6*%
X173000000Y-83660000D03*
%TD*%
D12*
%TO.P,RV9,*%
%TO.N,*%
X129550000Y-73660000D03*
X139050000Y-73660000D03*
D13*
%TO.P,RV9,1,1*%
%TO.N,+5V*%
X131800000Y-81160000D03*
D14*
%TO.P,RV9,2,2*%
%TO.N,Net-(U1-I8)*%
X134300000Y-81160000D03*
%TO.P,RV9,3,3*%
%TO.N,GND*%
X136800000Y-81160000D03*
%TO.P,RV9,4*%
%TO.N,N/C*%
X131800000Y-83660000D03*
%TO.P,RV9,5*%
X134300000Y-83660000D03*
%TO.P,RV9,6*%
X136800000Y-83660000D03*
%TD*%
D12*
%TO.P,RV8,*%
%TO.N,*%
X93350000Y-73660000D03*
X102850000Y-73660000D03*
D13*
%TO.P,RV8,1,1*%
%TO.N,+5V*%
X95600000Y-81160000D03*
D14*
%TO.P,RV8,2,2*%
%TO.N,Net-(U1-I7)*%
X98100000Y-81160000D03*
%TO.P,RV8,3,3*%
%TO.N,GND*%
X100600000Y-81160000D03*
%TO.P,RV8,4*%
%TO.N,N/C*%
X95600000Y-83660000D03*
%TO.P,RV8,5*%
X98100000Y-83660000D03*
%TO.P,RV8,6*%
X100600000Y-83660000D03*
%TD*%
%TO.P,RV7,6*%
%TO.N,N/C*%
X64400000Y-83660000D03*
%TO.P,RV7,5*%
X61900000Y-83660000D03*
%TO.P,RV7,4*%
X59400000Y-83660000D03*
%TO.P,RV7,3,3*%
%TO.N,GND*%
X64400000Y-81160000D03*
%TO.P,RV7,2,2*%
%TO.N,Net-(U1-I0)*%
X61900000Y-81160000D03*
D13*
%TO.P,RV7,1,1*%
%TO.N,+5V*%
X59400000Y-81160000D03*
D12*
%TO.P,RV7,*%
%TO.N,*%
X66650000Y-73660000D03*
X57150000Y-73660000D03*
%TD*%
%TO.P,RV6,*%
%TO.N,*%
X238150000Y-36345000D03*
X247650000Y-36345000D03*
D13*
%TO.P,RV6,1,1*%
%TO.N,+5V*%
X240400000Y-43845000D03*
D14*
%TO.P,RV6,2,2*%
%TO.N,Net-(U1-I1)*%
X242900000Y-43845000D03*
%TO.P,RV6,3,3*%
%TO.N,GND*%
X245400000Y-43845000D03*
%TO.P,RV6,4*%
%TO.N,N/C*%
X240400000Y-46345000D03*
%TO.P,RV6,5*%
X242900000Y-46345000D03*
%TO.P,RV6,6*%
X245400000Y-46345000D03*
%TD*%
D12*
%TO.P,RV5,*%
%TO.N,*%
X201950000Y-36345000D03*
X211450000Y-36345000D03*
D13*
%TO.P,RV5,1,1*%
%TO.N,+5V*%
X204200000Y-43845000D03*
D14*
%TO.P,RV5,2,2*%
%TO.N,Net-(U1-I6)*%
X206700000Y-43845000D03*
%TO.P,RV5,3,3*%
%TO.N,GND*%
X209200000Y-43845000D03*
%TO.P,RV5,4*%
%TO.N,N/C*%
X204200000Y-46345000D03*
%TO.P,RV5,5*%
X206700000Y-46345000D03*
%TO.P,RV5,6*%
X209200000Y-46345000D03*
%TD*%
D12*
%TO.P,RV4,*%
%TO.N,*%
X165750000Y-36345000D03*
X175250000Y-36345000D03*
D13*
%TO.P,RV4,1,1*%
%TO.N,+5V*%
X168000000Y-43845000D03*
D14*
%TO.P,RV4,2,2*%
%TO.N,Net-(U1-I5)*%
X170500000Y-43845000D03*
%TO.P,RV4,3,3*%
%TO.N,GND*%
X173000000Y-43845000D03*
%TO.P,RV4,4*%
%TO.N,N/C*%
X168000000Y-46345000D03*
%TO.P,RV4,5*%
X170500000Y-46345000D03*
%TO.P,RV4,6*%
X173000000Y-46345000D03*
%TD*%
D12*
%TO.P,RV3,*%
%TO.N,*%
X129550000Y-36345000D03*
X139050000Y-36345000D03*
D13*
%TO.P,RV3,1,1*%
%TO.N,+5V*%
X131800000Y-43845000D03*
D14*
%TO.P,RV3,2,2*%
%TO.N,Net-(U1-I4)*%
X134300000Y-43845000D03*
%TO.P,RV3,3,3*%
%TO.N,GND*%
X136800000Y-43845000D03*
%TO.P,RV3,4*%
%TO.N,N/C*%
X131800000Y-46345000D03*
%TO.P,RV3,5*%
X134300000Y-46345000D03*
%TO.P,RV3,6*%
X136800000Y-46345000D03*
%TD*%
%TO.P,RV2,6*%
%TO.N,N/C*%
X100600000Y-46345000D03*
%TO.P,RV2,5*%
X98100000Y-46345000D03*
%TO.P,RV2,4*%
X95600000Y-46345000D03*
%TO.P,RV2,3,3*%
%TO.N,GND*%
X100600000Y-43845000D03*
%TO.P,RV2,2,2*%
%TO.N,Net-(U1-I3)*%
X98100000Y-43845000D03*
D13*
%TO.P,RV2,1,1*%
%TO.N,+5V*%
X95600000Y-43845000D03*
D12*
%TO.P,RV2,*%
%TO.N,*%
X102850000Y-36345000D03*
X93350000Y-36345000D03*
%TD*%
D14*
%TO.P,RV1,6*%
%TO.N,N/C*%
X64400000Y-46345000D03*
%TO.P,RV1,5*%
X61900000Y-46345000D03*
%TO.P,RV1,4*%
X59400000Y-46345000D03*
%TO.P,RV1,3,3*%
%TO.N,GND*%
X64400000Y-43845000D03*
%TO.P,RV1,2,2*%
%TO.N,Net-(U1-I2)*%
X61900000Y-43845000D03*
D13*
%TO.P,RV1,1,1*%
%TO.N,+5V*%
X59400000Y-43845000D03*
D12*
%TO.P,RV1,*%
%TO.N,*%
X66650000Y-36345000D03*
X57150000Y-36345000D03*
%TD*%
D15*
%TO.N,GND*%
X167640000Y-64770000D03*
%TO.N,Net-(A1-A0)*%
X151130000Y-49530000D03*
X163830000Y-53340000D03*
%TO.N,GND*%
X144780000Y-54610000D03*
X149860000Y-66040000D03*
%TO.N,Net-(U1-I7)*%
X99060000Y-69850000D03*
X99060000Y-62230000D03*
%TO.N,Net-(U1-I4)*%
X153670000Y-45720000D03*
X151130000Y-45720000D03*
%TO.N,Net-(U1-I3)*%
X151130000Y-46990000D03*
X153670000Y-46990000D03*
%TO.N,Net-(U1-I2)*%
X153670000Y-48260000D03*
X151130000Y-48260000D03*
%TO.N,/S3*%
X87630000Y-62230000D03*
X80010000Y-62230000D03*
%TD*%
D16*
%TO.N,Net-(A1-A0)*%
X163830000Y-53340000D02*
X160020000Y-49530000D01*
X160020000Y-49530000D02*
X151130000Y-49530000D01*
%TO.N,Net-(U1-I7)*%
X99060000Y-62230000D02*
X99060000Y-69850000D01*
%TO.N,Net-(U1-I4)*%
X153670000Y-45720000D02*
X151130000Y-45720000D01*
%TO.N,Net-(U1-I3)*%
X153670000Y-46990000D02*
X151130000Y-46990000D01*
%TO.N,Net-(U1-I2)*%
X153670000Y-48260000D02*
X151130000Y-48260000D01*
%TO.N,/S3*%
X82550000Y-62230000D02*
X87630000Y-62230000D01*
X80010000Y-62230000D02*
X82550000Y-62230000D01*
%TD*%
%TA.AperFunction,Conductor*%
%TO.N,GND*%
G36*
X63934075Y-81352993D02*
G01*
X63999901Y-81467007D01*
X64092993Y-81560099D01*
X64207007Y-81625925D01*
X64270590Y-81642962D01*
X63601201Y-82312351D01*
X63601229Y-82312800D01*
X63641343Y-82368539D01*
X63645017Y-82438312D01*
X63610385Y-82498995D01*
X63600530Y-82507535D01*
X63448218Y-82626085D01*
X63448216Y-82626086D01*
X63448216Y-82626087D01*
X63358393Y-82723662D01*
X63291015Y-82796854D01*
X63253808Y-82853804D01*
X63200662Y-82899161D01*
X63131430Y-82908584D01*
X63068095Y-82879082D01*
X63046192Y-82853804D01*
X63008984Y-82796854D01*
X63008982Y-82796852D01*
X63008979Y-82796847D01*
X62851784Y-82626087D01*
X62699876Y-82507852D01*
X62659064Y-82451143D01*
X62655389Y-82381370D01*
X62690020Y-82320687D01*
X62699876Y-82312147D01*
X62851784Y-82193913D01*
X63008979Y-82023153D01*
X63046491Y-81965736D01*
X63099634Y-81920382D01*
X63168865Y-81910957D01*
X63232201Y-81940458D01*
X63246914Y-81957436D01*
X63248812Y-81957633D01*
X63917037Y-81289408D01*
X63934075Y-81352993D01*
G37*
%TD.AperFunction*%
%TA.AperFunction,Conductor*%
G36*
X100134075Y-81352993D02*
G01*
X100199901Y-81467007D01*
X100292993Y-81560099D01*
X100407007Y-81625925D01*
X100470590Y-81642962D01*
X99801201Y-82312351D01*
X99801229Y-82312800D01*
X99841343Y-82368539D01*
X99845017Y-82438312D01*
X99810385Y-82498995D01*
X99800530Y-82507535D01*
X99648218Y-82626085D01*
X99648216Y-82626086D01*
X99648216Y-82626087D01*
X99558393Y-82723662D01*
X99491015Y-82796854D01*
X99453808Y-82853804D01*
X99400662Y-82899161D01*
X99331430Y-82908584D01*
X99268095Y-82879082D01*
X99246192Y-82853804D01*
X99208984Y-82796854D01*
X99208982Y-82796852D01*
X99208979Y-82796847D01*
X99051784Y-82626087D01*
X98899876Y-82507852D01*
X98859064Y-82451143D01*
X98855389Y-82381370D01*
X98890020Y-82320687D01*
X98899876Y-82312147D01*
X99051784Y-82193913D01*
X99208979Y-82023153D01*
X99246491Y-81965736D01*
X99299634Y-81920382D01*
X99368865Y-81910957D01*
X99432201Y-81940458D01*
X99446914Y-81957436D01*
X99448812Y-81957633D01*
X100117037Y-81289408D01*
X100134075Y-81352993D01*
G37*
%TD.AperFunction*%
%TA.AperFunction,Conductor*%
G36*
X136334075Y-81352993D02*
G01*
X136399901Y-81467007D01*
X136492993Y-81560099D01*
X136607007Y-81625925D01*
X136670590Y-81642962D01*
X136001201Y-82312351D01*
X136001229Y-82312800D01*
X136041343Y-82368539D01*
X136045017Y-82438312D01*
X136010385Y-82498995D01*
X136000530Y-82507535D01*
X135848218Y-82626085D01*
X135848216Y-82626086D01*
X135848216Y-82626087D01*
X135758393Y-82723662D01*
X135691015Y-82796854D01*
X135653808Y-82853804D01*
X135600662Y-82899161D01*
X135531430Y-82908584D01*
X135468095Y-82879082D01*
X135446192Y-82853804D01*
X135408984Y-82796854D01*
X135408982Y-82796852D01*
X135408979Y-82796847D01*
X135251784Y-82626087D01*
X135099876Y-82507852D01*
X135059064Y-82451143D01*
X135055389Y-82381370D01*
X135090020Y-82320687D01*
X135099876Y-82312147D01*
X135251784Y-82193913D01*
X135408979Y-82023153D01*
X135446491Y-81965736D01*
X135499634Y-81920382D01*
X135568865Y-81910957D01*
X135632201Y-81940458D01*
X135646914Y-81957436D01*
X135648812Y-81957633D01*
X136317037Y-81289408D01*
X136334075Y-81352993D01*
G37*
%TD.AperFunction*%
%TA.AperFunction,Conductor*%
G36*
X172534075Y-81352993D02*
G01*
X172599901Y-81467007D01*
X172692993Y-81560099D01*
X172807007Y-81625925D01*
X172870590Y-81642962D01*
X172201201Y-82312351D01*
X172201229Y-82312800D01*
X172241343Y-82368539D01*
X172245017Y-82438312D01*
X172210385Y-82498995D01*
X172200530Y-82507535D01*
X172048218Y-82626085D01*
X172048216Y-82626086D01*
X172048216Y-82626087D01*
X171958393Y-82723662D01*
X171891015Y-82796854D01*
X171853808Y-82853804D01*
X171800662Y-82899161D01*
X171731430Y-82908584D01*
X171668095Y-82879082D01*
X171646192Y-82853804D01*
X171608984Y-82796854D01*
X171608982Y-82796852D01*
X171608979Y-82796847D01*
X171451784Y-82626087D01*
X171299876Y-82507852D01*
X171259064Y-82451143D01*
X171255389Y-82381370D01*
X171290020Y-82320687D01*
X171299876Y-82312147D01*
X171451784Y-82193913D01*
X171608979Y-82023153D01*
X171646491Y-81965736D01*
X171699634Y-81920382D01*
X171768865Y-81910957D01*
X171832201Y-81940458D01*
X171846914Y-81957436D01*
X171848812Y-81957633D01*
X172517037Y-81289408D01*
X172534075Y-81352993D01*
G37*
%TD.AperFunction*%
%TA.AperFunction,Conductor*%
G36*
X208734075Y-81352993D02*
G01*
X208799901Y-81467007D01*
X208892993Y-81560099D01*
X209007007Y-81625925D01*
X209070590Y-81642962D01*
X208401201Y-82312351D01*
X208401229Y-82312800D01*
X208441343Y-82368539D01*
X208445017Y-82438312D01*
X208410385Y-82498995D01*
X208400530Y-82507535D01*
X208248218Y-82626085D01*
X208248216Y-82626086D01*
X208248216Y-82626087D01*
X208158393Y-82723662D01*
X208091015Y-82796854D01*
X208053808Y-82853804D01*
X208000662Y-82899161D01*
X207931430Y-82908584D01*
X207868095Y-82879082D01*
X207846192Y-82853804D01*
X207808984Y-82796854D01*
X207808982Y-82796852D01*
X207808979Y-82796847D01*
X207651784Y-82626087D01*
X207499876Y-82507852D01*
X207459064Y-82451143D01*
X207455389Y-82381370D01*
X207490020Y-82320687D01*
X207499876Y-82312147D01*
X207651784Y-82193913D01*
X207808979Y-82023153D01*
X207846491Y-81965736D01*
X207899634Y-81920382D01*
X207968865Y-81910957D01*
X208032201Y-81940458D01*
X208046914Y-81957436D01*
X208048812Y-81957633D01*
X208717037Y-81289408D01*
X208734075Y-81352993D01*
G37*
%TD.AperFunction*%
%TA.AperFunction,Conductor*%
G36*
X244934075Y-81352993D02*
G01*
X244999901Y-81467007D01*
X245092993Y-81560099D01*
X245207007Y-81625925D01*
X245270590Y-81642962D01*
X244601201Y-82312351D01*
X244601229Y-82312800D01*
X244641343Y-82368539D01*
X244645017Y-82438312D01*
X244610385Y-82498995D01*
X244600530Y-82507535D01*
X244448218Y-82626085D01*
X244448216Y-82626086D01*
X244448216Y-82626087D01*
X244358393Y-82723662D01*
X244291015Y-82796854D01*
X244253808Y-82853804D01*
X244200662Y-82899161D01*
X244131430Y-82908584D01*
X244068095Y-82879082D01*
X244046192Y-82853804D01*
X244008984Y-82796854D01*
X244008982Y-82796852D01*
X244008979Y-82796847D01*
X243851784Y-82626087D01*
X243699876Y-82507852D01*
X243659064Y-82451143D01*
X243655389Y-82381370D01*
X243690020Y-82320687D01*
X243699876Y-82312147D01*
X243851784Y-82193913D01*
X244008979Y-82023153D01*
X244046491Y-81965736D01*
X244099634Y-81920382D01*
X244168865Y-81910957D01*
X244232201Y-81940458D01*
X244246914Y-81957436D01*
X244248812Y-81957633D01*
X244917037Y-81289408D01*
X244934075Y-81352993D01*
G37*
%TD.AperFunction*%
%TA.AperFunction,Conductor*%
G36*
X63934075Y-44037993D02*
G01*
X63999901Y-44152007D01*
X64092993Y-44245099D01*
X64207007Y-44310925D01*
X64270590Y-44327962D01*
X63601201Y-44997351D01*
X63601229Y-44997800D01*
X63641343Y-45053539D01*
X63645017Y-45123312D01*
X63610385Y-45183995D01*
X63600530Y-45192535D01*
X63448218Y-45311085D01*
X63448216Y-45311086D01*
X63448216Y-45311087D01*
X63358393Y-45408662D01*
X63291015Y-45481854D01*
X63253808Y-45538804D01*
X63200662Y-45584161D01*
X63131430Y-45593584D01*
X63068095Y-45564082D01*
X63046192Y-45538804D01*
X63008984Y-45481854D01*
X63008982Y-45481852D01*
X63008979Y-45481847D01*
X62851784Y-45311087D01*
X62699876Y-45192852D01*
X62659064Y-45136143D01*
X62655389Y-45066370D01*
X62690020Y-45005687D01*
X62699876Y-44997147D01*
X62851784Y-44878913D01*
X63008979Y-44708153D01*
X63046491Y-44650736D01*
X63099634Y-44605382D01*
X63168865Y-44595957D01*
X63232201Y-44625458D01*
X63246914Y-44642436D01*
X63248812Y-44642633D01*
X63917037Y-43974408D01*
X63934075Y-44037993D01*
G37*
%TD.AperFunction*%
%TA.AperFunction,Conductor*%
G36*
X100134075Y-44037993D02*
G01*
X100199901Y-44152007D01*
X100292993Y-44245099D01*
X100407007Y-44310925D01*
X100470590Y-44327962D01*
X99801201Y-44997351D01*
X99801229Y-44997800D01*
X99841343Y-45053539D01*
X99845017Y-45123312D01*
X99810385Y-45183995D01*
X99800530Y-45192535D01*
X99648218Y-45311085D01*
X99648216Y-45311086D01*
X99648216Y-45311087D01*
X99558393Y-45408662D01*
X99491015Y-45481854D01*
X99453808Y-45538804D01*
X99400662Y-45584161D01*
X99331430Y-45593584D01*
X99268095Y-45564082D01*
X99246192Y-45538804D01*
X99208984Y-45481854D01*
X99208982Y-45481852D01*
X99208979Y-45481847D01*
X99051784Y-45311087D01*
X98899876Y-45192852D01*
X98859064Y-45136143D01*
X98855389Y-45066370D01*
X98890020Y-45005687D01*
X98899876Y-44997147D01*
X99051784Y-44878913D01*
X99208979Y-44708153D01*
X99246491Y-44650736D01*
X99299634Y-44605382D01*
X99368865Y-44595957D01*
X99432201Y-44625458D01*
X99446914Y-44642436D01*
X99448812Y-44642633D01*
X100117037Y-43974408D01*
X100134075Y-44037993D01*
G37*
%TD.AperFunction*%
%TA.AperFunction,Conductor*%
G36*
X136334075Y-44037993D02*
G01*
X136399901Y-44152007D01*
X136492993Y-44245099D01*
X136607007Y-44310925D01*
X136670590Y-44327962D01*
X136001201Y-44997351D01*
X136001229Y-44997800D01*
X136041343Y-45053539D01*
X136045017Y-45123312D01*
X136010385Y-45183995D01*
X136000530Y-45192535D01*
X135848218Y-45311085D01*
X135848216Y-45311086D01*
X135848216Y-45311087D01*
X135758393Y-45408662D01*
X135691015Y-45481854D01*
X135653808Y-45538804D01*
X135600662Y-45584161D01*
X135531430Y-45593584D01*
X135468095Y-45564082D01*
X135446192Y-45538804D01*
X135408984Y-45481854D01*
X135408982Y-45481852D01*
X135408979Y-45481847D01*
X135251784Y-45311087D01*
X135099876Y-45192852D01*
X135059064Y-45136143D01*
X135055389Y-45066370D01*
X135090020Y-45005687D01*
X135099876Y-44997147D01*
X135251784Y-44878913D01*
X135408979Y-44708153D01*
X135446491Y-44650736D01*
X135499634Y-44605382D01*
X135568865Y-44595957D01*
X135632201Y-44625458D01*
X135646914Y-44642436D01*
X135648812Y-44642633D01*
X136317037Y-43974408D01*
X136334075Y-44037993D01*
G37*
%TD.AperFunction*%
%TA.AperFunction,Conductor*%
G36*
X172534075Y-44037993D02*
G01*
X172599901Y-44152007D01*
X172692993Y-44245099D01*
X172807007Y-44310925D01*
X172870590Y-44327962D01*
X172201201Y-44997351D01*
X172201229Y-44997800D01*
X172241343Y-45053539D01*
X172245017Y-45123312D01*
X172210385Y-45183995D01*
X172200530Y-45192535D01*
X172048218Y-45311085D01*
X172048216Y-45311086D01*
X172048216Y-45311087D01*
X171958393Y-45408662D01*
X171891015Y-45481854D01*
X171853808Y-45538804D01*
X171800662Y-45584161D01*
X171731430Y-45593584D01*
X171668095Y-45564082D01*
X171646192Y-45538804D01*
X171608984Y-45481854D01*
X171608982Y-45481852D01*
X171608979Y-45481847D01*
X171451784Y-45311087D01*
X171299876Y-45192852D01*
X171259064Y-45136143D01*
X171255389Y-45066370D01*
X171290020Y-45005687D01*
X171299876Y-44997147D01*
X171451784Y-44878913D01*
X171608979Y-44708153D01*
X171646491Y-44650736D01*
X171699634Y-44605382D01*
X171768865Y-44595957D01*
X171832201Y-44625458D01*
X171846914Y-44642436D01*
X171848812Y-44642633D01*
X172517037Y-43974408D01*
X172534075Y-44037993D01*
G37*
%TD.AperFunction*%
%TA.AperFunction,Conductor*%
G36*
X208734075Y-44037993D02*
G01*
X208799901Y-44152007D01*
X208892993Y-44245099D01*
X209007007Y-44310925D01*
X209070590Y-44327962D01*
X208401201Y-44997351D01*
X208401229Y-44997800D01*
X208441343Y-45053539D01*
X208445017Y-45123312D01*
X208410385Y-45183995D01*
X208400530Y-45192535D01*
X208248218Y-45311085D01*
X208248216Y-45311086D01*
X208248216Y-45311087D01*
X208158393Y-45408662D01*
X208091015Y-45481854D01*
X208053808Y-45538804D01*
X208000662Y-45584161D01*
X207931430Y-45593584D01*
X207868095Y-45564082D01*
X207846192Y-45538804D01*
X207808984Y-45481854D01*
X207808982Y-45481852D01*
X207808979Y-45481847D01*
X207651784Y-45311087D01*
X207499876Y-45192852D01*
X207459064Y-45136143D01*
X207455389Y-45066370D01*
X207490020Y-45005687D01*
X207499876Y-44997147D01*
X207651784Y-44878913D01*
X207808979Y-44708153D01*
X207846491Y-44650736D01*
X207899634Y-44605382D01*
X207968865Y-44595957D01*
X208032201Y-44625458D01*
X208046914Y-44642436D01*
X208048812Y-44642633D01*
X208717037Y-43974408D01*
X208734075Y-44037993D01*
G37*
%TD.AperFunction*%
%TA.AperFunction,Conductor*%
G36*
X244934075Y-44037993D02*
G01*
X244999901Y-44152007D01*
X245092993Y-44245099D01*
X245207007Y-44310925D01*
X245270590Y-44327962D01*
X244601201Y-44997351D01*
X244601229Y-44997800D01*
X244641343Y-45053539D01*
X244645017Y-45123312D01*
X244610385Y-45183995D01*
X244600530Y-45192535D01*
X244448218Y-45311085D01*
X244448216Y-45311086D01*
X244448216Y-45311087D01*
X244358393Y-45408662D01*
X244291015Y-45481854D01*
X244253808Y-45538804D01*
X244200662Y-45584161D01*
X244131430Y-45593584D01*
X244068095Y-45564082D01*
X244046192Y-45538804D01*
X244008984Y-45481854D01*
X244008982Y-45481852D01*
X244008979Y-45481847D01*
X243851784Y-45311087D01*
X243699876Y-45192852D01*
X243659064Y-45136143D01*
X243655389Y-45066370D01*
X243690020Y-45005687D01*
X243699876Y-44997147D01*
X243851784Y-44878913D01*
X244008979Y-44708153D01*
X244046491Y-44650736D01*
X244099634Y-44605382D01*
X244168865Y-44595957D01*
X244232201Y-44625458D01*
X244246914Y-44642436D01*
X244248812Y-44642633D01*
X244917037Y-43974408D01*
X244934075Y-44037993D01*
G37*
%TD.AperFunction*%
%TA.AperFunction,Conductor*%
G36*
X251403039Y-27959685D02*
G01*
X251448794Y-28012489D01*
X251460000Y-28064000D01*
X251460000Y-86236000D01*
X251440315Y-86303039D01*
X251387511Y-86348794D01*
X251336000Y-86360000D01*
X53464000Y-86360000D01*
X53396961Y-86340315D01*
X53351206Y-86287511D01*
X53340000Y-86236000D01*
X53340000Y-83660006D01*
X57994700Y-83660006D01*
X58013864Y-83891297D01*
X58013866Y-83891308D01*
X58070842Y-84116300D01*
X58164075Y-84328848D01*
X58291016Y-84523147D01*
X58291019Y-84523151D01*
X58291021Y-84523153D01*
X58448216Y-84693913D01*
X58448219Y-84693915D01*
X58448222Y-84693918D01*
X58631365Y-84836464D01*
X58631371Y-84836468D01*
X58631374Y-84836470D01*
X58835497Y-84946936D01*
X58949487Y-84986068D01*
X59055015Y-85022297D01*
X59055017Y-85022297D01*
X59055019Y-85022298D01*
X59283951Y-85060500D01*
X59283952Y-85060500D01*
X59516048Y-85060500D01*
X59516049Y-85060500D01*
X59744981Y-85022298D01*
X59964503Y-84946936D01*
X60168626Y-84836470D01*
X60351784Y-84693913D01*
X60508979Y-84523153D01*
X60546191Y-84466196D01*
X60599337Y-84420839D01*
X60668569Y-84411415D01*
X60731904Y-84440917D01*
X60753809Y-84466196D01*
X60791016Y-84523147D01*
X60791019Y-84523151D01*
X60791021Y-84523153D01*
X60948216Y-84693913D01*
X60948219Y-84693915D01*
X60948222Y-84693918D01*
X61131365Y-84836464D01*
X61131371Y-84836468D01*
X61131374Y-84836470D01*
X61335497Y-84946936D01*
X61449487Y-84986068D01*
X61555015Y-85022297D01*
X61555017Y-85022297D01*
X61555019Y-85022298D01*
X61783951Y-85060500D01*
X61783952Y-85060500D01*
X62016048Y-85060500D01*
X62016049Y-85060500D01*
X62244981Y-85022298D01*
X62464503Y-84946936D01*
X62668626Y-84836470D01*
X62851784Y-84693913D01*
X63008979Y-84523153D01*
X63046191Y-84466196D01*
X63099337Y-84420839D01*
X63168569Y-84411415D01*
X63231904Y-84440917D01*
X63253809Y-84466196D01*
X63291016Y-84523147D01*
X63291019Y-84523151D01*
X63291021Y-84523153D01*
X63448216Y-84693913D01*
X63448219Y-84693915D01*
X63448222Y-84693918D01*
X63631365Y-84836464D01*
X63631371Y-84836468D01*
X63631374Y-84836470D01*
X63835497Y-84946936D01*
X63949487Y-84986068D01*
X64055015Y-85022297D01*
X64055017Y-85022297D01*
X64055019Y-85022298D01*
X64283951Y-85060500D01*
X64283952Y-85060500D01*
X64516048Y-85060500D01*
X64516049Y-85060500D01*
X64744981Y-85022298D01*
X64964503Y-84946936D01*
X65168626Y-84836470D01*
X65351784Y-84693913D01*
X65508979Y-84523153D01*
X65635924Y-84328849D01*
X65729157Y-84116300D01*
X65786134Y-83891305D01*
X65805300Y-83660006D01*
X94194700Y-83660006D01*
X94213864Y-83891297D01*
X94213866Y-83891308D01*
X94270842Y-84116300D01*
X94364075Y-84328848D01*
X94491016Y-84523147D01*
X94491019Y-84523151D01*
X94491021Y-84523153D01*
X94648216Y-84693913D01*
X94648219Y-84693915D01*
X94648222Y-84693918D01*
X94831365Y-84836464D01*
X94831371Y-84836468D01*
X94831374Y-84836470D01*
X95035497Y-84946936D01*
X95149487Y-84986068D01*
X95255015Y-85022297D01*
X95255017Y-85022297D01*
X95255019Y-85022298D01*
X95483951Y-85060500D01*
X95483952Y-85060500D01*
X95716048Y-85060500D01*
X95716049Y-85060500D01*
X95944981Y-85022298D01*
X96164503Y-84946936D01*
X96368626Y-84836470D01*
X96551784Y-84693913D01*
X96708979Y-84523153D01*
X96746191Y-84466196D01*
X96799337Y-84420839D01*
X96868569Y-84411415D01*
X96931904Y-84440917D01*
X96953809Y-84466196D01*
X96991016Y-84523147D01*
X96991019Y-84523151D01*
X96991021Y-84523153D01*
X97148216Y-84693913D01*
X97148219Y-84693915D01*
X97148222Y-84693918D01*
X97331365Y-84836464D01*
X97331371Y-84836468D01*
X97331374Y-84836470D01*
X97535497Y-84946936D01*
X97649487Y-84986068D01*
X97755015Y-85022297D01*
X97755017Y-85022297D01*
X97755019Y-85022298D01*
X97983951Y-85060500D01*
X97983952Y-85060500D01*
X98216048Y-85060500D01*
X98216049Y-85060500D01*
X98444981Y-85022298D01*
X98664503Y-84946936D01*
X98868626Y-84836470D01*
X99051784Y-84693913D01*
X99208979Y-84523153D01*
X99246191Y-84466196D01*
X99299337Y-84420839D01*
X99368569Y-84411415D01*
X99431904Y-84440917D01*
X99453809Y-84466196D01*
X99491016Y-84523147D01*
X99491019Y-84523151D01*
X99491021Y-84523153D01*
X99648216Y-84693913D01*
X99648219Y-84693915D01*
X99648222Y-84693918D01*
X99831365Y-84836464D01*
X99831371Y-84836468D01*
X99831374Y-84836470D01*
X100035497Y-84946936D01*
X100149487Y-84986068D01*
X100255015Y-85022297D01*
X100255017Y-85022297D01*
X100255019Y-85022298D01*
X100483951Y-85060500D01*
X100483952Y-85060500D01*
X100716048Y-85060500D01*
X100716049Y-85060500D01*
X100944981Y-85022298D01*
X101164503Y-84946936D01*
X101368626Y-84836470D01*
X101551784Y-84693913D01*
X101708979Y-84523153D01*
X101835924Y-84328849D01*
X101929157Y-84116300D01*
X101986134Y-83891305D01*
X102005300Y-83660006D01*
X130394700Y-83660006D01*
X130413864Y-83891297D01*
X130413866Y-83891308D01*
X130470842Y-84116300D01*
X130564075Y-84328848D01*
X130691016Y-84523147D01*
X130691019Y-84523151D01*
X130691021Y-84523153D01*
X130848216Y-84693913D01*
X130848219Y-84693915D01*
X130848222Y-84693918D01*
X131031365Y-84836464D01*
X131031371Y-84836468D01*
X131031374Y-84836470D01*
X131235497Y-84946936D01*
X131349487Y-84986068D01*
X131455015Y-85022297D01*
X131455017Y-85022297D01*
X131455019Y-85022298D01*
X131683951Y-85060500D01*
X131683952Y-85060500D01*
X131916048Y-85060500D01*
X131916049Y-85060500D01*
X132144981Y-85022298D01*
X132364503Y-84946936D01*
X132568626Y-84836470D01*
X132751784Y-84693913D01*
X132908979Y-84523153D01*
X132946191Y-84466196D01*
X132999337Y-84420839D01*
X133068569Y-84411415D01*
X133131904Y-84440917D01*
X133153809Y-84466196D01*
X133191016Y-84523147D01*
X133191019Y-84523151D01*
X133191021Y-84523153D01*
X133348216Y-84693913D01*
X133348219Y-84693915D01*
X133348222Y-84693918D01*
X133531365Y-84836464D01*
X133531371Y-84836468D01*
X133531374Y-84836470D01*
X133735497Y-84946936D01*
X133849487Y-84986068D01*
X133955015Y-85022297D01*
X133955017Y-85022297D01*
X133955019Y-85022298D01*
X134183951Y-85060500D01*
X134183952Y-85060500D01*
X134416048Y-85060500D01*
X134416049Y-85060500D01*
X134644981Y-85022298D01*
X134864503Y-84946936D01*
X135068626Y-84836470D01*
X135251784Y-84693913D01*
X135408979Y-84523153D01*
X135446191Y-84466196D01*
X135499337Y-84420839D01*
X135568569Y-84411415D01*
X135631904Y-84440917D01*
X135653809Y-84466196D01*
X135691016Y-84523147D01*
X135691019Y-84523151D01*
X135691021Y-84523153D01*
X135848216Y-84693913D01*
X135848219Y-84693915D01*
X135848222Y-84693918D01*
X136031365Y-84836464D01*
X136031371Y-84836468D01*
X136031374Y-84836470D01*
X136235497Y-84946936D01*
X136349487Y-84986068D01*
X136455015Y-85022297D01*
X136455017Y-85022297D01*
X136455019Y-85022298D01*
X136683951Y-85060500D01*
X136683952Y-85060500D01*
X136916048Y-85060500D01*
X136916049Y-85060500D01*
X137144981Y-85022298D01*
X137364503Y-84946936D01*
X137568626Y-84836470D01*
X137751784Y-84693913D01*
X137908979Y-84523153D01*
X138035924Y-84328849D01*
X138129157Y-84116300D01*
X138186134Y-83891305D01*
X138205300Y-83660006D01*
X166594700Y-83660006D01*
X166613864Y-83891297D01*
X166613866Y-83891308D01*
X166670842Y-84116300D01*
X166764075Y-84328848D01*
X166891016Y-84523147D01*
X166891019Y-84523151D01*
X166891021Y-84523153D01*
X167048216Y-84693913D01*
X167048219Y-84693915D01*
X167048222Y-84693918D01*
X167231365Y-84836464D01*
X167231371Y-84836468D01*
X167231374Y-84836470D01*
X167435497Y-84946936D01*
X167549487Y-84986068D01*
X167655015Y-85022297D01*
X167655017Y-85022297D01*
X167655019Y-85022298D01*
X167883951Y-85060500D01*
X167883952Y-85060500D01*
X168116048Y-85060500D01*
X168116049Y-85060500D01*
X168344981Y-85022298D01*
X168564503Y-84946936D01*
X168768626Y-84836470D01*
X168951784Y-84693913D01*
X169108979Y-84523153D01*
X169146191Y-84466196D01*
X169199337Y-84420839D01*
X169268569Y-84411415D01*
X169331904Y-84440917D01*
X169353809Y-84466196D01*
X169391016Y-84523147D01*
X169391019Y-84523151D01*
X169391021Y-84523153D01*
X169548216Y-84693913D01*
X169548219Y-84693915D01*
X169548222Y-84693918D01*
X169731365Y-84836464D01*
X169731371Y-84836468D01*
X169731374Y-84836470D01*
X169935497Y-84946936D01*
X170049487Y-84986068D01*
X170155015Y-85022297D01*
X170155017Y-85022297D01*
X170155019Y-85022298D01*
X170383951Y-85060500D01*
X170383952Y-85060500D01*
X170616048Y-85060500D01*
X170616049Y-85060500D01*
X170844981Y-85022298D01*
X171064503Y-84946936D01*
X171268626Y-84836470D01*
X171451784Y-84693913D01*
X171608979Y-84523153D01*
X171646191Y-84466196D01*
X171699337Y-84420839D01*
X171768569Y-84411415D01*
X171831904Y-84440917D01*
X171853809Y-84466196D01*
X171891016Y-84523147D01*
X171891019Y-84523151D01*
X171891021Y-84523153D01*
X172048216Y-84693913D01*
X172048219Y-84693915D01*
X172048222Y-84693918D01*
X172231365Y-84836464D01*
X172231371Y-84836468D01*
X172231374Y-84836470D01*
X172435497Y-84946936D01*
X172549487Y-84986068D01*
X172655015Y-85022297D01*
X172655017Y-85022297D01*
X172655019Y-85022298D01*
X172883951Y-85060500D01*
X172883952Y-85060500D01*
X173116048Y-85060500D01*
X173116049Y-85060500D01*
X173344981Y-85022298D01*
X173564503Y-84946936D01*
X173768626Y-84836470D01*
X173951784Y-84693913D01*
X174108979Y-84523153D01*
X174235924Y-84328849D01*
X174329157Y-84116300D01*
X174386134Y-83891305D01*
X174405300Y-83660006D01*
X202794700Y-83660006D01*
X202813864Y-83891297D01*
X202813866Y-83891308D01*
X202870842Y-84116300D01*
X202964075Y-84328848D01*
X203091016Y-84523147D01*
X203091019Y-84523151D01*
X203091021Y-84523153D01*
X203248216Y-84693913D01*
X203248219Y-84693915D01*
X203248222Y-84693918D01*
X203431365Y-84836464D01*
X203431371Y-84836468D01*
X203431374Y-84836470D01*
X203635497Y-84946936D01*
X203749487Y-84986068D01*
X203855015Y-85022297D01*
X203855017Y-85022297D01*
X203855019Y-85022298D01*
X204083951Y-85060500D01*
X204083952Y-85060500D01*
X204316048Y-85060500D01*
X204316049Y-85060500D01*
X204544981Y-85022298D01*
X204764503Y-84946936D01*
X204968626Y-84836470D01*
X205151784Y-84693913D01*
X205308979Y-84523153D01*
X205346191Y-84466196D01*
X205399337Y-84420839D01*
X205468569Y-84411415D01*
X205531904Y-84440917D01*
X205553809Y-84466196D01*
X205591016Y-84523147D01*
X205591019Y-84523151D01*
X205591021Y-84523153D01*
X205748216Y-84693913D01*
X205748219Y-84693915D01*
X205748222Y-84693918D01*
X205931365Y-84836464D01*
X205931371Y-84836468D01*
X205931374Y-84836470D01*
X206135497Y-84946936D01*
X206249487Y-84986068D01*
X206355015Y-85022297D01*
X206355017Y-85022297D01*
X206355019Y-85022298D01*
X206583951Y-85060500D01*
X206583952Y-85060500D01*
X206816048Y-85060500D01*
X206816049Y-85060500D01*
X207044981Y-85022298D01*
X207264503Y-84946936D01*
X207468626Y-84836470D01*
X207651784Y-84693913D01*
X207808979Y-84523153D01*
X207846191Y-84466196D01*
X207899337Y-84420839D01*
X207968569Y-84411415D01*
X208031904Y-84440917D01*
X208053809Y-84466196D01*
X208091016Y-84523147D01*
X208091019Y-84523151D01*
X208091021Y-84523153D01*
X208248216Y-84693913D01*
X208248219Y-84693915D01*
X208248222Y-84693918D01*
X208431365Y-84836464D01*
X208431371Y-84836468D01*
X208431374Y-84836470D01*
X208635497Y-84946936D01*
X208749487Y-84986068D01*
X208855015Y-85022297D01*
X208855017Y-85022297D01*
X208855019Y-85022298D01*
X209083951Y-85060500D01*
X209083952Y-85060500D01*
X209316048Y-85060500D01*
X209316049Y-85060500D01*
X209544981Y-85022298D01*
X209764503Y-84946936D01*
X209968626Y-84836470D01*
X210151784Y-84693913D01*
X210308979Y-84523153D01*
X210435924Y-84328849D01*
X210529157Y-84116300D01*
X210586134Y-83891305D01*
X210605300Y-83660006D01*
X238994700Y-83660006D01*
X239013864Y-83891297D01*
X239013866Y-83891308D01*
X239070842Y-84116300D01*
X239164075Y-84328848D01*
X239291016Y-84523147D01*
X239291019Y-84523151D01*
X239291021Y-84523153D01*
X239448216Y-84693913D01*
X239448219Y-84693915D01*
X239448222Y-84693918D01*
X239631365Y-84836464D01*
X239631371Y-84836468D01*
X239631374Y-84836470D01*
X239835497Y-84946936D01*
X239949487Y-84986068D01*
X240055015Y-85022297D01*
X240055017Y-85022297D01*
X240055019Y-85022298D01*
X240283951Y-85060500D01*
X240283952Y-85060500D01*
X240516048Y-85060500D01*
X240516049Y-85060500D01*
X240744981Y-85022298D01*
X240964503Y-84946936D01*
X241168626Y-84836470D01*
X241351784Y-84693913D01*
X241508979Y-84523153D01*
X241546191Y-84466196D01*
X241599337Y-84420839D01*
X241668569Y-84411415D01*
X241731904Y-84440917D01*
X241753809Y-84466196D01*
X241791016Y-84523147D01*
X241791019Y-84523151D01*
X241791021Y-84523153D01*
X241948216Y-84693913D01*
X241948219Y-84693915D01*
X241948222Y-84693918D01*
X242131365Y-84836464D01*
X242131371Y-84836468D01*
X242131374Y-84836470D01*
X242335497Y-84946936D01*
X242449487Y-84986068D01*
X242555015Y-85022297D01*
X242555017Y-85022297D01*
X242555019Y-85022298D01*
X242783951Y-85060500D01*
X242783952Y-85060500D01*
X243016048Y-85060500D01*
X243016049Y-85060500D01*
X243244981Y-85022298D01*
X243464503Y-84946936D01*
X243668626Y-84836470D01*
X243851784Y-84693913D01*
X244008979Y-84523153D01*
X244046191Y-84466196D01*
X244099337Y-84420839D01*
X244168569Y-84411415D01*
X244231904Y-84440917D01*
X244253809Y-84466196D01*
X244291016Y-84523147D01*
X244291019Y-84523151D01*
X244291021Y-84523153D01*
X244448216Y-84693913D01*
X244448219Y-84693915D01*
X244448222Y-84693918D01*
X244631365Y-84836464D01*
X244631371Y-84836468D01*
X244631374Y-84836470D01*
X244835497Y-84946936D01*
X244949487Y-84986068D01*
X245055015Y-85022297D01*
X245055017Y-85022297D01*
X245055019Y-85022298D01*
X245283951Y-85060500D01*
X245283952Y-85060500D01*
X245516048Y-85060500D01*
X245516049Y-85060500D01*
X245744981Y-85022298D01*
X245964503Y-84946936D01*
X246168626Y-84836470D01*
X246351784Y-84693913D01*
X246508979Y-84523153D01*
X246635924Y-84328849D01*
X246729157Y-84116300D01*
X246786134Y-83891305D01*
X246805300Y-83660000D01*
X246805300Y-83659993D01*
X246786135Y-83428702D01*
X246786133Y-83428691D01*
X246729157Y-83203699D01*
X246635924Y-82991151D01*
X246508983Y-82796852D01*
X246508980Y-82796849D01*
X246508979Y-82796847D01*
X246351784Y-82626087D01*
X246273772Y-82565368D01*
X246199469Y-82507535D01*
X246158656Y-82450825D01*
X246154982Y-82381052D01*
X246189614Y-82320369D01*
X246198794Y-82312413D01*
X246198798Y-82312350D01*
X245529410Y-81642962D01*
X245592993Y-81625925D01*
X245707007Y-81560099D01*
X245800099Y-81467007D01*
X245865925Y-81352993D01*
X245882962Y-81289409D01*
X246551186Y-81957633D01*
X246635482Y-81828611D01*
X246728682Y-81616135D01*
X246785638Y-81391218D01*
X246804798Y-81160005D01*
X246804798Y-81159994D01*
X246785638Y-80928781D01*
X246728682Y-80703864D01*
X246635484Y-80491393D01*
X246551186Y-80362365D01*
X245882962Y-81030589D01*
X245865925Y-80967007D01*
X245800099Y-80852993D01*
X245707007Y-80759901D01*
X245592993Y-80694075D01*
X245529409Y-80677037D01*
X246198797Y-80007647D01*
X246198797Y-80007645D01*
X246168360Y-79983955D01*
X246168354Y-79983951D01*
X245964302Y-79873523D01*
X245964293Y-79873520D01*
X245744860Y-79798188D01*
X245516007Y-79760000D01*
X245283993Y-79760000D01*
X245055139Y-79798188D01*
X244835706Y-79873520D01*
X244835697Y-79873523D01*
X244631650Y-79983949D01*
X244601200Y-80007647D01*
X245270591Y-80677037D01*
X245207007Y-80694075D01*
X245092993Y-80759901D01*
X244999901Y-80852993D01*
X244934075Y-80967007D01*
X244917037Y-81030591D01*
X244248811Y-80362365D01*
X244244029Y-80362861D01*
X244200959Y-80399618D01*
X244131728Y-80409041D01*
X244068392Y-80379538D01*
X244046489Y-80354260D01*
X244008983Y-80296852D01*
X244008980Y-80296849D01*
X244008979Y-80296847D01*
X243851784Y-80126087D01*
X243851779Y-80126083D01*
X243851777Y-80126081D01*
X243668634Y-79983535D01*
X243668628Y-79983531D01*
X243464504Y-79873064D01*
X243464495Y-79873061D01*
X243244984Y-79797702D01*
X243054450Y-79765908D01*
X243016049Y-79759500D01*
X242783951Y-79759500D01*
X242745550Y-79765908D01*
X242555015Y-79797702D01*
X242335504Y-79873061D01*
X242335495Y-79873064D01*
X242131372Y-79983531D01*
X241954436Y-80121245D01*
X241889442Y-80146887D01*
X241820902Y-80133320D01*
X241770577Y-80084852D01*
X241762092Y-80066723D01*
X241743798Y-80017673D01*
X241743793Y-80017664D01*
X241657547Y-79902455D01*
X241657544Y-79902452D01*
X241542335Y-79816206D01*
X241542328Y-79816202D01*
X241407482Y-79765908D01*
X241407483Y-79765908D01*
X241347883Y-79759501D01*
X241347881Y-79759500D01*
X241347873Y-79759500D01*
X241347864Y-79759500D01*
X239452129Y-79759500D01*
X239452123Y-79759501D01*
X239392516Y-79765908D01*
X239257671Y-79816202D01*
X239257664Y-79816206D01*
X239142455Y-79902452D01*
X239142452Y-79902455D01*
X239056206Y-80017664D01*
X239056202Y-80017671D01*
X239005908Y-80152517D01*
X238999501Y-80212116D01*
X238999500Y-80212135D01*
X238999500Y-82107870D01*
X238999501Y-82107876D01*
X239005908Y-82167483D01*
X239056202Y-82302328D01*
X239056206Y-82302335D01*
X239142452Y-82417544D01*
X239142455Y-82417547D01*
X239257664Y-82503793D01*
X239257673Y-82503798D01*
X239310493Y-82523498D01*
X239366427Y-82565368D01*
X239390845Y-82630832D01*
X239375994Y-82699105D01*
X239358392Y-82723662D01*
X239291021Y-82796847D01*
X239291019Y-82796848D01*
X239291016Y-82796853D01*
X239164075Y-82991151D01*
X239070842Y-83203699D01*
X239013866Y-83428691D01*
X239013864Y-83428702D01*
X238994700Y-83659993D01*
X238994700Y-83660006D01*
X210605300Y-83660006D01*
X210605300Y-83660000D01*
X210605300Y-83659993D01*
X210586135Y-83428702D01*
X210586133Y-83428691D01*
X210529157Y-83203699D01*
X210435924Y-82991151D01*
X210308983Y-82796852D01*
X210308980Y-82796849D01*
X210308979Y-82796847D01*
X210151784Y-82626087D01*
X210073772Y-82565368D01*
X209999469Y-82507535D01*
X209958656Y-82450825D01*
X209954982Y-82381052D01*
X209989614Y-82320369D01*
X209998794Y-82312413D01*
X209998798Y-82312350D01*
X209329410Y-81642962D01*
X209392993Y-81625925D01*
X209507007Y-81560099D01*
X209600099Y-81467007D01*
X209665925Y-81352993D01*
X209682962Y-81289409D01*
X210351186Y-81957633D01*
X210435482Y-81828611D01*
X210528682Y-81616135D01*
X210585638Y-81391218D01*
X210604798Y-81160005D01*
X210604798Y-81159994D01*
X210585638Y-80928781D01*
X210528682Y-80703864D01*
X210435484Y-80491393D01*
X210351186Y-80362365D01*
X209682962Y-81030589D01*
X209665925Y-80967007D01*
X209600099Y-80852993D01*
X209507007Y-80759901D01*
X209392993Y-80694075D01*
X209329409Y-80677037D01*
X209998797Y-80007647D01*
X209998797Y-80007645D01*
X209968360Y-79983955D01*
X209968354Y-79983951D01*
X209764302Y-79873523D01*
X209764293Y-79873520D01*
X209544860Y-79798188D01*
X209316007Y-79760000D01*
X209083993Y-79760000D01*
X208855139Y-79798188D01*
X208635706Y-79873520D01*
X208635697Y-79873523D01*
X208431650Y-79983949D01*
X208401200Y-80007647D01*
X209070591Y-80677037D01*
X209007007Y-80694075D01*
X208892993Y-80759901D01*
X208799901Y-80852993D01*
X208734075Y-80967007D01*
X208717037Y-81030591D01*
X208048811Y-80362365D01*
X208044029Y-80362861D01*
X208000959Y-80399618D01*
X207931728Y-80409041D01*
X207868392Y-80379538D01*
X207846489Y-80354260D01*
X207808983Y-80296852D01*
X207808980Y-80296849D01*
X207808979Y-80296847D01*
X207651784Y-80126087D01*
X207651779Y-80126083D01*
X207651777Y-80126081D01*
X207468634Y-79983535D01*
X207468628Y-79983531D01*
X207264504Y-79873064D01*
X207264495Y-79873061D01*
X207044984Y-79797702D01*
X206854450Y-79765908D01*
X206816049Y-79759500D01*
X206583951Y-79759500D01*
X206545550Y-79765908D01*
X206355015Y-79797702D01*
X206135504Y-79873061D01*
X206135495Y-79873064D01*
X205931372Y-79983531D01*
X205754436Y-80121245D01*
X205689442Y-80146887D01*
X205620902Y-80133320D01*
X205570577Y-80084852D01*
X205562092Y-80066723D01*
X205543798Y-80017673D01*
X205543793Y-80017664D01*
X205457547Y-79902455D01*
X205457544Y-79902452D01*
X205342335Y-79816206D01*
X205342328Y-79816202D01*
X205207482Y-79765908D01*
X205207483Y-79765908D01*
X205147883Y-79759501D01*
X205147881Y-79759500D01*
X205147873Y-79759500D01*
X205147864Y-79759500D01*
X203252129Y-79759500D01*
X203252123Y-79759501D01*
X203192516Y-79765908D01*
X203057671Y-79816202D01*
X203057664Y-79816206D01*
X202942455Y-79902452D01*
X202942452Y-79902455D01*
X202856206Y-80017664D01*
X202856202Y-80017671D01*
X202805908Y-80152517D01*
X202799501Y-80212116D01*
X202799500Y-80212135D01*
X202799500Y-82107870D01*
X202799501Y-82107876D01*
X202805908Y-82167483D01*
X202856202Y-82302328D01*
X202856206Y-82302335D01*
X202942452Y-82417544D01*
X202942455Y-82417547D01*
X203057664Y-82503793D01*
X203057673Y-82503798D01*
X203110493Y-82523498D01*
X203166427Y-82565368D01*
X203190845Y-82630832D01*
X203175994Y-82699105D01*
X203158392Y-82723662D01*
X203091021Y-82796847D01*
X203091019Y-82796848D01*
X203091016Y-82796853D01*
X202964075Y-82991151D01*
X202870842Y-83203699D01*
X202813866Y-83428691D01*
X202813864Y-83428702D01*
X202794700Y-83659993D01*
X202794700Y-83660006D01*
X174405300Y-83660006D01*
X174405300Y-83660000D01*
X174405300Y-83659993D01*
X174386135Y-83428702D01*
X174386133Y-83428691D01*
X174329157Y-83203699D01*
X174235924Y-82991151D01*
X174108983Y-82796852D01*
X174108980Y-82796849D01*
X174108979Y-82796847D01*
X173951784Y-82626087D01*
X173873772Y-82565368D01*
X173799469Y-82507535D01*
X173758656Y-82450825D01*
X173754982Y-82381052D01*
X173789614Y-82320369D01*
X173798794Y-82312413D01*
X173798798Y-82312350D01*
X173129410Y-81642962D01*
X173192993Y-81625925D01*
X173307007Y-81560099D01*
X173400099Y-81467007D01*
X173465925Y-81352993D01*
X173482962Y-81289409D01*
X174151186Y-81957633D01*
X174235482Y-81828611D01*
X174328682Y-81616135D01*
X174385638Y-81391218D01*
X174404798Y-81160005D01*
X174404798Y-81159994D01*
X174385638Y-80928781D01*
X174328682Y-80703864D01*
X174235484Y-80491393D01*
X174151186Y-80362365D01*
X173482962Y-81030589D01*
X173465925Y-80967007D01*
X173400099Y-80852993D01*
X173307007Y-80759901D01*
X173192993Y-80694075D01*
X173129409Y-80677037D01*
X173798797Y-80007647D01*
X173798797Y-80007645D01*
X173768360Y-79983955D01*
X173768354Y-79983951D01*
X173564302Y-79873523D01*
X173564293Y-79873520D01*
X173344860Y-79798188D01*
X173116007Y-79760000D01*
X172883993Y-79760000D01*
X172655139Y-79798188D01*
X172435706Y-79873520D01*
X172435697Y-79873523D01*
X172231650Y-79983949D01*
X172201200Y-80007647D01*
X172870591Y-80677037D01*
X172807007Y-80694075D01*
X172692993Y-80759901D01*
X172599901Y-80852993D01*
X172534075Y-80967007D01*
X172517037Y-81030591D01*
X171848811Y-80362365D01*
X171844029Y-80362861D01*
X171800959Y-80399618D01*
X171731728Y-80409041D01*
X171668392Y-80379538D01*
X171646489Y-80354260D01*
X171608983Y-80296852D01*
X171608980Y-80296849D01*
X171608979Y-80296847D01*
X171451784Y-80126087D01*
X171451779Y-80126083D01*
X171451777Y-80126081D01*
X171268634Y-79983535D01*
X171268628Y-79983531D01*
X171064504Y-79873064D01*
X171064495Y-79873061D01*
X170844984Y-79797702D01*
X170654450Y-79765908D01*
X170616049Y-79759500D01*
X170383951Y-79759500D01*
X170345550Y-79765908D01*
X170155015Y-79797702D01*
X169935504Y-79873061D01*
X169935495Y-79873064D01*
X169731372Y-79983531D01*
X169554436Y-80121245D01*
X169489442Y-80146887D01*
X169420902Y-80133320D01*
X169370577Y-80084852D01*
X169362092Y-80066723D01*
X169343798Y-80017673D01*
X169343793Y-80017664D01*
X169257547Y-79902455D01*
X169257544Y-79902452D01*
X169142335Y-79816206D01*
X169142328Y-79816202D01*
X169007482Y-79765908D01*
X169007483Y-79765908D01*
X168947883Y-79759501D01*
X168947881Y-79759500D01*
X168947873Y-79759500D01*
X168947864Y-79759500D01*
X167052129Y-79759500D01*
X167052123Y-79759501D01*
X166992516Y-79765908D01*
X166857671Y-79816202D01*
X166857664Y-79816206D01*
X166742455Y-79902452D01*
X166742452Y-79902455D01*
X166656206Y-80017664D01*
X166656202Y-80017671D01*
X166605908Y-80152517D01*
X166599501Y-80212116D01*
X166599500Y-80212135D01*
X166599500Y-82107870D01*
X166599501Y-82107876D01*
X166605908Y-82167483D01*
X166656202Y-82302328D01*
X166656206Y-82302335D01*
X166742452Y-82417544D01*
X166742455Y-82417547D01*
X166857664Y-82503793D01*
X166857673Y-82503798D01*
X166910493Y-82523498D01*
X166966427Y-82565368D01*
X166990845Y-82630832D01*
X166975994Y-82699105D01*
X166958392Y-82723662D01*
X166891021Y-82796847D01*
X166891019Y-82796848D01*
X166891016Y-82796853D01*
X166764075Y-82991151D01*
X166670842Y-83203699D01*
X166613866Y-83428691D01*
X166613864Y-83428702D01*
X166594700Y-83659993D01*
X166594700Y-83660006D01*
X138205300Y-83660006D01*
X138205300Y-83660000D01*
X138205300Y-83659993D01*
X138186135Y-83428702D01*
X138186133Y-83428691D01*
X138129157Y-83203699D01*
X138035924Y-82991151D01*
X137908983Y-82796852D01*
X137908980Y-82796849D01*
X137908979Y-82796847D01*
X137751784Y-82626087D01*
X137673772Y-82565368D01*
X137599469Y-82507535D01*
X137558656Y-82450825D01*
X137554982Y-82381052D01*
X137589614Y-82320369D01*
X137598794Y-82312413D01*
X137598798Y-82312350D01*
X136929410Y-81642962D01*
X136992993Y-81625925D01*
X137107007Y-81560099D01*
X137200099Y-81467007D01*
X137265925Y-81352993D01*
X137282962Y-81289409D01*
X137951186Y-81957633D01*
X138035482Y-81828611D01*
X138128682Y-81616135D01*
X138185638Y-81391218D01*
X138204798Y-81160005D01*
X138204798Y-81159994D01*
X138185638Y-80928781D01*
X138128682Y-80703864D01*
X138035484Y-80491393D01*
X137951186Y-80362365D01*
X137282962Y-81030589D01*
X137265925Y-80967007D01*
X137200099Y-80852993D01*
X137107007Y-80759901D01*
X136992993Y-80694075D01*
X136929409Y-80677037D01*
X137598797Y-80007647D01*
X137598797Y-80007645D01*
X137568360Y-79983955D01*
X137568354Y-79983951D01*
X137364302Y-79873523D01*
X137364293Y-79873520D01*
X137144860Y-79798188D01*
X136916007Y-79760000D01*
X136683993Y-79760000D01*
X136455139Y-79798188D01*
X136235706Y-79873520D01*
X136235697Y-79873523D01*
X136031650Y-79983949D01*
X136001200Y-80007647D01*
X136670591Y-80677037D01*
X136607007Y-80694075D01*
X136492993Y-80759901D01*
X136399901Y-80852993D01*
X136334075Y-80967007D01*
X136317037Y-81030591D01*
X135648811Y-80362365D01*
X135644029Y-80362861D01*
X135600959Y-80399618D01*
X135531728Y-80409041D01*
X135468392Y-80379538D01*
X135446489Y-80354260D01*
X135408983Y-80296852D01*
X135408980Y-80296849D01*
X135408979Y-80296847D01*
X135251784Y-80126087D01*
X135251779Y-80126083D01*
X135251777Y-80126081D01*
X135068634Y-79983535D01*
X135068628Y-79983531D01*
X134864504Y-79873064D01*
X134864495Y-79873061D01*
X134644984Y-79797702D01*
X134454450Y-79765908D01*
X134416049Y-79759500D01*
X134183951Y-79759500D01*
X134145550Y-79765908D01*
X133955015Y-79797702D01*
X133735504Y-79873061D01*
X133735495Y-79873064D01*
X133531372Y-79983531D01*
X133354436Y-80121245D01*
X133289442Y-80146887D01*
X133220902Y-80133320D01*
X133170577Y-80084852D01*
X133162092Y-80066723D01*
X133143798Y-80017673D01*
X133143793Y-80017664D01*
X133057547Y-79902455D01*
X133057544Y-79902452D01*
X132942335Y-79816206D01*
X132942328Y-79816202D01*
X132807482Y-79765908D01*
X132807483Y-79765908D01*
X132747883Y-79759501D01*
X132747881Y-79759500D01*
X132747873Y-79759500D01*
X132747864Y-79759500D01*
X130852129Y-79759500D01*
X130852123Y-79759501D01*
X130792516Y-79765908D01*
X130657671Y-79816202D01*
X130657664Y-79816206D01*
X130542455Y-79902452D01*
X130542452Y-79902455D01*
X130456206Y-80017664D01*
X130456202Y-80017671D01*
X130405908Y-80152517D01*
X130399501Y-80212116D01*
X130399500Y-80212135D01*
X130399500Y-82107870D01*
X130399501Y-82107876D01*
X130405908Y-82167483D01*
X130456202Y-82302328D01*
X130456206Y-82302335D01*
X130542452Y-82417544D01*
X130542455Y-82417547D01*
X130657664Y-82503793D01*
X130657673Y-82503798D01*
X130710493Y-82523498D01*
X130766427Y-82565368D01*
X130790845Y-82630832D01*
X130775994Y-82699105D01*
X130758392Y-82723662D01*
X130691021Y-82796847D01*
X130691019Y-82796848D01*
X130691016Y-82796853D01*
X130564075Y-82991151D01*
X130470842Y-83203699D01*
X130413866Y-83428691D01*
X130413864Y-83428702D01*
X130394700Y-83659993D01*
X130394700Y-83660006D01*
X102005300Y-83660006D01*
X102005300Y-83660000D01*
X102005300Y-83659993D01*
X101986135Y-83428702D01*
X101986133Y-83428691D01*
X101929157Y-83203699D01*
X101835924Y-82991151D01*
X101708983Y-82796852D01*
X101708980Y-82796849D01*
X101708979Y-82796847D01*
X101551784Y-82626087D01*
X101473772Y-82565368D01*
X101399469Y-82507535D01*
X101358656Y-82450825D01*
X101354982Y-82381052D01*
X101389614Y-82320369D01*
X101398794Y-82312413D01*
X101398798Y-82312350D01*
X100729410Y-81642962D01*
X100792993Y-81625925D01*
X100907007Y-81560099D01*
X101000099Y-81467007D01*
X101065925Y-81352993D01*
X101082962Y-81289409D01*
X101751186Y-81957633D01*
X101835482Y-81828611D01*
X101928682Y-81616135D01*
X101985638Y-81391218D01*
X102004798Y-81160005D01*
X102004798Y-81159994D01*
X101985638Y-80928781D01*
X101928682Y-80703864D01*
X101835484Y-80491393D01*
X101751186Y-80362365D01*
X101082962Y-81030589D01*
X101065925Y-80967007D01*
X101000099Y-80852993D01*
X100907007Y-80759901D01*
X100792993Y-80694075D01*
X100729409Y-80677037D01*
X101398797Y-80007647D01*
X101398797Y-80007645D01*
X101368360Y-79983955D01*
X101368354Y-79983951D01*
X101164302Y-79873523D01*
X101164293Y-79873520D01*
X100944860Y-79798188D01*
X100716007Y-79760000D01*
X100483993Y-79760000D01*
X100255139Y-79798188D01*
X100035706Y-79873520D01*
X100035697Y-79873523D01*
X99831650Y-79983949D01*
X99801200Y-80007647D01*
X100470591Y-80677037D01*
X100407007Y-80694075D01*
X100292993Y-80759901D01*
X100199901Y-80852993D01*
X100134075Y-80967007D01*
X100117037Y-81030591D01*
X99448811Y-80362365D01*
X99444029Y-80362861D01*
X99400959Y-80399618D01*
X99331728Y-80409041D01*
X99268392Y-80379538D01*
X99246489Y-80354260D01*
X99208983Y-80296852D01*
X99208980Y-80296849D01*
X99208979Y-80296847D01*
X99051784Y-80126087D01*
X99051779Y-80126083D01*
X99051777Y-80126081D01*
X98868634Y-79983535D01*
X98868628Y-79983531D01*
X98664504Y-79873064D01*
X98664495Y-79873061D01*
X98444984Y-79797702D01*
X98254450Y-79765908D01*
X98216049Y-79759500D01*
X97983951Y-79759500D01*
X97945550Y-79765908D01*
X97755015Y-79797702D01*
X97535504Y-79873061D01*
X97535495Y-79873064D01*
X97331372Y-79983531D01*
X97154436Y-80121245D01*
X97089442Y-80146887D01*
X97020902Y-80133320D01*
X96970577Y-80084852D01*
X96962092Y-80066723D01*
X96943798Y-80017673D01*
X96943793Y-80017664D01*
X96857547Y-79902455D01*
X96857544Y-79902452D01*
X96742335Y-79816206D01*
X96742328Y-79816202D01*
X96607482Y-79765908D01*
X96607483Y-79765908D01*
X96547883Y-79759501D01*
X96547881Y-79759500D01*
X96547873Y-79759500D01*
X96547864Y-79759500D01*
X94652129Y-79759500D01*
X94652123Y-79759501D01*
X94592516Y-79765908D01*
X94457671Y-79816202D01*
X94457664Y-79816206D01*
X94342455Y-79902452D01*
X94342452Y-79902455D01*
X94256206Y-80017664D01*
X94256202Y-80017671D01*
X94205908Y-80152517D01*
X94199501Y-80212116D01*
X94199500Y-80212135D01*
X94199500Y-82107870D01*
X94199501Y-82107876D01*
X94205908Y-82167483D01*
X94256202Y-82302328D01*
X94256206Y-82302335D01*
X94342452Y-82417544D01*
X94342455Y-82417547D01*
X94457664Y-82503793D01*
X94457673Y-82503798D01*
X94510493Y-82523498D01*
X94566427Y-82565368D01*
X94590845Y-82630832D01*
X94575994Y-82699105D01*
X94558392Y-82723662D01*
X94491021Y-82796847D01*
X94491019Y-82796848D01*
X94491016Y-82796853D01*
X94364075Y-82991151D01*
X94270842Y-83203699D01*
X94213866Y-83428691D01*
X94213864Y-83428702D01*
X94194700Y-83659993D01*
X94194700Y-83660006D01*
X65805300Y-83660006D01*
X65805300Y-83660000D01*
X65805300Y-83659993D01*
X65786135Y-83428702D01*
X65786133Y-83428691D01*
X65729157Y-83203699D01*
X65635924Y-82991151D01*
X65508983Y-82796852D01*
X65508980Y-82796849D01*
X65508979Y-82796847D01*
X65351784Y-82626087D01*
X65273772Y-82565368D01*
X65199469Y-82507535D01*
X65158656Y-82450825D01*
X65154982Y-82381052D01*
X65189614Y-82320369D01*
X65198794Y-82312413D01*
X65198798Y-82312350D01*
X64529410Y-81642962D01*
X64592993Y-81625925D01*
X64707007Y-81560099D01*
X64800099Y-81467007D01*
X64865925Y-81352993D01*
X64882962Y-81289409D01*
X65551186Y-81957633D01*
X65635482Y-81828611D01*
X65728682Y-81616135D01*
X65785638Y-81391218D01*
X65804798Y-81160005D01*
X65804798Y-81159994D01*
X65785638Y-80928781D01*
X65728682Y-80703864D01*
X65635484Y-80491393D01*
X65551186Y-80362365D01*
X64882962Y-81030589D01*
X64865925Y-80967007D01*
X64800099Y-80852993D01*
X64707007Y-80759901D01*
X64592993Y-80694075D01*
X64529409Y-80677037D01*
X65198797Y-80007647D01*
X65198797Y-80007645D01*
X65168360Y-79983955D01*
X65168354Y-79983951D01*
X64964302Y-79873523D01*
X64964293Y-79873520D01*
X64744860Y-79798188D01*
X64516007Y-79760000D01*
X64283993Y-79760000D01*
X64055139Y-79798188D01*
X63835706Y-79873520D01*
X63835697Y-79873523D01*
X63631650Y-79983949D01*
X63601200Y-80007647D01*
X64270591Y-80677037D01*
X64207007Y-80694075D01*
X64092993Y-80759901D01*
X63999901Y-80852993D01*
X63934075Y-80967007D01*
X63917037Y-81030591D01*
X63248811Y-80362365D01*
X63244029Y-80362861D01*
X63200959Y-80399618D01*
X63131728Y-80409041D01*
X63068392Y-80379538D01*
X63046489Y-80354260D01*
X63008983Y-80296852D01*
X63008980Y-80296849D01*
X63008979Y-80296847D01*
X62851784Y-80126087D01*
X62851779Y-80126083D01*
X62851777Y-80126081D01*
X62668634Y-79983535D01*
X62668628Y-79983531D01*
X62464504Y-79873064D01*
X62464495Y-79873061D01*
X62244984Y-79797702D01*
X62054450Y-79765908D01*
X62016049Y-79759500D01*
X61783951Y-79759500D01*
X61745550Y-79765908D01*
X61555015Y-79797702D01*
X61335504Y-79873061D01*
X61335495Y-79873064D01*
X61131372Y-79983531D01*
X60954436Y-80121245D01*
X60889442Y-80146887D01*
X60820902Y-80133320D01*
X60770577Y-80084852D01*
X60762092Y-80066723D01*
X60743798Y-80017673D01*
X60743793Y-80017664D01*
X60657547Y-79902455D01*
X60657544Y-79902452D01*
X60542335Y-79816206D01*
X60542328Y-79816202D01*
X60407482Y-79765908D01*
X60407483Y-79765908D01*
X60347883Y-79759501D01*
X60347881Y-79759500D01*
X60347873Y-79759500D01*
X60347864Y-79759500D01*
X58452129Y-79759500D01*
X58452123Y-79759501D01*
X58392516Y-79765908D01*
X58257671Y-79816202D01*
X58257664Y-79816206D01*
X58142455Y-79902452D01*
X58142452Y-79902455D01*
X58056206Y-80017664D01*
X58056202Y-80017671D01*
X58005908Y-80152517D01*
X57999501Y-80212116D01*
X57999500Y-80212135D01*
X57999500Y-82107870D01*
X57999501Y-82107876D01*
X58005908Y-82167483D01*
X58056202Y-82302328D01*
X58056206Y-82302335D01*
X58142452Y-82417544D01*
X58142455Y-82417547D01*
X58257664Y-82503793D01*
X58257673Y-82503798D01*
X58310493Y-82523498D01*
X58366427Y-82565368D01*
X58390845Y-82630832D01*
X58375994Y-82699105D01*
X58358392Y-82723662D01*
X58291021Y-82796847D01*
X58291019Y-82796848D01*
X58291016Y-82796853D01*
X58164075Y-82991151D01*
X58070842Y-83203699D01*
X58013866Y-83428691D01*
X58013864Y-83428702D01*
X57994700Y-83659993D01*
X57994700Y-83660006D01*
X53340000Y-83660006D01*
X53340000Y-74041951D01*
X55289500Y-74041951D01*
X55316013Y-74243333D01*
X55321334Y-74283744D01*
X55321335Y-74283746D01*
X55384456Y-74519320D01*
X55384459Y-74519330D01*
X55477786Y-74744640D01*
X55477791Y-74744651D01*
X55599727Y-74955848D01*
X55599738Y-74955864D01*
X55748199Y-75149343D01*
X55748205Y-75149350D01*
X55920649Y-75321794D01*
X55920655Y-75321799D01*
X56114144Y-75470268D01*
X56114151Y-75470272D01*
X56325348Y-75592208D01*
X56325353Y-75592210D01*
X56325356Y-75592212D01*
X56550679Y-75685544D01*
X56786256Y-75748666D01*
X57028056Y-75780500D01*
X57028063Y-75780500D01*
X57271937Y-75780500D01*
X57271944Y-75780500D01*
X57513744Y-75748666D01*
X57749321Y-75685544D01*
X57974644Y-75592212D01*
X58185856Y-75470268D01*
X58379345Y-75321799D01*
X58551799Y-75149345D01*
X58700268Y-74955856D01*
X58822212Y-74744644D01*
X58915544Y-74519321D01*
X58978666Y-74283744D01*
X59010499Y-74041951D01*
X64789500Y-74041951D01*
X64816013Y-74243333D01*
X64821334Y-74283744D01*
X64821335Y-74283746D01*
X64884456Y-74519320D01*
X64884459Y-74519330D01*
X64977786Y-74744640D01*
X64977791Y-74744651D01*
X65099727Y-74955848D01*
X65099738Y-74955864D01*
X65248199Y-75149343D01*
X65248205Y-75149350D01*
X65420649Y-75321794D01*
X65420655Y-75321799D01*
X65614144Y-75470268D01*
X65614151Y-75470272D01*
X65825348Y-75592208D01*
X65825353Y-75592210D01*
X65825356Y-75592212D01*
X66050679Y-75685544D01*
X66286256Y-75748666D01*
X66528056Y-75780500D01*
X66528063Y-75780500D01*
X66771937Y-75780500D01*
X66771944Y-75780500D01*
X67013744Y-75748666D01*
X67249321Y-75685544D01*
X67474644Y-75592212D01*
X67685856Y-75470268D01*
X67879345Y-75321799D01*
X68051799Y-75149345D01*
X68200268Y-74955856D01*
X68322212Y-74744644D01*
X68415544Y-74519321D01*
X68478666Y-74283744D01*
X68510499Y-74041951D01*
X91489500Y-74041951D01*
X91516013Y-74243333D01*
X91521334Y-74283744D01*
X91521335Y-74283746D01*
X91584456Y-74519320D01*
X91584459Y-74519330D01*
X91677786Y-74744640D01*
X91677791Y-74744651D01*
X91799727Y-74955848D01*
X91799738Y-74955864D01*
X91948199Y-75149343D01*
X91948205Y-75149350D01*
X92120649Y-75321794D01*
X92120655Y-75321799D01*
X92314144Y-75470268D01*
X92314151Y-75470272D01*
X92525348Y-75592208D01*
X92525353Y-75592210D01*
X92525356Y-75592212D01*
X92750679Y-75685544D01*
X92986256Y-75748666D01*
X93228056Y-75780500D01*
X93228063Y-75780500D01*
X93471937Y-75780500D01*
X93471944Y-75780500D01*
X93713744Y-75748666D01*
X93949321Y-75685544D01*
X94174644Y-75592212D01*
X94385856Y-75470268D01*
X94579345Y-75321799D01*
X94751799Y-75149345D01*
X94900268Y-74955856D01*
X95022212Y-74744644D01*
X95115544Y-74519321D01*
X95178666Y-74283744D01*
X95210499Y-74041951D01*
X100989500Y-74041951D01*
X101016013Y-74243333D01*
X101021334Y-74283744D01*
X101021335Y-74283746D01*
X101084456Y-74519320D01*
X101084459Y-74519330D01*
X101177786Y-74744640D01*
X101177791Y-74744651D01*
X101299727Y-74955848D01*
X101299738Y-74955864D01*
X101448199Y-75149343D01*
X101448205Y-75149350D01*
X101620649Y-75321794D01*
X101620655Y-75321799D01*
X101814144Y-75470268D01*
X101814151Y-75470272D01*
X102025348Y-75592208D01*
X102025353Y-75592210D01*
X102025356Y-75592212D01*
X102250679Y-75685544D01*
X102486256Y-75748666D01*
X102728056Y-75780500D01*
X102728063Y-75780500D01*
X102971937Y-75780500D01*
X102971944Y-75780500D01*
X103213744Y-75748666D01*
X103449321Y-75685544D01*
X103674644Y-75592212D01*
X103885856Y-75470268D01*
X104079345Y-75321799D01*
X104251799Y-75149345D01*
X104400268Y-74955856D01*
X104522212Y-74744644D01*
X104615544Y-74519321D01*
X104678666Y-74283744D01*
X104710499Y-74041951D01*
X127689500Y-74041951D01*
X127716013Y-74243333D01*
X127721334Y-74283744D01*
X127721335Y-74283746D01*
X127784456Y-74519320D01*
X127784459Y-74519330D01*
X127877786Y-74744640D01*
X127877791Y-74744651D01*
X127999727Y-74955848D01*
X127999738Y-74955864D01*
X128148199Y-75149343D01*
X128148205Y-75149350D01*
X128320649Y-75321794D01*
X128320655Y-75321799D01*
X128514144Y-75470268D01*
X128514151Y-75470272D01*
X128725348Y-75592208D01*
X128725353Y-75592210D01*
X128725356Y-75592212D01*
X128950679Y-75685544D01*
X129186256Y-75748666D01*
X129428056Y-75780500D01*
X129428063Y-75780500D01*
X129671937Y-75780500D01*
X129671944Y-75780500D01*
X129913744Y-75748666D01*
X130149321Y-75685544D01*
X130374644Y-75592212D01*
X130585856Y-75470268D01*
X130779345Y-75321799D01*
X130951799Y-75149345D01*
X131100268Y-74955856D01*
X131222212Y-74744644D01*
X131315544Y-74519321D01*
X131378666Y-74283744D01*
X131410499Y-74041951D01*
X137189500Y-74041951D01*
X137216013Y-74243333D01*
X137221334Y-74283744D01*
X137221335Y-74283746D01*
X137284456Y-74519320D01*
X137284459Y-74519330D01*
X137377786Y-74744640D01*
X137377791Y-74744651D01*
X137499727Y-74955848D01*
X137499738Y-74955864D01*
X137648199Y-75149343D01*
X137648205Y-75149350D01*
X137820649Y-75321794D01*
X137820655Y-75321799D01*
X138014144Y-75470268D01*
X138014151Y-75470272D01*
X138225348Y-75592208D01*
X138225353Y-75592210D01*
X138225356Y-75592212D01*
X138450679Y-75685544D01*
X138686256Y-75748666D01*
X138928056Y-75780500D01*
X138928063Y-75780500D01*
X139171937Y-75780500D01*
X139171944Y-75780500D01*
X139413744Y-75748666D01*
X139649321Y-75685544D01*
X139874644Y-75592212D01*
X140085856Y-75470268D01*
X140279345Y-75321799D01*
X140451799Y-75149345D01*
X140600268Y-74955856D01*
X140722212Y-74744644D01*
X140815544Y-74519321D01*
X140878666Y-74283744D01*
X140910499Y-74041951D01*
X163889500Y-74041951D01*
X163916013Y-74243333D01*
X163921334Y-74283744D01*
X163921335Y-74283746D01*
X163984456Y-74519320D01*
X163984459Y-74519330D01*
X164077786Y-74744640D01*
X164077791Y-74744651D01*
X164199727Y-74955848D01*
X164199738Y-74955864D01*
X164348199Y-75149343D01*
X164348205Y-75149350D01*
X164520649Y-75321794D01*
X164520655Y-75321799D01*
X164714144Y-75470268D01*
X164714151Y-75470272D01*
X164925348Y-75592208D01*
X164925353Y-75592210D01*
X164925356Y-75592212D01*
X165150679Y-75685544D01*
X165386256Y-75748666D01*
X165628056Y-75780500D01*
X165628063Y-75780500D01*
X165871937Y-75780500D01*
X165871944Y-75780500D01*
X166113744Y-75748666D01*
X166349321Y-75685544D01*
X166574644Y-75592212D01*
X166785856Y-75470268D01*
X166979345Y-75321799D01*
X167151799Y-75149345D01*
X167300268Y-74955856D01*
X167422212Y-74744644D01*
X167515544Y-74519321D01*
X167578666Y-74283744D01*
X167610499Y-74041951D01*
X173389500Y-74041951D01*
X173416013Y-74243333D01*
X173421334Y-74283744D01*
X173421335Y-74283746D01*
X173484456Y-74519320D01*
X173484459Y-74519330D01*
X173577786Y-74744640D01*
X173577791Y-74744651D01*
X173699727Y-74955848D01*
X173699738Y-74955864D01*
X173848199Y-75149343D01*
X173848205Y-75149350D01*
X174020649Y-75321794D01*
X174020655Y-75321799D01*
X174214144Y-75470268D01*
X174214151Y-75470272D01*
X174425348Y-75592208D01*
X174425353Y-75592210D01*
X174425356Y-75592212D01*
X174650679Y-75685544D01*
X174886256Y-75748666D01*
X175128056Y-75780500D01*
X175128063Y-75780500D01*
X175371937Y-75780500D01*
X175371944Y-75780500D01*
X175613744Y-75748666D01*
X175849321Y-75685544D01*
X176074644Y-75592212D01*
X176285856Y-75470268D01*
X176479345Y-75321799D01*
X176651799Y-75149345D01*
X176800268Y-74955856D01*
X176922212Y-74744644D01*
X177015544Y-74519321D01*
X177078666Y-74283744D01*
X177110499Y-74041951D01*
X200089500Y-74041951D01*
X200116013Y-74243333D01*
X200121334Y-74283744D01*
X200121335Y-74283746D01*
X200184456Y-74519320D01*
X200184459Y-74519330D01*
X200277786Y-74744640D01*
X200277791Y-74744651D01*
X200399727Y-74955848D01*
X200399738Y-74955864D01*
X200548199Y-75149343D01*
X200548205Y-75149350D01*
X200720649Y-75321794D01*
X200720655Y-75321799D01*
X200914144Y-75470268D01*
X200914151Y-75470272D01*
X201125348Y-75592208D01*
X201125353Y-75592210D01*
X201125356Y-75592212D01*
X201350679Y-75685544D01*
X201586256Y-75748666D01*
X201828056Y-75780500D01*
X201828063Y-75780500D01*
X202071937Y-75780500D01*
X202071944Y-75780500D01*
X202313744Y-75748666D01*
X202549321Y-75685544D01*
X202774644Y-75592212D01*
X202985856Y-75470268D01*
X203179345Y-75321799D01*
X203351799Y-75149345D01*
X203500268Y-74955856D01*
X203622212Y-74744644D01*
X203715544Y-74519321D01*
X203778666Y-74283744D01*
X203810499Y-74041951D01*
X209589500Y-74041951D01*
X209616013Y-74243333D01*
X209621334Y-74283744D01*
X209621335Y-74283746D01*
X209684456Y-74519320D01*
X209684459Y-74519330D01*
X209777786Y-74744640D01*
X209777791Y-74744651D01*
X209899727Y-74955848D01*
X209899738Y-74955864D01*
X210048199Y-75149343D01*
X210048205Y-75149350D01*
X210220649Y-75321794D01*
X210220655Y-75321799D01*
X210414144Y-75470268D01*
X210414151Y-75470272D01*
X210625348Y-75592208D01*
X210625353Y-75592210D01*
X210625356Y-75592212D01*
X210850679Y-75685544D01*
X211086256Y-75748666D01*
X211328056Y-75780500D01*
X211328063Y-75780500D01*
X211571937Y-75780500D01*
X211571944Y-75780500D01*
X211813744Y-75748666D01*
X212049321Y-75685544D01*
X212274644Y-75592212D01*
X212485856Y-75470268D01*
X212679345Y-75321799D01*
X212851799Y-75149345D01*
X213000268Y-74955856D01*
X213122212Y-74744644D01*
X213215544Y-74519321D01*
X213278666Y-74283744D01*
X213310499Y-74041951D01*
X236289500Y-74041951D01*
X236316013Y-74243333D01*
X236321334Y-74283744D01*
X236321335Y-74283746D01*
X236384456Y-74519320D01*
X236384459Y-74519330D01*
X236477786Y-74744640D01*
X236477791Y-74744651D01*
X236599727Y-74955848D01*
X236599738Y-74955864D01*
X236748199Y-75149343D01*
X236748205Y-75149350D01*
X236920649Y-75321794D01*
X236920655Y-75321799D01*
X237114144Y-75470268D01*
X237114151Y-75470272D01*
X237325348Y-75592208D01*
X237325353Y-75592210D01*
X237325356Y-75592212D01*
X237550679Y-75685544D01*
X237786256Y-75748666D01*
X238028056Y-75780500D01*
X238028063Y-75780500D01*
X238271937Y-75780500D01*
X238271944Y-75780500D01*
X238513744Y-75748666D01*
X238749321Y-75685544D01*
X238974644Y-75592212D01*
X239185856Y-75470268D01*
X239379345Y-75321799D01*
X239551799Y-75149345D01*
X239700268Y-74955856D01*
X239822212Y-74744644D01*
X239915544Y-74519321D01*
X239978666Y-74283744D01*
X240010499Y-74041951D01*
X245789500Y-74041951D01*
X245816013Y-74243333D01*
X245821334Y-74283744D01*
X245821335Y-74283746D01*
X245884456Y-74519320D01*
X245884459Y-74519330D01*
X245977786Y-74744640D01*
X245977791Y-74744651D01*
X246099727Y-74955848D01*
X246099738Y-74955864D01*
X246248199Y-75149343D01*
X246248205Y-75149350D01*
X246420649Y-75321794D01*
X246420655Y-75321799D01*
X246614144Y-75470268D01*
X246614151Y-75470272D01*
X246825348Y-75592208D01*
X246825353Y-75592210D01*
X246825356Y-75592212D01*
X247050679Y-75685544D01*
X247286256Y-75748666D01*
X247528056Y-75780500D01*
X247528063Y-75780500D01*
X247771937Y-75780500D01*
X247771944Y-75780500D01*
X248013744Y-75748666D01*
X248249321Y-75685544D01*
X248474644Y-75592212D01*
X248685856Y-75470268D01*
X248879345Y-75321799D01*
X249051799Y-75149345D01*
X249200268Y-74955856D01*
X249322212Y-74744644D01*
X249415544Y-74519321D01*
X249478666Y-74283744D01*
X249510500Y-74041944D01*
X249510500Y-73278056D01*
X249478666Y-73036256D01*
X249415544Y-72800679D01*
X249322212Y-72575356D01*
X249322210Y-72575353D01*
X249322208Y-72575348D01*
X249200272Y-72364151D01*
X249200268Y-72364144D01*
X249051799Y-72170655D01*
X249051794Y-72170649D01*
X248879350Y-71998205D01*
X248879343Y-71998199D01*
X248685864Y-71849738D01*
X248685862Y-71849736D01*
X248685856Y-71849732D01*
X248685851Y-71849729D01*
X248685848Y-71849727D01*
X248474651Y-71727791D01*
X248474640Y-71727786D01*
X248249330Y-71634459D01*
X248249323Y-71634457D01*
X248249321Y-71634456D01*
X248013744Y-71571334D01*
X247973333Y-71566013D01*
X247771951Y-71539500D01*
X247771944Y-71539500D01*
X247528056Y-71539500D01*
X247528048Y-71539500D01*
X247297896Y-71569801D01*
X247286256Y-71571334D01*
X247050679Y-71634456D01*
X247050669Y-71634459D01*
X246825359Y-71727786D01*
X246825348Y-71727791D01*
X246614151Y-71849727D01*
X246614135Y-71849738D01*
X246420656Y-71998199D01*
X246420649Y-71998205D01*
X246248205Y-72170649D01*
X246248199Y-72170656D01*
X246099738Y-72364135D01*
X246099727Y-72364151D01*
X245977791Y-72575348D01*
X245977786Y-72575359D01*
X245884459Y-72800669D01*
X245884456Y-72800679D01*
X245821335Y-73036253D01*
X245821333Y-73036264D01*
X245789500Y-73278048D01*
X245789500Y-74041951D01*
X240010499Y-74041951D01*
X240010500Y-74041944D01*
X240010500Y-73278056D01*
X239978666Y-73036256D01*
X239915544Y-72800679D01*
X239822212Y-72575356D01*
X239822210Y-72575353D01*
X239822208Y-72575348D01*
X239700272Y-72364151D01*
X239700268Y-72364144D01*
X239551799Y-72170655D01*
X239551794Y-72170649D01*
X239379350Y-71998205D01*
X239379343Y-71998199D01*
X239185864Y-71849738D01*
X239185862Y-71849736D01*
X239185856Y-71849732D01*
X239185851Y-71849729D01*
X239185848Y-71849727D01*
X238974651Y-71727791D01*
X238974640Y-71727786D01*
X238749330Y-71634459D01*
X238749323Y-71634457D01*
X238749321Y-71634456D01*
X238513744Y-71571334D01*
X238473333Y-71566013D01*
X238271951Y-71539500D01*
X238271944Y-71539500D01*
X238028056Y-71539500D01*
X238028048Y-71539500D01*
X237797896Y-71569801D01*
X237786256Y-71571334D01*
X237550679Y-71634456D01*
X237550669Y-71634459D01*
X237325359Y-71727786D01*
X237325348Y-71727791D01*
X237114151Y-71849727D01*
X237114135Y-71849738D01*
X236920656Y-71998199D01*
X236920649Y-71998205D01*
X236748205Y-72170649D01*
X236748199Y-72170656D01*
X236599738Y-72364135D01*
X236599727Y-72364151D01*
X236477791Y-72575348D01*
X236477786Y-72575359D01*
X236384459Y-72800669D01*
X236384456Y-72800679D01*
X236321335Y-73036253D01*
X236321333Y-73036264D01*
X236289500Y-73278048D01*
X236289500Y-74041951D01*
X213310499Y-74041951D01*
X213310500Y-74041944D01*
X213310500Y-73278056D01*
X213278666Y-73036256D01*
X213215544Y-72800679D01*
X213122212Y-72575356D01*
X213122210Y-72575353D01*
X213122208Y-72575348D01*
X213000272Y-72364151D01*
X213000268Y-72364144D01*
X212851799Y-72170655D01*
X212851794Y-72170649D01*
X212679350Y-71998205D01*
X212679343Y-71998199D01*
X212485864Y-71849738D01*
X212485862Y-71849736D01*
X212485856Y-71849732D01*
X212485851Y-71849729D01*
X212485848Y-71849727D01*
X212274651Y-71727791D01*
X212274640Y-71727786D01*
X212049330Y-71634459D01*
X212049323Y-71634457D01*
X212049321Y-71634456D01*
X211813744Y-71571334D01*
X211773333Y-71566013D01*
X211571951Y-71539500D01*
X211571944Y-71539500D01*
X211328056Y-71539500D01*
X211328048Y-71539500D01*
X211097896Y-71569801D01*
X211086256Y-71571334D01*
X210850679Y-71634456D01*
X210850669Y-71634459D01*
X210625359Y-71727786D01*
X210625348Y-71727791D01*
X210414151Y-71849727D01*
X210414135Y-71849738D01*
X210220656Y-71998199D01*
X210220649Y-71998205D01*
X210048205Y-72170649D01*
X210048199Y-72170656D01*
X209899738Y-72364135D01*
X209899727Y-72364151D01*
X209777791Y-72575348D01*
X209777786Y-72575359D01*
X209684459Y-72800669D01*
X209684456Y-72800679D01*
X209621335Y-73036253D01*
X209621333Y-73036264D01*
X209589500Y-73278048D01*
X209589500Y-74041951D01*
X203810499Y-74041951D01*
X203810500Y-74041944D01*
X203810500Y-73278056D01*
X203778666Y-73036256D01*
X203715544Y-72800679D01*
X203622212Y-72575356D01*
X203622210Y-72575353D01*
X203622208Y-72575348D01*
X203500272Y-72364151D01*
X203500268Y-72364144D01*
X203351799Y-72170655D01*
X203351794Y-72170649D01*
X203179350Y-71998205D01*
X203179343Y-71998199D01*
X202985864Y-71849738D01*
X202985862Y-71849736D01*
X202985856Y-71849732D01*
X202985851Y-71849729D01*
X202985848Y-71849727D01*
X202774651Y-71727791D01*
X202774640Y-71727786D01*
X202549330Y-71634459D01*
X202549323Y-71634457D01*
X202549321Y-71634456D01*
X202313744Y-71571334D01*
X202273333Y-71566013D01*
X202071951Y-71539500D01*
X202071944Y-71539500D01*
X201828056Y-71539500D01*
X201828048Y-71539500D01*
X201597896Y-71569801D01*
X201586256Y-71571334D01*
X201350679Y-71634456D01*
X201350669Y-71634459D01*
X201125359Y-71727786D01*
X201125348Y-71727791D01*
X200914151Y-71849727D01*
X200914135Y-71849738D01*
X200720656Y-71998199D01*
X200720649Y-71998205D01*
X200548205Y-72170649D01*
X200548199Y-72170656D01*
X200399738Y-72364135D01*
X200399727Y-72364151D01*
X200277791Y-72575348D01*
X200277786Y-72575359D01*
X200184459Y-72800669D01*
X200184456Y-72800679D01*
X200121335Y-73036253D01*
X200121333Y-73036264D01*
X200089500Y-73278048D01*
X200089500Y-74041951D01*
X177110499Y-74041951D01*
X177110500Y-74041944D01*
X177110500Y-73278056D01*
X177078666Y-73036256D01*
X177015544Y-72800679D01*
X176922212Y-72575356D01*
X176922210Y-72575353D01*
X176922208Y-72575348D01*
X176800272Y-72364151D01*
X176800268Y-72364144D01*
X176651799Y-72170655D01*
X176651794Y-72170649D01*
X176479350Y-71998205D01*
X176479343Y-71998199D01*
X176285864Y-71849738D01*
X176285862Y-71849736D01*
X176285856Y-71849732D01*
X176285851Y-71849729D01*
X176285848Y-71849727D01*
X176074651Y-71727791D01*
X176074640Y-71727786D01*
X175849330Y-71634459D01*
X175849323Y-71634457D01*
X175849321Y-71634456D01*
X175613744Y-71571334D01*
X175573333Y-71566013D01*
X175371951Y-71539500D01*
X175371944Y-71539500D01*
X175128056Y-71539500D01*
X175128048Y-71539500D01*
X174897896Y-71569801D01*
X174886256Y-71571334D01*
X174650679Y-71634456D01*
X174650669Y-71634459D01*
X174425359Y-71727786D01*
X174425348Y-71727791D01*
X174214151Y-71849727D01*
X174214135Y-71849738D01*
X174020656Y-71998199D01*
X174020649Y-71998205D01*
X173848205Y-72170649D01*
X173848199Y-72170656D01*
X173699738Y-72364135D01*
X173699727Y-72364151D01*
X173577791Y-72575348D01*
X173577786Y-72575359D01*
X173484459Y-72800669D01*
X173484456Y-72800679D01*
X173421335Y-73036253D01*
X173421333Y-73036264D01*
X173389500Y-73278048D01*
X173389500Y-74041951D01*
X167610499Y-74041951D01*
X167610500Y-74041944D01*
X167610500Y-73278056D01*
X167578666Y-73036256D01*
X167515544Y-72800679D01*
X167422212Y-72575356D01*
X167422210Y-72575353D01*
X167422208Y-72575348D01*
X167300272Y-72364151D01*
X167300268Y-72364144D01*
X167151799Y-72170655D01*
X167151794Y-72170649D01*
X166979350Y-71998205D01*
X166979343Y-71998199D01*
X166785864Y-71849738D01*
X166785862Y-71849736D01*
X166785856Y-71849732D01*
X166785851Y-71849729D01*
X166785848Y-71849727D01*
X166574651Y-71727791D01*
X166574640Y-71727786D01*
X166349330Y-71634459D01*
X166349323Y-71634457D01*
X166349321Y-71634456D01*
X166113744Y-71571334D01*
X166073333Y-71566013D01*
X165871951Y-71539500D01*
X165871944Y-71539500D01*
X165628056Y-71539500D01*
X165628048Y-71539500D01*
X165397896Y-71569801D01*
X165386256Y-71571334D01*
X165150679Y-71634456D01*
X165150669Y-71634459D01*
X164925359Y-71727786D01*
X164925348Y-71727791D01*
X164714151Y-71849727D01*
X164714135Y-71849738D01*
X164520656Y-71998199D01*
X164520649Y-71998205D01*
X164348205Y-72170649D01*
X164348199Y-72170656D01*
X164199738Y-72364135D01*
X164199727Y-72364151D01*
X164077791Y-72575348D01*
X164077786Y-72575359D01*
X163984459Y-72800669D01*
X163984456Y-72800679D01*
X163921335Y-73036253D01*
X163921333Y-73036264D01*
X163889500Y-73278048D01*
X163889500Y-74041951D01*
X140910499Y-74041951D01*
X140910500Y-74041944D01*
X140910500Y-73278056D01*
X140878666Y-73036256D01*
X140815544Y-72800679D01*
X140722212Y-72575356D01*
X140722210Y-72575353D01*
X140722208Y-72575348D01*
X140600272Y-72364151D01*
X140600268Y-72364144D01*
X140451799Y-72170655D01*
X140451794Y-72170649D01*
X140279350Y-71998205D01*
X140279343Y-71998199D01*
X140085864Y-71849738D01*
X140085862Y-71849736D01*
X140085856Y-71849732D01*
X140085851Y-71849729D01*
X140085848Y-71849727D01*
X139874651Y-71727791D01*
X139874640Y-71727786D01*
X139649330Y-71634459D01*
X139649323Y-71634457D01*
X139649321Y-71634456D01*
X139413744Y-71571334D01*
X139373333Y-71566013D01*
X139171951Y-71539500D01*
X139171944Y-71539500D01*
X138928056Y-71539500D01*
X138928048Y-71539500D01*
X138697896Y-71569801D01*
X138686256Y-71571334D01*
X138450679Y-71634456D01*
X138450669Y-71634459D01*
X138225359Y-71727786D01*
X138225348Y-71727791D01*
X138014151Y-71849727D01*
X138014135Y-71849738D01*
X137820656Y-71998199D01*
X137820649Y-71998205D01*
X137648205Y-72170649D01*
X137648199Y-72170656D01*
X137499738Y-72364135D01*
X137499727Y-72364151D01*
X137377791Y-72575348D01*
X137377786Y-72575359D01*
X137284459Y-72800669D01*
X137284456Y-72800679D01*
X137221335Y-73036253D01*
X137221333Y-73036264D01*
X137189500Y-73278048D01*
X137189500Y-74041951D01*
X131410499Y-74041951D01*
X131410500Y-74041944D01*
X131410500Y-73278056D01*
X131378666Y-73036256D01*
X131315544Y-72800679D01*
X131222212Y-72575356D01*
X131222210Y-72575353D01*
X131222208Y-72575348D01*
X131100272Y-72364151D01*
X131100268Y-72364144D01*
X130951799Y-72170655D01*
X130951794Y-72170649D01*
X130779350Y-71998205D01*
X130779343Y-71998199D01*
X130585864Y-71849738D01*
X130585862Y-71849736D01*
X130585856Y-71849732D01*
X130585851Y-71849729D01*
X130585848Y-71849727D01*
X130374651Y-71727791D01*
X130374640Y-71727786D01*
X130149330Y-71634459D01*
X130149323Y-71634457D01*
X130149321Y-71634456D01*
X129913744Y-71571334D01*
X129873333Y-71566013D01*
X129671951Y-71539500D01*
X129671944Y-71539500D01*
X129428056Y-71539500D01*
X129428048Y-71539500D01*
X129197896Y-71569801D01*
X129186256Y-71571334D01*
X128950679Y-71634456D01*
X128950669Y-71634459D01*
X128725359Y-71727786D01*
X128725348Y-71727791D01*
X128514151Y-71849727D01*
X128514135Y-71849738D01*
X128320656Y-71998199D01*
X128320649Y-71998205D01*
X128148205Y-72170649D01*
X128148199Y-72170656D01*
X127999738Y-72364135D01*
X127999727Y-72364151D01*
X127877791Y-72575348D01*
X127877786Y-72575359D01*
X127784459Y-72800669D01*
X127784456Y-72800679D01*
X127721335Y-73036253D01*
X127721333Y-73036264D01*
X127689500Y-73278048D01*
X127689500Y-74041951D01*
X104710499Y-74041951D01*
X104710500Y-74041944D01*
X104710500Y-73278056D01*
X104678666Y-73036256D01*
X104615544Y-72800679D01*
X104522212Y-72575356D01*
X104522210Y-72575353D01*
X104522208Y-72575348D01*
X104400272Y-72364151D01*
X104400268Y-72364144D01*
X104251799Y-72170655D01*
X104251794Y-72170649D01*
X104079350Y-71998205D01*
X104079343Y-71998199D01*
X103885864Y-71849738D01*
X103885862Y-71849736D01*
X103885856Y-71849732D01*
X103885851Y-71849729D01*
X103885848Y-71849727D01*
X103674651Y-71727791D01*
X103674640Y-71727786D01*
X103449330Y-71634459D01*
X103449323Y-71634457D01*
X103449321Y-71634456D01*
X103213744Y-71571334D01*
X103173333Y-71566013D01*
X102971951Y-71539500D01*
X102971944Y-71539500D01*
X102728056Y-71539500D01*
X102728048Y-71539500D01*
X102497896Y-71569801D01*
X102486256Y-71571334D01*
X102250679Y-71634456D01*
X102250669Y-71634459D01*
X102025359Y-71727786D01*
X102025348Y-71727791D01*
X101814151Y-71849727D01*
X101814135Y-71849738D01*
X101620656Y-71998199D01*
X101620649Y-71998205D01*
X101448205Y-72170649D01*
X101448199Y-72170656D01*
X101299738Y-72364135D01*
X101299727Y-72364151D01*
X101177791Y-72575348D01*
X101177786Y-72575359D01*
X101084459Y-72800669D01*
X101084456Y-72800679D01*
X101021335Y-73036253D01*
X101021333Y-73036264D01*
X100989500Y-73278048D01*
X100989500Y-74041951D01*
X95210499Y-74041951D01*
X95210500Y-74041944D01*
X95210500Y-73278056D01*
X95178666Y-73036256D01*
X95115544Y-72800679D01*
X95022212Y-72575356D01*
X95022210Y-72575353D01*
X95022208Y-72575348D01*
X94900272Y-72364151D01*
X94900268Y-72364144D01*
X94751799Y-72170655D01*
X94751794Y-72170649D01*
X94579350Y-71998205D01*
X94579343Y-71998199D01*
X94385864Y-71849738D01*
X94385862Y-71849736D01*
X94385856Y-71849732D01*
X94385851Y-71849729D01*
X94385848Y-71849727D01*
X94174651Y-71727791D01*
X94174640Y-71727786D01*
X93949330Y-71634459D01*
X93949323Y-71634457D01*
X93949321Y-71634456D01*
X93713744Y-71571334D01*
X93673333Y-71566013D01*
X93471951Y-71539500D01*
X93471944Y-71539500D01*
X93228056Y-71539500D01*
X93228048Y-71539500D01*
X92997896Y-71569801D01*
X92986256Y-71571334D01*
X92750679Y-71634456D01*
X92750669Y-71634459D01*
X92525359Y-71727786D01*
X92525348Y-71727791D01*
X92314151Y-71849727D01*
X92314135Y-71849738D01*
X92120656Y-71998199D01*
X92120649Y-71998205D01*
X91948205Y-72170649D01*
X91948199Y-72170656D01*
X91799738Y-72364135D01*
X91799727Y-72364151D01*
X91677791Y-72575348D01*
X91677786Y-72575359D01*
X91584459Y-72800669D01*
X91584456Y-72800679D01*
X91521335Y-73036253D01*
X91521333Y-73036264D01*
X91489500Y-73278048D01*
X91489500Y-74041951D01*
X68510499Y-74041951D01*
X68510500Y-74041944D01*
X68510500Y-73278056D01*
X68478666Y-73036256D01*
X68415544Y-72800679D01*
X68322212Y-72575356D01*
X68322210Y-72575353D01*
X68322208Y-72575348D01*
X68200272Y-72364151D01*
X68200268Y-72364144D01*
X68051799Y-72170655D01*
X68051794Y-72170649D01*
X67879350Y-71998205D01*
X67879343Y-71998199D01*
X67685864Y-71849738D01*
X67685862Y-71849736D01*
X67685856Y-71849732D01*
X67685851Y-71849729D01*
X67685848Y-71849727D01*
X67474651Y-71727791D01*
X67474640Y-71727786D01*
X67249330Y-71634459D01*
X67249323Y-71634457D01*
X67249321Y-71634456D01*
X67013744Y-71571334D01*
X66973333Y-71566013D01*
X66771951Y-71539500D01*
X66771944Y-71539500D01*
X66528056Y-71539500D01*
X66528048Y-71539500D01*
X66297896Y-71569801D01*
X66286256Y-71571334D01*
X66050679Y-71634456D01*
X66050669Y-71634459D01*
X65825359Y-71727786D01*
X65825348Y-71727791D01*
X65614151Y-71849727D01*
X65614135Y-71849738D01*
X65420656Y-71998199D01*
X65420649Y-71998205D01*
X65248205Y-72170649D01*
X65248199Y-72170656D01*
X65099738Y-72364135D01*
X65099727Y-72364151D01*
X64977791Y-72575348D01*
X64977786Y-72575359D01*
X64884459Y-72800669D01*
X64884456Y-72800679D01*
X64821335Y-73036253D01*
X64821333Y-73036264D01*
X64789500Y-73278048D01*
X64789500Y-74041951D01*
X59010499Y-74041951D01*
X59010500Y-74041944D01*
X59010500Y-73278056D01*
X58978666Y-73036256D01*
X58915544Y-72800679D01*
X58822212Y-72575356D01*
X58822210Y-72575353D01*
X58822208Y-72575348D01*
X58700272Y-72364151D01*
X58700268Y-72364144D01*
X58551799Y-72170655D01*
X58551794Y-72170649D01*
X58379350Y-71998205D01*
X58379343Y-71998199D01*
X58185864Y-71849738D01*
X58185862Y-71849736D01*
X58185856Y-71849732D01*
X58185851Y-71849729D01*
X58185848Y-71849727D01*
X57974651Y-71727791D01*
X57974640Y-71727786D01*
X57749330Y-71634459D01*
X57749323Y-71634457D01*
X57749321Y-71634456D01*
X57513744Y-71571334D01*
X57473333Y-71566013D01*
X57271951Y-71539500D01*
X57271944Y-71539500D01*
X57028056Y-71539500D01*
X57028048Y-71539500D01*
X56797896Y-71569801D01*
X56786256Y-71571334D01*
X56550679Y-71634456D01*
X56550669Y-71634459D01*
X56325359Y-71727786D01*
X56325348Y-71727791D01*
X56114151Y-71849727D01*
X56114135Y-71849738D01*
X55920656Y-71998199D01*
X55920649Y-71998205D01*
X55748205Y-72170649D01*
X55748199Y-72170656D01*
X55599738Y-72364135D01*
X55599727Y-72364151D01*
X55477791Y-72575348D01*
X55477786Y-72575359D01*
X55384459Y-72800669D01*
X55384456Y-72800679D01*
X55321335Y-73036253D01*
X55321333Y-73036264D01*
X55289500Y-73278048D01*
X55289500Y-74041951D01*
X53340000Y-74041951D01*
X53340000Y-69850003D01*
X98254435Y-69850003D01*
X98274630Y-70029249D01*
X98274631Y-70029254D01*
X98334211Y-70199523D01*
X98430184Y-70352262D01*
X98557738Y-70479816D01*
X98710478Y-70575789D01*
X98880745Y-70635368D01*
X98880750Y-70635369D01*
X99059996Y-70655565D01*
X99060000Y-70655565D01*
X99060004Y-70655565D01*
X99239249Y-70635369D01*
X99239252Y-70635368D01*
X99239255Y-70635368D01*
X99409522Y-70575789D01*
X99562262Y-70479816D01*
X99689816Y-70352262D01*
X99785789Y-70199522D01*
X99845368Y-70029255D01*
X99865565Y-69850000D01*
X99845368Y-69670745D01*
X99785789Y-69500478D01*
X99689816Y-69347738D01*
X99689814Y-69347736D01*
X99689813Y-69347734D01*
X99687550Y-69344896D01*
X99686659Y-69342715D01*
X99686111Y-69341842D01*
X99686264Y-69341745D01*
X99661144Y-69280209D01*
X99660500Y-69267587D01*
X99660500Y-62812412D01*
X99680185Y-62745373D01*
X99687555Y-62735097D01*
X99689810Y-62732267D01*
X99689816Y-62732262D01*
X99785789Y-62579522D01*
X99845368Y-62409255D01*
X99865565Y-62230000D01*
X99845368Y-62050745D01*
X99785789Y-61880478D01*
X99689816Y-61727738D01*
X99562262Y-61600184D01*
X99409523Y-61504211D01*
X99239254Y-61444631D01*
X99239249Y-61444630D01*
X99060004Y-61424435D01*
X99059996Y-61424435D01*
X98880750Y-61444630D01*
X98880745Y-61444631D01*
X98710476Y-61504211D01*
X98557737Y-61600184D01*
X98430184Y-61727737D01*
X98334211Y-61880476D01*
X98274631Y-62050745D01*
X98274630Y-62050750D01*
X98254435Y-62229996D01*
X98254435Y-62230003D01*
X98274630Y-62409249D01*
X98274631Y-62409254D01*
X98334211Y-62579523D01*
X98430185Y-62732263D01*
X98432445Y-62735097D01*
X98433334Y-62737275D01*
X98433889Y-62738158D01*
X98433734Y-62738255D01*
X98458855Y-62799783D01*
X98459500Y-62812412D01*
X98459500Y-69267587D01*
X98439815Y-69334626D01*
X98432450Y-69344896D01*
X98430186Y-69347734D01*
X98334211Y-69500476D01*
X98274631Y-69670745D01*
X98274630Y-69670750D01*
X98254435Y-69849996D01*
X98254435Y-69850003D01*
X53340000Y-69850003D01*
X53340000Y-66040001D01*
X54574532Y-66040001D01*
X54594364Y-66266686D01*
X54594366Y-66266697D01*
X54653258Y-66486488D01*
X54653261Y-66486497D01*
X54749431Y-66692732D01*
X54749432Y-66692734D01*
X54879954Y-66879141D01*
X55040858Y-67040045D01*
X55040861Y-67040047D01*
X55227266Y-67170568D01*
X55433504Y-67266739D01*
X55653308Y-67325635D01*
X55815230Y-67339801D01*
X55879998Y-67345468D01*
X55880000Y-67345468D01*
X55880002Y-67345468D01*
X55936807Y-67340498D01*
X56106692Y-67325635D01*
X56326496Y-67266739D01*
X56532734Y-67170568D01*
X56719139Y-67040047D01*
X56880047Y-66879139D01*
X57010568Y-66692734D01*
X57037618Y-66634724D01*
X57083790Y-66582285D01*
X57150983Y-66563133D01*
X57217865Y-66583348D01*
X57262382Y-66634725D01*
X57289429Y-66692728D01*
X57289432Y-66692734D01*
X57419954Y-66879141D01*
X57580858Y-67040045D01*
X57580861Y-67040047D01*
X57767266Y-67170568D01*
X57973504Y-67266739D01*
X58193308Y-67325635D01*
X58355230Y-67339801D01*
X58419998Y-67345468D01*
X58420000Y-67345468D01*
X58420002Y-67345468D01*
X58476807Y-67340498D01*
X58646692Y-67325635D01*
X58866496Y-67266739D01*
X59072734Y-67170568D01*
X59259139Y-67040047D01*
X59420047Y-66879139D01*
X59550568Y-66692734D01*
X59577618Y-66634724D01*
X59623790Y-66582285D01*
X59690983Y-66563133D01*
X59757865Y-66583348D01*
X59802382Y-66634725D01*
X59829429Y-66692728D01*
X59829432Y-66692734D01*
X59959954Y-66879141D01*
X60120858Y-67040045D01*
X60120861Y-67040047D01*
X60307266Y-67170568D01*
X60513504Y-67266739D01*
X60733308Y-67325635D01*
X60895230Y-67339801D01*
X60959998Y-67345468D01*
X60960000Y-67345468D01*
X60960002Y-67345468D01*
X61016807Y-67340498D01*
X61186692Y-67325635D01*
X61406496Y-67266739D01*
X61612734Y-67170568D01*
X61799139Y-67040047D01*
X61960047Y-66879139D01*
X62090568Y-66692734D01*
X62117618Y-66634724D01*
X62163790Y-66582285D01*
X62230983Y-66563133D01*
X62297865Y-66583348D01*
X62342382Y-66634725D01*
X62369429Y-66692728D01*
X62369432Y-66692734D01*
X62499954Y-66879141D01*
X62660858Y-67040045D01*
X62660861Y-67040047D01*
X62847266Y-67170568D01*
X63053504Y-67266739D01*
X63273308Y-67325635D01*
X63435230Y-67339801D01*
X63499998Y-67345468D01*
X63500000Y-67345468D01*
X63500002Y-67345468D01*
X63556807Y-67340498D01*
X63726692Y-67325635D01*
X63946496Y-67266739D01*
X64152734Y-67170568D01*
X64339139Y-67040047D01*
X64500047Y-66879139D01*
X64630568Y-66692734D01*
X64657618Y-66634724D01*
X64703790Y-66582285D01*
X64770983Y-66563133D01*
X64837865Y-66583348D01*
X64882382Y-66634725D01*
X64909429Y-66692728D01*
X64909432Y-66692734D01*
X65039954Y-66879141D01*
X65200858Y-67040045D01*
X65200861Y-67040047D01*
X65387266Y-67170568D01*
X65593504Y-67266739D01*
X65813308Y-67325635D01*
X65975230Y-67339801D01*
X66039998Y-67345468D01*
X66040000Y-67345468D01*
X66040002Y-67345468D01*
X66096807Y-67340498D01*
X66266692Y-67325635D01*
X66486496Y-67266739D01*
X66692734Y-67170568D01*
X66879139Y-67040047D01*
X67040047Y-66879139D01*
X67170568Y-66692734D01*
X67197618Y-66634724D01*
X67243790Y-66582285D01*
X67310983Y-66563133D01*
X67377865Y-66583348D01*
X67422382Y-66634725D01*
X67449429Y-66692728D01*
X67449432Y-66692734D01*
X67579954Y-66879141D01*
X67740858Y-67040045D01*
X67740861Y-67040047D01*
X67927266Y-67170568D01*
X68133504Y-67266739D01*
X68353308Y-67325635D01*
X68515230Y-67339801D01*
X68579998Y-67345468D01*
X68580000Y-67345468D01*
X68580002Y-67345468D01*
X68636807Y-67340498D01*
X68806692Y-67325635D01*
X69026496Y-67266739D01*
X69232734Y-67170568D01*
X69419139Y-67040047D01*
X69580047Y-66879139D01*
X69710568Y-66692734D01*
X69737618Y-66634724D01*
X69783790Y-66582285D01*
X69850983Y-66563133D01*
X69917865Y-66583348D01*
X69962382Y-66634725D01*
X69989429Y-66692728D01*
X69989432Y-66692734D01*
X70119954Y-66879141D01*
X70280858Y-67040045D01*
X70280861Y-67040047D01*
X70467266Y-67170568D01*
X70673504Y-67266739D01*
X70893308Y-67325635D01*
X71055230Y-67339801D01*
X71119998Y-67345468D01*
X71120000Y-67345468D01*
X71120002Y-67345468D01*
X71176807Y-67340498D01*
X71346692Y-67325635D01*
X71566496Y-67266739D01*
X71772734Y-67170568D01*
X71959139Y-67040047D01*
X72120047Y-66879139D01*
X72250568Y-66692734D01*
X72277618Y-66634724D01*
X72323790Y-66582285D01*
X72390983Y-66563133D01*
X72457865Y-66583348D01*
X72502382Y-66634725D01*
X72529429Y-66692728D01*
X72529432Y-66692734D01*
X72659954Y-66879141D01*
X72820858Y-67040045D01*
X72820861Y-67040047D01*
X73007266Y-67170568D01*
X73213504Y-67266739D01*
X73433308Y-67325635D01*
X73595230Y-67339801D01*
X73659998Y-67345468D01*
X73660000Y-67345468D01*
X73660002Y-67345468D01*
X73716807Y-67340498D01*
X73886692Y-67325635D01*
X74106496Y-67266739D01*
X74312734Y-67170568D01*
X74499139Y-67040047D01*
X74660047Y-66879139D01*
X74790568Y-66692734D01*
X74817618Y-66634724D01*
X74863790Y-66582285D01*
X74930983Y-66563133D01*
X74997865Y-66583348D01*
X75042382Y-66634725D01*
X75069429Y-66692728D01*
X75069432Y-66692734D01*
X75199954Y-66879141D01*
X75360858Y-67040045D01*
X75360861Y-67040047D01*
X75547266Y-67170568D01*
X75753504Y-67266739D01*
X75973308Y-67325635D01*
X76135230Y-67339801D01*
X76199998Y-67345468D01*
X76200000Y-67345468D01*
X76200002Y-67345468D01*
X76256807Y-67340498D01*
X76426692Y-67325635D01*
X76646496Y-67266739D01*
X76852734Y-67170568D01*
X77039139Y-67040047D01*
X77200047Y-66879139D01*
X77330568Y-66692734D01*
X77357618Y-66634724D01*
X77403790Y-66582285D01*
X77470983Y-66563133D01*
X77537865Y-66583348D01*
X77582382Y-66634725D01*
X77609429Y-66692728D01*
X77609432Y-66692734D01*
X77739954Y-66879141D01*
X77900858Y-67040045D01*
X77900861Y-67040047D01*
X78087266Y-67170568D01*
X78293504Y-67266739D01*
X78513308Y-67325635D01*
X78675230Y-67339801D01*
X78739998Y-67345468D01*
X78740000Y-67345468D01*
X78740002Y-67345468D01*
X78796807Y-67340498D01*
X78966692Y-67325635D01*
X79186496Y-67266739D01*
X79392734Y-67170568D01*
X79579139Y-67040047D01*
X79740047Y-66879139D01*
X79870568Y-66692734D01*
X79897618Y-66634724D01*
X79943790Y-66582285D01*
X80010983Y-66563133D01*
X80077865Y-66583348D01*
X80122382Y-66634725D01*
X80149429Y-66692728D01*
X80149432Y-66692734D01*
X80279954Y-66879141D01*
X80440858Y-67040045D01*
X80440861Y-67040047D01*
X80627266Y-67170568D01*
X80833504Y-67266739D01*
X81053308Y-67325635D01*
X81215230Y-67339801D01*
X81279998Y-67345468D01*
X81280000Y-67345468D01*
X81280002Y-67345468D01*
X81336807Y-67340498D01*
X81506692Y-67325635D01*
X81726496Y-67266739D01*
X81932734Y-67170568D01*
X82119139Y-67040047D01*
X82280047Y-66879139D01*
X82410568Y-66692734D01*
X82437895Y-66634129D01*
X82484064Y-66581695D01*
X82551257Y-66562542D01*
X82618139Y-66582757D01*
X82662657Y-66634133D01*
X82689865Y-66692482D01*
X82820342Y-66878820D01*
X82981179Y-67039657D01*
X83167517Y-67170134D01*
X83373673Y-67266265D01*
X83373682Y-67266269D01*
X83569999Y-67318872D01*
X83570000Y-67318871D01*
X83570000Y-66473012D01*
X83627007Y-66505925D01*
X83754174Y-66540000D01*
X83885826Y-66540000D01*
X84012993Y-66505925D01*
X84070000Y-66473012D01*
X84070000Y-67318872D01*
X84266317Y-67266269D01*
X84266326Y-67266265D01*
X84472482Y-67170134D01*
X84658820Y-67039657D01*
X84819657Y-66878820D01*
X84950132Y-66692484D01*
X84977341Y-66634134D01*
X85023513Y-66581695D01*
X85090707Y-66562542D01*
X85157588Y-66582757D01*
X85202106Y-66634133D01*
X85229431Y-66692732D01*
X85229432Y-66692734D01*
X85359954Y-66879141D01*
X85520858Y-67040045D01*
X85520861Y-67040047D01*
X85707266Y-67170568D01*
X85913504Y-67266739D01*
X86133308Y-67325635D01*
X86295230Y-67339801D01*
X86359998Y-67345468D01*
X86360000Y-67345468D01*
X86360002Y-67345468D01*
X86416807Y-67340498D01*
X86586692Y-67325635D01*
X86806496Y-67266739D01*
X87012734Y-67170568D01*
X87199139Y-67040047D01*
X87360047Y-66879139D01*
X87490568Y-66692734D01*
X87517618Y-66634724D01*
X87563790Y-66582285D01*
X87630983Y-66563133D01*
X87697865Y-66583348D01*
X87742382Y-66634725D01*
X87769429Y-66692728D01*
X87769432Y-66692734D01*
X87899954Y-66879141D01*
X88060858Y-67040045D01*
X88060861Y-67040047D01*
X88247266Y-67170568D01*
X88453504Y-67266739D01*
X88673308Y-67325635D01*
X88835230Y-67339801D01*
X88899998Y-67345468D01*
X88900000Y-67345468D01*
X88900002Y-67345468D01*
X88956807Y-67340498D01*
X89126692Y-67325635D01*
X89346496Y-67266739D01*
X89552734Y-67170568D01*
X89739139Y-67040047D01*
X89900047Y-66879139D01*
X89917272Y-66854539D01*
X89971848Y-66810913D01*
X90041346Y-66803718D01*
X90103701Y-66835239D01*
X90139116Y-66895468D01*
X90142138Y-66912406D01*
X90145908Y-66947483D01*
X90196202Y-67082328D01*
X90196206Y-67082335D01*
X90282452Y-67197544D01*
X90282455Y-67197547D01*
X90397664Y-67283793D01*
X90397671Y-67283797D01*
X90532517Y-67334091D01*
X90532516Y-67334091D01*
X90539444Y-67334835D01*
X90592127Y-67340500D01*
X92287872Y-67340499D01*
X92347483Y-67334091D01*
X92482331Y-67283796D01*
X92597546Y-67197546D01*
X92683796Y-67082331D01*
X92734091Y-66947483D01*
X92740500Y-66887873D01*
X92740499Y-65192128D01*
X92734091Y-65132517D01*
X92699567Y-65039954D01*
X92683797Y-64997671D01*
X92683793Y-64997664D01*
X92597547Y-64882455D01*
X92597544Y-64882452D01*
X92482335Y-64796206D01*
X92482328Y-64796202D01*
X92347482Y-64745908D01*
X92347483Y-64745908D01*
X92287883Y-64739501D01*
X92287881Y-64739500D01*
X92287873Y-64739500D01*
X92287864Y-64739500D01*
X90592129Y-64739500D01*
X90592123Y-64739501D01*
X90532516Y-64745908D01*
X90397671Y-64796202D01*
X90397664Y-64796206D01*
X90282455Y-64882452D01*
X90282452Y-64882455D01*
X90196206Y-64997664D01*
X90196202Y-64997671D01*
X90145908Y-65132516D01*
X90142137Y-65167596D01*
X90115398Y-65232146D01*
X90058006Y-65271994D01*
X89988180Y-65274487D01*
X89928092Y-65238834D01*
X89917273Y-65225462D01*
X89900045Y-65200858D01*
X89739141Y-65039954D01*
X89552734Y-64909432D01*
X89552732Y-64909431D01*
X89346497Y-64813261D01*
X89346488Y-64813258D01*
X89126697Y-64754366D01*
X89126693Y-64754365D01*
X89126692Y-64754365D01*
X89126691Y-64754364D01*
X89126686Y-64754364D01*
X88900002Y-64734532D01*
X88899998Y-64734532D01*
X88673313Y-64754364D01*
X88673302Y-64754366D01*
X88453511Y-64813258D01*
X88453502Y-64813261D01*
X88247267Y-64909431D01*
X88247265Y-64909432D01*
X88060858Y-65039954D01*
X87899954Y-65200858D01*
X87769432Y-65387265D01*
X87769431Y-65387267D01*
X87742382Y-65445275D01*
X87696209Y-65497714D01*
X87629016Y-65516866D01*
X87562135Y-65496650D01*
X87517618Y-65445275D01*
X87490686Y-65387520D01*
X87490568Y-65387266D01*
X87360047Y-65200861D01*
X87360045Y-65200858D01*
X87199141Y-65039954D01*
X87012734Y-64909432D01*
X87012732Y-64909431D01*
X86806497Y-64813261D01*
X86806488Y-64813258D01*
X86586697Y-64754366D01*
X86586693Y-64754365D01*
X86586692Y-64754365D01*
X86586691Y-64754364D01*
X86586686Y-64754364D01*
X86360002Y-64734532D01*
X86359998Y-64734532D01*
X86133313Y-64754364D01*
X86133302Y-64754366D01*
X85913511Y-64813258D01*
X85913502Y-64813261D01*
X85707267Y-64909431D01*
X85707265Y-64909432D01*
X85520858Y-65039954D01*
X85359954Y-65200858D01*
X85229433Y-65387264D01*
X85229432Y-65387266D01*
X85229315Y-65387518D01*
X85202106Y-65445867D01*
X85155933Y-65498306D01*
X85088739Y-65517457D01*
X85021858Y-65497241D01*
X84977342Y-65445865D01*
X84950135Y-65387520D01*
X84950134Y-65387518D01*
X84819657Y-65201179D01*
X84658820Y-65040342D01*
X84472482Y-64909865D01*
X84266328Y-64813734D01*
X84070000Y-64761127D01*
X84070000Y-65606988D01*
X84012993Y-65574075D01*
X83885826Y-65540000D01*
X83754174Y-65540000D01*
X83627007Y-65574075D01*
X83570000Y-65606988D01*
X83570000Y-64761127D01*
X83373671Y-64813734D01*
X83167517Y-64909865D01*
X82981179Y-65040342D01*
X82820342Y-65201179D01*
X82689867Y-65387515D01*
X82662657Y-65445867D01*
X82616484Y-65498306D01*
X82549290Y-65517457D01*
X82482409Y-65497241D01*
X82437893Y-65445865D01*
X82410685Y-65387518D01*
X82410568Y-65387266D01*
X82280047Y-65200861D01*
X82280045Y-65200858D01*
X82119141Y-65039954D01*
X81932734Y-64909432D01*
X81932732Y-64909431D01*
X81726497Y-64813261D01*
X81726488Y-64813258D01*
X81506697Y-64754366D01*
X81506693Y-64754365D01*
X81506692Y-64754365D01*
X81506691Y-64754364D01*
X81506686Y-64754364D01*
X81280002Y-64734532D01*
X81279998Y-64734532D01*
X81053313Y-64754364D01*
X81053302Y-64754366D01*
X80833511Y-64813258D01*
X80833502Y-64813261D01*
X80627267Y-64909431D01*
X80627265Y-64909432D01*
X80440858Y-65039954D01*
X80279954Y-65200858D01*
X80149432Y-65387265D01*
X80149431Y-65387267D01*
X80122382Y-65445275D01*
X80076209Y-65497714D01*
X80009016Y-65516866D01*
X79942135Y-65496650D01*
X79897618Y-65445275D01*
X79870686Y-65387520D01*
X79870568Y-65387266D01*
X79740047Y-65200861D01*
X79740045Y-65200858D01*
X79579141Y-65039954D01*
X79392734Y-64909432D01*
X79392732Y-64909431D01*
X79186497Y-64813261D01*
X79186488Y-64813258D01*
X78966697Y-64754366D01*
X78966693Y-64754365D01*
X78966692Y-64754365D01*
X78966691Y-64754364D01*
X78966686Y-64754364D01*
X78740002Y-64734532D01*
X78739998Y-64734532D01*
X78513313Y-64754364D01*
X78513302Y-64754366D01*
X78293511Y-64813258D01*
X78293502Y-64813261D01*
X78087267Y-64909431D01*
X78087265Y-64909432D01*
X77900858Y-65039954D01*
X77739954Y-65200858D01*
X77609432Y-65387265D01*
X77609431Y-65387267D01*
X77582382Y-65445275D01*
X77536209Y-65497714D01*
X77469016Y-65516866D01*
X77402135Y-65496650D01*
X77357618Y-65445275D01*
X77330686Y-65387520D01*
X77330568Y-65387266D01*
X77200047Y-65200861D01*
X77200045Y-65200858D01*
X77039141Y-65039954D01*
X76852734Y-64909432D01*
X76852732Y-64909431D01*
X76646497Y-64813261D01*
X76646488Y-64813258D01*
X76426697Y-64754366D01*
X76426693Y-64754365D01*
X76426692Y-64754365D01*
X76426691Y-64754364D01*
X76426686Y-64754364D01*
X76200002Y-64734532D01*
X76199998Y-64734532D01*
X75973313Y-64754364D01*
X75973302Y-64754366D01*
X75753511Y-64813258D01*
X75753502Y-64813261D01*
X75547267Y-64909431D01*
X75547265Y-64909432D01*
X75360858Y-65039954D01*
X75199954Y-65200858D01*
X75069432Y-65387265D01*
X75069431Y-65387267D01*
X75042382Y-65445275D01*
X74996209Y-65497714D01*
X74929016Y-65516866D01*
X74862135Y-65496650D01*
X74817618Y-65445275D01*
X74790686Y-65387520D01*
X74790568Y-65387266D01*
X74660047Y-65200861D01*
X74660045Y-65200858D01*
X74499141Y-65039954D01*
X74312734Y-64909432D01*
X74312732Y-64909431D01*
X74106497Y-64813261D01*
X74106488Y-64813258D01*
X73886697Y-64754366D01*
X73886693Y-64754365D01*
X73886692Y-64754365D01*
X73886691Y-64754364D01*
X73886686Y-64754364D01*
X73660002Y-64734532D01*
X73659998Y-64734532D01*
X73433313Y-64754364D01*
X73433302Y-64754366D01*
X73213511Y-64813258D01*
X73213502Y-64813261D01*
X73007267Y-64909431D01*
X73007265Y-64909432D01*
X72820858Y-65039954D01*
X72659954Y-65200858D01*
X72529432Y-65387265D01*
X72529431Y-65387267D01*
X72502382Y-65445275D01*
X72456209Y-65497714D01*
X72389016Y-65516866D01*
X72322135Y-65496650D01*
X72277618Y-65445275D01*
X72250686Y-65387520D01*
X72250568Y-65387266D01*
X72120047Y-65200861D01*
X72120045Y-65200858D01*
X71959141Y-65039954D01*
X71772734Y-64909432D01*
X71772732Y-64909431D01*
X71566497Y-64813261D01*
X71566488Y-64813258D01*
X71346697Y-64754366D01*
X71346693Y-64754365D01*
X71346692Y-64754365D01*
X71346691Y-64754364D01*
X71346686Y-64754364D01*
X71120002Y-64734532D01*
X71119998Y-64734532D01*
X70893313Y-64754364D01*
X70893302Y-64754366D01*
X70673511Y-64813258D01*
X70673502Y-64813261D01*
X70467267Y-64909431D01*
X70467265Y-64909432D01*
X70280858Y-65039954D01*
X70119954Y-65200858D01*
X69989432Y-65387265D01*
X69989431Y-65387267D01*
X69962382Y-65445275D01*
X69916209Y-65497714D01*
X69849016Y-65516866D01*
X69782135Y-65496650D01*
X69737618Y-65445275D01*
X69710686Y-65387520D01*
X69710568Y-65387266D01*
X69580047Y-65200861D01*
X69580045Y-65200858D01*
X69419141Y-65039954D01*
X69232734Y-64909432D01*
X69232732Y-64909431D01*
X69026497Y-64813261D01*
X69026488Y-64813258D01*
X68806697Y-64754366D01*
X68806693Y-64754365D01*
X68806692Y-64754365D01*
X68806691Y-64754364D01*
X68806686Y-64754364D01*
X68580002Y-64734532D01*
X68579998Y-64734532D01*
X68353313Y-64754364D01*
X68353302Y-64754366D01*
X68133511Y-64813258D01*
X68133502Y-64813261D01*
X67927267Y-64909431D01*
X67927265Y-64909432D01*
X67740858Y-65039954D01*
X67579954Y-65200858D01*
X67449432Y-65387265D01*
X67449431Y-65387267D01*
X67422382Y-65445275D01*
X67376209Y-65497714D01*
X67309016Y-65516866D01*
X67242135Y-65496650D01*
X67197618Y-65445275D01*
X67170686Y-65387520D01*
X67170568Y-65387266D01*
X67040047Y-65200861D01*
X67040045Y-65200858D01*
X66879141Y-65039954D01*
X66692734Y-64909432D01*
X66692732Y-64909431D01*
X66486497Y-64813261D01*
X66486488Y-64813258D01*
X66266697Y-64754366D01*
X66266693Y-64754365D01*
X66266692Y-64754365D01*
X66266691Y-64754364D01*
X66266686Y-64754364D01*
X66040002Y-64734532D01*
X66039998Y-64734532D01*
X65813313Y-64754364D01*
X65813302Y-64754366D01*
X65593511Y-64813258D01*
X65593502Y-64813261D01*
X65387267Y-64909431D01*
X65387265Y-64909432D01*
X65200858Y-65039954D01*
X65039954Y-65200858D01*
X64909432Y-65387265D01*
X64909431Y-65387267D01*
X64882382Y-65445275D01*
X64836209Y-65497714D01*
X64769016Y-65516866D01*
X64702135Y-65496650D01*
X64657618Y-65445275D01*
X64630686Y-65387520D01*
X64630568Y-65387266D01*
X64500047Y-65200861D01*
X64500045Y-65200858D01*
X64339141Y-65039954D01*
X64152734Y-64909432D01*
X64152732Y-64909431D01*
X63946497Y-64813261D01*
X63946488Y-64813258D01*
X63726697Y-64754366D01*
X63726693Y-64754365D01*
X63726692Y-64754365D01*
X63726691Y-64754364D01*
X63726686Y-64754364D01*
X63500002Y-64734532D01*
X63499998Y-64734532D01*
X63273313Y-64754364D01*
X63273302Y-64754366D01*
X63053511Y-64813258D01*
X63053502Y-64813261D01*
X62847267Y-64909431D01*
X62847265Y-64909432D01*
X62660858Y-65039954D01*
X62499954Y-65200858D01*
X62369432Y-65387265D01*
X62369431Y-65387267D01*
X62342382Y-65445275D01*
X62296209Y-65497714D01*
X62229016Y-65516866D01*
X62162135Y-65496650D01*
X62117618Y-65445275D01*
X62090686Y-65387520D01*
X62090568Y-65387266D01*
X61960047Y-65200861D01*
X61960045Y-65200858D01*
X61799141Y-65039954D01*
X61612734Y-64909432D01*
X61612732Y-64909431D01*
X61406497Y-64813261D01*
X61406488Y-64813258D01*
X61186697Y-64754366D01*
X61186693Y-64754365D01*
X61186692Y-64754365D01*
X61186691Y-64754364D01*
X61186686Y-64754364D01*
X60960002Y-64734532D01*
X60959998Y-64734532D01*
X60733313Y-64754364D01*
X60733302Y-64754366D01*
X60513511Y-64813258D01*
X60513502Y-64813261D01*
X60307267Y-64909431D01*
X60307265Y-64909432D01*
X60120858Y-65039954D01*
X59959954Y-65200858D01*
X59829432Y-65387265D01*
X59829431Y-65387267D01*
X59802382Y-65445275D01*
X59756209Y-65497714D01*
X59689016Y-65516866D01*
X59622135Y-65496650D01*
X59577618Y-65445275D01*
X59550686Y-65387520D01*
X59550568Y-65387266D01*
X59420047Y-65200861D01*
X59420045Y-65200858D01*
X59259141Y-65039954D01*
X59072734Y-64909432D01*
X59072732Y-64909431D01*
X58866497Y-64813261D01*
X58866488Y-64813258D01*
X58646697Y-64754366D01*
X58646693Y-64754365D01*
X58646692Y-64754365D01*
X58646691Y-64754364D01*
X58646686Y-64754364D01*
X58420002Y-64734532D01*
X58419998Y-64734532D01*
X58193313Y-64754364D01*
X58193302Y-64754366D01*
X57973511Y-64813258D01*
X57973502Y-64813261D01*
X57767267Y-64909431D01*
X57767265Y-64909432D01*
X57580858Y-65039954D01*
X57419954Y-65200858D01*
X57289432Y-65387265D01*
X57289431Y-65387267D01*
X57262382Y-65445275D01*
X57216209Y-65497714D01*
X57149016Y-65516866D01*
X57082135Y-65496650D01*
X57037618Y-65445275D01*
X57010686Y-65387520D01*
X57010568Y-65387266D01*
X56880047Y-65200861D01*
X56880045Y-65200858D01*
X56719141Y-65039954D01*
X56532734Y-64909432D01*
X56532732Y-64909431D01*
X56326497Y-64813261D01*
X56326488Y-64813258D01*
X56106697Y-64754366D01*
X56106693Y-64754365D01*
X56106692Y-64754365D01*
X56106691Y-64754364D01*
X56106686Y-64754364D01*
X55880002Y-64734532D01*
X55879998Y-64734532D01*
X55653313Y-64754364D01*
X55653302Y-64754366D01*
X55433511Y-64813258D01*
X55433502Y-64813261D01*
X55227267Y-64909431D01*
X55227265Y-64909432D01*
X55040858Y-65039954D01*
X54879954Y-65200858D01*
X54749432Y-65387265D01*
X54749431Y-65387267D01*
X54653261Y-65593502D01*
X54653258Y-65593511D01*
X54594366Y-65813302D01*
X54594364Y-65813313D01*
X54574532Y-66039998D01*
X54574532Y-66040001D01*
X53340000Y-66040001D01*
X53340000Y-62230003D01*
X79204435Y-62230003D01*
X79224630Y-62409249D01*
X79224631Y-62409254D01*
X79284211Y-62579523D01*
X79380184Y-62732262D01*
X79507738Y-62859816D01*
X79660478Y-62955789D01*
X79830745Y-63015368D01*
X79830750Y-63015369D01*
X80009996Y-63035565D01*
X80010000Y-63035565D01*
X80010004Y-63035565D01*
X80189249Y-63015369D01*
X80189252Y-63015368D01*
X80189255Y-63015368D01*
X80359522Y-62955789D01*
X80512262Y-62859816D01*
X80512267Y-62859810D01*
X80515097Y-62857555D01*
X80517275Y-62856665D01*
X80518158Y-62856111D01*
X80518255Y-62856265D01*
X80579783Y-62831145D01*
X80592412Y-62830500D01*
X82470943Y-62830500D01*
X87047588Y-62830500D01*
X87114627Y-62850185D01*
X87124903Y-62857555D01*
X87127736Y-62859814D01*
X87127738Y-62859816D01*
X87280478Y-62955789D01*
X87450745Y-63015368D01*
X87450750Y-63015369D01*
X87629996Y-63035565D01*
X87630000Y-63035565D01*
X87630004Y-63035565D01*
X87809249Y-63015369D01*
X87809252Y-63015368D01*
X87809255Y-63015368D01*
X87979522Y-62955789D01*
X88132262Y-62859816D01*
X88259816Y-62732262D01*
X88355789Y-62579522D01*
X88415368Y-62409255D01*
X88435565Y-62230000D01*
X88415368Y-62050745D01*
X88355789Y-61880478D01*
X88259816Y-61727738D01*
X88132262Y-61600184D01*
X87979523Y-61504211D01*
X87809254Y-61444631D01*
X87809249Y-61444630D01*
X87630004Y-61424435D01*
X87629996Y-61424435D01*
X87450750Y-61444630D01*
X87450745Y-61444631D01*
X87280476Y-61504211D01*
X87127736Y-61600185D01*
X87124903Y-61602445D01*
X87122724Y-61603334D01*
X87121842Y-61603889D01*
X87121744Y-61603734D01*
X87060217Y-61628855D01*
X87047588Y-61629500D01*
X80592412Y-61629500D01*
X80525373Y-61609815D01*
X80515097Y-61602445D01*
X80512263Y-61600185D01*
X80512262Y-61600184D01*
X80455496Y-61564515D01*
X80359523Y-61504211D01*
X80189254Y-61444631D01*
X80189249Y-61444630D01*
X80010004Y-61424435D01*
X80009996Y-61424435D01*
X79830750Y-61444630D01*
X79830745Y-61444631D01*
X79660476Y-61504211D01*
X79507737Y-61600184D01*
X79380184Y-61727737D01*
X79284211Y-61880476D01*
X79224631Y-62050745D01*
X79224630Y-62050750D01*
X79204435Y-62229996D01*
X79204435Y-62230003D01*
X53340000Y-62230003D01*
X53340000Y-50800001D01*
X54574532Y-50800001D01*
X54594364Y-51026686D01*
X54594366Y-51026697D01*
X54653258Y-51246488D01*
X54653261Y-51246497D01*
X54749431Y-51452732D01*
X54749432Y-51452734D01*
X54879954Y-51639141D01*
X55040858Y-51800045D01*
X55040861Y-51800047D01*
X55227266Y-51930568D01*
X55433504Y-52026739D01*
X55653308Y-52085635D01*
X55815230Y-52099801D01*
X55879998Y-52105468D01*
X55880000Y-52105468D01*
X55880002Y-52105468D01*
X55936673Y-52100509D01*
X56106692Y-52085635D01*
X56326496Y-52026739D01*
X56532734Y-51930568D01*
X56719139Y-51800047D01*
X56880047Y-51639139D01*
X57010568Y-51452734D01*
X57037618Y-51394724D01*
X57083790Y-51342285D01*
X57150983Y-51323133D01*
X57217865Y-51343348D01*
X57262382Y-51394725D01*
X57289429Y-51452728D01*
X57289432Y-51452734D01*
X57419954Y-51639141D01*
X57580858Y-51800045D01*
X57580861Y-51800047D01*
X57767266Y-51930568D01*
X57973504Y-52026739D01*
X58193308Y-52085635D01*
X58355230Y-52099801D01*
X58419998Y-52105468D01*
X58420000Y-52105468D01*
X58420002Y-52105468D01*
X58476673Y-52100509D01*
X58646692Y-52085635D01*
X58866496Y-52026739D01*
X59072734Y-51930568D01*
X59259139Y-51800047D01*
X59420047Y-51639139D01*
X59550568Y-51452734D01*
X59577618Y-51394724D01*
X59623790Y-51342285D01*
X59690983Y-51323133D01*
X59757865Y-51343348D01*
X59802382Y-51394725D01*
X59829429Y-51452728D01*
X59829432Y-51452734D01*
X59959954Y-51639141D01*
X60120858Y-51800045D01*
X60120861Y-51800047D01*
X60307266Y-51930568D01*
X60513504Y-52026739D01*
X60733308Y-52085635D01*
X60895230Y-52099801D01*
X60959998Y-52105468D01*
X60960000Y-52105468D01*
X60960002Y-52105468D01*
X61016673Y-52100509D01*
X61186692Y-52085635D01*
X61406496Y-52026739D01*
X61612734Y-51930568D01*
X61799139Y-51800047D01*
X61960047Y-51639139D01*
X62090568Y-51452734D01*
X62117618Y-51394724D01*
X62163790Y-51342285D01*
X62230983Y-51323133D01*
X62297865Y-51343348D01*
X62342382Y-51394725D01*
X62369429Y-51452728D01*
X62369432Y-51452734D01*
X62499954Y-51639141D01*
X62660858Y-51800045D01*
X62660861Y-51800047D01*
X62847266Y-51930568D01*
X63053504Y-52026739D01*
X63273308Y-52085635D01*
X63435230Y-52099801D01*
X63499998Y-52105468D01*
X63500000Y-52105468D01*
X63500002Y-52105468D01*
X63556673Y-52100509D01*
X63726692Y-52085635D01*
X63946496Y-52026739D01*
X64152734Y-51930568D01*
X64339139Y-51800047D01*
X64500047Y-51639139D01*
X64630568Y-51452734D01*
X64657618Y-51394724D01*
X64703790Y-51342285D01*
X64770983Y-51323133D01*
X64837865Y-51343348D01*
X64882382Y-51394725D01*
X64909429Y-51452728D01*
X64909432Y-51452734D01*
X65039954Y-51639141D01*
X65200858Y-51800045D01*
X65200861Y-51800047D01*
X65387266Y-51930568D01*
X65593504Y-52026739D01*
X65813308Y-52085635D01*
X65975230Y-52099801D01*
X66039998Y-52105468D01*
X66040000Y-52105468D01*
X66040002Y-52105468D01*
X66096673Y-52100509D01*
X66266692Y-52085635D01*
X66486496Y-52026739D01*
X66692734Y-51930568D01*
X66879139Y-51800047D01*
X67040047Y-51639139D01*
X67170568Y-51452734D01*
X67197618Y-51394724D01*
X67243790Y-51342285D01*
X67310983Y-51323133D01*
X67377865Y-51343348D01*
X67422382Y-51394725D01*
X67449429Y-51452728D01*
X67449432Y-51452734D01*
X67579954Y-51639141D01*
X67740858Y-51800045D01*
X67740861Y-51800047D01*
X67927266Y-51930568D01*
X68133504Y-52026739D01*
X68353308Y-52085635D01*
X68515230Y-52099801D01*
X68579998Y-52105468D01*
X68580000Y-52105468D01*
X68580002Y-52105468D01*
X68636673Y-52100509D01*
X68806692Y-52085635D01*
X69026496Y-52026739D01*
X69232734Y-51930568D01*
X69419139Y-51800047D01*
X69580047Y-51639139D01*
X69710568Y-51452734D01*
X69737618Y-51394724D01*
X69783790Y-51342285D01*
X69850983Y-51323133D01*
X69917865Y-51343348D01*
X69962382Y-51394725D01*
X69989429Y-51452728D01*
X69989432Y-51452734D01*
X70119954Y-51639141D01*
X70280858Y-51800045D01*
X70280861Y-51800047D01*
X70467266Y-51930568D01*
X70673504Y-52026739D01*
X70893308Y-52085635D01*
X71055230Y-52099801D01*
X71119998Y-52105468D01*
X71120000Y-52105468D01*
X71120002Y-52105468D01*
X71176673Y-52100509D01*
X71346692Y-52085635D01*
X71566496Y-52026739D01*
X71772734Y-51930568D01*
X71959139Y-51800047D01*
X72120047Y-51639139D01*
X72250568Y-51452734D01*
X72277618Y-51394724D01*
X72323790Y-51342285D01*
X72390983Y-51323133D01*
X72457865Y-51343348D01*
X72502382Y-51394725D01*
X72529429Y-51452728D01*
X72529432Y-51452734D01*
X72659954Y-51639141D01*
X72820858Y-51800045D01*
X72820861Y-51800047D01*
X73007266Y-51930568D01*
X73213504Y-52026739D01*
X73433308Y-52085635D01*
X73595230Y-52099801D01*
X73659998Y-52105468D01*
X73660000Y-52105468D01*
X73660002Y-52105468D01*
X73716673Y-52100509D01*
X73886692Y-52085635D01*
X74106496Y-52026739D01*
X74312734Y-51930568D01*
X74499139Y-51800047D01*
X74660047Y-51639139D01*
X74790568Y-51452734D01*
X74817618Y-51394724D01*
X74863790Y-51342285D01*
X74930983Y-51323133D01*
X74997865Y-51343348D01*
X75042382Y-51394725D01*
X75069429Y-51452728D01*
X75069432Y-51452734D01*
X75199954Y-51639141D01*
X75360858Y-51800045D01*
X75360861Y-51800047D01*
X75547266Y-51930568D01*
X75753504Y-52026739D01*
X75973308Y-52085635D01*
X76135230Y-52099801D01*
X76199998Y-52105468D01*
X76200000Y-52105468D01*
X76200002Y-52105468D01*
X76256673Y-52100509D01*
X76426692Y-52085635D01*
X76646496Y-52026739D01*
X76852734Y-51930568D01*
X77039139Y-51800047D01*
X77200047Y-51639139D01*
X77330568Y-51452734D01*
X77357618Y-51394724D01*
X77403790Y-51342285D01*
X77470983Y-51323133D01*
X77537865Y-51343348D01*
X77582382Y-51394725D01*
X77609429Y-51452728D01*
X77609432Y-51452734D01*
X77739954Y-51639141D01*
X77900858Y-51800045D01*
X77900861Y-51800047D01*
X78087266Y-51930568D01*
X78293504Y-52026739D01*
X78513308Y-52085635D01*
X78675230Y-52099801D01*
X78739998Y-52105468D01*
X78740000Y-52105468D01*
X78740002Y-52105468D01*
X78796673Y-52100509D01*
X78966692Y-52085635D01*
X79186496Y-52026739D01*
X79392734Y-51930568D01*
X79579139Y-51800047D01*
X79740047Y-51639139D01*
X79870568Y-51452734D01*
X79897618Y-51394724D01*
X79943790Y-51342285D01*
X80010983Y-51323133D01*
X80077865Y-51343348D01*
X80122382Y-51394725D01*
X80149429Y-51452728D01*
X80149432Y-51452734D01*
X80279954Y-51639141D01*
X80440858Y-51800045D01*
X80440861Y-51800047D01*
X80627266Y-51930568D01*
X80833504Y-52026739D01*
X81053308Y-52085635D01*
X81215230Y-52099801D01*
X81279998Y-52105468D01*
X81280000Y-52105468D01*
X81280002Y-52105468D01*
X81336673Y-52100509D01*
X81506692Y-52085635D01*
X81726496Y-52026739D01*
X81932734Y-51930568D01*
X82119139Y-51800047D01*
X82280047Y-51639139D01*
X82410568Y-51452734D01*
X82437618Y-51394724D01*
X82483790Y-51342285D01*
X82550983Y-51323133D01*
X82617865Y-51343348D01*
X82662382Y-51394725D01*
X82689429Y-51452728D01*
X82689432Y-51452734D01*
X82819954Y-51639141D01*
X82980858Y-51800045D01*
X82980861Y-51800047D01*
X83167266Y-51930568D01*
X83373504Y-52026739D01*
X83593308Y-52085635D01*
X83755230Y-52099801D01*
X83819998Y-52105468D01*
X83820000Y-52105468D01*
X83820002Y-52105468D01*
X83876673Y-52100509D01*
X84046692Y-52085635D01*
X84266496Y-52026739D01*
X84472734Y-51930568D01*
X84659139Y-51800047D01*
X84820047Y-51639139D01*
X84950568Y-51452734D01*
X84977618Y-51394724D01*
X85023790Y-51342285D01*
X85090983Y-51323133D01*
X85157865Y-51343348D01*
X85202382Y-51394725D01*
X85229429Y-51452728D01*
X85229432Y-51452734D01*
X85359954Y-51639141D01*
X85520858Y-51800045D01*
X85520861Y-51800047D01*
X85707266Y-51930568D01*
X85913504Y-52026739D01*
X86133308Y-52085635D01*
X86295230Y-52099801D01*
X86359998Y-52105468D01*
X86360000Y-52105468D01*
X86360002Y-52105468D01*
X86416673Y-52100509D01*
X86586692Y-52085635D01*
X86806496Y-52026739D01*
X87012734Y-51930568D01*
X87199139Y-51800047D01*
X87360047Y-51639139D01*
X87490568Y-51452734D01*
X87517895Y-51394129D01*
X87564064Y-51341695D01*
X87631257Y-51322542D01*
X87698139Y-51342757D01*
X87742657Y-51394133D01*
X87769865Y-51452482D01*
X87900342Y-51638820D01*
X88061179Y-51799657D01*
X88247517Y-51930134D01*
X88453673Y-52026265D01*
X88453682Y-52026269D01*
X88649999Y-52078872D01*
X88650000Y-52078871D01*
X88650000Y-51233012D01*
X88707007Y-51265925D01*
X88834174Y-51300000D01*
X88965826Y-51300000D01*
X89092993Y-51265925D01*
X89150000Y-51233012D01*
X89150000Y-52078872D01*
X89346317Y-52026269D01*
X89346326Y-52026265D01*
X89552482Y-51930134D01*
X89738820Y-51799657D01*
X89899657Y-51638820D01*
X90030132Y-51452484D01*
X90057341Y-51394134D01*
X90103513Y-51341695D01*
X90170707Y-51322542D01*
X90237588Y-51342757D01*
X90282106Y-51394133D01*
X90309431Y-51452732D01*
X90309432Y-51452734D01*
X90439954Y-51639141D01*
X90600858Y-51800045D01*
X90600861Y-51800047D01*
X90787266Y-51930568D01*
X90993504Y-52026739D01*
X91213308Y-52085635D01*
X91375230Y-52099801D01*
X91439998Y-52105468D01*
X91440000Y-52105468D01*
X91440002Y-52105468D01*
X91496673Y-52100509D01*
X91666692Y-52085635D01*
X91886496Y-52026739D01*
X92092734Y-51930568D01*
X92279139Y-51800047D01*
X92440047Y-51639139D01*
X92570568Y-51452734D01*
X92666739Y-51246496D01*
X92725635Y-51026692D01*
X92745468Y-50800000D01*
X92725635Y-50573308D01*
X92666739Y-50353504D01*
X92570568Y-50147266D01*
X92440047Y-49960861D01*
X92440045Y-49960858D01*
X92279141Y-49799954D01*
X92092734Y-49669432D01*
X92092732Y-49669431D01*
X91886497Y-49573261D01*
X91886488Y-49573258D01*
X91725056Y-49530003D01*
X150324435Y-49530003D01*
X150344630Y-49709249D01*
X150344631Y-49709254D01*
X150404211Y-49879523D01*
X150500184Y-50032262D01*
X150627738Y-50159816D01*
X150780478Y-50255789D01*
X150840713Y-50276866D01*
X150950745Y-50315368D01*
X150950750Y-50315369D01*
X151129996Y-50335565D01*
X151130000Y-50335565D01*
X151130004Y-50335565D01*
X151309249Y-50315369D01*
X151309252Y-50315368D01*
X151309255Y-50315368D01*
X151479522Y-50255789D01*
X151632262Y-50159816D01*
X151632267Y-50159810D01*
X151635097Y-50157555D01*
X151637275Y-50156665D01*
X151638158Y-50156111D01*
X151638255Y-50156265D01*
X151699783Y-50131145D01*
X151712412Y-50130500D01*
X159719903Y-50130500D01*
X159786942Y-50150185D01*
X159807584Y-50166819D01*
X162999298Y-53358534D01*
X163032783Y-53419857D01*
X163034837Y-53432331D01*
X163044630Y-53519249D01*
X163104210Y-53689521D01*
X163200184Y-53842262D01*
X163327738Y-53969816D01*
X163480478Y-54065789D01*
X163650745Y-54125368D01*
X163650750Y-54125369D01*
X163829996Y-54145565D01*
X163830000Y-54145565D01*
X163830004Y-54145565D01*
X164009249Y-54125369D01*
X164009252Y-54125368D01*
X164009255Y-54125368D01*
X164179522Y-54065789D01*
X164332262Y-53969816D01*
X164459816Y-53842262D01*
X164555789Y-53689522D01*
X164615368Y-53519255D01*
X164625162Y-53432331D01*
X164635565Y-53340003D01*
X164635565Y-53339996D01*
X164615369Y-53160750D01*
X164615368Y-53160745D01*
X164555788Y-52990476D01*
X164459815Y-52837737D01*
X164332262Y-52710184D01*
X164179521Y-52614210D01*
X164009249Y-52554630D01*
X163922331Y-52544837D01*
X163857917Y-52517770D01*
X163848534Y-52509298D01*
X160507590Y-49168355D01*
X160507588Y-49168352D01*
X160388717Y-49049481D01*
X160388716Y-49049480D01*
X160278400Y-48985789D01*
X160278398Y-48985788D01*
X160251785Y-48970423D01*
X160251784Y-48970422D01*
X160251783Y-48970422D01*
X160195881Y-48955443D01*
X160099057Y-48929499D01*
X159940943Y-48929499D01*
X159933347Y-48929499D01*
X159933331Y-48929500D01*
X154419095Y-48929500D01*
X154352056Y-48909815D01*
X154306301Y-48857011D01*
X154296357Y-48787853D01*
X154314101Y-48739528D01*
X154395788Y-48609523D01*
X154395789Y-48609522D01*
X154455368Y-48439255D01*
X154475565Y-48260000D01*
X154455368Y-48080745D01*
X154395789Y-47910478D01*
X154299816Y-47757738D01*
X154254758Y-47712680D01*
X154221274Y-47651358D01*
X154226258Y-47581666D01*
X154254759Y-47537319D01*
X154270614Y-47521464D01*
X154299816Y-47492262D01*
X154395789Y-47339522D01*
X154455368Y-47169255D01*
X154460251Y-47125917D01*
X154475565Y-46990003D01*
X154475565Y-46989996D01*
X154455369Y-46810750D01*
X154455368Y-46810745D01*
X154395788Y-46640476D01*
X154299815Y-46487737D01*
X154254759Y-46442681D01*
X154221274Y-46381358D01*
X154223874Y-46345006D01*
X166594700Y-46345006D01*
X166613864Y-46576297D01*
X166613866Y-46576308D01*
X166670842Y-46801300D01*
X166764075Y-47013848D01*
X166891016Y-47208147D01*
X166891019Y-47208151D01*
X166891021Y-47208153D01*
X167048216Y-47378913D01*
X167048219Y-47378915D01*
X167048222Y-47378918D01*
X167231365Y-47521464D01*
X167231371Y-47521468D01*
X167231374Y-47521470D01*
X167358930Y-47590500D01*
X167432259Y-47630184D01*
X167435497Y-47631936D01*
X167541524Y-47668335D01*
X167655015Y-47707297D01*
X167655017Y-47707297D01*
X167655019Y-47707298D01*
X167883951Y-47745500D01*
X167883952Y-47745500D01*
X168116048Y-47745500D01*
X168116049Y-47745500D01*
X168344981Y-47707298D01*
X168564503Y-47631936D01*
X168768626Y-47521470D01*
X168951784Y-47378913D01*
X169108979Y-47208153D01*
X169146191Y-47151196D01*
X169199337Y-47105839D01*
X169268569Y-47096415D01*
X169331904Y-47125917D01*
X169353809Y-47151196D01*
X169391016Y-47208147D01*
X169391019Y-47208151D01*
X169391021Y-47208153D01*
X169548216Y-47378913D01*
X169548219Y-47378915D01*
X169548222Y-47378918D01*
X169731365Y-47521464D01*
X169731371Y-47521468D01*
X169731374Y-47521470D01*
X169858930Y-47590500D01*
X169932259Y-47630184D01*
X169935497Y-47631936D01*
X170041524Y-47668335D01*
X170155015Y-47707297D01*
X170155017Y-47707297D01*
X170155019Y-47707298D01*
X170383951Y-47745500D01*
X170383952Y-47745500D01*
X170616048Y-47745500D01*
X170616049Y-47745500D01*
X170844981Y-47707298D01*
X171064503Y-47631936D01*
X171268626Y-47521470D01*
X171451784Y-47378913D01*
X171608979Y-47208153D01*
X171646191Y-47151196D01*
X171699337Y-47105839D01*
X171768569Y-47096415D01*
X171831904Y-47125917D01*
X171853809Y-47151196D01*
X171891016Y-47208147D01*
X171891019Y-47208151D01*
X171891021Y-47208153D01*
X172048216Y-47378913D01*
X172048219Y-47378915D01*
X172048222Y-47378918D01*
X172231365Y-47521464D01*
X172231371Y-47521468D01*
X172231374Y-47521470D01*
X172358930Y-47590500D01*
X172432259Y-47630184D01*
X172435497Y-47631936D01*
X172541524Y-47668335D01*
X172655015Y-47707297D01*
X172655017Y-47707297D01*
X172655019Y-47707298D01*
X172883951Y-47745500D01*
X172883952Y-47745500D01*
X173116048Y-47745500D01*
X173116049Y-47745500D01*
X173344981Y-47707298D01*
X173564503Y-47631936D01*
X173768626Y-47521470D01*
X173951784Y-47378913D01*
X174108979Y-47208153D01*
X174235924Y-47013849D01*
X174329157Y-46801300D01*
X174386134Y-46576305D01*
X174393473Y-46487737D01*
X174405300Y-46345006D01*
X202794700Y-46345006D01*
X202813864Y-46576297D01*
X202813866Y-46576308D01*
X202870842Y-46801300D01*
X202964075Y-47013848D01*
X203091016Y-47208147D01*
X203091019Y-47208151D01*
X203091021Y-47208153D01*
X203248216Y-47378913D01*
X203248219Y-47378915D01*
X203248222Y-47378918D01*
X203431365Y-47521464D01*
X203431371Y-47521468D01*
X203431374Y-47521470D01*
X203558930Y-47590500D01*
X203632259Y-47630184D01*
X203635497Y-47631936D01*
X203741524Y-47668335D01*
X203855015Y-47707297D01*
X203855017Y-47707297D01*
X203855019Y-47707298D01*
X204083951Y-47745500D01*
X204083952Y-47745500D01*
X204316048Y-47745500D01*
X204316049Y-47745500D01*
X204544981Y-47707298D01*
X204764503Y-47631936D01*
X204968626Y-47521470D01*
X205151784Y-47378913D01*
X205308979Y-47208153D01*
X205346191Y-47151196D01*
X205399337Y-47105839D01*
X205468569Y-47096415D01*
X205531904Y-47125917D01*
X205553809Y-47151196D01*
X205591016Y-47208147D01*
X205591019Y-47208151D01*
X205591021Y-47208153D01*
X205748216Y-47378913D01*
X205748219Y-47378915D01*
X205748222Y-47378918D01*
X205931365Y-47521464D01*
X205931371Y-47521468D01*
X205931374Y-47521470D01*
X206058930Y-47590500D01*
X206132259Y-47630184D01*
X206135497Y-47631936D01*
X206241524Y-47668335D01*
X206355015Y-47707297D01*
X206355017Y-47707297D01*
X206355019Y-47707298D01*
X206583951Y-47745500D01*
X206583952Y-47745500D01*
X206816048Y-47745500D01*
X206816049Y-47745500D01*
X207044981Y-47707298D01*
X207264503Y-47631936D01*
X207468626Y-47521470D01*
X207651784Y-47378913D01*
X207808979Y-47208153D01*
X207846191Y-47151196D01*
X207899337Y-47105839D01*
X207968569Y-47096415D01*
X208031904Y-47125917D01*
X208053809Y-47151196D01*
X208091016Y-47208147D01*
X208091019Y-47208151D01*
X208091021Y-47208153D01*
X208248216Y-47378913D01*
X208248219Y-47378915D01*
X208248222Y-47378918D01*
X208431365Y-47521464D01*
X208431371Y-47521468D01*
X208431374Y-47521470D01*
X208558930Y-47590500D01*
X208632259Y-47630184D01*
X208635497Y-47631936D01*
X208741524Y-47668335D01*
X208855015Y-47707297D01*
X208855017Y-47707297D01*
X208855019Y-47707298D01*
X209083951Y-47745500D01*
X209083952Y-47745500D01*
X209316048Y-47745500D01*
X209316049Y-47745500D01*
X209544981Y-47707298D01*
X209764503Y-47631936D01*
X209968626Y-47521470D01*
X210151784Y-47378913D01*
X210308979Y-47208153D01*
X210435924Y-47013849D01*
X210529157Y-46801300D01*
X210586134Y-46576305D01*
X210593473Y-46487737D01*
X210605300Y-46345006D01*
X238994700Y-46345006D01*
X239013864Y-46576297D01*
X239013866Y-46576308D01*
X239070842Y-46801300D01*
X239164075Y-47013848D01*
X239291016Y-47208147D01*
X239291019Y-47208151D01*
X239291021Y-47208153D01*
X239448216Y-47378913D01*
X239448219Y-47378915D01*
X239448222Y-47378918D01*
X239631365Y-47521464D01*
X239631371Y-47521468D01*
X239631374Y-47521470D01*
X239758930Y-47590500D01*
X239832259Y-47630184D01*
X239835497Y-47631936D01*
X239941524Y-47668335D01*
X240055015Y-47707297D01*
X240055017Y-47707297D01*
X240055019Y-47707298D01*
X240283951Y-47745500D01*
X240283952Y-47745500D01*
X240516048Y-47745500D01*
X240516049Y-47745500D01*
X240744981Y-47707298D01*
X240964503Y-47631936D01*
X241168626Y-47521470D01*
X241351784Y-47378913D01*
X241508979Y-47208153D01*
X241546191Y-47151196D01*
X241599337Y-47105839D01*
X241668569Y-47096415D01*
X241731904Y-47125917D01*
X241753809Y-47151196D01*
X241791016Y-47208147D01*
X241791019Y-47208151D01*
X241791021Y-47208153D01*
X241948216Y-47378913D01*
X241948219Y-47378915D01*
X241948222Y-47378918D01*
X242131365Y-47521464D01*
X242131371Y-47521468D01*
X242131374Y-47521470D01*
X242258930Y-47590500D01*
X242332259Y-47630184D01*
X242335497Y-47631936D01*
X242441524Y-47668335D01*
X242555015Y-47707297D01*
X242555017Y-47707297D01*
X242555019Y-47707298D01*
X242783951Y-47745500D01*
X242783952Y-47745500D01*
X243016048Y-47745500D01*
X243016049Y-47745500D01*
X243244981Y-47707298D01*
X243464503Y-47631936D01*
X243668626Y-47521470D01*
X243851784Y-47378913D01*
X244008979Y-47208153D01*
X244046191Y-47151196D01*
X244099337Y-47105839D01*
X244168569Y-47096415D01*
X244231904Y-47125917D01*
X244253809Y-47151196D01*
X244291016Y-47208147D01*
X244291019Y-47208151D01*
X244291021Y-47208153D01*
X244448216Y-47378913D01*
X244448219Y-47378915D01*
X244448222Y-47378918D01*
X244631365Y-47521464D01*
X244631371Y-47521468D01*
X244631374Y-47521470D01*
X244758930Y-47590500D01*
X244832259Y-47630184D01*
X244835497Y-47631936D01*
X244941524Y-47668335D01*
X245055015Y-47707297D01*
X245055017Y-47707297D01*
X245055019Y-47707298D01*
X245283951Y-47745500D01*
X245283952Y-47745500D01*
X245516048Y-47745500D01*
X245516049Y-47745500D01*
X245744981Y-47707298D01*
X245964503Y-47631936D01*
X246168626Y-47521470D01*
X246351784Y-47378913D01*
X246508979Y-47208153D01*
X246635924Y-47013849D01*
X246729157Y-46801300D01*
X246786134Y-46576305D01*
X246793473Y-46487737D01*
X246805300Y-46345006D01*
X246805300Y-46344993D01*
X246786135Y-46113702D01*
X246786133Y-46113691D01*
X246729157Y-45888699D01*
X246635924Y-45676151D01*
X246508983Y-45481852D01*
X246508980Y-45481849D01*
X246508979Y-45481847D01*
X246351784Y-45311087D01*
X246273772Y-45250368D01*
X246199469Y-45192535D01*
X246158656Y-45135825D01*
X246154982Y-45066052D01*
X246189614Y-45005369D01*
X246198794Y-44997413D01*
X246198798Y-44997350D01*
X245529410Y-44327962D01*
X245592993Y-44310925D01*
X245707007Y-44245099D01*
X245800099Y-44152007D01*
X245865925Y-44037993D01*
X245882962Y-43974409D01*
X246551186Y-44642633D01*
X246635482Y-44513611D01*
X246728682Y-44301135D01*
X246785638Y-44076218D01*
X246804798Y-43845005D01*
X246804798Y-43844994D01*
X246785638Y-43613781D01*
X246728682Y-43388864D01*
X246635484Y-43176393D01*
X246551186Y-43047365D01*
X245882962Y-43715589D01*
X245865925Y-43652007D01*
X245800099Y-43537993D01*
X245707007Y-43444901D01*
X245592993Y-43379075D01*
X245529409Y-43362037D01*
X246198797Y-42692647D01*
X246198797Y-42692645D01*
X246168360Y-42668955D01*
X246168354Y-42668951D01*
X245964302Y-42558523D01*
X245964293Y-42558520D01*
X245744860Y-42483188D01*
X245516007Y-42445000D01*
X245283993Y-42445000D01*
X245055139Y-42483188D01*
X244835706Y-42558520D01*
X244835697Y-42558523D01*
X244631650Y-42668949D01*
X244601200Y-42692647D01*
X245270591Y-43362037D01*
X245207007Y-43379075D01*
X245092993Y-43444901D01*
X244999901Y-43537993D01*
X244934075Y-43652007D01*
X244917037Y-43715591D01*
X244248811Y-43047365D01*
X244244029Y-43047861D01*
X244200959Y-43084618D01*
X244131728Y-43094041D01*
X244068392Y-43064538D01*
X244046489Y-43039260D01*
X244008983Y-42981852D01*
X244008980Y-42981849D01*
X244008979Y-42981847D01*
X243851784Y-42811087D01*
X243851779Y-42811083D01*
X243851777Y-42811081D01*
X243668634Y-42668535D01*
X243668628Y-42668531D01*
X243464504Y-42558064D01*
X243464495Y-42558061D01*
X243244984Y-42482702D01*
X243054450Y-42450908D01*
X243016049Y-42444500D01*
X242783951Y-42444500D01*
X242745550Y-42450908D01*
X242555015Y-42482702D01*
X242335504Y-42558061D01*
X242335495Y-42558064D01*
X242131372Y-42668531D01*
X241954436Y-42806245D01*
X241889442Y-42831887D01*
X241820902Y-42818320D01*
X241770577Y-42769852D01*
X241762092Y-42751723D01*
X241743798Y-42702673D01*
X241743793Y-42702664D01*
X241657547Y-42587455D01*
X241657544Y-42587452D01*
X241542335Y-42501206D01*
X241542328Y-42501202D01*
X241407482Y-42450908D01*
X241407483Y-42450908D01*
X241347883Y-42444501D01*
X241347881Y-42444500D01*
X241347873Y-42444500D01*
X241347864Y-42444500D01*
X239452129Y-42444500D01*
X239452123Y-42444501D01*
X239392516Y-42450908D01*
X239257671Y-42501202D01*
X239257664Y-42501206D01*
X239142455Y-42587452D01*
X239142452Y-42587455D01*
X239056206Y-42702664D01*
X239056202Y-42702671D01*
X239005908Y-42837517D01*
X238999501Y-42897116D01*
X238999500Y-42897135D01*
X238999500Y-44792870D01*
X238999501Y-44792876D01*
X239005908Y-44852483D01*
X239056202Y-44987328D01*
X239056206Y-44987335D01*
X239142452Y-45102544D01*
X239142455Y-45102547D01*
X239257664Y-45188793D01*
X239257673Y-45188798D01*
X239310493Y-45208498D01*
X239366427Y-45250368D01*
X239390845Y-45315832D01*
X239375994Y-45384105D01*
X239358392Y-45408662D01*
X239291021Y-45481847D01*
X239291019Y-45481848D01*
X239291016Y-45481853D01*
X239164075Y-45676151D01*
X239070842Y-45888699D01*
X239013866Y-46113691D01*
X239013864Y-46113702D01*
X238994700Y-46344993D01*
X238994700Y-46345006D01*
X210605300Y-46345006D01*
X210605300Y-46344993D01*
X210586135Y-46113702D01*
X210586133Y-46113691D01*
X210529157Y-45888699D01*
X210435924Y-45676151D01*
X210308983Y-45481852D01*
X210308980Y-45481849D01*
X210308979Y-45481847D01*
X210151784Y-45311087D01*
X210073772Y-45250368D01*
X209999469Y-45192535D01*
X209958656Y-45135825D01*
X209954982Y-45066052D01*
X209989614Y-45005369D01*
X209998794Y-44997413D01*
X209998798Y-44997350D01*
X209329410Y-44327962D01*
X209392993Y-44310925D01*
X209507007Y-44245099D01*
X209600099Y-44152007D01*
X209665925Y-44037993D01*
X209682962Y-43974409D01*
X210351186Y-44642633D01*
X210435482Y-44513611D01*
X210528682Y-44301135D01*
X210585638Y-44076218D01*
X210604798Y-43845005D01*
X210604798Y-43844994D01*
X210585638Y-43613781D01*
X210528682Y-43388864D01*
X210435484Y-43176393D01*
X210351186Y-43047365D01*
X209682962Y-43715589D01*
X209665925Y-43652007D01*
X209600099Y-43537993D01*
X209507007Y-43444901D01*
X209392993Y-43379075D01*
X209329409Y-43362037D01*
X209998797Y-42692647D01*
X209998797Y-42692645D01*
X209968360Y-42668955D01*
X209968354Y-42668951D01*
X209764302Y-42558523D01*
X209764293Y-42558520D01*
X209544860Y-42483188D01*
X209316007Y-42445000D01*
X209083993Y-42445000D01*
X208855139Y-42483188D01*
X208635706Y-42558520D01*
X208635697Y-42558523D01*
X208431650Y-42668949D01*
X208401200Y-42692647D01*
X209070591Y-43362037D01*
X209007007Y-43379075D01*
X208892993Y-43444901D01*
X208799901Y-43537993D01*
X208734075Y-43652007D01*
X208717037Y-43715591D01*
X208048811Y-43047365D01*
X208044029Y-43047861D01*
X208000959Y-43084618D01*
X207931728Y-43094041D01*
X207868392Y-43064538D01*
X207846489Y-43039260D01*
X207808983Y-42981852D01*
X207808980Y-42981849D01*
X207808979Y-42981847D01*
X207651784Y-42811087D01*
X207651779Y-42811083D01*
X207651777Y-42811081D01*
X207468634Y-42668535D01*
X207468628Y-42668531D01*
X207264504Y-42558064D01*
X207264495Y-42558061D01*
X207044984Y-42482702D01*
X206854450Y-42450908D01*
X206816049Y-42444500D01*
X206583951Y-42444500D01*
X206545550Y-42450908D01*
X206355015Y-42482702D01*
X206135504Y-42558061D01*
X206135495Y-42558064D01*
X205931372Y-42668531D01*
X205754436Y-42806245D01*
X205689442Y-42831887D01*
X205620902Y-42818320D01*
X205570577Y-42769852D01*
X205562092Y-42751723D01*
X205543798Y-42702673D01*
X205543793Y-42702664D01*
X205457547Y-42587455D01*
X205457544Y-42587452D01*
X205342335Y-42501206D01*
X205342328Y-42501202D01*
X205207482Y-42450908D01*
X205207483Y-42450908D01*
X205147883Y-42444501D01*
X205147881Y-42444500D01*
X205147873Y-42444500D01*
X205147864Y-42444500D01*
X203252129Y-42444500D01*
X203252123Y-42444501D01*
X203192516Y-42450908D01*
X203057671Y-42501202D01*
X203057664Y-42501206D01*
X202942455Y-42587452D01*
X202942452Y-42587455D01*
X202856206Y-42702664D01*
X202856202Y-42702671D01*
X202805908Y-42837517D01*
X202799501Y-42897116D01*
X202799500Y-42897135D01*
X202799500Y-44792870D01*
X202799501Y-44792876D01*
X202805908Y-44852483D01*
X202856202Y-44987328D01*
X202856206Y-44987335D01*
X202942452Y-45102544D01*
X202942455Y-45102547D01*
X203057664Y-45188793D01*
X203057673Y-45188798D01*
X203110493Y-45208498D01*
X203166427Y-45250368D01*
X203190845Y-45315832D01*
X203175994Y-45384105D01*
X203158392Y-45408662D01*
X203091021Y-45481847D01*
X203091019Y-45481848D01*
X203091016Y-45481853D01*
X202964075Y-45676151D01*
X202870842Y-45888699D01*
X202813866Y-46113691D01*
X202813864Y-46113702D01*
X202794700Y-46344993D01*
X202794700Y-46345006D01*
X174405300Y-46345006D01*
X174405300Y-46344993D01*
X174386135Y-46113702D01*
X174386133Y-46113691D01*
X174329157Y-45888699D01*
X174235924Y-45676151D01*
X174108983Y-45481852D01*
X174108980Y-45481849D01*
X174108979Y-45481847D01*
X173951784Y-45311087D01*
X173873772Y-45250368D01*
X173799469Y-45192535D01*
X173758656Y-45135825D01*
X173754982Y-45066052D01*
X173789614Y-45005369D01*
X173798794Y-44997413D01*
X173798798Y-44997350D01*
X173129410Y-44327962D01*
X173192993Y-44310925D01*
X173307007Y-44245099D01*
X173400099Y-44152007D01*
X173465925Y-44037993D01*
X173482962Y-43974409D01*
X174151186Y-44642633D01*
X174235482Y-44513611D01*
X174328682Y-44301135D01*
X174385638Y-44076218D01*
X174404798Y-43845005D01*
X174404798Y-43844994D01*
X174385638Y-43613781D01*
X174328682Y-43388864D01*
X174235484Y-43176393D01*
X174151186Y-43047365D01*
X173482962Y-43715589D01*
X173465925Y-43652007D01*
X173400099Y-43537993D01*
X173307007Y-43444901D01*
X173192993Y-43379075D01*
X173129409Y-43362037D01*
X173798797Y-42692647D01*
X173798797Y-42692645D01*
X173768360Y-42668955D01*
X173768354Y-42668951D01*
X173564302Y-42558523D01*
X173564293Y-42558520D01*
X173344860Y-42483188D01*
X173116007Y-42445000D01*
X172883993Y-42445000D01*
X172655139Y-42483188D01*
X172435706Y-42558520D01*
X172435697Y-42558523D01*
X172231650Y-42668949D01*
X172201200Y-42692647D01*
X172870591Y-43362037D01*
X172807007Y-43379075D01*
X172692993Y-43444901D01*
X172599901Y-43537993D01*
X172534075Y-43652007D01*
X172517037Y-43715591D01*
X171848811Y-43047365D01*
X171844029Y-43047861D01*
X171800959Y-43084618D01*
X171731728Y-43094041D01*
X171668392Y-43064538D01*
X171646489Y-43039260D01*
X171608983Y-42981852D01*
X171608980Y-42981849D01*
X171608979Y-42981847D01*
X171451784Y-42811087D01*
X171451779Y-42811083D01*
X171451777Y-42811081D01*
X171268634Y-42668535D01*
X171268628Y-42668531D01*
X171064504Y-42558064D01*
X171064495Y-42558061D01*
X170844984Y-42482702D01*
X170654450Y-42450908D01*
X170616049Y-42444500D01*
X170383951Y-42444500D01*
X170345550Y-42450908D01*
X170155015Y-42482702D01*
X169935504Y-42558061D01*
X169935495Y-42558064D01*
X169731372Y-42668531D01*
X169554436Y-42806245D01*
X169489442Y-42831887D01*
X169420902Y-42818320D01*
X169370577Y-42769852D01*
X169362092Y-42751723D01*
X169343798Y-42702673D01*
X169343793Y-42702664D01*
X169257547Y-42587455D01*
X169257544Y-42587452D01*
X169142335Y-42501206D01*
X169142328Y-42501202D01*
X169007482Y-42450908D01*
X169007483Y-42450908D01*
X168947883Y-42444501D01*
X168947881Y-42444500D01*
X168947873Y-42444500D01*
X168947864Y-42444500D01*
X167052129Y-42444500D01*
X167052123Y-42444501D01*
X166992516Y-42450908D01*
X166857671Y-42501202D01*
X166857664Y-42501206D01*
X166742455Y-42587452D01*
X166742452Y-42587455D01*
X166656206Y-42702664D01*
X166656202Y-42702671D01*
X166605908Y-42837517D01*
X166599501Y-42897116D01*
X166599500Y-42897135D01*
X166599500Y-44792870D01*
X166599501Y-44792876D01*
X166605908Y-44852483D01*
X166656202Y-44987328D01*
X166656206Y-44987335D01*
X166742452Y-45102544D01*
X166742455Y-45102547D01*
X166857664Y-45188793D01*
X166857673Y-45188798D01*
X166910493Y-45208498D01*
X166966427Y-45250368D01*
X166990845Y-45315832D01*
X166975994Y-45384105D01*
X166958392Y-45408662D01*
X166891021Y-45481847D01*
X166891019Y-45481848D01*
X166891016Y-45481853D01*
X166764075Y-45676151D01*
X166670842Y-45888699D01*
X166613866Y-46113691D01*
X166613864Y-46113702D01*
X166594700Y-46344993D01*
X166594700Y-46345006D01*
X154223874Y-46345006D01*
X154226258Y-46311666D01*
X154254759Y-46267319D01*
X154299816Y-46222262D01*
X154395789Y-46069522D01*
X154455368Y-45899255D01*
X154455369Y-45899249D01*
X154475565Y-45720003D01*
X154475565Y-45719996D01*
X154455369Y-45540750D01*
X154455368Y-45540745D01*
X154395788Y-45370476D01*
X154313233Y-45239091D01*
X154299816Y-45217738D01*
X154172262Y-45090184D01*
X154019523Y-44994211D01*
X153849254Y-44934631D01*
X153849249Y-44934630D01*
X153670004Y-44914435D01*
X153669996Y-44914435D01*
X153490750Y-44934630D01*
X153490745Y-44934631D01*
X153320476Y-44994211D01*
X153167736Y-45090185D01*
X153164903Y-45092445D01*
X153162724Y-45093334D01*
X153161842Y-45093889D01*
X153161744Y-45093734D01*
X153100217Y-45118855D01*
X153087588Y-45119500D01*
X151712412Y-45119500D01*
X151645373Y-45099815D01*
X151635097Y-45092445D01*
X151632263Y-45090185D01*
X151632262Y-45090184D01*
X151573942Y-45053539D01*
X151479523Y-44994211D01*
X151309254Y-44934631D01*
X151309249Y-44934630D01*
X151130004Y-44914435D01*
X151129996Y-44914435D01*
X150950750Y-44934630D01*
X150950745Y-44934631D01*
X150780476Y-44994211D01*
X150627737Y-45090184D01*
X150500184Y-45217737D01*
X150404211Y-45370476D01*
X150344631Y-45540745D01*
X150344630Y-45540750D01*
X150324435Y-45719996D01*
X150324435Y-45720003D01*
X150344630Y-45899249D01*
X150344631Y-45899254D01*
X150404211Y-46069523D01*
X150500184Y-46222262D01*
X150500185Y-46222263D01*
X150545241Y-46267320D01*
X150578725Y-46328643D01*
X150573740Y-46398335D01*
X150545241Y-46442680D01*
X150500184Y-46487737D01*
X150404211Y-46640476D01*
X150344631Y-46810745D01*
X150344630Y-46810750D01*
X150324435Y-46989996D01*
X150324435Y-46990003D01*
X150344630Y-47169249D01*
X150344631Y-47169254D01*
X150404211Y-47339523D01*
X150500184Y-47492262D01*
X150500185Y-47492263D01*
X150545241Y-47537320D01*
X150578725Y-47598643D01*
X150573740Y-47668335D01*
X150545241Y-47712680D01*
X150500184Y-47757737D01*
X150404211Y-47910476D01*
X150344631Y-48080745D01*
X150344630Y-48080750D01*
X150324435Y-48259996D01*
X150324435Y-48260003D01*
X150344630Y-48439249D01*
X150344631Y-48439254D01*
X150404211Y-48609523D01*
X150500184Y-48762262D01*
X150500185Y-48762263D01*
X150545241Y-48807320D01*
X150578725Y-48868643D01*
X150573740Y-48938335D01*
X150545241Y-48982680D01*
X150500184Y-49027737D01*
X150404211Y-49180476D01*
X150344631Y-49350745D01*
X150344630Y-49350750D01*
X150324435Y-49529996D01*
X150324435Y-49530003D01*
X91725056Y-49530003D01*
X91666697Y-49514366D01*
X91666693Y-49514365D01*
X91666692Y-49514365D01*
X91666691Y-49514364D01*
X91666686Y-49514364D01*
X91440002Y-49494532D01*
X91439998Y-49494532D01*
X91213313Y-49514364D01*
X91213302Y-49514366D01*
X90993511Y-49573258D01*
X90993502Y-49573261D01*
X90787267Y-49669431D01*
X90787265Y-49669432D01*
X90600858Y-49799954D01*
X90439954Y-49960858D01*
X90309433Y-50147264D01*
X90309432Y-50147266D01*
X90305308Y-50156111D01*
X90282106Y-50205867D01*
X90235933Y-50258306D01*
X90168739Y-50277457D01*
X90101858Y-50257241D01*
X90057342Y-50205865D01*
X90030135Y-50147520D01*
X90030134Y-50147518D01*
X89899657Y-49961179D01*
X89738820Y-49800342D01*
X89552482Y-49669865D01*
X89346328Y-49573734D01*
X89150000Y-49521127D01*
X89150000Y-50366988D01*
X89092993Y-50334075D01*
X88965826Y-50300000D01*
X88834174Y-50300000D01*
X88707007Y-50334075D01*
X88650000Y-50366988D01*
X88650000Y-49521127D01*
X88453671Y-49573734D01*
X88247517Y-49669865D01*
X88061179Y-49800342D01*
X87900342Y-49961179D01*
X87769867Y-50147515D01*
X87742657Y-50205867D01*
X87696484Y-50258306D01*
X87629290Y-50277457D01*
X87562409Y-50257241D01*
X87517893Y-50205865D01*
X87499685Y-50166819D01*
X87490568Y-50147266D01*
X87360047Y-49960861D01*
X87360045Y-49960858D01*
X87199141Y-49799954D01*
X87012734Y-49669432D01*
X87012732Y-49669431D01*
X86806497Y-49573261D01*
X86806488Y-49573258D01*
X86586697Y-49514366D01*
X86586693Y-49514365D01*
X86586692Y-49514365D01*
X86586691Y-49514364D01*
X86586686Y-49514364D01*
X86360002Y-49494532D01*
X86359998Y-49494532D01*
X86133313Y-49514364D01*
X86133302Y-49514366D01*
X85913511Y-49573258D01*
X85913502Y-49573261D01*
X85707267Y-49669431D01*
X85707265Y-49669432D01*
X85520858Y-49799954D01*
X85359954Y-49960858D01*
X85229432Y-50147265D01*
X85229431Y-50147267D01*
X85202382Y-50205275D01*
X85156209Y-50257714D01*
X85089016Y-50276866D01*
X85022135Y-50256650D01*
X84977618Y-50205275D01*
X84950568Y-50147266D01*
X84820047Y-49960861D01*
X84820045Y-49960858D01*
X84659141Y-49799954D01*
X84472734Y-49669432D01*
X84472732Y-49669431D01*
X84266497Y-49573261D01*
X84266488Y-49573258D01*
X84046697Y-49514366D01*
X84046693Y-49514365D01*
X84046692Y-49514365D01*
X84046691Y-49514364D01*
X84046686Y-49514364D01*
X83820002Y-49494532D01*
X83819998Y-49494532D01*
X83593313Y-49514364D01*
X83593302Y-49514366D01*
X83373511Y-49573258D01*
X83373502Y-49573261D01*
X83167267Y-49669431D01*
X83167265Y-49669432D01*
X82980858Y-49799954D01*
X82819954Y-49960858D01*
X82689432Y-50147265D01*
X82689431Y-50147267D01*
X82662382Y-50205275D01*
X82616209Y-50257714D01*
X82549016Y-50276866D01*
X82482135Y-50256650D01*
X82437618Y-50205275D01*
X82410568Y-50147266D01*
X82280047Y-49960861D01*
X82280045Y-49960858D01*
X82119141Y-49799954D01*
X81932734Y-49669432D01*
X81932732Y-49669431D01*
X81726497Y-49573261D01*
X81726488Y-49573258D01*
X81506697Y-49514366D01*
X81506693Y-49514365D01*
X81506692Y-49514365D01*
X81506691Y-49514364D01*
X81506686Y-49514364D01*
X81280002Y-49494532D01*
X81279998Y-49494532D01*
X81053313Y-49514364D01*
X81053302Y-49514366D01*
X80833511Y-49573258D01*
X80833502Y-49573261D01*
X80627267Y-49669431D01*
X80627265Y-49669432D01*
X80440858Y-49799954D01*
X80279954Y-49960858D01*
X80149432Y-50147265D01*
X80149431Y-50147267D01*
X80122382Y-50205275D01*
X80076209Y-50257714D01*
X80009016Y-50276866D01*
X79942135Y-50256650D01*
X79897618Y-50205275D01*
X79870568Y-50147266D01*
X79740047Y-49960861D01*
X79740045Y-49960858D01*
X79579141Y-49799954D01*
X79392734Y-49669432D01*
X79392732Y-49669431D01*
X79186497Y-49573261D01*
X79186488Y-49573258D01*
X78966697Y-49514366D01*
X78966693Y-49514365D01*
X78966692Y-49514365D01*
X78966691Y-49514364D01*
X78966686Y-49514364D01*
X78740002Y-49494532D01*
X78739998Y-49494532D01*
X78513313Y-49514364D01*
X78513302Y-49514366D01*
X78293511Y-49573258D01*
X78293502Y-49573261D01*
X78087267Y-49669431D01*
X78087265Y-49669432D01*
X77900858Y-49799954D01*
X77739954Y-49960858D01*
X77609432Y-50147265D01*
X77609431Y-50147267D01*
X77582382Y-50205275D01*
X77536209Y-50257714D01*
X77469016Y-50276866D01*
X77402135Y-50256650D01*
X77357618Y-50205275D01*
X77330568Y-50147266D01*
X77200047Y-49960861D01*
X77200045Y-49960858D01*
X77039141Y-49799954D01*
X76852734Y-49669432D01*
X76852732Y-49669431D01*
X76646497Y-49573261D01*
X76646488Y-49573258D01*
X76426697Y-49514366D01*
X76426693Y-49514365D01*
X76426692Y-49514365D01*
X76426691Y-49514364D01*
X76426686Y-49514364D01*
X76200002Y-49494532D01*
X76199998Y-49494532D01*
X75973313Y-49514364D01*
X75973302Y-49514366D01*
X75753511Y-49573258D01*
X75753502Y-49573261D01*
X75547267Y-49669431D01*
X75547265Y-49669432D01*
X75360858Y-49799954D01*
X75199954Y-49960858D01*
X75069432Y-50147265D01*
X75069431Y-50147267D01*
X75042382Y-50205275D01*
X74996209Y-50257714D01*
X74929016Y-50276866D01*
X74862135Y-50256650D01*
X74817618Y-50205275D01*
X74790568Y-50147266D01*
X74660047Y-49960861D01*
X74660045Y-49960858D01*
X74499141Y-49799954D01*
X74312734Y-49669432D01*
X74312732Y-49669431D01*
X74106497Y-49573261D01*
X74106488Y-49573258D01*
X73886697Y-49514366D01*
X73886693Y-49514365D01*
X73886692Y-49514365D01*
X73886691Y-49514364D01*
X73886686Y-49514364D01*
X73660002Y-49494532D01*
X73659998Y-49494532D01*
X73433313Y-49514364D01*
X73433302Y-49514366D01*
X73213511Y-49573258D01*
X73213502Y-49573261D01*
X73007267Y-49669431D01*
X73007265Y-49669432D01*
X72820858Y-49799954D01*
X72659954Y-49960858D01*
X72529432Y-50147265D01*
X72529431Y-50147267D01*
X72502382Y-50205275D01*
X72456209Y-50257714D01*
X72389016Y-50276866D01*
X72322135Y-50256650D01*
X72277618Y-50205275D01*
X72250568Y-50147266D01*
X72120047Y-49960861D01*
X72120045Y-49960858D01*
X71959141Y-49799954D01*
X71772734Y-49669432D01*
X71772732Y-49669431D01*
X71566497Y-49573261D01*
X71566488Y-49573258D01*
X71346697Y-49514366D01*
X71346693Y-49514365D01*
X71346692Y-49514365D01*
X71346691Y-49514364D01*
X71346686Y-49514364D01*
X71120002Y-49494532D01*
X71119998Y-49494532D01*
X70893313Y-49514364D01*
X70893302Y-49514366D01*
X70673511Y-49573258D01*
X70673502Y-49573261D01*
X70467267Y-49669431D01*
X70467265Y-49669432D01*
X70280858Y-49799954D01*
X70119954Y-49960858D01*
X69989432Y-50147265D01*
X69989431Y-50147267D01*
X69962382Y-50205275D01*
X69916209Y-50257714D01*
X69849016Y-50276866D01*
X69782135Y-50256650D01*
X69737618Y-50205275D01*
X69710568Y-50147266D01*
X69580047Y-49960861D01*
X69580045Y-49960858D01*
X69419141Y-49799954D01*
X69232734Y-49669432D01*
X69232732Y-49669431D01*
X69026497Y-49573261D01*
X69026488Y-49573258D01*
X68806697Y-49514366D01*
X68806693Y-49514365D01*
X68806692Y-49514365D01*
X68806691Y-49514364D01*
X68806686Y-49514364D01*
X68580002Y-49494532D01*
X68579998Y-49494532D01*
X68353313Y-49514364D01*
X68353302Y-49514366D01*
X68133511Y-49573258D01*
X68133502Y-49573261D01*
X67927267Y-49669431D01*
X67927265Y-49669432D01*
X67740858Y-49799954D01*
X67579954Y-49960858D01*
X67449432Y-50147265D01*
X67449431Y-50147267D01*
X67422382Y-50205275D01*
X67376209Y-50257714D01*
X67309016Y-50276866D01*
X67242135Y-50256650D01*
X67197618Y-50205275D01*
X67170568Y-50147266D01*
X67040047Y-49960861D01*
X67040045Y-49960858D01*
X66879141Y-49799954D01*
X66692734Y-49669432D01*
X66692732Y-49669431D01*
X66486497Y-49573261D01*
X66486488Y-49573258D01*
X66266697Y-49514366D01*
X66266693Y-49514365D01*
X66266692Y-49514365D01*
X66266691Y-49514364D01*
X66266686Y-49514364D01*
X66040002Y-49494532D01*
X66039998Y-49494532D01*
X65813313Y-49514364D01*
X65813302Y-49514366D01*
X65593511Y-49573258D01*
X65593502Y-49573261D01*
X65387267Y-49669431D01*
X65387265Y-49669432D01*
X65200858Y-49799954D01*
X65039954Y-49960858D01*
X64909432Y-50147265D01*
X64909431Y-50147267D01*
X64882382Y-50205275D01*
X64836209Y-50257714D01*
X64769016Y-50276866D01*
X64702135Y-50256650D01*
X64657618Y-50205275D01*
X64630568Y-50147266D01*
X64500047Y-49960861D01*
X64500045Y-49960858D01*
X64339141Y-49799954D01*
X64152734Y-49669432D01*
X64152732Y-49669431D01*
X63946497Y-49573261D01*
X63946488Y-49573258D01*
X63726697Y-49514366D01*
X63726693Y-49514365D01*
X63726692Y-49514365D01*
X63726691Y-49514364D01*
X63726686Y-49514364D01*
X63500002Y-49494532D01*
X63499998Y-49494532D01*
X63273313Y-49514364D01*
X63273302Y-49514366D01*
X63053511Y-49573258D01*
X63053502Y-49573261D01*
X62847267Y-49669431D01*
X62847265Y-49669432D01*
X62660858Y-49799954D01*
X62499954Y-49960858D01*
X62369432Y-50147265D01*
X62369431Y-50147267D01*
X62342382Y-50205275D01*
X62296209Y-50257714D01*
X62229016Y-50276866D01*
X62162135Y-50256650D01*
X62117618Y-50205275D01*
X62090568Y-50147266D01*
X61960047Y-49960861D01*
X61960045Y-49960858D01*
X61799141Y-49799954D01*
X61612734Y-49669432D01*
X61612732Y-49669431D01*
X61406497Y-49573261D01*
X61406488Y-49573258D01*
X61186697Y-49514366D01*
X61186693Y-49514365D01*
X61186692Y-49514365D01*
X61186691Y-49514364D01*
X61186686Y-49514364D01*
X60960002Y-49494532D01*
X60959998Y-49494532D01*
X60733313Y-49514364D01*
X60733302Y-49514366D01*
X60513511Y-49573258D01*
X60513502Y-49573261D01*
X60307267Y-49669431D01*
X60307265Y-49669432D01*
X60120858Y-49799954D01*
X59959954Y-49960858D01*
X59829432Y-50147265D01*
X59829431Y-50147267D01*
X59802382Y-50205275D01*
X59756209Y-50257714D01*
X59689016Y-50276866D01*
X59622135Y-50256650D01*
X59577618Y-50205275D01*
X59550568Y-50147266D01*
X59420047Y-49960861D01*
X59420045Y-49960858D01*
X59259141Y-49799954D01*
X59072734Y-49669432D01*
X59072732Y-49669431D01*
X58866497Y-49573261D01*
X58866488Y-49573258D01*
X58646697Y-49514366D01*
X58646693Y-49514365D01*
X58646692Y-49514365D01*
X58646691Y-49514364D01*
X58646686Y-49514364D01*
X58420002Y-49494532D01*
X58419998Y-49494532D01*
X58193313Y-49514364D01*
X58193302Y-49514366D01*
X57973511Y-49573258D01*
X57973502Y-49573261D01*
X57767267Y-49669431D01*
X57767265Y-49669432D01*
X57580858Y-49799954D01*
X57419954Y-49960858D01*
X57289432Y-50147265D01*
X57289431Y-50147267D01*
X57262382Y-50205275D01*
X57216209Y-50257714D01*
X57149016Y-50276866D01*
X57082135Y-50256650D01*
X57037618Y-50205275D01*
X57010568Y-50147266D01*
X56880047Y-49960861D01*
X56880045Y-49960858D01*
X56719141Y-49799954D01*
X56532734Y-49669432D01*
X56532732Y-49669431D01*
X56326497Y-49573261D01*
X56326488Y-49573258D01*
X56106697Y-49514366D01*
X56106693Y-49514365D01*
X56106692Y-49514365D01*
X56106691Y-49514364D01*
X56106686Y-49514364D01*
X55880002Y-49494532D01*
X55879998Y-49494532D01*
X55653313Y-49514364D01*
X55653302Y-49514366D01*
X55433511Y-49573258D01*
X55433502Y-49573261D01*
X55227267Y-49669431D01*
X55227265Y-49669432D01*
X55040858Y-49799954D01*
X54879954Y-49960858D01*
X54749432Y-50147265D01*
X54749431Y-50147267D01*
X54653261Y-50353502D01*
X54653258Y-50353511D01*
X54594366Y-50573302D01*
X54594364Y-50573313D01*
X54574532Y-50799998D01*
X54574532Y-50800001D01*
X53340000Y-50800001D01*
X53340000Y-46345006D01*
X57994700Y-46345006D01*
X58013864Y-46576297D01*
X58013866Y-46576308D01*
X58070842Y-46801300D01*
X58164075Y-47013848D01*
X58291016Y-47208147D01*
X58291019Y-47208151D01*
X58291021Y-47208153D01*
X58448216Y-47378913D01*
X58448219Y-47378915D01*
X58448222Y-47378918D01*
X58631365Y-47521464D01*
X58631371Y-47521468D01*
X58631374Y-47521470D01*
X58758930Y-47590500D01*
X58832259Y-47630184D01*
X58835497Y-47631936D01*
X58941524Y-47668335D01*
X59055015Y-47707297D01*
X59055017Y-47707297D01*
X59055019Y-47707298D01*
X59283951Y-47745500D01*
X59283952Y-47745500D01*
X59516048Y-47745500D01*
X59516049Y-47745500D01*
X59744981Y-47707298D01*
X59964503Y-47631936D01*
X60168626Y-47521470D01*
X60351784Y-47378913D01*
X60508979Y-47208153D01*
X60546191Y-47151196D01*
X60599337Y-47105839D01*
X60668569Y-47096415D01*
X60731904Y-47125917D01*
X60753809Y-47151196D01*
X60791016Y-47208147D01*
X60791019Y-47208151D01*
X60791021Y-47208153D01*
X60948216Y-47378913D01*
X60948219Y-47378915D01*
X60948222Y-47378918D01*
X61131365Y-47521464D01*
X61131371Y-47521468D01*
X61131374Y-47521470D01*
X61258930Y-47590500D01*
X61332259Y-47630184D01*
X61335497Y-47631936D01*
X61441524Y-47668335D01*
X61555015Y-47707297D01*
X61555017Y-47707297D01*
X61555019Y-47707298D01*
X61783951Y-47745500D01*
X61783952Y-47745500D01*
X62016048Y-47745500D01*
X62016049Y-47745500D01*
X62244981Y-47707298D01*
X62464503Y-47631936D01*
X62668626Y-47521470D01*
X62851784Y-47378913D01*
X63008979Y-47208153D01*
X63046191Y-47151196D01*
X63099337Y-47105839D01*
X63168569Y-47096415D01*
X63231904Y-47125917D01*
X63253809Y-47151196D01*
X63291016Y-47208147D01*
X63291019Y-47208151D01*
X63291021Y-47208153D01*
X63448216Y-47378913D01*
X63448219Y-47378915D01*
X63448222Y-47378918D01*
X63631365Y-47521464D01*
X63631371Y-47521468D01*
X63631374Y-47521470D01*
X63758930Y-47590500D01*
X63832259Y-47630184D01*
X63835497Y-47631936D01*
X63941524Y-47668335D01*
X64055015Y-47707297D01*
X64055017Y-47707297D01*
X64055019Y-47707298D01*
X64283951Y-47745500D01*
X64283952Y-47745500D01*
X64516048Y-47745500D01*
X64516049Y-47745500D01*
X64744981Y-47707298D01*
X64964503Y-47631936D01*
X65168626Y-47521470D01*
X65351784Y-47378913D01*
X65508979Y-47208153D01*
X65635924Y-47013849D01*
X65729157Y-46801300D01*
X65786134Y-46576305D01*
X65793473Y-46487737D01*
X65805300Y-46345006D01*
X94194700Y-46345006D01*
X94213864Y-46576297D01*
X94213866Y-46576308D01*
X94270842Y-46801300D01*
X94364075Y-47013848D01*
X94491016Y-47208147D01*
X94491019Y-47208151D01*
X94491021Y-47208153D01*
X94648216Y-47378913D01*
X94648219Y-47378915D01*
X94648222Y-47378918D01*
X94831365Y-47521464D01*
X94831371Y-47521468D01*
X94831374Y-47521470D01*
X94958930Y-47590500D01*
X95032259Y-47630184D01*
X95035497Y-47631936D01*
X95141524Y-47668335D01*
X95255015Y-47707297D01*
X95255017Y-47707297D01*
X95255019Y-47707298D01*
X95483951Y-47745500D01*
X95483952Y-47745500D01*
X95716048Y-47745500D01*
X95716049Y-47745500D01*
X95944981Y-47707298D01*
X96164503Y-47631936D01*
X96368626Y-47521470D01*
X96551784Y-47378913D01*
X96708979Y-47208153D01*
X96746191Y-47151196D01*
X96799337Y-47105839D01*
X96868569Y-47096415D01*
X96931904Y-47125917D01*
X96953809Y-47151196D01*
X96991016Y-47208147D01*
X96991019Y-47208151D01*
X96991021Y-47208153D01*
X97148216Y-47378913D01*
X97148219Y-47378915D01*
X97148222Y-47378918D01*
X97331365Y-47521464D01*
X97331371Y-47521468D01*
X97331374Y-47521470D01*
X97458930Y-47590500D01*
X97532259Y-47630184D01*
X97535497Y-47631936D01*
X97641524Y-47668335D01*
X97755015Y-47707297D01*
X97755017Y-47707297D01*
X97755019Y-47707298D01*
X97983951Y-47745500D01*
X97983952Y-47745500D01*
X98216048Y-47745500D01*
X98216049Y-47745500D01*
X98444981Y-47707298D01*
X98664503Y-47631936D01*
X98868626Y-47521470D01*
X99051784Y-47378913D01*
X99208979Y-47208153D01*
X99246191Y-47151196D01*
X99299337Y-47105839D01*
X99368569Y-47096415D01*
X99431904Y-47125917D01*
X99453809Y-47151196D01*
X99491016Y-47208147D01*
X99491019Y-47208151D01*
X99491021Y-47208153D01*
X99648216Y-47378913D01*
X99648219Y-47378915D01*
X99648222Y-47378918D01*
X99831365Y-47521464D01*
X99831371Y-47521468D01*
X99831374Y-47521470D01*
X99958930Y-47590500D01*
X100032259Y-47630184D01*
X100035497Y-47631936D01*
X100141524Y-47668335D01*
X100255015Y-47707297D01*
X100255017Y-47707297D01*
X100255019Y-47707298D01*
X100483951Y-47745500D01*
X100483952Y-47745500D01*
X100716048Y-47745500D01*
X100716049Y-47745500D01*
X100944981Y-47707298D01*
X101164503Y-47631936D01*
X101368626Y-47521470D01*
X101551784Y-47378913D01*
X101708979Y-47208153D01*
X101835924Y-47013849D01*
X101929157Y-46801300D01*
X101986134Y-46576305D01*
X101993473Y-46487737D01*
X102005300Y-46345006D01*
X130394700Y-46345006D01*
X130413864Y-46576297D01*
X130413866Y-46576308D01*
X130470842Y-46801300D01*
X130564075Y-47013848D01*
X130691016Y-47208147D01*
X130691019Y-47208151D01*
X130691021Y-47208153D01*
X130848216Y-47378913D01*
X130848219Y-47378915D01*
X130848222Y-47378918D01*
X131031365Y-47521464D01*
X131031371Y-47521468D01*
X131031374Y-47521470D01*
X131158930Y-47590500D01*
X131232259Y-47630184D01*
X131235497Y-47631936D01*
X131341524Y-47668335D01*
X131455015Y-47707297D01*
X131455017Y-47707297D01*
X131455019Y-47707298D01*
X131683951Y-47745500D01*
X131683952Y-47745500D01*
X131916048Y-47745500D01*
X131916049Y-47745500D01*
X132144981Y-47707298D01*
X132364503Y-47631936D01*
X132568626Y-47521470D01*
X132751784Y-47378913D01*
X132908979Y-47208153D01*
X132946191Y-47151196D01*
X132999337Y-47105839D01*
X133068569Y-47096415D01*
X133131904Y-47125917D01*
X133153809Y-47151196D01*
X133191016Y-47208147D01*
X133191019Y-47208151D01*
X133191021Y-47208153D01*
X133348216Y-47378913D01*
X133348219Y-47378915D01*
X133348222Y-47378918D01*
X133531365Y-47521464D01*
X133531371Y-47521468D01*
X133531374Y-47521470D01*
X133658930Y-47590500D01*
X133732259Y-47630184D01*
X133735497Y-47631936D01*
X133841524Y-47668335D01*
X133955015Y-47707297D01*
X133955017Y-47707297D01*
X133955019Y-47707298D01*
X134183951Y-47745500D01*
X134183952Y-47745500D01*
X134416048Y-47745500D01*
X134416049Y-47745500D01*
X134644981Y-47707298D01*
X134864503Y-47631936D01*
X135068626Y-47521470D01*
X135251784Y-47378913D01*
X135408979Y-47208153D01*
X135446191Y-47151196D01*
X135499337Y-47105839D01*
X135568569Y-47096415D01*
X135631904Y-47125917D01*
X135653809Y-47151196D01*
X135691016Y-47208147D01*
X135691019Y-47208151D01*
X135691021Y-47208153D01*
X135848216Y-47378913D01*
X135848219Y-47378915D01*
X135848222Y-47378918D01*
X136031365Y-47521464D01*
X136031371Y-47521468D01*
X136031374Y-47521470D01*
X136158930Y-47590500D01*
X136232259Y-47630184D01*
X136235497Y-47631936D01*
X136341524Y-47668335D01*
X136455015Y-47707297D01*
X136455017Y-47707297D01*
X136455019Y-47707298D01*
X136683951Y-47745500D01*
X136683952Y-47745500D01*
X136916048Y-47745500D01*
X136916049Y-47745500D01*
X137144981Y-47707298D01*
X137364503Y-47631936D01*
X137568626Y-47521470D01*
X137751784Y-47378913D01*
X137908979Y-47208153D01*
X138035924Y-47013849D01*
X138129157Y-46801300D01*
X138186134Y-46576305D01*
X138193473Y-46487737D01*
X138205300Y-46345006D01*
X138205300Y-46344993D01*
X138186135Y-46113702D01*
X138186133Y-46113691D01*
X138129157Y-45888699D01*
X138035924Y-45676151D01*
X137908983Y-45481852D01*
X137908980Y-45481849D01*
X137908979Y-45481847D01*
X137751784Y-45311087D01*
X137673772Y-45250368D01*
X137599469Y-45192535D01*
X137558656Y-45135825D01*
X137554982Y-45066052D01*
X137589614Y-45005369D01*
X137598794Y-44997413D01*
X137598798Y-44997350D01*
X136929410Y-44327962D01*
X136992993Y-44310925D01*
X137107007Y-44245099D01*
X137200099Y-44152007D01*
X137265925Y-44037993D01*
X137282962Y-43974409D01*
X137951186Y-44642633D01*
X138035482Y-44513611D01*
X138128682Y-44301135D01*
X138185638Y-44076218D01*
X138204798Y-43845005D01*
X138204798Y-43844994D01*
X138185638Y-43613781D01*
X138128682Y-43388864D01*
X138035484Y-43176393D01*
X137951186Y-43047365D01*
X137282962Y-43715589D01*
X137265925Y-43652007D01*
X137200099Y-43537993D01*
X137107007Y-43444901D01*
X136992993Y-43379075D01*
X136929409Y-43362037D01*
X137598797Y-42692647D01*
X137598797Y-42692645D01*
X137568360Y-42668955D01*
X137568354Y-42668951D01*
X137364302Y-42558523D01*
X137364293Y-42558520D01*
X137144860Y-42483188D01*
X136916007Y-42445000D01*
X136683993Y-42445000D01*
X136455139Y-42483188D01*
X136235706Y-42558520D01*
X136235697Y-42558523D01*
X136031650Y-42668949D01*
X136001200Y-42692647D01*
X136670591Y-43362037D01*
X136607007Y-43379075D01*
X136492993Y-43444901D01*
X136399901Y-43537993D01*
X136334075Y-43652007D01*
X136317037Y-43715591D01*
X135648811Y-43047365D01*
X135644029Y-43047861D01*
X135600959Y-43084618D01*
X135531728Y-43094041D01*
X135468392Y-43064538D01*
X135446489Y-43039260D01*
X135408983Y-42981852D01*
X135408980Y-42981849D01*
X135408979Y-42981847D01*
X135251784Y-42811087D01*
X135251779Y-42811083D01*
X135251777Y-42811081D01*
X135068634Y-42668535D01*
X135068628Y-42668531D01*
X134864504Y-42558064D01*
X134864495Y-42558061D01*
X134644984Y-42482702D01*
X134454450Y-42450908D01*
X134416049Y-42444500D01*
X134183951Y-42444500D01*
X134145550Y-42450908D01*
X133955015Y-42482702D01*
X133735504Y-42558061D01*
X133735495Y-42558064D01*
X133531372Y-42668531D01*
X133354436Y-42806245D01*
X133289442Y-42831887D01*
X133220902Y-42818320D01*
X133170577Y-42769852D01*
X133162092Y-42751723D01*
X133143798Y-42702673D01*
X133143793Y-42702664D01*
X133057547Y-42587455D01*
X133057544Y-42587452D01*
X132942335Y-42501206D01*
X132942328Y-42501202D01*
X132807482Y-42450908D01*
X132807483Y-42450908D01*
X132747883Y-42444501D01*
X132747881Y-42444500D01*
X132747873Y-42444500D01*
X132747864Y-42444500D01*
X130852129Y-42444500D01*
X130852123Y-42444501D01*
X130792516Y-42450908D01*
X130657671Y-42501202D01*
X130657664Y-42501206D01*
X130542455Y-42587452D01*
X130542452Y-42587455D01*
X130456206Y-42702664D01*
X130456202Y-42702671D01*
X130405908Y-42837517D01*
X130399501Y-42897116D01*
X130399500Y-42897135D01*
X130399500Y-44792870D01*
X130399501Y-44792876D01*
X130405908Y-44852483D01*
X130456202Y-44987328D01*
X130456206Y-44987335D01*
X130542452Y-45102544D01*
X130542455Y-45102547D01*
X130657664Y-45188793D01*
X130657673Y-45188798D01*
X130710493Y-45208498D01*
X130766427Y-45250368D01*
X130790845Y-45315832D01*
X130775994Y-45384105D01*
X130758392Y-45408662D01*
X130691021Y-45481847D01*
X130691019Y-45481848D01*
X130691016Y-45481853D01*
X130564075Y-45676151D01*
X130470842Y-45888699D01*
X130413866Y-46113691D01*
X130413864Y-46113702D01*
X130394700Y-46344993D01*
X130394700Y-46345006D01*
X102005300Y-46345006D01*
X102005300Y-46344993D01*
X101986135Y-46113702D01*
X101986133Y-46113691D01*
X101929157Y-45888699D01*
X101835924Y-45676151D01*
X101708983Y-45481852D01*
X101708980Y-45481849D01*
X101708979Y-45481847D01*
X101551784Y-45311087D01*
X101473772Y-45250368D01*
X101399469Y-45192535D01*
X101358656Y-45135825D01*
X101354982Y-45066052D01*
X101389614Y-45005369D01*
X101398794Y-44997413D01*
X101398798Y-44997350D01*
X100729410Y-44327962D01*
X100792993Y-44310925D01*
X100907007Y-44245099D01*
X101000099Y-44152007D01*
X101065925Y-44037993D01*
X101082962Y-43974409D01*
X101751186Y-44642633D01*
X101835482Y-44513611D01*
X101928682Y-44301135D01*
X101985638Y-44076218D01*
X102004798Y-43845005D01*
X102004798Y-43844994D01*
X101985638Y-43613781D01*
X101928682Y-43388864D01*
X101835484Y-43176393D01*
X101751186Y-43047365D01*
X101082962Y-43715589D01*
X101065925Y-43652007D01*
X101000099Y-43537993D01*
X100907007Y-43444901D01*
X100792993Y-43379075D01*
X100729409Y-43362037D01*
X101398797Y-42692647D01*
X101398797Y-42692645D01*
X101368360Y-42668955D01*
X101368354Y-42668951D01*
X101164302Y-42558523D01*
X101164293Y-42558520D01*
X100944860Y-42483188D01*
X100716007Y-42445000D01*
X100483993Y-42445000D01*
X100255139Y-42483188D01*
X100035706Y-42558520D01*
X100035697Y-42558523D01*
X99831650Y-42668949D01*
X99801200Y-42692647D01*
X100470591Y-43362037D01*
X100407007Y-43379075D01*
X100292993Y-43444901D01*
X100199901Y-43537993D01*
X100134075Y-43652007D01*
X100117037Y-43715591D01*
X99448811Y-43047365D01*
X99444029Y-43047861D01*
X99400959Y-43084618D01*
X99331728Y-43094041D01*
X99268392Y-43064538D01*
X99246489Y-43039260D01*
X99208983Y-42981852D01*
X99208980Y-42981849D01*
X99208979Y-42981847D01*
X99051784Y-42811087D01*
X99051779Y-42811083D01*
X99051777Y-42811081D01*
X98868634Y-42668535D01*
X98868628Y-42668531D01*
X98664504Y-42558064D01*
X98664495Y-42558061D01*
X98444984Y-42482702D01*
X98254450Y-42450908D01*
X98216049Y-42444500D01*
X97983951Y-42444500D01*
X97945550Y-42450908D01*
X97755015Y-42482702D01*
X97535504Y-42558061D01*
X97535495Y-42558064D01*
X97331372Y-42668531D01*
X97154436Y-42806245D01*
X97089442Y-42831887D01*
X97020902Y-42818320D01*
X96970577Y-42769852D01*
X96962092Y-42751723D01*
X96943798Y-42702673D01*
X96943793Y-42702664D01*
X96857547Y-42587455D01*
X96857544Y-42587452D01*
X96742335Y-42501206D01*
X96742328Y-42501202D01*
X96607482Y-42450908D01*
X96607483Y-42450908D01*
X96547883Y-42444501D01*
X96547881Y-42444500D01*
X96547873Y-42444500D01*
X96547864Y-42444500D01*
X94652129Y-42444500D01*
X94652123Y-42444501D01*
X94592516Y-42450908D01*
X94457671Y-42501202D01*
X94457664Y-42501206D01*
X94342455Y-42587452D01*
X94342452Y-42587455D01*
X94256206Y-42702664D01*
X94256202Y-42702671D01*
X94205908Y-42837517D01*
X94199501Y-42897116D01*
X94199500Y-42897135D01*
X94199500Y-44792870D01*
X94199501Y-44792876D01*
X94205908Y-44852483D01*
X94256202Y-44987328D01*
X94256206Y-44987335D01*
X94342452Y-45102544D01*
X94342455Y-45102547D01*
X94457664Y-45188793D01*
X94457673Y-45188798D01*
X94510493Y-45208498D01*
X94566427Y-45250368D01*
X94590845Y-45315832D01*
X94575994Y-45384105D01*
X94558392Y-45408662D01*
X94491021Y-45481847D01*
X94491019Y-45481848D01*
X94491016Y-45481853D01*
X94364075Y-45676151D01*
X94270842Y-45888699D01*
X94213866Y-46113691D01*
X94213864Y-46113702D01*
X94194700Y-46344993D01*
X94194700Y-46345006D01*
X65805300Y-46345006D01*
X65805300Y-46344993D01*
X65786135Y-46113702D01*
X65786133Y-46113691D01*
X65729157Y-45888699D01*
X65635924Y-45676151D01*
X65508983Y-45481852D01*
X65508980Y-45481849D01*
X65508979Y-45481847D01*
X65351784Y-45311087D01*
X65273772Y-45250368D01*
X65199469Y-45192535D01*
X65158656Y-45135825D01*
X65154982Y-45066052D01*
X65189614Y-45005369D01*
X65198794Y-44997413D01*
X65198798Y-44997350D01*
X64529410Y-44327962D01*
X64592993Y-44310925D01*
X64707007Y-44245099D01*
X64800099Y-44152007D01*
X64865925Y-44037993D01*
X64882962Y-43974409D01*
X65551186Y-44642633D01*
X65635482Y-44513611D01*
X65728682Y-44301135D01*
X65785638Y-44076218D01*
X65804798Y-43845005D01*
X65804798Y-43844994D01*
X65785638Y-43613781D01*
X65728682Y-43388864D01*
X65635484Y-43176393D01*
X65551186Y-43047365D01*
X64882962Y-43715589D01*
X64865925Y-43652007D01*
X64800099Y-43537993D01*
X64707007Y-43444901D01*
X64592993Y-43379075D01*
X64529409Y-43362037D01*
X65198797Y-42692647D01*
X65198797Y-42692645D01*
X65168360Y-42668955D01*
X65168354Y-42668951D01*
X64964302Y-42558523D01*
X64964293Y-42558520D01*
X64744860Y-42483188D01*
X64516007Y-42445000D01*
X64283993Y-42445000D01*
X64055139Y-42483188D01*
X63835706Y-42558520D01*
X63835697Y-42558523D01*
X63631650Y-42668949D01*
X63601200Y-42692647D01*
X64270591Y-43362037D01*
X64207007Y-43379075D01*
X64092993Y-43444901D01*
X63999901Y-43537993D01*
X63934075Y-43652007D01*
X63917037Y-43715591D01*
X63248811Y-43047365D01*
X63244029Y-43047861D01*
X63200959Y-43084618D01*
X63131728Y-43094041D01*
X63068392Y-43064538D01*
X63046489Y-43039260D01*
X63008983Y-42981852D01*
X63008980Y-42981849D01*
X63008979Y-42981847D01*
X62851784Y-42811087D01*
X62851779Y-42811083D01*
X62851777Y-42811081D01*
X62668634Y-42668535D01*
X62668628Y-42668531D01*
X62464504Y-42558064D01*
X62464495Y-42558061D01*
X62244984Y-42482702D01*
X62054450Y-42450908D01*
X62016049Y-42444500D01*
X61783951Y-42444500D01*
X61745550Y-42450908D01*
X61555015Y-42482702D01*
X61335504Y-42558061D01*
X61335495Y-42558064D01*
X61131372Y-42668531D01*
X60954436Y-42806245D01*
X60889442Y-42831887D01*
X60820902Y-42818320D01*
X60770577Y-42769852D01*
X60762092Y-42751723D01*
X60743798Y-42702673D01*
X60743793Y-42702664D01*
X60657547Y-42587455D01*
X60657544Y-42587452D01*
X60542335Y-42501206D01*
X60542328Y-42501202D01*
X60407482Y-42450908D01*
X60407483Y-42450908D01*
X60347883Y-42444501D01*
X60347881Y-42444500D01*
X60347873Y-42444500D01*
X60347864Y-42444500D01*
X58452129Y-42444500D01*
X58452123Y-42444501D01*
X58392516Y-42450908D01*
X58257671Y-42501202D01*
X58257664Y-42501206D01*
X58142455Y-42587452D01*
X58142452Y-42587455D01*
X58056206Y-42702664D01*
X58056202Y-42702671D01*
X58005908Y-42837517D01*
X57999501Y-42897116D01*
X57999500Y-42897135D01*
X57999500Y-44792870D01*
X57999501Y-44792876D01*
X58005908Y-44852483D01*
X58056202Y-44987328D01*
X58056206Y-44987335D01*
X58142452Y-45102544D01*
X58142455Y-45102547D01*
X58257664Y-45188793D01*
X58257673Y-45188798D01*
X58310493Y-45208498D01*
X58366427Y-45250368D01*
X58390845Y-45315832D01*
X58375994Y-45384105D01*
X58358392Y-45408662D01*
X58291021Y-45481847D01*
X58291019Y-45481848D01*
X58291016Y-45481853D01*
X58164075Y-45676151D01*
X58070842Y-45888699D01*
X58013866Y-46113691D01*
X58013864Y-46113702D01*
X57994700Y-46344993D01*
X57994700Y-46345006D01*
X53340000Y-46345006D01*
X53340000Y-36726951D01*
X55289500Y-36726951D01*
X55316013Y-36928333D01*
X55321334Y-36968744D01*
X55321335Y-36968746D01*
X55384456Y-37204320D01*
X55384459Y-37204330D01*
X55477786Y-37429640D01*
X55477791Y-37429651D01*
X55599727Y-37640848D01*
X55599738Y-37640864D01*
X55748199Y-37834343D01*
X55748205Y-37834350D01*
X55920649Y-38006794D01*
X55920655Y-38006799D01*
X56114144Y-38155268D01*
X56114151Y-38155272D01*
X56325348Y-38277208D01*
X56325353Y-38277210D01*
X56325356Y-38277212D01*
X56550679Y-38370544D01*
X56786256Y-38433666D01*
X57028056Y-38465500D01*
X57028063Y-38465500D01*
X57271937Y-38465500D01*
X57271944Y-38465500D01*
X57513744Y-38433666D01*
X57749321Y-38370544D01*
X57974644Y-38277212D01*
X58185856Y-38155268D01*
X58379345Y-38006799D01*
X58551799Y-37834345D01*
X58700268Y-37640856D01*
X58822212Y-37429644D01*
X58915544Y-37204321D01*
X58978666Y-36968744D01*
X59010499Y-36726951D01*
X64789500Y-36726951D01*
X64816013Y-36928333D01*
X64821334Y-36968744D01*
X64821335Y-36968746D01*
X64884456Y-37204320D01*
X64884459Y-37204330D01*
X64977786Y-37429640D01*
X64977791Y-37429651D01*
X65099727Y-37640848D01*
X65099738Y-37640864D01*
X65248199Y-37834343D01*
X65248205Y-37834350D01*
X65420649Y-38006794D01*
X65420655Y-38006799D01*
X65614144Y-38155268D01*
X65614151Y-38155272D01*
X65825348Y-38277208D01*
X65825353Y-38277210D01*
X65825356Y-38277212D01*
X66050679Y-38370544D01*
X66286256Y-38433666D01*
X66528056Y-38465500D01*
X66528063Y-38465500D01*
X66771937Y-38465500D01*
X66771944Y-38465500D01*
X67013744Y-38433666D01*
X67249321Y-38370544D01*
X67474644Y-38277212D01*
X67685856Y-38155268D01*
X67879345Y-38006799D01*
X68051799Y-37834345D01*
X68200268Y-37640856D01*
X68322212Y-37429644D01*
X68415544Y-37204321D01*
X68478666Y-36968744D01*
X68510499Y-36726951D01*
X91489500Y-36726951D01*
X91516013Y-36928333D01*
X91521334Y-36968744D01*
X91521335Y-36968746D01*
X91584456Y-37204320D01*
X91584459Y-37204330D01*
X91677786Y-37429640D01*
X91677791Y-37429651D01*
X91799727Y-37640848D01*
X91799738Y-37640864D01*
X91948199Y-37834343D01*
X91948205Y-37834350D01*
X92120649Y-38006794D01*
X92120655Y-38006799D01*
X92314144Y-38155268D01*
X92314151Y-38155272D01*
X92525348Y-38277208D01*
X92525353Y-38277210D01*
X92525356Y-38277212D01*
X92750679Y-38370544D01*
X92986256Y-38433666D01*
X93228056Y-38465500D01*
X93228063Y-38465500D01*
X93471937Y-38465500D01*
X93471944Y-38465500D01*
X93713744Y-38433666D01*
X93949321Y-38370544D01*
X94174644Y-38277212D01*
X94385856Y-38155268D01*
X94579345Y-38006799D01*
X94751799Y-37834345D01*
X94900268Y-37640856D01*
X95022212Y-37429644D01*
X95115544Y-37204321D01*
X95178666Y-36968744D01*
X95210499Y-36726951D01*
X100989500Y-36726951D01*
X101016013Y-36928333D01*
X101021334Y-36968744D01*
X101021335Y-36968746D01*
X101084456Y-37204320D01*
X101084459Y-37204330D01*
X101177786Y-37429640D01*
X101177791Y-37429651D01*
X101299727Y-37640848D01*
X101299738Y-37640864D01*
X101448199Y-37834343D01*
X101448205Y-37834350D01*
X101620649Y-38006794D01*
X101620655Y-38006799D01*
X101814144Y-38155268D01*
X101814151Y-38155272D01*
X102025348Y-38277208D01*
X102025353Y-38277210D01*
X102025356Y-38277212D01*
X102250679Y-38370544D01*
X102486256Y-38433666D01*
X102728056Y-38465500D01*
X102728063Y-38465500D01*
X102971937Y-38465500D01*
X102971944Y-38465500D01*
X103213744Y-38433666D01*
X103449321Y-38370544D01*
X103674644Y-38277212D01*
X103885856Y-38155268D01*
X104079345Y-38006799D01*
X104251799Y-37834345D01*
X104400268Y-37640856D01*
X104522212Y-37429644D01*
X104615544Y-37204321D01*
X104678666Y-36968744D01*
X104710499Y-36726951D01*
X127689500Y-36726951D01*
X127716013Y-36928333D01*
X127721334Y-36968744D01*
X127721335Y-36968746D01*
X127784456Y-37204320D01*
X127784459Y-37204330D01*
X127877786Y-37429640D01*
X127877791Y-37429651D01*
X127999727Y-37640848D01*
X127999738Y-37640864D01*
X128148199Y-37834343D01*
X128148205Y-37834350D01*
X128320649Y-38006794D01*
X128320655Y-38006799D01*
X128514144Y-38155268D01*
X128514151Y-38155272D01*
X128725348Y-38277208D01*
X128725353Y-38277210D01*
X128725356Y-38277212D01*
X128950679Y-38370544D01*
X129186256Y-38433666D01*
X129428056Y-38465500D01*
X129428063Y-38465500D01*
X129671937Y-38465500D01*
X129671944Y-38465500D01*
X129913744Y-38433666D01*
X130149321Y-38370544D01*
X130374644Y-38277212D01*
X130585856Y-38155268D01*
X130779345Y-38006799D01*
X130951799Y-37834345D01*
X131100268Y-37640856D01*
X131222212Y-37429644D01*
X131315544Y-37204321D01*
X131378666Y-36968744D01*
X131410499Y-36726951D01*
X137189500Y-36726951D01*
X137216013Y-36928333D01*
X137221334Y-36968744D01*
X137221335Y-36968746D01*
X137284456Y-37204320D01*
X137284459Y-37204330D01*
X137377786Y-37429640D01*
X137377791Y-37429651D01*
X137499727Y-37640848D01*
X137499738Y-37640864D01*
X137648199Y-37834343D01*
X137648205Y-37834350D01*
X137820649Y-38006794D01*
X137820655Y-38006799D01*
X138014144Y-38155268D01*
X138014151Y-38155272D01*
X138225348Y-38277208D01*
X138225353Y-38277210D01*
X138225356Y-38277212D01*
X138450679Y-38370544D01*
X138686256Y-38433666D01*
X138928056Y-38465500D01*
X138928063Y-38465500D01*
X139171937Y-38465500D01*
X139171944Y-38465500D01*
X139413744Y-38433666D01*
X139649321Y-38370544D01*
X139874644Y-38277212D01*
X140085856Y-38155268D01*
X140279345Y-38006799D01*
X140451799Y-37834345D01*
X140600268Y-37640856D01*
X140722212Y-37429644D01*
X140815544Y-37204321D01*
X140878666Y-36968744D01*
X140910499Y-36726951D01*
X163889500Y-36726951D01*
X163916013Y-36928333D01*
X163921334Y-36968744D01*
X163921335Y-36968746D01*
X163984456Y-37204320D01*
X163984459Y-37204330D01*
X164077786Y-37429640D01*
X164077791Y-37429651D01*
X164199727Y-37640848D01*
X164199738Y-37640864D01*
X164348199Y-37834343D01*
X164348205Y-37834350D01*
X164520649Y-38006794D01*
X164520655Y-38006799D01*
X164714144Y-38155268D01*
X164714151Y-38155272D01*
X164925348Y-38277208D01*
X164925353Y-38277210D01*
X164925356Y-38277212D01*
X165150679Y-38370544D01*
X165386256Y-38433666D01*
X165628056Y-38465500D01*
X165628063Y-38465500D01*
X165871937Y-38465500D01*
X165871944Y-38465500D01*
X166113744Y-38433666D01*
X166349321Y-38370544D01*
X166574644Y-38277212D01*
X166785856Y-38155268D01*
X166979345Y-38006799D01*
X167151799Y-37834345D01*
X167300268Y-37640856D01*
X167422212Y-37429644D01*
X167515544Y-37204321D01*
X167578666Y-36968744D01*
X167610499Y-36726951D01*
X173389500Y-36726951D01*
X173416013Y-36928333D01*
X173421334Y-36968744D01*
X173421335Y-36968746D01*
X173484456Y-37204320D01*
X173484459Y-37204330D01*
X173577786Y-37429640D01*
X173577791Y-37429651D01*
X173699727Y-37640848D01*
X173699738Y-37640864D01*
X173848199Y-37834343D01*
X173848205Y-37834350D01*
X174020649Y-38006794D01*
X174020655Y-38006799D01*
X174214144Y-38155268D01*
X174214151Y-38155272D01*
X174425348Y-38277208D01*
X174425353Y-38277210D01*
X174425356Y-38277212D01*
X174650679Y-38370544D01*
X174886256Y-38433666D01*
X175128056Y-38465500D01*
X175128063Y-38465500D01*
X175371937Y-38465500D01*
X175371944Y-38465500D01*
X175613744Y-38433666D01*
X175849321Y-38370544D01*
X176074644Y-38277212D01*
X176285856Y-38155268D01*
X176479345Y-38006799D01*
X176651799Y-37834345D01*
X176800268Y-37640856D01*
X176922212Y-37429644D01*
X177015544Y-37204321D01*
X177078666Y-36968744D01*
X177110499Y-36726951D01*
X200089500Y-36726951D01*
X200116013Y-36928333D01*
X200121334Y-36968744D01*
X200121335Y-36968746D01*
X200184456Y-37204320D01*
X200184459Y-37204330D01*
X200277786Y-37429640D01*
X200277791Y-37429651D01*
X200399727Y-37640848D01*
X200399738Y-37640864D01*
X200548199Y-37834343D01*
X200548205Y-37834350D01*
X200720649Y-38006794D01*
X200720655Y-38006799D01*
X200914144Y-38155268D01*
X200914151Y-38155272D01*
X201125348Y-38277208D01*
X201125353Y-38277210D01*
X201125356Y-38277212D01*
X201350679Y-38370544D01*
X201586256Y-38433666D01*
X201828056Y-38465500D01*
X201828063Y-38465500D01*
X202071937Y-38465500D01*
X202071944Y-38465500D01*
X202313744Y-38433666D01*
X202549321Y-38370544D01*
X202774644Y-38277212D01*
X202985856Y-38155268D01*
X203179345Y-38006799D01*
X203351799Y-37834345D01*
X203500268Y-37640856D01*
X203622212Y-37429644D01*
X203715544Y-37204321D01*
X203778666Y-36968744D01*
X203810499Y-36726951D01*
X209589500Y-36726951D01*
X209616013Y-36928333D01*
X209621334Y-36968744D01*
X209621335Y-36968746D01*
X209684456Y-37204320D01*
X209684459Y-37204330D01*
X209777786Y-37429640D01*
X209777791Y-37429651D01*
X209899727Y-37640848D01*
X209899738Y-37640864D01*
X210048199Y-37834343D01*
X210048205Y-37834350D01*
X210220649Y-38006794D01*
X210220655Y-38006799D01*
X210414144Y-38155268D01*
X210414151Y-38155272D01*
X210625348Y-38277208D01*
X210625353Y-38277210D01*
X210625356Y-38277212D01*
X210850679Y-38370544D01*
X211086256Y-38433666D01*
X211328056Y-38465500D01*
X211328063Y-38465500D01*
X211571937Y-38465500D01*
X211571944Y-38465500D01*
X211813744Y-38433666D01*
X212049321Y-38370544D01*
X212274644Y-38277212D01*
X212485856Y-38155268D01*
X212679345Y-38006799D01*
X212851799Y-37834345D01*
X213000268Y-37640856D01*
X213122212Y-37429644D01*
X213215544Y-37204321D01*
X213278666Y-36968744D01*
X213310499Y-36726951D01*
X236289500Y-36726951D01*
X236316013Y-36928333D01*
X236321334Y-36968744D01*
X236321335Y-36968746D01*
X236384456Y-37204320D01*
X236384459Y-37204330D01*
X236477786Y-37429640D01*
X236477791Y-37429651D01*
X236599727Y-37640848D01*
X236599738Y-37640864D01*
X236748199Y-37834343D01*
X236748205Y-37834350D01*
X236920649Y-38006794D01*
X236920655Y-38006799D01*
X237114144Y-38155268D01*
X237114151Y-38155272D01*
X237325348Y-38277208D01*
X237325353Y-38277210D01*
X237325356Y-38277212D01*
X237550679Y-38370544D01*
X237786256Y-38433666D01*
X238028056Y-38465500D01*
X238028063Y-38465500D01*
X238271937Y-38465500D01*
X238271944Y-38465500D01*
X238513744Y-38433666D01*
X238749321Y-38370544D01*
X238974644Y-38277212D01*
X239185856Y-38155268D01*
X239379345Y-38006799D01*
X239551799Y-37834345D01*
X239700268Y-37640856D01*
X239822212Y-37429644D01*
X239915544Y-37204321D01*
X239978666Y-36968744D01*
X240010499Y-36726951D01*
X245789500Y-36726951D01*
X245816013Y-36928333D01*
X245821334Y-36968744D01*
X245821335Y-36968746D01*
X245884456Y-37204320D01*
X245884459Y-37204330D01*
X245977786Y-37429640D01*
X245977791Y-37429651D01*
X246099727Y-37640848D01*
X246099738Y-37640864D01*
X246248199Y-37834343D01*
X246248205Y-37834350D01*
X246420649Y-38006794D01*
X246420655Y-38006799D01*
X246614144Y-38155268D01*
X246614151Y-38155272D01*
X246825348Y-38277208D01*
X246825353Y-38277210D01*
X246825356Y-38277212D01*
X247050679Y-38370544D01*
X247286256Y-38433666D01*
X247528056Y-38465500D01*
X247528063Y-38465500D01*
X247771937Y-38465500D01*
X247771944Y-38465500D01*
X248013744Y-38433666D01*
X248249321Y-38370544D01*
X248474644Y-38277212D01*
X248685856Y-38155268D01*
X248879345Y-38006799D01*
X249051799Y-37834345D01*
X249200268Y-37640856D01*
X249322212Y-37429644D01*
X249415544Y-37204321D01*
X249478666Y-36968744D01*
X249510500Y-36726944D01*
X249510500Y-35963056D01*
X249478666Y-35721256D01*
X249415544Y-35485679D01*
X249322212Y-35260356D01*
X249322210Y-35260353D01*
X249322208Y-35260348D01*
X249200272Y-35049151D01*
X249200268Y-35049144D01*
X249051799Y-34855655D01*
X249051794Y-34855649D01*
X248879350Y-34683205D01*
X248879343Y-34683199D01*
X248685864Y-34534738D01*
X248685862Y-34534736D01*
X248685856Y-34534732D01*
X248685851Y-34534729D01*
X248685848Y-34534727D01*
X248474651Y-34412791D01*
X248474640Y-34412786D01*
X248249330Y-34319459D01*
X248249323Y-34319457D01*
X248249321Y-34319456D01*
X248013744Y-34256334D01*
X247973333Y-34251013D01*
X247771951Y-34224500D01*
X247771944Y-34224500D01*
X247528056Y-34224500D01*
X247528048Y-34224500D01*
X247297896Y-34254801D01*
X247286256Y-34256334D01*
X247050679Y-34319456D01*
X247050669Y-34319459D01*
X246825359Y-34412786D01*
X246825348Y-34412791D01*
X246614151Y-34534727D01*
X246614135Y-34534738D01*
X246420656Y-34683199D01*
X246420649Y-34683205D01*
X246248205Y-34855649D01*
X246248199Y-34855656D01*
X246099738Y-35049135D01*
X246099727Y-35049151D01*
X245977791Y-35260348D01*
X245977786Y-35260359D01*
X245884459Y-35485669D01*
X245884456Y-35485679D01*
X245821335Y-35721253D01*
X245821333Y-35721264D01*
X245789500Y-35963048D01*
X245789500Y-36726951D01*
X240010499Y-36726951D01*
X240010500Y-36726944D01*
X240010500Y-35963056D01*
X239978666Y-35721256D01*
X239915544Y-35485679D01*
X239822212Y-35260356D01*
X239822210Y-35260353D01*
X239822208Y-35260348D01*
X239700272Y-35049151D01*
X239700268Y-35049144D01*
X239551799Y-34855655D01*
X239551794Y-34855649D01*
X239379350Y-34683205D01*
X239379343Y-34683199D01*
X239185864Y-34534738D01*
X239185862Y-34534736D01*
X239185856Y-34534732D01*
X239185851Y-34534729D01*
X239185848Y-34534727D01*
X238974651Y-34412791D01*
X238974640Y-34412786D01*
X238749330Y-34319459D01*
X238749323Y-34319457D01*
X238749321Y-34319456D01*
X238513744Y-34256334D01*
X238473333Y-34251013D01*
X238271951Y-34224500D01*
X238271944Y-34224500D01*
X238028056Y-34224500D01*
X238028048Y-34224500D01*
X237797896Y-34254801D01*
X237786256Y-34256334D01*
X237550679Y-34319456D01*
X237550669Y-34319459D01*
X237325359Y-34412786D01*
X237325348Y-34412791D01*
X237114151Y-34534727D01*
X237114135Y-34534738D01*
X236920656Y-34683199D01*
X236920649Y-34683205D01*
X236748205Y-34855649D01*
X236748199Y-34855656D01*
X236599738Y-35049135D01*
X236599727Y-35049151D01*
X236477791Y-35260348D01*
X236477786Y-35260359D01*
X236384459Y-35485669D01*
X236384456Y-35485679D01*
X236321335Y-35721253D01*
X236321333Y-35721264D01*
X236289500Y-35963048D01*
X236289500Y-36726951D01*
X213310499Y-36726951D01*
X213310500Y-36726944D01*
X213310500Y-35963056D01*
X213278666Y-35721256D01*
X213215544Y-35485679D01*
X213122212Y-35260356D01*
X213122210Y-35260353D01*
X213122208Y-35260348D01*
X213000272Y-35049151D01*
X213000268Y-35049144D01*
X212851799Y-34855655D01*
X212851794Y-34855649D01*
X212679350Y-34683205D01*
X212679343Y-34683199D01*
X212485864Y-34534738D01*
X212485862Y-34534736D01*
X212485856Y-34534732D01*
X212485851Y-34534729D01*
X212485848Y-34534727D01*
X212274651Y-34412791D01*
X212274640Y-34412786D01*
X212049330Y-34319459D01*
X212049323Y-34319457D01*
X212049321Y-34319456D01*
X211813744Y-34256334D01*
X211773333Y-34251013D01*
X211571951Y-34224500D01*
X211571944Y-34224500D01*
X211328056Y-34224500D01*
X211328048Y-34224500D01*
X211097896Y-34254801D01*
X211086256Y-34256334D01*
X210850679Y-34319456D01*
X210850669Y-34319459D01*
X210625359Y-34412786D01*
X210625348Y-34412791D01*
X210414151Y-34534727D01*
X210414135Y-34534738D01*
X210220656Y-34683199D01*
X210220649Y-34683205D01*
X210048205Y-34855649D01*
X210048199Y-34855656D01*
X209899738Y-35049135D01*
X209899727Y-35049151D01*
X209777791Y-35260348D01*
X209777786Y-35260359D01*
X209684459Y-35485669D01*
X209684456Y-35485679D01*
X209621335Y-35721253D01*
X209621333Y-35721264D01*
X209589500Y-35963048D01*
X209589500Y-36726951D01*
X203810499Y-36726951D01*
X203810500Y-36726944D01*
X203810500Y-35963056D01*
X203778666Y-35721256D01*
X203715544Y-35485679D01*
X203622212Y-35260356D01*
X203622210Y-35260353D01*
X203622208Y-35260348D01*
X203500272Y-35049151D01*
X203500268Y-35049144D01*
X203351799Y-34855655D01*
X203351794Y-34855649D01*
X203179350Y-34683205D01*
X203179343Y-34683199D01*
X202985864Y-34534738D01*
X202985862Y-34534736D01*
X202985856Y-34534732D01*
X202985851Y-34534729D01*
X202985848Y-34534727D01*
X202774651Y-34412791D01*
X202774640Y-34412786D01*
X202549330Y-34319459D01*
X202549323Y-34319457D01*
X202549321Y-34319456D01*
X202313744Y-34256334D01*
X202273333Y-34251013D01*
X202071951Y-34224500D01*
X202071944Y-34224500D01*
X201828056Y-34224500D01*
X201828048Y-34224500D01*
X201597896Y-34254801D01*
X201586256Y-34256334D01*
X201350679Y-34319456D01*
X201350669Y-34319459D01*
X201125359Y-34412786D01*
X201125348Y-34412791D01*
X200914151Y-34534727D01*
X200914135Y-34534738D01*
X200720656Y-34683199D01*
X200720649Y-34683205D01*
X200548205Y-34855649D01*
X200548199Y-34855656D01*
X200399738Y-35049135D01*
X200399727Y-35049151D01*
X200277791Y-35260348D01*
X200277786Y-35260359D01*
X200184459Y-35485669D01*
X200184456Y-35485679D01*
X200121335Y-35721253D01*
X200121333Y-35721264D01*
X200089500Y-35963048D01*
X200089500Y-36726951D01*
X177110499Y-36726951D01*
X177110500Y-36726944D01*
X177110500Y-35963056D01*
X177078666Y-35721256D01*
X177015544Y-35485679D01*
X176922212Y-35260356D01*
X176922210Y-35260353D01*
X176922208Y-35260348D01*
X176800272Y-35049151D01*
X176800268Y-35049144D01*
X176651799Y-34855655D01*
X176651794Y-34855649D01*
X176479350Y-34683205D01*
X176479343Y-34683199D01*
X176285864Y-34534738D01*
X176285862Y-34534736D01*
X176285856Y-34534732D01*
X176285851Y-34534729D01*
X176285848Y-34534727D01*
X176074651Y-34412791D01*
X176074640Y-34412786D01*
X175849330Y-34319459D01*
X175849323Y-34319457D01*
X175849321Y-34319456D01*
X175613744Y-34256334D01*
X175573333Y-34251013D01*
X175371951Y-34224500D01*
X175371944Y-34224500D01*
X175128056Y-34224500D01*
X175128048Y-34224500D01*
X174897896Y-34254801D01*
X174886256Y-34256334D01*
X174650679Y-34319456D01*
X174650669Y-34319459D01*
X174425359Y-34412786D01*
X174425348Y-34412791D01*
X174214151Y-34534727D01*
X174214135Y-34534738D01*
X174020656Y-34683199D01*
X174020649Y-34683205D01*
X173848205Y-34855649D01*
X173848199Y-34855656D01*
X173699738Y-35049135D01*
X173699727Y-35049151D01*
X173577791Y-35260348D01*
X173577786Y-35260359D01*
X173484459Y-35485669D01*
X173484456Y-35485679D01*
X173421335Y-35721253D01*
X173421333Y-35721264D01*
X173389500Y-35963048D01*
X173389500Y-36726951D01*
X167610499Y-36726951D01*
X167610500Y-36726944D01*
X167610500Y-35963056D01*
X167578666Y-35721256D01*
X167515544Y-35485679D01*
X167422212Y-35260356D01*
X167422210Y-35260353D01*
X167422208Y-35260348D01*
X167300272Y-35049151D01*
X167300268Y-35049144D01*
X167151799Y-34855655D01*
X167151794Y-34855649D01*
X166979350Y-34683205D01*
X166979343Y-34683199D01*
X166785864Y-34534738D01*
X166785862Y-34534736D01*
X166785856Y-34534732D01*
X166785851Y-34534729D01*
X166785848Y-34534727D01*
X166574651Y-34412791D01*
X166574640Y-34412786D01*
X166349330Y-34319459D01*
X166349323Y-34319457D01*
X166349321Y-34319456D01*
X166113744Y-34256334D01*
X166073333Y-34251013D01*
X165871951Y-34224500D01*
X165871944Y-34224500D01*
X165628056Y-34224500D01*
X165628048Y-34224500D01*
X165397896Y-34254801D01*
X165386256Y-34256334D01*
X165150679Y-34319456D01*
X165150669Y-34319459D01*
X164925359Y-34412786D01*
X164925348Y-34412791D01*
X164714151Y-34534727D01*
X164714135Y-34534738D01*
X164520656Y-34683199D01*
X164520649Y-34683205D01*
X164348205Y-34855649D01*
X164348199Y-34855656D01*
X164199738Y-35049135D01*
X164199727Y-35049151D01*
X164077791Y-35260348D01*
X164077786Y-35260359D01*
X163984459Y-35485669D01*
X163984456Y-35485679D01*
X163921335Y-35721253D01*
X163921333Y-35721264D01*
X163889500Y-35963048D01*
X163889500Y-36726951D01*
X140910499Y-36726951D01*
X140910500Y-36726944D01*
X140910500Y-35963056D01*
X140878666Y-35721256D01*
X140815544Y-35485679D01*
X140722212Y-35260356D01*
X140722210Y-35260353D01*
X140722208Y-35260348D01*
X140600272Y-35049151D01*
X140600268Y-35049144D01*
X140451799Y-34855655D01*
X140451794Y-34855649D01*
X140279350Y-34683205D01*
X140279343Y-34683199D01*
X140085864Y-34534738D01*
X140085862Y-34534736D01*
X140085856Y-34534732D01*
X140085851Y-34534729D01*
X140085848Y-34534727D01*
X139874651Y-34412791D01*
X139874640Y-34412786D01*
X139649330Y-34319459D01*
X139649323Y-34319457D01*
X139649321Y-34319456D01*
X139413744Y-34256334D01*
X139373333Y-34251013D01*
X139171951Y-34224500D01*
X139171944Y-34224500D01*
X138928056Y-34224500D01*
X138928048Y-34224500D01*
X138697896Y-34254801D01*
X138686256Y-34256334D01*
X138450679Y-34319456D01*
X138450669Y-34319459D01*
X138225359Y-34412786D01*
X138225348Y-34412791D01*
X138014151Y-34534727D01*
X138014135Y-34534738D01*
X137820656Y-34683199D01*
X137820649Y-34683205D01*
X137648205Y-34855649D01*
X137648199Y-34855656D01*
X137499738Y-35049135D01*
X137499727Y-35049151D01*
X137377791Y-35260348D01*
X137377786Y-35260359D01*
X137284459Y-35485669D01*
X137284456Y-35485679D01*
X137221335Y-35721253D01*
X137221333Y-35721264D01*
X137189500Y-35963048D01*
X137189500Y-36726951D01*
X131410499Y-36726951D01*
X131410500Y-36726944D01*
X131410500Y-35963056D01*
X131378666Y-35721256D01*
X131315544Y-35485679D01*
X131222212Y-35260356D01*
X131222210Y-35260353D01*
X131222208Y-35260348D01*
X131100272Y-35049151D01*
X131100268Y-35049144D01*
X130951799Y-34855655D01*
X130951794Y-34855649D01*
X130779350Y-34683205D01*
X130779343Y-34683199D01*
X130585864Y-34534738D01*
X130585862Y-34534736D01*
X130585856Y-34534732D01*
X130585851Y-34534729D01*
X130585848Y-34534727D01*
X130374651Y-34412791D01*
X130374640Y-34412786D01*
X130149330Y-34319459D01*
X130149323Y-34319457D01*
X130149321Y-34319456D01*
X129913744Y-34256334D01*
X129873333Y-34251013D01*
X129671951Y-34224500D01*
X129671944Y-34224500D01*
X129428056Y-34224500D01*
X129428048Y-34224500D01*
X129197896Y-34254801D01*
X129186256Y-34256334D01*
X128950679Y-34319456D01*
X128950669Y-34319459D01*
X128725359Y-34412786D01*
X128725348Y-34412791D01*
X128514151Y-34534727D01*
X128514135Y-34534738D01*
X128320656Y-34683199D01*
X128320649Y-34683205D01*
X128148205Y-34855649D01*
X128148199Y-34855656D01*
X127999738Y-35049135D01*
X127999727Y-35049151D01*
X127877791Y-35260348D01*
X127877786Y-35260359D01*
X127784459Y-35485669D01*
X127784456Y-35485679D01*
X127721335Y-35721253D01*
X127721333Y-35721264D01*
X127689500Y-35963048D01*
X127689500Y-36726951D01*
X104710499Y-36726951D01*
X104710500Y-36726944D01*
X104710500Y-35963056D01*
X104678666Y-35721256D01*
X104615544Y-35485679D01*
X104522212Y-35260356D01*
X104522210Y-35260353D01*
X104522208Y-35260348D01*
X104400272Y-35049151D01*
X104400268Y-35049144D01*
X104251799Y-34855655D01*
X104251794Y-34855649D01*
X104079350Y-34683205D01*
X104079343Y-34683199D01*
X103885864Y-34534738D01*
X103885862Y-34534736D01*
X103885856Y-34534732D01*
X103885851Y-34534729D01*
X103885848Y-34534727D01*
X103674651Y-34412791D01*
X103674640Y-34412786D01*
X103449330Y-34319459D01*
X103449323Y-34319457D01*
X103449321Y-34319456D01*
X103213744Y-34256334D01*
X103173333Y-34251013D01*
X102971951Y-34224500D01*
X102971944Y-34224500D01*
X102728056Y-34224500D01*
X102728048Y-34224500D01*
X102497896Y-34254801D01*
X102486256Y-34256334D01*
X102250679Y-34319456D01*
X102250669Y-34319459D01*
X102025359Y-34412786D01*
X102025348Y-34412791D01*
X101814151Y-34534727D01*
X101814135Y-34534738D01*
X101620656Y-34683199D01*
X101620649Y-34683205D01*
X101448205Y-34855649D01*
X101448199Y-34855656D01*
X101299738Y-35049135D01*
X101299727Y-35049151D01*
X101177791Y-35260348D01*
X101177786Y-35260359D01*
X101084459Y-35485669D01*
X101084456Y-35485679D01*
X101021335Y-35721253D01*
X101021333Y-35721264D01*
X100989500Y-35963048D01*
X100989500Y-36726951D01*
X95210499Y-36726951D01*
X95210500Y-36726944D01*
X95210500Y-35963056D01*
X95178666Y-35721256D01*
X95115544Y-35485679D01*
X95022212Y-35260356D01*
X95022210Y-35260353D01*
X95022208Y-35260348D01*
X94900272Y-35049151D01*
X94900268Y-35049144D01*
X94751799Y-34855655D01*
X94751794Y-34855649D01*
X94579350Y-34683205D01*
X94579343Y-34683199D01*
X94385864Y-34534738D01*
X94385862Y-34534736D01*
X94385856Y-34534732D01*
X94385851Y-34534729D01*
X94385848Y-34534727D01*
X94174651Y-34412791D01*
X94174640Y-34412786D01*
X93949330Y-34319459D01*
X93949323Y-34319457D01*
X93949321Y-34319456D01*
X93713744Y-34256334D01*
X93673333Y-34251013D01*
X93471951Y-34224500D01*
X93471944Y-34224500D01*
X93228056Y-34224500D01*
X93228048Y-34224500D01*
X92997896Y-34254801D01*
X92986256Y-34256334D01*
X92750679Y-34319456D01*
X92750669Y-34319459D01*
X92525359Y-34412786D01*
X92525348Y-34412791D01*
X92314151Y-34534727D01*
X92314135Y-34534738D01*
X92120656Y-34683199D01*
X92120649Y-34683205D01*
X91948205Y-34855649D01*
X91948199Y-34855656D01*
X91799738Y-35049135D01*
X91799727Y-35049151D01*
X91677791Y-35260348D01*
X91677786Y-35260359D01*
X91584459Y-35485669D01*
X91584456Y-35485679D01*
X91521335Y-35721253D01*
X91521333Y-35721264D01*
X91489500Y-35963048D01*
X91489500Y-36726951D01*
X68510499Y-36726951D01*
X68510500Y-36726944D01*
X68510500Y-35963056D01*
X68478666Y-35721256D01*
X68415544Y-35485679D01*
X68322212Y-35260356D01*
X68322210Y-35260353D01*
X68322208Y-35260348D01*
X68200272Y-35049151D01*
X68200268Y-35049144D01*
X68051799Y-34855655D01*
X68051794Y-34855649D01*
X67879350Y-34683205D01*
X67879343Y-34683199D01*
X67685864Y-34534738D01*
X67685862Y-34534736D01*
X67685856Y-34534732D01*
X67685851Y-34534729D01*
X67685848Y-34534727D01*
X67474651Y-34412791D01*
X67474640Y-34412786D01*
X67249330Y-34319459D01*
X67249323Y-34319457D01*
X67249321Y-34319456D01*
X67013744Y-34256334D01*
X66973333Y-34251013D01*
X66771951Y-34224500D01*
X66771944Y-34224500D01*
X66528056Y-34224500D01*
X66528048Y-34224500D01*
X66297896Y-34254801D01*
X66286256Y-34256334D01*
X66050679Y-34319456D01*
X66050669Y-34319459D01*
X65825359Y-34412786D01*
X65825348Y-34412791D01*
X65614151Y-34534727D01*
X65614135Y-34534738D01*
X65420656Y-34683199D01*
X65420649Y-34683205D01*
X65248205Y-34855649D01*
X65248199Y-34855656D01*
X65099738Y-35049135D01*
X65099727Y-35049151D01*
X64977791Y-35260348D01*
X64977786Y-35260359D01*
X64884459Y-35485669D01*
X64884456Y-35485679D01*
X64821335Y-35721253D01*
X64821333Y-35721264D01*
X64789500Y-35963048D01*
X64789500Y-36726951D01*
X59010499Y-36726951D01*
X59010500Y-36726944D01*
X59010500Y-35963056D01*
X58978666Y-35721256D01*
X58915544Y-35485679D01*
X58822212Y-35260356D01*
X58822210Y-35260353D01*
X58822208Y-35260348D01*
X58700272Y-35049151D01*
X58700268Y-35049144D01*
X58551799Y-34855655D01*
X58551794Y-34855649D01*
X58379350Y-34683205D01*
X58379343Y-34683199D01*
X58185864Y-34534738D01*
X58185862Y-34534736D01*
X58185856Y-34534732D01*
X58185851Y-34534729D01*
X58185848Y-34534727D01*
X57974651Y-34412791D01*
X57974640Y-34412786D01*
X57749330Y-34319459D01*
X57749323Y-34319457D01*
X57749321Y-34319456D01*
X57513744Y-34256334D01*
X57473333Y-34251013D01*
X57271951Y-34224500D01*
X57271944Y-34224500D01*
X57028056Y-34224500D01*
X57028048Y-34224500D01*
X56797896Y-34254801D01*
X56786256Y-34256334D01*
X56550679Y-34319456D01*
X56550669Y-34319459D01*
X56325359Y-34412786D01*
X56325348Y-34412791D01*
X56114151Y-34534727D01*
X56114135Y-34534738D01*
X55920656Y-34683199D01*
X55920649Y-34683205D01*
X55748205Y-34855649D01*
X55748199Y-34855656D01*
X55599738Y-35049135D01*
X55599727Y-35049151D01*
X55477791Y-35260348D01*
X55477786Y-35260359D01*
X55384459Y-35485669D01*
X55384456Y-35485679D01*
X55321335Y-35721253D01*
X55321333Y-35721264D01*
X55289500Y-35963048D01*
X55289500Y-36726951D01*
X53340000Y-36726951D01*
X53340000Y-28064000D01*
X53359685Y-27996961D01*
X53412489Y-27951206D01*
X53464000Y-27940000D01*
X251336000Y-27940000D01*
X251403039Y-27959685D01*
G37*
%TD.AperFunction*%
%TD*%
M02*
