%TF.GenerationSoftware,KiCad,Pcbnew,8.0.1*%
%TF.CreationDate,2024-06-25T20:54:33-05:00*%
%TF.ProjectId,nobs,6e6f6273-2e6b-4696-9361-645f70636258,rev?*%
%TF.SameCoordinates,Original*%
%TF.FileFunction,Copper,L1,Top*%
%TF.FilePolarity,Positive*%
%FSLAX46Y46*%
G04 Gerber Fmt 4.6, Leading zero omitted, Abs format (unit mm)*
G04 Created by KiCad (PCBNEW 8.0.1) date 2024-06-25 20:54:33*
%MOMM*%
%LPD*%
G01*
G04 APERTURE LIST*
G04 Aperture macros list*
%AMRoundRect*
0 Rectangle with rounded corners*
0 $1 Rounding radius*
0 $2 $3 $4 $5 $6 $7 $8 $9 X,Y pos of 4 corners*
0 Add a 4 corners polygon primitive as box body*
4,1,4,$2,$3,$4,$5,$6,$7,$8,$9,$2,$3,0*
0 Add four circle primitives for the rounded corners*
1,1,$1+$1,$2,$3*
1,1,$1+$1,$4,$5*
1,1,$1+$1,$6,$7*
1,1,$1+$1,$8,$9*
0 Add four rect primitives between the rounded corners*
20,1,$1+$1,$2,$3,$4,$5,0*
20,1,$1+$1,$4,$5,$6,$7,0*
20,1,$1+$1,$6,$7,$8,$9,0*
20,1,$1+$1,$8,$9,$2,$3,0*%
G04 Aperture macros list end*
%TA.AperFunction,ComponentPad*%
%ADD10R,1.600000X1.600000*%
%TD*%
%TA.AperFunction,ComponentPad*%
%ADD11O,1.600000X1.600000*%
%TD*%
%TA.AperFunction,SMDPad,CuDef*%
%ADD12RoundRect,0.150000X-0.150000X0.875000X-0.150000X-0.875000X0.150000X-0.875000X0.150000X0.875000X0*%
%TD*%
%TA.AperFunction,ComponentPad*%
%ADD13O,2.720000X3.240000*%
%TD*%
%TA.AperFunction,ComponentPad*%
%ADD14R,1.800000X1.800000*%
%TD*%
%TA.AperFunction,ComponentPad*%
%ADD15C,1.800000*%
%TD*%
%TA.AperFunction,SMDPad,CuDef*%
%ADD16RoundRect,0.237500X0.300000X0.237500X-0.300000X0.237500X-0.300000X-0.237500X0.300000X-0.237500X0*%
%TD*%
%TA.AperFunction,ViaPad*%
%ADD17C,0.600000*%
%TD*%
%TA.AperFunction,Conductor*%
%ADD18C,0.200000*%
%TD*%
G04 APERTURE END LIST*
D10*
%TO.P,A1,1,D1/TX*%
%TO.N,unconnected-(A1-D1{slash}TX-Pad1)*%
X91440000Y-66040000D03*
D11*
%TO.P,A1,2,D0/RX*%
%TO.N,unconnected-(A1-D0{slash}RX-Pad2)*%
X88900000Y-66040000D03*
%TO.P,A1,3,~{RESET}*%
%TO.N,unconnected-(A1-~{RESET}-Pad3)*%
X86360000Y-66040000D03*
%TO.P,A1,4,GND*%
%TO.N,GND*%
X83820000Y-66040000D03*
%TO.P,A1,5,D2*%
%TO.N,/S0*%
X81280000Y-66040000D03*
%TO.P,A1,6,D3*%
%TO.N,/S1*%
X78740000Y-66040000D03*
%TO.P,A1,7,D4*%
%TO.N,/S2*%
X76200000Y-66040000D03*
%TO.P,A1,8,D5*%
%TO.N,/S3*%
X73660000Y-66040000D03*
%TO.P,A1,9,D6*%
%TO.N,unconnected-(A1-D6-Pad9)*%
X71120000Y-66040000D03*
%TO.P,A1,10,D7*%
%TO.N,unconnected-(A1-D7-Pad10)*%
X68580000Y-66040000D03*
%TO.P,A1,11,D8*%
%TO.N,unconnected-(A1-D8-Pad11)*%
X66040000Y-66040000D03*
%TO.P,A1,12,D9*%
%TO.N,unconnected-(A1-D9-Pad12)*%
X63500000Y-66040000D03*
%TO.P,A1,13,D10*%
%TO.N,unconnected-(A1-D10-Pad13)*%
X60960000Y-66040000D03*
%TO.P,A1,14,D11*%
%TO.N,unconnected-(A1-D11-Pad14)*%
X58420000Y-66040000D03*
%TO.P,A1,15,D12*%
%TO.N,unconnected-(A1-D12-Pad15)*%
X55880000Y-66040000D03*
%TO.P,A1,16,D13*%
%TO.N,unconnected-(A1-D13-Pad16)*%
X55880000Y-50800000D03*
%TO.P,A1,17,3V3*%
%TO.N,unconnected-(A1-3V3-Pad17)*%
X58420000Y-50800000D03*
%TO.P,A1,18,AREF*%
%TO.N,unconnected-(A1-AREF-Pad18)*%
X60960000Y-50800000D03*
%TO.P,A1,19,A0*%
%TO.N,Net-(A1-A0)*%
X63500000Y-50800000D03*
%TO.P,A1,20,A1*%
%TO.N,unconnected-(A1-A1-Pad20)*%
X66040000Y-50800000D03*
%TO.P,A1,21,A2*%
%TO.N,unconnected-(A1-A2-Pad21)*%
X68580000Y-50800000D03*
%TO.P,A1,22,A3*%
%TO.N,unconnected-(A1-A3-Pad22)*%
X71120000Y-50800000D03*
%TO.P,A1,23,A4*%
%TO.N,unconnected-(A1-A4-Pad23)*%
X73660000Y-50800000D03*
%TO.P,A1,24,A5*%
%TO.N,unconnected-(A1-A5-Pad24)*%
X76200000Y-50800000D03*
%TO.P,A1,25,A6*%
%TO.N,unconnected-(A1-A6-Pad25)*%
X78740000Y-50800000D03*
%TO.P,A1,26,A7*%
%TO.N,unconnected-(A1-A7-Pad26)*%
X81280000Y-50800000D03*
%TO.P,A1,27,+5V*%
%TO.N,+5V*%
X83820000Y-50800000D03*
%TO.P,A1,28,~{RESET}*%
%TO.N,unconnected-(A1-~{RESET}-Pad28)*%
X86360000Y-50800000D03*
%TO.P,A1,29,GND*%
%TO.N,GND*%
X88900000Y-50800000D03*
%TO.P,A1,30,VIN*%
%TO.N,unconnected-(A1-VIN-Pad30)*%
X91440000Y-50800000D03*
%TD*%
D12*
%TO.P,U1,1,COM*%
%TO.N,Net-(A1-A0)*%
X161495000Y-53770000D03*
%TO.P,U1,2,I7*%
%TO.N,Net-(U1-I7)*%
X160225000Y-53770000D03*
%TO.P,U1,3,I6*%
%TO.N,Net-(U1-I6)*%
X158955000Y-53770000D03*
%TO.P,U1,4,I5*%
%TO.N,Net-(U1-I5)*%
X157685000Y-53770000D03*
%TO.P,U1,5,I4*%
%TO.N,Net-(U1-I4)*%
X156415000Y-53770000D03*
%TO.P,U1,6,I3*%
%TO.N,Net-(U1-I3)*%
X155145000Y-53770000D03*
%TO.P,U1,7,I2*%
%TO.N,Net-(U1-I2)*%
X153875000Y-53770000D03*
%TO.P,U1,8,I1*%
%TO.N,Net-(U1-I1)*%
X152605000Y-53770000D03*
%TO.P,U1,9,I0*%
%TO.N,Net-(U1-I0)*%
X151335000Y-53770000D03*
%TO.P,U1,10,S0*%
%TO.N,/S0*%
X150065000Y-53770000D03*
%TO.P,U1,11,S1*%
%TO.N,/S1*%
X148795000Y-53770000D03*
%TO.P,U1,12,GND*%
%TO.N,GND*%
X147525000Y-53770000D03*
%TO.P,U1,13,S3*%
%TO.N,/S3*%
X147525000Y-63070000D03*
%TO.P,U1,14,S2*%
%TO.N,/S2*%
X148795000Y-63070000D03*
%TO.P,U1,15,~{E}*%
%TO.N,GND*%
X150065000Y-63070000D03*
%TO.P,U1,16,I15*%
%TO.N,unconnected-(U1-I15-Pad16)*%
X151335000Y-63070000D03*
%TO.P,U1,17,I14*%
%TO.N,unconnected-(U1-I14-Pad17)*%
X152605000Y-63070000D03*
%TO.P,U1,18,I13*%
%TO.N,unconnected-(U1-I13-Pad18)*%
X153875000Y-63070000D03*
%TO.P,U1,19,I12*%
%TO.N,unconnected-(U1-I12-Pad19)*%
X155145000Y-63070000D03*
%TO.P,U1,20,I11*%
%TO.N,Net-(U1-I11)*%
X156415000Y-63070000D03*
%TO.P,U1,21,I10*%
%TO.N,Net-(U1-I10)*%
X157685000Y-63070000D03*
%TO.P,U1,22,I9*%
%TO.N,Net-(U1-I9)*%
X158955000Y-63070000D03*
%TO.P,U1,23,I8*%
%TO.N,Net-(U1-I8)*%
X160225000Y-63070000D03*
%TO.P,U1,24,VCC*%
%TO.N,+5V*%
X161495000Y-63070000D03*
%TD*%
D13*
%TO.P,RV12,*%
%TO.N,*%
X238150000Y-73660000D03*
X247650000Y-73660000D03*
D14*
%TO.P,RV12,1,1*%
%TO.N,+5V*%
X240400000Y-81160000D03*
D15*
%TO.P,RV12,2,2*%
%TO.N,Net-(U1-I11)*%
X242900000Y-81160000D03*
%TO.P,RV12,3,3*%
%TO.N,GND*%
X245400000Y-81160000D03*
%TO.P,RV12,4*%
%TO.N,N/C*%
X240400000Y-83660000D03*
%TO.P,RV12,5*%
X242900000Y-83660000D03*
%TO.P,RV12,6*%
X245400000Y-83660000D03*
%TD*%
%TO.P,RV11,6*%
%TO.N,N/C*%
X209200000Y-83660000D03*
%TO.P,RV11,5*%
X206700000Y-83660000D03*
%TO.P,RV11,4*%
X204200000Y-83660000D03*
%TO.P,RV11,3,3*%
%TO.N,GND*%
X209200000Y-81160000D03*
%TO.P,RV11,2,2*%
%TO.N,Net-(U1-I10)*%
X206700000Y-81160000D03*
D14*
%TO.P,RV11,1,1*%
%TO.N,+5V*%
X204200000Y-81160000D03*
D13*
%TO.P,RV11,*%
%TO.N,*%
X211450000Y-73660000D03*
X201950000Y-73660000D03*
%TD*%
%TO.P,RV10,*%
%TO.N,*%
X165750000Y-73660000D03*
X175250000Y-73660000D03*
D14*
%TO.P,RV10,1,1*%
%TO.N,+5V*%
X168000000Y-81160000D03*
D15*
%TO.P,RV10,2,2*%
%TO.N,Net-(U1-I9)*%
X170500000Y-81160000D03*
%TO.P,RV10,3,3*%
%TO.N,GND*%
X173000000Y-81160000D03*
%TO.P,RV10,4*%
%TO.N,N/C*%
X168000000Y-83660000D03*
%TO.P,RV10,5*%
X170500000Y-83660000D03*
%TO.P,RV10,6*%
X173000000Y-83660000D03*
%TD*%
D13*
%TO.P,RV9,*%
%TO.N,*%
X129550000Y-73660000D03*
X139050000Y-73660000D03*
D14*
%TO.P,RV9,1,1*%
%TO.N,+5V*%
X131800000Y-81160000D03*
D15*
%TO.P,RV9,2,2*%
%TO.N,Net-(U1-I8)*%
X134300000Y-81160000D03*
%TO.P,RV9,3,3*%
%TO.N,GND*%
X136800000Y-81160000D03*
%TO.P,RV9,4*%
%TO.N,N/C*%
X131800000Y-83660000D03*
%TO.P,RV9,5*%
X134300000Y-83660000D03*
%TO.P,RV9,6*%
X136800000Y-83660000D03*
%TD*%
D13*
%TO.P,RV8,*%
%TO.N,*%
X93350000Y-73660000D03*
X102850000Y-73660000D03*
D14*
%TO.P,RV8,1,1*%
%TO.N,+5V*%
X95600000Y-81160000D03*
D15*
%TO.P,RV8,2,2*%
%TO.N,Net-(U1-I7)*%
X98100000Y-81160000D03*
%TO.P,RV8,3,3*%
%TO.N,GND*%
X100600000Y-81160000D03*
%TO.P,RV8,4*%
%TO.N,N/C*%
X95600000Y-83660000D03*
%TO.P,RV8,5*%
X98100000Y-83660000D03*
%TO.P,RV8,6*%
X100600000Y-83660000D03*
%TD*%
%TO.P,RV7,6*%
%TO.N,N/C*%
X64400000Y-83660000D03*
%TO.P,RV7,5*%
X61900000Y-83660000D03*
%TO.P,RV7,4*%
X59400000Y-83660000D03*
%TO.P,RV7,3,3*%
%TO.N,GND*%
X64400000Y-81160000D03*
%TO.P,RV7,2,2*%
%TO.N,Net-(U1-I0)*%
X61900000Y-81160000D03*
D14*
%TO.P,RV7,1,1*%
%TO.N,+5V*%
X59400000Y-81160000D03*
D13*
%TO.P,RV7,*%
%TO.N,*%
X66650000Y-73660000D03*
X57150000Y-73660000D03*
%TD*%
%TO.P,RV6,*%
%TO.N,*%
X238150000Y-36345000D03*
X247650000Y-36345000D03*
D14*
%TO.P,RV6,1,1*%
%TO.N,+5V*%
X240400000Y-43845000D03*
D15*
%TO.P,RV6,2,2*%
%TO.N,Net-(U1-I1)*%
X242900000Y-43845000D03*
%TO.P,RV6,3,3*%
%TO.N,GND*%
X245400000Y-43845000D03*
%TO.P,RV6,4*%
%TO.N,N/C*%
X240400000Y-46345000D03*
%TO.P,RV6,5*%
X242900000Y-46345000D03*
%TO.P,RV6,6*%
X245400000Y-46345000D03*
%TD*%
D13*
%TO.P,RV5,*%
%TO.N,*%
X201950000Y-36345000D03*
X211450000Y-36345000D03*
D14*
%TO.P,RV5,1,1*%
%TO.N,+5V*%
X204200000Y-43845000D03*
D15*
%TO.P,RV5,2,2*%
%TO.N,Net-(U1-I6)*%
X206700000Y-43845000D03*
%TO.P,RV5,3,3*%
%TO.N,GND*%
X209200000Y-43845000D03*
%TO.P,RV5,4*%
%TO.N,N/C*%
X204200000Y-46345000D03*
%TO.P,RV5,5*%
X206700000Y-46345000D03*
%TO.P,RV5,6*%
X209200000Y-46345000D03*
%TD*%
D13*
%TO.P,RV4,*%
%TO.N,*%
X165750000Y-36345000D03*
X175250000Y-36345000D03*
D14*
%TO.P,RV4,1,1*%
%TO.N,+5V*%
X168000000Y-43845000D03*
D15*
%TO.P,RV4,2,2*%
%TO.N,Net-(U1-I5)*%
X170500000Y-43845000D03*
%TO.P,RV4,3,3*%
%TO.N,GND*%
X173000000Y-43845000D03*
%TO.P,RV4,4*%
%TO.N,N/C*%
X168000000Y-46345000D03*
%TO.P,RV4,5*%
X170500000Y-46345000D03*
%TO.P,RV4,6*%
X173000000Y-46345000D03*
%TD*%
D13*
%TO.P,RV3,*%
%TO.N,*%
X129550000Y-36345000D03*
X139050000Y-36345000D03*
D14*
%TO.P,RV3,1,1*%
%TO.N,+5V*%
X131800000Y-43845000D03*
D15*
%TO.P,RV3,2,2*%
%TO.N,Net-(U1-I4)*%
X134300000Y-43845000D03*
%TO.P,RV3,3,3*%
%TO.N,GND*%
X136800000Y-43845000D03*
%TO.P,RV3,4*%
%TO.N,N/C*%
X131800000Y-46345000D03*
%TO.P,RV3,5*%
X134300000Y-46345000D03*
%TO.P,RV3,6*%
X136800000Y-46345000D03*
%TD*%
%TO.P,RV2,6*%
%TO.N,N/C*%
X100600000Y-46345000D03*
%TO.P,RV2,5*%
X98100000Y-46345000D03*
%TO.P,RV2,4*%
X95600000Y-46345000D03*
%TO.P,RV2,3,3*%
%TO.N,GND*%
X100600000Y-43845000D03*
%TO.P,RV2,2,2*%
%TO.N,Net-(U1-I3)*%
X98100000Y-43845000D03*
D14*
%TO.P,RV2,1,1*%
%TO.N,+5V*%
X95600000Y-43845000D03*
D13*
%TO.P,RV2,*%
%TO.N,*%
X102850000Y-36345000D03*
X93350000Y-36345000D03*
%TD*%
D15*
%TO.P,RV1,6*%
%TO.N,N/C*%
X64400000Y-46345000D03*
%TO.P,RV1,5*%
X61900000Y-46345000D03*
%TO.P,RV1,4*%
X59400000Y-46345000D03*
%TO.P,RV1,3,3*%
%TO.N,GND*%
X64400000Y-43845000D03*
%TO.P,RV1,2,2*%
%TO.N,Net-(U1-I2)*%
X61900000Y-43845000D03*
D14*
%TO.P,RV1,1,1*%
%TO.N,+5V*%
X59400000Y-43845000D03*
D13*
%TO.P,RV1,*%
%TO.N,*%
X66650000Y-36345000D03*
X57150000Y-36345000D03*
%TD*%
D16*
%TO.P,C2,1*%
%TO.N,GND*%
X84682500Y-45720000D03*
%TO.P,C2,2*%
%TO.N,+5V*%
X82957500Y-45720000D03*
%TD*%
%TO.P,C1,1*%
%TO.N,GND*%
X165555000Y-64770000D03*
%TO.P,C1,2*%
%TO.N,+5V*%
X163830000Y-64770000D03*
%TD*%
D17*
%TO.N,GND*%
X167640000Y-64770000D03*
%TO.N,Net-(A1-A0)*%
X151130000Y-49530000D03*
X163830000Y-53340000D03*
%TO.N,GND*%
X144780000Y-54610000D03*
X149860000Y-66040000D03*
%TO.N,Net-(U1-I7)*%
X99060000Y-69850000D03*
X99060000Y-62230000D03*
%TO.N,Net-(U1-I4)*%
X153670000Y-45720000D03*
X151130000Y-45720000D03*
%TO.N,Net-(U1-I3)*%
X151130000Y-46990000D03*
X153670000Y-46990000D03*
%TO.N,Net-(U1-I2)*%
X153670000Y-48260000D03*
X151130000Y-48260000D03*
%TO.N,/S3*%
X87630000Y-62230000D03*
X80010000Y-62230000D03*
%TD*%
D18*
%TO.N,Net-(U1-I1)*%
X163830000Y-33020000D02*
X224790000Y-33020000D01*
X239695000Y-40640000D02*
X232410000Y-40640000D01*
X242900000Y-43845000D02*
X239695000Y-40640000D01*
X232410000Y-40640000D02*
X224790000Y-33020000D01*
X152605000Y-44245000D02*
X163830000Y-33020000D01*
X152605000Y-53770000D02*
X152605000Y-44245000D01*
%TO.N,Net-(A1-A0)*%
X151130000Y-49530000D02*
X149860000Y-50800000D01*
X149860000Y-50800000D02*
X140970000Y-50800000D01*
X64770000Y-52070000D02*
X63500000Y-50800000D01*
X140970000Y-50800000D02*
X137160000Y-54610000D01*
X137160000Y-54610000D02*
X66040000Y-54610000D01*
X66040000Y-54610000D02*
X64770000Y-53340000D01*
X64770000Y-53340000D02*
X64770000Y-52070000D01*
%TO.N,Net-(U1-I5)*%
X157685000Y-53770000D02*
X157685000Y-42975000D01*
X157685000Y-42975000D02*
X160020000Y-40640000D01*
X160020000Y-40640000D02*
X168910000Y-40640000D01*
X168910000Y-40640000D02*
X170500000Y-42230000D01*
X170500000Y-42230000D02*
X170500000Y-43845000D01*
%TO.N,Net-(U1-I6)*%
X158955000Y-53770000D02*
X158955000Y-52745001D01*
X160900001Y-50800000D02*
X189230000Y-50800000D01*
X158955000Y-52745001D02*
X160900001Y-50800000D01*
X189230000Y-50800000D02*
X199390000Y-40640000D01*
X206700000Y-41600000D02*
X206700000Y-43845000D01*
X199390000Y-40640000D02*
X205740000Y-40640000D01*
X205740000Y-40640000D02*
X206700000Y-41600000D01*
%TO.N,GND*%
X84682500Y-45720000D02*
X84682500Y-46582500D01*
X84682500Y-46582500D02*
X88900000Y-50800000D01*
%TO.N,+5V*%
X83412500Y-45720000D02*
X83412500Y-50392500D01*
X83412500Y-50392500D02*
X83820000Y-50800000D01*
%TO.N,Net-(U1-I2)*%
X151130000Y-48260000D02*
X141535686Y-48260000D01*
X141535686Y-48260000D02*
X141135685Y-48660000D01*
X111594314Y-48660000D02*
X111194314Y-48260000D01*
X141135685Y-48660000D02*
X111594314Y-48660000D01*
X111194314Y-48260000D02*
X91440000Y-48260000D01*
X91440000Y-48260000D02*
X85090000Y-41910000D01*
X85090000Y-41910000D02*
X63835000Y-41910000D01*
X63835000Y-41910000D02*
X61900000Y-43845000D01*
%TO.N,GND*%
X165555000Y-64770000D02*
X167640000Y-64770000D01*
%TO.N,+5V*%
X161495000Y-63070000D02*
X163195000Y-64770000D01*
X163195000Y-64770000D02*
X163830000Y-64770000D01*
%TO.N,Net-(U1-I11)*%
X156415000Y-63070000D02*
X156415000Y-60755000D01*
X156415000Y-60755000D02*
X158750000Y-58420000D01*
X158750000Y-58420000D02*
X209550000Y-58420000D01*
X209550000Y-58420000D02*
X218440000Y-67310000D01*
X218440000Y-67310000D02*
X241300000Y-67310000D01*
X241300000Y-67310000D02*
X242900000Y-68910000D01*
X242900000Y-68910000D02*
X242900000Y-81160000D01*
%TO.N,Net-(U1-I10)*%
X157685000Y-63070000D02*
X157685000Y-62025000D01*
X157685000Y-62025000D02*
X160020000Y-59690000D01*
X160020000Y-59690000D02*
X175260000Y-59690000D01*
X175260000Y-59690000D02*
X176530000Y-60960000D01*
X176530000Y-60960000D02*
X195580000Y-60960000D01*
X195580000Y-60960000D02*
X206700000Y-72080000D01*
X206700000Y-72080000D02*
X206700000Y-81160000D01*
%TO.N,Net-(U1-I9)*%
X158955000Y-63070000D02*
X158955000Y-62045001D01*
X158955000Y-62045001D02*
X160040001Y-60960000D01*
X160040001Y-60960000D02*
X167640000Y-60960000D01*
X167640000Y-60960000D02*
X170500000Y-63820000D01*
X170500000Y-63820000D02*
X170500000Y-81160000D01*
%TO.N,Net-(U1-I8)*%
X160225000Y-63070000D02*
X160225000Y-72185000D01*
X137990000Y-77470000D02*
X134300000Y-81160000D01*
X160225000Y-72185000D02*
X154940000Y-77470000D01*
X154940000Y-77470000D02*
X137990000Y-77470000D01*
%TO.N,Net-(U1-I0)*%
X151130000Y-52070000D02*
X151335000Y-52275000D01*
X151335000Y-52275000D02*
X151335000Y-53770000D01*
X151130000Y-52070000D02*
X141180736Y-52070000D01*
X151335000Y-53770000D02*
X151130000Y-53565000D01*
X61900000Y-79680000D02*
X61900000Y-81160000D01*
X53340000Y-74930000D02*
X54610000Y-76200000D01*
X141180736Y-52070000D02*
X137370736Y-55880000D01*
X137370736Y-55880000D02*
X60960000Y-55880000D01*
X58420000Y-76200000D02*
X61900000Y-79680000D01*
X60960000Y-55880000D02*
X53340000Y-63500000D01*
X53340000Y-63500000D02*
X53340000Y-74930000D01*
X54610000Y-76200000D02*
X58420000Y-76200000D01*
%TO.N,Net-(A1-A0)*%
X161925000Y-53340000D02*
X163830000Y-53340000D01*
X161495000Y-53770000D02*
X161925000Y-53340000D01*
%TO.N,GND*%
X146685000Y-54610000D02*
X144780000Y-54610000D01*
X147525000Y-53770000D02*
X146685000Y-54610000D01*
X150065000Y-65835000D02*
X149860000Y-66040000D01*
X150065000Y-63070000D02*
X150065000Y-65835000D01*
%TO.N,Net-(U1-I7)*%
X99060000Y-69850000D02*
X99060000Y-80200000D01*
X99060000Y-80200000D02*
X98100000Y-81160000D01*
X160225000Y-53770000D02*
X160225000Y-54794999D01*
X160225000Y-54794999D02*
X154059999Y-60960000D01*
X154059999Y-60960000D02*
X100330000Y-60960000D01*
X100330000Y-60960000D02*
X99060000Y-62230000D01*
%TO.N,Net-(U1-I4)*%
X151130000Y-45720000D02*
X144780000Y-45720000D01*
X144780000Y-45720000D02*
X139700000Y-40640000D01*
X156415000Y-48465000D02*
X153670000Y-45720000D01*
X137505000Y-40640000D02*
X134300000Y-43845000D01*
X156415000Y-53770000D02*
X156415000Y-48465000D01*
X139700000Y-40640000D02*
X137505000Y-40640000D01*
%TO.N,Net-(U1-I3)*%
X155145000Y-53770000D02*
X155145000Y-48465000D01*
X155145000Y-48465000D02*
X153670000Y-46990000D01*
X151130000Y-46990000D02*
X142240000Y-46990000D01*
X142240000Y-46990000D02*
X140970000Y-48260000D01*
X140970000Y-48260000D02*
X111760000Y-48260000D01*
X111760000Y-48260000D02*
X105410000Y-41910000D01*
X105410000Y-41910000D02*
X100035000Y-41910000D01*
X100035000Y-41910000D02*
X98100000Y-43845000D01*
%TO.N,Net-(U1-I2)*%
X153875000Y-53770000D02*
X153875000Y-48465000D01*
X153875000Y-48465000D02*
X153670000Y-48260000D01*
%TO.N,/S3*%
X87630000Y-62230000D02*
X90340000Y-64940000D01*
X90340000Y-64940000D02*
X145655000Y-64940000D01*
X145655000Y-64940000D02*
X147525000Y-63070000D01*
X73660000Y-66040000D02*
X77470000Y-62230000D01*
X77470000Y-62230000D02*
X80010000Y-62230000D01*
%TO.N,/S2*%
X76200000Y-66040000D02*
X78740000Y-68580000D01*
X78740000Y-68580000D02*
X144309999Y-68580000D01*
X144309999Y-68580000D02*
X148795000Y-64094999D01*
X148795000Y-64094999D02*
X148795000Y-63070000D01*
%TO.N,/S1*%
X78740000Y-66040000D02*
X86360000Y-58420000D01*
X86360000Y-58420000D02*
X144780000Y-58420000D01*
X144780000Y-58420000D02*
X148795000Y-54405000D01*
X148795000Y-54405000D02*
X148795000Y-53770000D01*
%TO.N,/S0*%
X81280000Y-66040000D02*
X87630000Y-59690000D01*
X87630000Y-59690000D02*
X145880552Y-59690000D01*
X145880552Y-59690000D02*
X150065000Y-55505552D01*
X150065000Y-55505552D02*
X150065000Y-53770000D01*
%TD*%
%TA.AperFunction,Conductor*%
%TO.N,+5V*%
G36*
X251403039Y-27959685D02*
G01*
X251448794Y-28012489D01*
X251460000Y-28064000D01*
X251460000Y-86236000D01*
X251440315Y-86303039D01*
X251387511Y-86348794D01*
X251336000Y-86360000D01*
X53464000Y-86360000D01*
X53396961Y-86340315D01*
X53351206Y-86287511D01*
X53340000Y-86236000D01*
X53340000Y-76078597D01*
X53359685Y-76011558D01*
X53412489Y-75965803D01*
X53481647Y-75955859D01*
X53545203Y-75984884D01*
X53551681Y-75990916D01*
X54125139Y-76564374D01*
X54125149Y-76564385D01*
X54129479Y-76568715D01*
X54129480Y-76568716D01*
X54241284Y-76680520D01*
X54328095Y-76730639D01*
X54328097Y-76730641D01*
X54378213Y-76759576D01*
X54378215Y-76759577D01*
X54530942Y-76800500D01*
X54530943Y-76800500D01*
X58119903Y-76800500D01*
X58186942Y-76820185D01*
X58207584Y-76836819D01*
X61158429Y-79787664D01*
X61191914Y-79848987D01*
X61186930Y-79918679D01*
X61145058Y-79974612D01*
X61135619Y-79980654D01*
X61135666Y-79980726D01*
X61131372Y-79983530D01*
X60954023Y-80121567D01*
X60889029Y-80147209D01*
X60820489Y-80133642D01*
X60770164Y-80085174D01*
X60761679Y-80067045D01*
X60743355Y-80017915D01*
X60743350Y-80017906D01*
X60657190Y-79902812D01*
X60657187Y-79902809D01*
X60542093Y-79816649D01*
X60542086Y-79816645D01*
X60407379Y-79766403D01*
X60407372Y-79766401D01*
X60347844Y-79760000D01*
X59650000Y-79760000D01*
X59650000Y-80726988D01*
X59592993Y-80694075D01*
X59465826Y-80660000D01*
X59334174Y-80660000D01*
X59207007Y-80694075D01*
X59150000Y-80726988D01*
X59150000Y-79760000D01*
X58452155Y-79760000D01*
X58392627Y-79766401D01*
X58392620Y-79766403D01*
X58257913Y-79816645D01*
X58257906Y-79816649D01*
X58142812Y-79902809D01*
X58142809Y-79902812D01*
X58056649Y-80017906D01*
X58056645Y-80017913D01*
X58006403Y-80152620D01*
X58006401Y-80152627D01*
X58000000Y-80212155D01*
X58000000Y-80910000D01*
X58966988Y-80910000D01*
X58934075Y-80967007D01*
X58900000Y-81094174D01*
X58900000Y-81225826D01*
X58934075Y-81352993D01*
X58966988Y-81410000D01*
X58000000Y-81410000D01*
X58000000Y-82107844D01*
X58006401Y-82167372D01*
X58006403Y-82167379D01*
X58056645Y-82302086D01*
X58056649Y-82302093D01*
X58142809Y-82417187D01*
X58142812Y-82417190D01*
X58257906Y-82503350D01*
X58257913Y-82503354D01*
X58310859Y-82523102D01*
X58366793Y-82564973D01*
X58391210Y-82630438D01*
X58376358Y-82698711D01*
X58358757Y-82723265D01*
X58291021Y-82796847D01*
X58291019Y-82796848D01*
X58291016Y-82796853D01*
X58164075Y-82991151D01*
X58070842Y-83203699D01*
X58013866Y-83428691D01*
X58013864Y-83428702D01*
X57994700Y-83659993D01*
X57994700Y-83660006D01*
X58013864Y-83891297D01*
X58013866Y-83891308D01*
X58070842Y-84116300D01*
X58164075Y-84328848D01*
X58291016Y-84523147D01*
X58291019Y-84523151D01*
X58291021Y-84523153D01*
X58448216Y-84693913D01*
X58448219Y-84693915D01*
X58448222Y-84693918D01*
X58631365Y-84836464D01*
X58631371Y-84836468D01*
X58631374Y-84836470D01*
X58835497Y-84946936D01*
X58949487Y-84986068D01*
X59055015Y-85022297D01*
X59055017Y-85022297D01*
X59055019Y-85022298D01*
X59283951Y-85060500D01*
X59283952Y-85060500D01*
X59516048Y-85060500D01*
X59516049Y-85060500D01*
X59744981Y-85022298D01*
X59964503Y-84946936D01*
X60168626Y-84836470D01*
X60351784Y-84693913D01*
X60508979Y-84523153D01*
X60546191Y-84466196D01*
X60599337Y-84420839D01*
X60668569Y-84411415D01*
X60731904Y-84440917D01*
X60753809Y-84466196D01*
X60791016Y-84523147D01*
X60791019Y-84523151D01*
X60791021Y-84523153D01*
X60948216Y-84693913D01*
X60948219Y-84693915D01*
X60948222Y-84693918D01*
X61131365Y-84836464D01*
X61131371Y-84836468D01*
X61131374Y-84836470D01*
X61335497Y-84946936D01*
X61449487Y-84986068D01*
X61555015Y-85022297D01*
X61555017Y-85022297D01*
X61555019Y-85022298D01*
X61783951Y-85060500D01*
X61783952Y-85060500D01*
X62016048Y-85060500D01*
X62016049Y-85060500D01*
X62244981Y-85022298D01*
X62464503Y-84946936D01*
X62668626Y-84836470D01*
X62851784Y-84693913D01*
X63008979Y-84523153D01*
X63046191Y-84466196D01*
X63099337Y-84420839D01*
X63168569Y-84411415D01*
X63231904Y-84440917D01*
X63253809Y-84466196D01*
X63291016Y-84523147D01*
X63291019Y-84523151D01*
X63291021Y-84523153D01*
X63448216Y-84693913D01*
X63448219Y-84693915D01*
X63448222Y-84693918D01*
X63631365Y-84836464D01*
X63631371Y-84836468D01*
X63631374Y-84836470D01*
X63835497Y-84946936D01*
X63949487Y-84986068D01*
X64055015Y-85022297D01*
X64055017Y-85022297D01*
X64055019Y-85022298D01*
X64283951Y-85060500D01*
X64283952Y-85060500D01*
X64516048Y-85060500D01*
X64516049Y-85060500D01*
X64744981Y-85022298D01*
X64964503Y-84946936D01*
X65168626Y-84836470D01*
X65351784Y-84693913D01*
X65508979Y-84523153D01*
X65635924Y-84328849D01*
X65729157Y-84116300D01*
X65786134Y-83891305D01*
X65805300Y-83660000D01*
X65805300Y-83659993D01*
X65786135Y-83428702D01*
X65786133Y-83428691D01*
X65729157Y-83203699D01*
X65635924Y-82991151D01*
X65508983Y-82796852D01*
X65508980Y-82796849D01*
X65508979Y-82796847D01*
X65351784Y-82626087D01*
X65199876Y-82507852D01*
X65159064Y-82451143D01*
X65155389Y-82381370D01*
X65190020Y-82320687D01*
X65199876Y-82312147D01*
X65351784Y-82193913D01*
X65508979Y-82023153D01*
X65635924Y-81828849D01*
X65729157Y-81616300D01*
X65786134Y-81391305D01*
X65805300Y-81160000D01*
X65805300Y-81159993D01*
X65786135Y-80928702D01*
X65786133Y-80928691D01*
X65729157Y-80703699D01*
X65635924Y-80491151D01*
X65508983Y-80296852D01*
X65508980Y-80296849D01*
X65508979Y-80296847D01*
X65351784Y-80126087D01*
X65351779Y-80126083D01*
X65351777Y-80126081D01*
X65168634Y-79983535D01*
X65168628Y-79983531D01*
X64964504Y-79873064D01*
X64964495Y-79873061D01*
X64744984Y-79797702D01*
X64573282Y-79769050D01*
X64516049Y-79759500D01*
X64283951Y-79759500D01*
X64242596Y-79766401D01*
X64055015Y-79797702D01*
X63835504Y-79873061D01*
X63835495Y-79873064D01*
X63631371Y-79983531D01*
X63631365Y-79983535D01*
X63448222Y-80126081D01*
X63448219Y-80126084D01*
X63448216Y-80126086D01*
X63448216Y-80126087D01*
X63423785Y-80152627D01*
X63291015Y-80296854D01*
X63253808Y-80353804D01*
X63200662Y-80399161D01*
X63131430Y-80408584D01*
X63068095Y-80379082D01*
X63046192Y-80353804D01*
X63008984Y-80296854D01*
X63008982Y-80296852D01*
X63008979Y-80296847D01*
X62851784Y-80126087D01*
X62851779Y-80126083D01*
X62851777Y-80126081D01*
X62668634Y-79983535D01*
X62668623Y-79983528D01*
X62565481Y-79927709D01*
X62515891Y-79878489D01*
X62500500Y-79818655D01*
X62500500Y-79600945D01*
X62500500Y-79600943D01*
X62459577Y-79448216D01*
X62459577Y-79448215D01*
X62459577Y-79448214D01*
X62430639Y-79398095D01*
X62430637Y-79398092D01*
X62380520Y-79311284D01*
X62268716Y-79199480D01*
X62268715Y-79199479D01*
X62264385Y-79195149D01*
X62264374Y-79195139D01*
X58907590Y-75838355D01*
X58907588Y-75838352D01*
X58788717Y-75719481D01*
X58788716Y-75719480D01*
X58701904Y-75669360D01*
X58701904Y-75669359D01*
X58701900Y-75669358D01*
X58651785Y-75640423D01*
X58499057Y-75599499D01*
X58382732Y-75599499D01*
X58315693Y-75579814D01*
X58269938Y-75527010D01*
X58259994Y-75457852D01*
X58289019Y-75394296D01*
X58307246Y-75377123D01*
X58345815Y-75347527D01*
X58379345Y-75321799D01*
X58551799Y-75149345D01*
X58700268Y-74955856D01*
X58822212Y-74744644D01*
X58915544Y-74519321D01*
X58978666Y-74283744D01*
X59010499Y-74041951D01*
X64789500Y-74041951D01*
X64816013Y-74243333D01*
X64821334Y-74283744D01*
X64821335Y-74283746D01*
X64884456Y-74519320D01*
X64884459Y-74519330D01*
X64977786Y-74744640D01*
X64977791Y-74744651D01*
X65099727Y-74955848D01*
X65099738Y-74955864D01*
X65248199Y-75149343D01*
X65248205Y-75149350D01*
X65420649Y-75321794D01*
X65420655Y-75321799D01*
X65614144Y-75470268D01*
X65614151Y-75470272D01*
X65825348Y-75592208D01*
X65825353Y-75592210D01*
X65825356Y-75592212D01*
X65967437Y-75651064D01*
X66011602Y-75669358D01*
X66050679Y-75685544D01*
X66286256Y-75748666D01*
X66528056Y-75780500D01*
X66528063Y-75780500D01*
X66771937Y-75780500D01*
X66771944Y-75780500D01*
X67013744Y-75748666D01*
X67249321Y-75685544D01*
X67474644Y-75592212D01*
X67685856Y-75470268D01*
X67879345Y-75321799D01*
X68051799Y-75149345D01*
X68200268Y-74955856D01*
X68322212Y-74744644D01*
X68415544Y-74519321D01*
X68478666Y-74283744D01*
X68510499Y-74041951D01*
X91489500Y-74041951D01*
X91516013Y-74243333D01*
X91521334Y-74283744D01*
X91521335Y-74283746D01*
X91584456Y-74519320D01*
X91584459Y-74519330D01*
X91677786Y-74744640D01*
X91677791Y-74744651D01*
X91799727Y-74955848D01*
X91799738Y-74955864D01*
X91948199Y-75149343D01*
X91948205Y-75149350D01*
X92120649Y-75321794D01*
X92120655Y-75321799D01*
X92314144Y-75470268D01*
X92314151Y-75470272D01*
X92525348Y-75592208D01*
X92525353Y-75592210D01*
X92525356Y-75592212D01*
X92667437Y-75651064D01*
X92711602Y-75669358D01*
X92750679Y-75685544D01*
X92986256Y-75748666D01*
X93228056Y-75780500D01*
X93228063Y-75780500D01*
X93471937Y-75780500D01*
X93471944Y-75780500D01*
X93713744Y-75748666D01*
X93949321Y-75685544D01*
X94174644Y-75592212D01*
X94385856Y-75470268D01*
X94579345Y-75321799D01*
X94751799Y-75149345D01*
X94900268Y-74955856D01*
X95022212Y-74744644D01*
X95115544Y-74519321D01*
X95178666Y-74283744D01*
X95210500Y-74041944D01*
X95210500Y-73278056D01*
X95178666Y-73036256D01*
X95115544Y-72800679D01*
X95022212Y-72575356D01*
X95022210Y-72575353D01*
X95022208Y-72575348D01*
X94900272Y-72364151D01*
X94900268Y-72364144D01*
X94751799Y-72170655D01*
X94751794Y-72170649D01*
X94579350Y-71998205D01*
X94579343Y-71998199D01*
X94385864Y-71849738D01*
X94385862Y-71849736D01*
X94385856Y-71849732D01*
X94385851Y-71849729D01*
X94385848Y-71849727D01*
X94174651Y-71727791D01*
X94174640Y-71727786D01*
X93949330Y-71634459D01*
X93949323Y-71634457D01*
X93949321Y-71634456D01*
X93713744Y-71571334D01*
X93673333Y-71566013D01*
X93471951Y-71539500D01*
X93471944Y-71539500D01*
X93228056Y-71539500D01*
X93228048Y-71539500D01*
X92997896Y-71569801D01*
X92986256Y-71571334D01*
X92881220Y-71599478D01*
X92750679Y-71634456D01*
X92750669Y-71634459D01*
X92525359Y-71727786D01*
X92525348Y-71727791D01*
X92314151Y-71849727D01*
X92314135Y-71849738D01*
X92120656Y-71998199D01*
X92120649Y-71998205D01*
X91948205Y-72170649D01*
X91948199Y-72170656D01*
X91799738Y-72364135D01*
X91799727Y-72364151D01*
X91677791Y-72575348D01*
X91677786Y-72575359D01*
X91584459Y-72800669D01*
X91584456Y-72800679D01*
X91521335Y-73036253D01*
X91521333Y-73036264D01*
X91489500Y-73278048D01*
X91489500Y-74041951D01*
X68510499Y-74041951D01*
X68510500Y-74041944D01*
X68510500Y-73278056D01*
X68478666Y-73036256D01*
X68415544Y-72800679D01*
X68322212Y-72575356D01*
X68322210Y-72575353D01*
X68322208Y-72575348D01*
X68200272Y-72364151D01*
X68200268Y-72364144D01*
X68051799Y-72170655D01*
X68051794Y-72170649D01*
X67879350Y-71998205D01*
X67879343Y-71998199D01*
X67685864Y-71849738D01*
X67685862Y-71849736D01*
X67685856Y-71849732D01*
X67685851Y-71849729D01*
X67685848Y-71849727D01*
X67474651Y-71727791D01*
X67474640Y-71727786D01*
X67249330Y-71634459D01*
X67249323Y-71634457D01*
X67249321Y-71634456D01*
X67013744Y-71571334D01*
X66973333Y-71566013D01*
X66771951Y-71539500D01*
X66771944Y-71539500D01*
X66528056Y-71539500D01*
X66528048Y-71539500D01*
X66297896Y-71569801D01*
X66286256Y-71571334D01*
X66181220Y-71599478D01*
X66050679Y-71634456D01*
X66050669Y-71634459D01*
X65825359Y-71727786D01*
X65825348Y-71727791D01*
X65614151Y-71849727D01*
X65614135Y-71849738D01*
X65420656Y-71998199D01*
X65420649Y-71998205D01*
X65248205Y-72170649D01*
X65248199Y-72170656D01*
X65099738Y-72364135D01*
X65099727Y-72364151D01*
X64977791Y-72575348D01*
X64977786Y-72575359D01*
X64884459Y-72800669D01*
X64884456Y-72800679D01*
X64821335Y-73036253D01*
X64821333Y-73036264D01*
X64789500Y-73278048D01*
X64789500Y-74041951D01*
X59010499Y-74041951D01*
X59010500Y-74041944D01*
X59010500Y-73278056D01*
X58978666Y-73036256D01*
X58915544Y-72800679D01*
X58822212Y-72575356D01*
X58822210Y-72575353D01*
X58822208Y-72575348D01*
X58700272Y-72364151D01*
X58700268Y-72364144D01*
X58551799Y-72170655D01*
X58551794Y-72170649D01*
X58379350Y-71998205D01*
X58379343Y-71998199D01*
X58185864Y-71849738D01*
X58185862Y-71849736D01*
X58185856Y-71849732D01*
X58185851Y-71849729D01*
X58185848Y-71849727D01*
X57974651Y-71727791D01*
X57974640Y-71727786D01*
X57749330Y-71634459D01*
X57749323Y-71634457D01*
X57749321Y-71634456D01*
X57513744Y-71571334D01*
X57473333Y-71566013D01*
X57271951Y-71539500D01*
X57271944Y-71539500D01*
X57028056Y-71539500D01*
X57028048Y-71539500D01*
X56797896Y-71569801D01*
X56786256Y-71571334D01*
X56681220Y-71599478D01*
X56550679Y-71634456D01*
X56550669Y-71634459D01*
X56325359Y-71727786D01*
X56325348Y-71727791D01*
X56114151Y-71849727D01*
X56114135Y-71849738D01*
X55920656Y-71998199D01*
X55920649Y-71998205D01*
X55748205Y-72170649D01*
X55748199Y-72170656D01*
X55599738Y-72364135D01*
X55599727Y-72364151D01*
X55477791Y-72575348D01*
X55477786Y-72575359D01*
X55384459Y-72800669D01*
X55384456Y-72800679D01*
X55321335Y-73036253D01*
X55321333Y-73036264D01*
X55289500Y-73278048D01*
X55289500Y-74041951D01*
X55316013Y-74243333D01*
X55321334Y-74283744D01*
X55321335Y-74283746D01*
X55384456Y-74519320D01*
X55384459Y-74519330D01*
X55477786Y-74744640D01*
X55477791Y-74744651D01*
X55599727Y-74955848D01*
X55599738Y-74955864D01*
X55748199Y-75149343D01*
X55748205Y-75149350D01*
X55920649Y-75321794D01*
X55920656Y-75321800D01*
X55992756Y-75377124D01*
X56033959Y-75433551D01*
X56038114Y-75503297D01*
X56003902Y-75564218D01*
X55942185Y-75596971D01*
X55917270Y-75599500D01*
X54910097Y-75599500D01*
X54843058Y-75579815D01*
X54822416Y-75563181D01*
X53976819Y-74717584D01*
X53943334Y-74656261D01*
X53940500Y-74629903D01*
X53940500Y-63800097D01*
X53960185Y-63733058D01*
X53976819Y-63712416D01*
X61172416Y-56516819D01*
X61233739Y-56483334D01*
X61260097Y-56480500D01*
X137284067Y-56480500D01*
X137284083Y-56480501D01*
X137291679Y-56480501D01*
X137449790Y-56480501D01*
X137449793Y-56480501D01*
X137602521Y-56439577D01*
X137652640Y-56410639D01*
X137739452Y-56360520D01*
X137851256Y-56248716D01*
X137851256Y-56248714D01*
X137861464Y-56238507D01*
X137861465Y-56238504D01*
X141393153Y-52706819D01*
X141454476Y-52673334D01*
X141480834Y-52670500D01*
X146602856Y-52670500D01*
X146669895Y-52690185D01*
X146715650Y-52742989D01*
X146726473Y-52804227D01*
X146725084Y-52821879D01*
X146724500Y-52829303D01*
X146724500Y-53669903D01*
X146704815Y-53736942D01*
X146688181Y-53757584D01*
X146472584Y-53973181D01*
X146411261Y-54006666D01*
X146384903Y-54009500D01*
X145362412Y-54009500D01*
X145295373Y-53989815D01*
X145285097Y-53982445D01*
X145282263Y-53980185D01*
X145282262Y-53980184D01*
X145219105Y-53940500D01*
X145129523Y-53884211D01*
X144959254Y-53824631D01*
X144959249Y-53824630D01*
X144780004Y-53804435D01*
X144779996Y-53804435D01*
X144600750Y-53824630D01*
X144600745Y-53824631D01*
X144430476Y-53884211D01*
X144277737Y-53980184D01*
X144150184Y-54107737D01*
X144054211Y-54260476D01*
X143994631Y-54430745D01*
X143994630Y-54430750D01*
X143974435Y-54609996D01*
X143974435Y-54610003D01*
X143994630Y-54789249D01*
X143994631Y-54789254D01*
X144054211Y-54959523D01*
X144150184Y-55112262D01*
X144277738Y-55239816D01*
X144328091Y-55271455D01*
X144424159Y-55331819D01*
X144430478Y-55335789D01*
X144600745Y-55395368D01*
X144600750Y-55395369D01*
X144779996Y-55415565D01*
X144780000Y-55415565D01*
X144780004Y-55415565D01*
X144959249Y-55395369D01*
X144959252Y-55395368D01*
X144959255Y-55395368D01*
X145129522Y-55335789D01*
X145282262Y-55239816D01*
X145282267Y-55239810D01*
X145285097Y-55237555D01*
X145287275Y-55236665D01*
X145288158Y-55236111D01*
X145288255Y-55236265D01*
X145349783Y-55211145D01*
X145362412Y-55210500D01*
X146598331Y-55210500D01*
X146598347Y-55210501D01*
X146605943Y-55210501D01*
X146764055Y-55210501D01*
X146764057Y-55210501D01*
X146830960Y-55192574D01*
X146900808Y-55194235D01*
X146958671Y-55233397D01*
X146986176Y-55297625D01*
X146974590Y-55366528D01*
X146950734Y-55400029D01*
X144567584Y-57783181D01*
X144506261Y-57816666D01*
X144479903Y-57819500D01*
X86280940Y-57819500D01*
X86240019Y-57830464D01*
X86240019Y-57830465D01*
X86202751Y-57840451D01*
X86128214Y-57860423D01*
X86128209Y-57860426D01*
X85991290Y-57939475D01*
X85991282Y-57939481D01*
X85879478Y-58051286D01*
X79182705Y-64748058D01*
X79121382Y-64781543D01*
X79062931Y-64780152D01*
X78966697Y-64754366D01*
X78966693Y-64754365D01*
X78966692Y-64754365D01*
X78966691Y-64754364D01*
X78966686Y-64754364D01*
X78740002Y-64734532D01*
X78739998Y-64734532D01*
X78513313Y-64754364D01*
X78513302Y-64754366D01*
X78293511Y-64813258D01*
X78293502Y-64813261D01*
X78087267Y-64909431D01*
X78087265Y-64909432D01*
X77900858Y-65039954D01*
X77739954Y-65200858D01*
X77609432Y-65387265D01*
X77609431Y-65387267D01*
X77582382Y-65445275D01*
X77536209Y-65497714D01*
X77469016Y-65516866D01*
X77402135Y-65496650D01*
X77357618Y-65445275D01*
X77350217Y-65429404D01*
X77330568Y-65387266D01*
X77200047Y-65200861D01*
X77200045Y-65200858D01*
X77039141Y-65039954D01*
X76852734Y-64909432D01*
X76852732Y-64909431D01*
X76646497Y-64813261D01*
X76646488Y-64813258D01*
X76426697Y-64754366D01*
X76426693Y-64754365D01*
X76426692Y-64754365D01*
X76426691Y-64754364D01*
X76426686Y-64754364D01*
X76200002Y-64734532D01*
X76199998Y-64734532D01*
X76117151Y-64741780D01*
X76048651Y-64728013D01*
X75998468Y-64679398D01*
X75982535Y-64611369D01*
X76005911Y-64545526D01*
X76018663Y-64530571D01*
X76229420Y-64319815D01*
X77682417Y-62866819D01*
X77743740Y-62833334D01*
X77770098Y-62830500D01*
X79427588Y-62830500D01*
X79494627Y-62850185D01*
X79504903Y-62857555D01*
X79507736Y-62859814D01*
X79507738Y-62859816D01*
X79660478Y-62955789D01*
X79830742Y-63015367D01*
X79830745Y-63015368D01*
X79830750Y-63015369D01*
X80009996Y-63035565D01*
X80010000Y-63035565D01*
X80010004Y-63035565D01*
X80189249Y-63015369D01*
X80189252Y-63015368D01*
X80189255Y-63015368D01*
X80359522Y-62955789D01*
X80512262Y-62859816D01*
X80639816Y-62732262D01*
X80735789Y-62579522D01*
X80795368Y-62409255D01*
X80800890Y-62360248D01*
X80815565Y-62230003D01*
X80815565Y-62229996D01*
X80795369Y-62050750D01*
X80795368Y-62050745D01*
X80735788Y-61880476D01*
X80663671Y-61765703D01*
X80639816Y-61727738D01*
X80512262Y-61600184D01*
X80480434Y-61580185D01*
X80359523Y-61504211D01*
X80189254Y-61444631D01*
X80189249Y-61444630D01*
X80010004Y-61424435D01*
X80009996Y-61424435D01*
X79830750Y-61444630D01*
X79830745Y-61444631D01*
X79660476Y-61504211D01*
X79507736Y-61600185D01*
X79504903Y-61602445D01*
X79502724Y-61603334D01*
X79501842Y-61603889D01*
X79501744Y-61603734D01*
X79440217Y-61628855D01*
X79427588Y-61629500D01*
X77556670Y-61629500D01*
X77556654Y-61629499D01*
X77549058Y-61629499D01*
X77390943Y-61629499D01*
X77314579Y-61649961D01*
X77238214Y-61670423D01*
X77238209Y-61670426D01*
X77101290Y-61749475D01*
X77101282Y-61749481D01*
X74102705Y-64748058D01*
X74041382Y-64781543D01*
X73982931Y-64780152D01*
X73886697Y-64754366D01*
X73886693Y-64754365D01*
X73886692Y-64754365D01*
X73886691Y-64754364D01*
X73886686Y-64754364D01*
X73660002Y-64734532D01*
X73659998Y-64734532D01*
X73433313Y-64754364D01*
X73433302Y-64754366D01*
X73213511Y-64813258D01*
X73213502Y-64813261D01*
X73007267Y-64909431D01*
X73007265Y-64909432D01*
X72820858Y-65039954D01*
X72659954Y-65200858D01*
X72529432Y-65387265D01*
X72529431Y-65387267D01*
X72502382Y-65445275D01*
X72456209Y-65497714D01*
X72389016Y-65516866D01*
X72322135Y-65496650D01*
X72277618Y-65445275D01*
X72270217Y-65429404D01*
X72250568Y-65387266D01*
X72120047Y-65200861D01*
X72120045Y-65200858D01*
X71959141Y-65039954D01*
X71772734Y-64909432D01*
X71772732Y-64909431D01*
X71566497Y-64813261D01*
X71566488Y-64813258D01*
X71346697Y-64754366D01*
X71346693Y-64754365D01*
X71346692Y-64754365D01*
X71346691Y-64754364D01*
X71346686Y-64754364D01*
X71120002Y-64734532D01*
X71119998Y-64734532D01*
X70893313Y-64754364D01*
X70893302Y-64754366D01*
X70673511Y-64813258D01*
X70673502Y-64813261D01*
X70467267Y-64909431D01*
X70467265Y-64909432D01*
X70280858Y-65039954D01*
X70119954Y-65200858D01*
X69989432Y-65387265D01*
X69989431Y-65387267D01*
X69962382Y-65445275D01*
X69916209Y-65497714D01*
X69849016Y-65516866D01*
X69782135Y-65496650D01*
X69737618Y-65445275D01*
X69730217Y-65429404D01*
X69710568Y-65387266D01*
X69580047Y-65200861D01*
X69580045Y-65200858D01*
X69419141Y-65039954D01*
X69232734Y-64909432D01*
X69232732Y-64909431D01*
X69026497Y-64813261D01*
X69026488Y-64813258D01*
X68806697Y-64754366D01*
X68806693Y-64754365D01*
X68806692Y-64754365D01*
X68806691Y-64754364D01*
X68806686Y-64754364D01*
X68580002Y-64734532D01*
X68579998Y-64734532D01*
X68353313Y-64754364D01*
X68353302Y-64754366D01*
X68133511Y-64813258D01*
X68133502Y-64813261D01*
X67927267Y-64909431D01*
X67927265Y-64909432D01*
X67740858Y-65039954D01*
X67579954Y-65200858D01*
X67449432Y-65387265D01*
X67449431Y-65387267D01*
X67422382Y-65445275D01*
X67376209Y-65497714D01*
X67309016Y-65516866D01*
X67242135Y-65496650D01*
X67197618Y-65445275D01*
X67190217Y-65429404D01*
X67170568Y-65387266D01*
X67040047Y-65200861D01*
X67040045Y-65200858D01*
X66879141Y-65039954D01*
X66692734Y-64909432D01*
X66692732Y-64909431D01*
X66486497Y-64813261D01*
X66486488Y-64813258D01*
X66266697Y-64754366D01*
X66266693Y-64754365D01*
X66266692Y-64754365D01*
X66266691Y-64754364D01*
X66266686Y-64754364D01*
X66040002Y-64734532D01*
X66039998Y-64734532D01*
X65813313Y-64754364D01*
X65813302Y-64754366D01*
X65593511Y-64813258D01*
X65593502Y-64813261D01*
X65387267Y-64909431D01*
X65387265Y-64909432D01*
X65200858Y-65039954D01*
X65039954Y-65200858D01*
X64909432Y-65387265D01*
X64909431Y-65387267D01*
X64882382Y-65445275D01*
X64836209Y-65497714D01*
X64769016Y-65516866D01*
X64702135Y-65496650D01*
X64657618Y-65445275D01*
X64650217Y-65429404D01*
X64630568Y-65387266D01*
X64500047Y-65200861D01*
X64500045Y-65200858D01*
X64339141Y-65039954D01*
X64152734Y-64909432D01*
X64152732Y-64909431D01*
X63946497Y-64813261D01*
X63946488Y-64813258D01*
X63726697Y-64754366D01*
X63726693Y-64754365D01*
X63726692Y-64754365D01*
X63726691Y-64754364D01*
X63726686Y-64754364D01*
X63500002Y-64734532D01*
X63499998Y-64734532D01*
X63273313Y-64754364D01*
X63273302Y-64754366D01*
X63053511Y-64813258D01*
X63053502Y-64813261D01*
X62847267Y-64909431D01*
X62847265Y-64909432D01*
X62660858Y-65039954D01*
X62499954Y-65200858D01*
X62369432Y-65387265D01*
X62369431Y-65387267D01*
X62342382Y-65445275D01*
X62296209Y-65497714D01*
X62229016Y-65516866D01*
X62162135Y-65496650D01*
X62117618Y-65445275D01*
X62110217Y-65429404D01*
X62090568Y-65387266D01*
X61960047Y-65200861D01*
X61960045Y-65200858D01*
X61799141Y-65039954D01*
X61612734Y-64909432D01*
X61612732Y-64909431D01*
X61406497Y-64813261D01*
X61406488Y-64813258D01*
X61186697Y-64754366D01*
X61186693Y-64754365D01*
X61186692Y-64754365D01*
X61186691Y-64754364D01*
X61186686Y-64754364D01*
X60960002Y-64734532D01*
X60959998Y-64734532D01*
X60733313Y-64754364D01*
X60733302Y-64754366D01*
X60513511Y-64813258D01*
X60513502Y-64813261D01*
X60307267Y-64909431D01*
X60307265Y-64909432D01*
X60120858Y-65039954D01*
X59959954Y-65200858D01*
X59829432Y-65387265D01*
X59829431Y-65387267D01*
X59802382Y-65445275D01*
X59756209Y-65497714D01*
X59689016Y-65516866D01*
X59622135Y-65496650D01*
X59577618Y-65445275D01*
X59570217Y-65429404D01*
X59550568Y-65387266D01*
X59420047Y-65200861D01*
X59420045Y-65200858D01*
X59259141Y-65039954D01*
X59072734Y-64909432D01*
X59072732Y-64909431D01*
X58866497Y-64813261D01*
X58866488Y-64813258D01*
X58646697Y-64754366D01*
X58646693Y-64754365D01*
X58646692Y-64754365D01*
X58646691Y-64754364D01*
X58646686Y-64754364D01*
X58420002Y-64734532D01*
X58419998Y-64734532D01*
X58193313Y-64754364D01*
X58193302Y-64754366D01*
X57973511Y-64813258D01*
X57973502Y-64813261D01*
X57767267Y-64909431D01*
X57767265Y-64909432D01*
X57580858Y-65039954D01*
X57419954Y-65200858D01*
X57289432Y-65387265D01*
X57289431Y-65387267D01*
X57262382Y-65445275D01*
X57216209Y-65497714D01*
X57149016Y-65516866D01*
X57082135Y-65496650D01*
X57037618Y-65445275D01*
X57030217Y-65429404D01*
X57010568Y-65387266D01*
X56880047Y-65200861D01*
X56880045Y-65200858D01*
X56719141Y-65039954D01*
X56532734Y-64909432D01*
X56532732Y-64909431D01*
X56326497Y-64813261D01*
X56326488Y-64813258D01*
X56106697Y-64754366D01*
X56106693Y-64754365D01*
X56106692Y-64754365D01*
X56106691Y-64754364D01*
X56106686Y-64754364D01*
X55880002Y-64734532D01*
X55879998Y-64734532D01*
X55653313Y-64754364D01*
X55653302Y-64754366D01*
X55433511Y-64813258D01*
X55433502Y-64813261D01*
X55227267Y-64909431D01*
X55227265Y-64909432D01*
X55040858Y-65039954D01*
X54879954Y-65200858D01*
X54749432Y-65387265D01*
X54749431Y-65387267D01*
X54653261Y-65593502D01*
X54653258Y-65593511D01*
X54594366Y-65813302D01*
X54594364Y-65813313D01*
X54574532Y-66039998D01*
X54574532Y-66040001D01*
X54594364Y-66266686D01*
X54594366Y-66266697D01*
X54653258Y-66486488D01*
X54653261Y-66486497D01*
X54749431Y-66692732D01*
X54749432Y-66692734D01*
X54879954Y-66879141D01*
X55040858Y-67040045D01*
X55040861Y-67040047D01*
X55227266Y-67170568D01*
X55433504Y-67266739D01*
X55653308Y-67325635D01*
X55795361Y-67338063D01*
X55879998Y-67345468D01*
X55880000Y-67345468D01*
X55880002Y-67345468D01*
X55936807Y-67340498D01*
X56106692Y-67325635D01*
X56326496Y-67266739D01*
X56532734Y-67170568D01*
X56719139Y-67040047D01*
X56880047Y-66879139D01*
X57010568Y-66692734D01*
X57037618Y-66634724D01*
X57083790Y-66582285D01*
X57150983Y-66563133D01*
X57217865Y-66583348D01*
X57262382Y-66634725D01*
X57289429Y-66692728D01*
X57289432Y-66692734D01*
X57419954Y-66879141D01*
X57580858Y-67040045D01*
X57580861Y-67040047D01*
X57767266Y-67170568D01*
X57973504Y-67266739D01*
X58193308Y-67325635D01*
X58335361Y-67338063D01*
X58419998Y-67345468D01*
X58420000Y-67345468D01*
X58420002Y-67345468D01*
X58476807Y-67340498D01*
X58646692Y-67325635D01*
X58866496Y-67266739D01*
X59072734Y-67170568D01*
X59259139Y-67040047D01*
X59420047Y-66879139D01*
X59550568Y-66692734D01*
X59577618Y-66634724D01*
X59623790Y-66582285D01*
X59690983Y-66563133D01*
X59757865Y-66583348D01*
X59802382Y-66634725D01*
X59829429Y-66692728D01*
X59829432Y-66692734D01*
X59959954Y-66879141D01*
X60120858Y-67040045D01*
X60120861Y-67040047D01*
X60307266Y-67170568D01*
X60513504Y-67266739D01*
X60733308Y-67325635D01*
X60875361Y-67338063D01*
X60959998Y-67345468D01*
X60960000Y-67345468D01*
X60960002Y-67345468D01*
X61016807Y-67340498D01*
X61186692Y-67325635D01*
X61406496Y-67266739D01*
X61612734Y-67170568D01*
X61799139Y-67040047D01*
X61960047Y-66879139D01*
X62090568Y-66692734D01*
X62117618Y-66634724D01*
X62163790Y-66582285D01*
X62230983Y-66563133D01*
X62297865Y-66583348D01*
X62342382Y-66634725D01*
X62369429Y-66692728D01*
X62369432Y-66692734D01*
X62499954Y-66879141D01*
X62660858Y-67040045D01*
X62660861Y-67040047D01*
X62847266Y-67170568D01*
X63053504Y-67266739D01*
X63273308Y-67325635D01*
X63415361Y-67338063D01*
X63499998Y-67345468D01*
X63500000Y-67345468D01*
X63500002Y-67345468D01*
X63556807Y-67340498D01*
X63726692Y-67325635D01*
X63946496Y-67266739D01*
X64152734Y-67170568D01*
X64339139Y-67040047D01*
X64500047Y-66879139D01*
X64630568Y-66692734D01*
X64657618Y-66634724D01*
X64703790Y-66582285D01*
X64770983Y-66563133D01*
X64837865Y-66583348D01*
X64882382Y-66634725D01*
X64909429Y-66692728D01*
X64909432Y-66692734D01*
X65039954Y-66879141D01*
X65200858Y-67040045D01*
X65200861Y-67040047D01*
X65387266Y-67170568D01*
X65593504Y-67266739D01*
X65813308Y-67325635D01*
X65955361Y-67338063D01*
X66039998Y-67345468D01*
X66040000Y-67345468D01*
X66040002Y-67345468D01*
X66096807Y-67340498D01*
X66266692Y-67325635D01*
X66486496Y-67266739D01*
X66692734Y-67170568D01*
X66879139Y-67040047D01*
X67040047Y-66879139D01*
X67170568Y-66692734D01*
X67197618Y-66634724D01*
X67243790Y-66582285D01*
X67310983Y-66563133D01*
X67377865Y-66583348D01*
X67422382Y-66634725D01*
X67449429Y-66692728D01*
X67449432Y-66692734D01*
X67579954Y-66879141D01*
X67740858Y-67040045D01*
X67740861Y-67040047D01*
X67927266Y-67170568D01*
X68133504Y-67266739D01*
X68353308Y-67325635D01*
X68495361Y-67338063D01*
X68579998Y-67345468D01*
X68580000Y-67345468D01*
X68580002Y-67345468D01*
X68636807Y-67340498D01*
X68806692Y-67325635D01*
X69026496Y-67266739D01*
X69232734Y-67170568D01*
X69419139Y-67040047D01*
X69580047Y-66879139D01*
X69710568Y-66692734D01*
X69737618Y-66634724D01*
X69783790Y-66582285D01*
X69850983Y-66563133D01*
X69917865Y-66583348D01*
X69962382Y-66634725D01*
X69989429Y-66692728D01*
X69989432Y-66692734D01*
X70119954Y-66879141D01*
X70280858Y-67040045D01*
X70280861Y-67040047D01*
X70467266Y-67170568D01*
X70673504Y-67266739D01*
X70893308Y-67325635D01*
X71035361Y-67338063D01*
X71119998Y-67345468D01*
X71120000Y-67345468D01*
X71120002Y-67345468D01*
X71176807Y-67340498D01*
X71346692Y-67325635D01*
X71566496Y-67266739D01*
X71772734Y-67170568D01*
X71959139Y-67040047D01*
X72120047Y-66879139D01*
X72250568Y-66692734D01*
X72277618Y-66634724D01*
X72323790Y-66582285D01*
X72390983Y-66563133D01*
X72457865Y-66583348D01*
X72502382Y-66634725D01*
X72529429Y-66692728D01*
X72529432Y-66692734D01*
X72659954Y-66879141D01*
X72820858Y-67040045D01*
X72820861Y-67040047D01*
X73007266Y-67170568D01*
X73213504Y-67266739D01*
X73433308Y-67325635D01*
X73575361Y-67338063D01*
X73659998Y-67345468D01*
X73660000Y-67345468D01*
X73660002Y-67345468D01*
X73716807Y-67340498D01*
X73886692Y-67325635D01*
X74106496Y-67266739D01*
X74312734Y-67170568D01*
X74499139Y-67040047D01*
X74660047Y-66879139D01*
X74790568Y-66692734D01*
X74817618Y-66634724D01*
X74863790Y-66582285D01*
X74930983Y-66563133D01*
X74997865Y-66583348D01*
X75042382Y-66634725D01*
X75069429Y-66692728D01*
X75069432Y-66692734D01*
X75199954Y-66879141D01*
X75360858Y-67040045D01*
X75360861Y-67040047D01*
X75547266Y-67170568D01*
X75753504Y-67266739D01*
X75973308Y-67325635D01*
X76115361Y-67338063D01*
X76199998Y-67345468D01*
X76200000Y-67345468D01*
X76200002Y-67345468D01*
X76256807Y-67340498D01*
X76426692Y-67325635D01*
X76522932Y-67299847D01*
X76592781Y-67301510D01*
X76642706Y-67331941D01*
X78255139Y-68944374D01*
X78255149Y-68944385D01*
X78259479Y-68948715D01*
X78259480Y-68948716D01*
X78371284Y-69060520D01*
X78371286Y-69060521D01*
X78371290Y-69060524D01*
X78478492Y-69122416D01*
X78508216Y-69139577D01*
X78620019Y-69169534D01*
X78660942Y-69180500D01*
X78660943Y-69180500D01*
X98310905Y-69180500D01*
X98377944Y-69200185D01*
X98423699Y-69252989D01*
X98433643Y-69322147D01*
X98415899Y-69370472D01*
X98334211Y-69500476D01*
X98274631Y-69670745D01*
X98274630Y-69670750D01*
X98254435Y-69849996D01*
X98254435Y-69850003D01*
X98274630Y-70029249D01*
X98274631Y-70029254D01*
X98334211Y-70199523D01*
X98430185Y-70352263D01*
X98432445Y-70355097D01*
X98433334Y-70357275D01*
X98433889Y-70358158D01*
X98433734Y-70358255D01*
X98458855Y-70419783D01*
X98459500Y-70432412D01*
X98459500Y-79653718D01*
X98439815Y-79720757D01*
X98387011Y-79766512D01*
X98317853Y-79776456D01*
X98315091Y-79776027D01*
X98216049Y-79759500D01*
X97983951Y-79759500D01*
X97942596Y-79766401D01*
X97755015Y-79797702D01*
X97535504Y-79873061D01*
X97535495Y-79873064D01*
X97331372Y-79983531D01*
X97154023Y-80121567D01*
X97089029Y-80147209D01*
X97020489Y-80133642D01*
X96970164Y-80085174D01*
X96961679Y-80067045D01*
X96943355Y-80017915D01*
X96943350Y-80017906D01*
X96857190Y-79902812D01*
X96857187Y-79902809D01*
X96742093Y-79816649D01*
X96742086Y-79816645D01*
X96607379Y-79766403D01*
X96607372Y-79766401D01*
X96547844Y-79760000D01*
X95850000Y-79760000D01*
X95850000Y-80726988D01*
X95792993Y-80694075D01*
X95665826Y-80660000D01*
X95534174Y-80660000D01*
X95407007Y-80694075D01*
X95350000Y-80726988D01*
X95350000Y-79760000D01*
X94652155Y-79760000D01*
X94592627Y-79766401D01*
X94592620Y-79766403D01*
X94457913Y-79816645D01*
X94457906Y-79816649D01*
X94342812Y-79902809D01*
X94342809Y-79902812D01*
X94256649Y-80017906D01*
X94256645Y-80017913D01*
X94206403Y-80152620D01*
X94206401Y-80152627D01*
X94200000Y-80212155D01*
X94200000Y-80910000D01*
X95166988Y-80910000D01*
X95134075Y-80967007D01*
X95100000Y-81094174D01*
X95100000Y-81225826D01*
X95134075Y-81352993D01*
X95166988Y-81410000D01*
X94200000Y-81410000D01*
X94200000Y-82107844D01*
X94206401Y-82167372D01*
X94206403Y-82167379D01*
X94256645Y-82302086D01*
X94256649Y-82302093D01*
X94342809Y-82417187D01*
X94342812Y-82417190D01*
X94457906Y-82503350D01*
X94457913Y-82503354D01*
X94510859Y-82523102D01*
X94566793Y-82564973D01*
X94591210Y-82630438D01*
X94576358Y-82698711D01*
X94558757Y-82723265D01*
X94491021Y-82796847D01*
X94491019Y-82796848D01*
X94491016Y-82796853D01*
X94364075Y-82991151D01*
X94270842Y-83203699D01*
X94213866Y-83428691D01*
X94213864Y-83428702D01*
X94194700Y-83659993D01*
X94194700Y-83660006D01*
X94213864Y-83891297D01*
X94213866Y-83891308D01*
X94270842Y-84116300D01*
X94364075Y-84328848D01*
X94491016Y-84523147D01*
X94491019Y-84523151D01*
X94491021Y-84523153D01*
X94648216Y-84693913D01*
X94648219Y-84693915D01*
X94648222Y-84693918D01*
X94831365Y-84836464D01*
X94831371Y-84836468D01*
X94831374Y-84836470D01*
X95035497Y-84946936D01*
X95149487Y-84986068D01*
X95255015Y-85022297D01*
X95255017Y-85022297D01*
X95255019Y-85022298D01*
X95483951Y-85060500D01*
X95483952Y-85060500D01*
X95716048Y-85060500D01*
X95716049Y-85060500D01*
X95944981Y-85022298D01*
X96164503Y-84946936D01*
X96368626Y-84836470D01*
X96551784Y-84693913D01*
X96708979Y-84523153D01*
X96746191Y-84466196D01*
X96799337Y-84420839D01*
X96868569Y-84411415D01*
X96931904Y-84440917D01*
X96953809Y-84466196D01*
X96991016Y-84523147D01*
X96991019Y-84523151D01*
X96991021Y-84523153D01*
X97148216Y-84693913D01*
X97148219Y-84693915D01*
X97148222Y-84693918D01*
X97331365Y-84836464D01*
X97331371Y-84836468D01*
X97331374Y-84836470D01*
X97535497Y-84946936D01*
X97649487Y-84986068D01*
X97755015Y-85022297D01*
X97755017Y-85022297D01*
X97755019Y-85022298D01*
X97983951Y-85060500D01*
X97983952Y-85060500D01*
X98216048Y-85060500D01*
X98216049Y-85060500D01*
X98444981Y-85022298D01*
X98664503Y-84946936D01*
X98868626Y-84836470D01*
X99051784Y-84693913D01*
X99208979Y-84523153D01*
X99246191Y-84466196D01*
X99299337Y-84420839D01*
X99368569Y-84411415D01*
X99431904Y-84440917D01*
X99453809Y-84466196D01*
X99491016Y-84523147D01*
X99491019Y-84523151D01*
X99491021Y-84523153D01*
X99648216Y-84693913D01*
X99648219Y-84693915D01*
X99648222Y-84693918D01*
X99831365Y-84836464D01*
X99831371Y-84836468D01*
X99831374Y-84836470D01*
X100035497Y-84946936D01*
X100149487Y-84986068D01*
X100255015Y-85022297D01*
X100255017Y-85022297D01*
X100255019Y-85022298D01*
X100483951Y-85060500D01*
X100483952Y-85060500D01*
X100716048Y-85060500D01*
X100716049Y-85060500D01*
X100944981Y-85022298D01*
X101164503Y-84946936D01*
X101368626Y-84836470D01*
X101551784Y-84693913D01*
X101708979Y-84523153D01*
X101835924Y-84328849D01*
X101929157Y-84116300D01*
X101986134Y-83891305D01*
X102005300Y-83660000D01*
X102005300Y-83659993D01*
X101986135Y-83428702D01*
X101986133Y-83428691D01*
X101929157Y-83203699D01*
X101835924Y-82991151D01*
X101708983Y-82796852D01*
X101708980Y-82796849D01*
X101708979Y-82796847D01*
X101551784Y-82626087D01*
X101399876Y-82507852D01*
X101359064Y-82451143D01*
X101355389Y-82381370D01*
X101390020Y-82320687D01*
X101399876Y-82312147D01*
X101551784Y-82193913D01*
X101708979Y-82023153D01*
X101835924Y-81828849D01*
X101929157Y-81616300D01*
X101986134Y-81391305D01*
X102005300Y-81160000D01*
X102005300Y-81159993D01*
X101986135Y-80928702D01*
X101986133Y-80928691D01*
X101929157Y-80703699D01*
X101835924Y-80491151D01*
X101708983Y-80296852D01*
X101708980Y-80296849D01*
X101708979Y-80296847D01*
X101551784Y-80126087D01*
X101551779Y-80126083D01*
X101551777Y-80126081D01*
X101368634Y-79983535D01*
X101368628Y-79983531D01*
X101164504Y-79873064D01*
X101164495Y-79873061D01*
X100944984Y-79797702D01*
X100773282Y-79769050D01*
X100716049Y-79759500D01*
X100483951Y-79759500D01*
X100442596Y-79766401D01*
X100255015Y-79797702D01*
X100035504Y-79873061D01*
X100035490Y-79873067D01*
X99843517Y-79976958D01*
X99775189Y-79991553D01*
X99709817Y-79966890D01*
X99668156Y-79910800D01*
X99660500Y-79867903D01*
X99660500Y-74041951D01*
X100989500Y-74041951D01*
X101016013Y-74243333D01*
X101021334Y-74283744D01*
X101021335Y-74283746D01*
X101084456Y-74519320D01*
X101084459Y-74519330D01*
X101177786Y-74744640D01*
X101177791Y-74744651D01*
X101299727Y-74955848D01*
X101299738Y-74955864D01*
X101448199Y-75149343D01*
X101448205Y-75149350D01*
X101620649Y-75321794D01*
X101620655Y-75321799D01*
X101814144Y-75470268D01*
X101814151Y-75470272D01*
X102025348Y-75592208D01*
X102025353Y-75592210D01*
X102025356Y-75592212D01*
X102167437Y-75651064D01*
X102211602Y-75669358D01*
X102250679Y-75685544D01*
X102486256Y-75748666D01*
X102728056Y-75780500D01*
X102728063Y-75780500D01*
X102971937Y-75780500D01*
X102971944Y-75780500D01*
X103213744Y-75748666D01*
X103449321Y-75685544D01*
X103674644Y-75592212D01*
X103885856Y-75470268D01*
X104079345Y-75321799D01*
X104251799Y-75149345D01*
X104400268Y-74955856D01*
X104522212Y-74744644D01*
X104615544Y-74519321D01*
X104678666Y-74283744D01*
X104710499Y-74041951D01*
X127689500Y-74041951D01*
X127716013Y-74243333D01*
X127721334Y-74283744D01*
X127721335Y-74283746D01*
X127784456Y-74519320D01*
X127784459Y-74519330D01*
X127877786Y-74744640D01*
X127877791Y-74744651D01*
X127999727Y-74955848D01*
X127999738Y-74955864D01*
X128148199Y-75149343D01*
X128148205Y-75149350D01*
X128320649Y-75321794D01*
X128320655Y-75321799D01*
X128514144Y-75470268D01*
X128514151Y-75470272D01*
X128725348Y-75592208D01*
X128725353Y-75592210D01*
X128725356Y-75592212D01*
X128867437Y-75651064D01*
X128911602Y-75669358D01*
X128950679Y-75685544D01*
X129186256Y-75748666D01*
X129428056Y-75780500D01*
X129428063Y-75780500D01*
X129671937Y-75780500D01*
X129671944Y-75780500D01*
X129913744Y-75748666D01*
X130149321Y-75685544D01*
X130374644Y-75592212D01*
X130585856Y-75470268D01*
X130779345Y-75321799D01*
X130951799Y-75149345D01*
X131100268Y-74955856D01*
X131222212Y-74744644D01*
X131315544Y-74519321D01*
X131378666Y-74283744D01*
X131410499Y-74041951D01*
X137189500Y-74041951D01*
X137216013Y-74243333D01*
X137221334Y-74283744D01*
X137221335Y-74283746D01*
X137284456Y-74519320D01*
X137284459Y-74519330D01*
X137377786Y-74744640D01*
X137377791Y-74744651D01*
X137499727Y-74955848D01*
X137499738Y-74955864D01*
X137648199Y-75149343D01*
X137648205Y-75149350D01*
X137820649Y-75321794D01*
X137820655Y-75321799D01*
X138014144Y-75470268D01*
X138014151Y-75470272D01*
X138225348Y-75592208D01*
X138225353Y-75592210D01*
X138225356Y-75592212D01*
X138367437Y-75651064D01*
X138411602Y-75669358D01*
X138450679Y-75685544D01*
X138686256Y-75748666D01*
X138928056Y-75780500D01*
X138928063Y-75780500D01*
X139171937Y-75780500D01*
X139171944Y-75780500D01*
X139413744Y-75748666D01*
X139649321Y-75685544D01*
X139874644Y-75592212D01*
X140085856Y-75470268D01*
X140279345Y-75321799D01*
X140451799Y-75149345D01*
X140600268Y-74955856D01*
X140722212Y-74744644D01*
X140815544Y-74519321D01*
X140878666Y-74283744D01*
X140910500Y-74041944D01*
X140910500Y-73278056D01*
X140878666Y-73036256D01*
X140815544Y-72800679D01*
X140722212Y-72575356D01*
X140722210Y-72575353D01*
X140722208Y-72575348D01*
X140600272Y-72364151D01*
X140600268Y-72364144D01*
X140451799Y-72170655D01*
X140451794Y-72170649D01*
X140279350Y-71998205D01*
X140279343Y-71998199D01*
X140085864Y-71849738D01*
X140085862Y-71849736D01*
X140085856Y-71849732D01*
X140085851Y-71849729D01*
X140085848Y-71849727D01*
X139874651Y-71727791D01*
X139874640Y-71727786D01*
X139649330Y-71634459D01*
X139649323Y-71634457D01*
X139649321Y-71634456D01*
X139413744Y-71571334D01*
X139373333Y-71566013D01*
X139171951Y-71539500D01*
X139171944Y-71539500D01*
X138928056Y-71539500D01*
X138928048Y-71539500D01*
X138697896Y-71569801D01*
X138686256Y-71571334D01*
X138581220Y-71599478D01*
X138450679Y-71634456D01*
X138450669Y-71634459D01*
X138225359Y-71727786D01*
X138225348Y-71727791D01*
X138014151Y-71849727D01*
X138014135Y-71849738D01*
X137820656Y-71998199D01*
X137820649Y-71998205D01*
X137648205Y-72170649D01*
X137648199Y-72170656D01*
X137499738Y-72364135D01*
X137499727Y-72364151D01*
X137377791Y-72575348D01*
X137377786Y-72575359D01*
X137284459Y-72800669D01*
X137284456Y-72800679D01*
X137221335Y-73036253D01*
X137221333Y-73036264D01*
X137189500Y-73278048D01*
X137189500Y-74041951D01*
X131410499Y-74041951D01*
X131410500Y-74041944D01*
X131410500Y-73278056D01*
X131378666Y-73036256D01*
X131315544Y-72800679D01*
X131222212Y-72575356D01*
X131222210Y-72575353D01*
X131222208Y-72575348D01*
X131100272Y-72364151D01*
X131100268Y-72364144D01*
X130951799Y-72170655D01*
X130951794Y-72170649D01*
X130779350Y-71998205D01*
X130779343Y-71998199D01*
X130585864Y-71849738D01*
X130585862Y-71849736D01*
X130585856Y-71849732D01*
X130585851Y-71849729D01*
X130585848Y-71849727D01*
X130374651Y-71727791D01*
X130374640Y-71727786D01*
X130149330Y-71634459D01*
X130149323Y-71634457D01*
X130149321Y-71634456D01*
X129913744Y-71571334D01*
X129873333Y-71566013D01*
X129671951Y-71539500D01*
X129671944Y-71539500D01*
X129428056Y-71539500D01*
X129428048Y-71539500D01*
X129197896Y-71569801D01*
X129186256Y-71571334D01*
X129081220Y-71599478D01*
X128950679Y-71634456D01*
X128950669Y-71634459D01*
X128725359Y-71727786D01*
X128725348Y-71727791D01*
X128514151Y-71849727D01*
X128514135Y-71849738D01*
X128320656Y-71998199D01*
X128320649Y-71998205D01*
X128148205Y-72170649D01*
X128148199Y-72170656D01*
X127999738Y-72364135D01*
X127999727Y-72364151D01*
X127877791Y-72575348D01*
X127877786Y-72575359D01*
X127784459Y-72800669D01*
X127784456Y-72800679D01*
X127721335Y-73036253D01*
X127721333Y-73036264D01*
X127689500Y-73278048D01*
X127689500Y-74041951D01*
X104710499Y-74041951D01*
X104710500Y-74041944D01*
X104710500Y-73278056D01*
X104678666Y-73036256D01*
X104615544Y-72800679D01*
X104522212Y-72575356D01*
X104522210Y-72575353D01*
X104522208Y-72575348D01*
X104400272Y-72364151D01*
X104400268Y-72364144D01*
X104251799Y-72170655D01*
X104251794Y-72170649D01*
X104079350Y-71998205D01*
X104079343Y-71998199D01*
X103885864Y-71849738D01*
X103885862Y-71849736D01*
X103885856Y-71849732D01*
X103885851Y-71849729D01*
X103885848Y-71849727D01*
X103674651Y-71727791D01*
X103674640Y-71727786D01*
X103449330Y-71634459D01*
X103449323Y-71634457D01*
X103449321Y-71634456D01*
X103213744Y-71571334D01*
X103173333Y-71566013D01*
X102971951Y-71539500D01*
X102971944Y-71539500D01*
X102728056Y-71539500D01*
X102728048Y-71539500D01*
X102497896Y-71569801D01*
X102486256Y-71571334D01*
X102381220Y-71599478D01*
X102250679Y-71634456D01*
X102250669Y-71634459D01*
X102025359Y-71727786D01*
X102025348Y-71727791D01*
X101814151Y-71849727D01*
X101814135Y-71849738D01*
X101620656Y-71998199D01*
X101620649Y-71998205D01*
X101448205Y-72170649D01*
X101448199Y-72170656D01*
X101299738Y-72364135D01*
X101299727Y-72364151D01*
X101177791Y-72575348D01*
X101177786Y-72575359D01*
X101084459Y-72800669D01*
X101084456Y-72800679D01*
X101021335Y-73036253D01*
X101021333Y-73036264D01*
X100989500Y-73278048D01*
X100989500Y-74041951D01*
X99660500Y-74041951D01*
X99660500Y-70432412D01*
X99680185Y-70365373D01*
X99687555Y-70355097D01*
X99689810Y-70352267D01*
X99689816Y-70352262D01*
X99785789Y-70199522D01*
X99845368Y-70029255D01*
X99865565Y-69850000D01*
X99845368Y-69670745D01*
X99785789Y-69500478D01*
X99704101Y-69370472D01*
X99685101Y-69303235D01*
X99705469Y-69236400D01*
X99758737Y-69191186D01*
X99809095Y-69180500D01*
X144223330Y-69180500D01*
X144223346Y-69180501D01*
X144230942Y-69180501D01*
X144389053Y-69180501D01*
X144389056Y-69180501D01*
X144541784Y-69139577D01*
X144591903Y-69110639D01*
X144678715Y-69060520D01*
X144790519Y-68948716D01*
X144790519Y-68948714D01*
X144800727Y-68938507D01*
X144800729Y-68938504D01*
X149153505Y-64585727D01*
X149153515Y-64585720D01*
X149163714Y-64575519D01*
X149163716Y-64575519D01*
X149165913Y-64573321D01*
X149198823Y-64550956D01*
X149198681Y-64550716D01*
X149202504Y-64548454D01*
X149204367Y-64547189D01*
X149205386Y-64546747D01*
X149205398Y-64546744D01*
X149277381Y-64504173D01*
X149345102Y-64486991D01*
X149411365Y-64509150D01*
X149455128Y-64563616D01*
X149464500Y-64610906D01*
X149464500Y-65274567D01*
X149444815Y-65341606D01*
X149406473Y-65379560D01*
X149357741Y-65410180D01*
X149230184Y-65537737D01*
X149134211Y-65690476D01*
X149074631Y-65860745D01*
X149074630Y-65860750D01*
X149054435Y-66039996D01*
X149054435Y-66040003D01*
X149074630Y-66219249D01*
X149074631Y-66219254D01*
X149134211Y-66389523D01*
X149165217Y-66438868D01*
X149230184Y-66542262D01*
X149357738Y-66669816D01*
X149394209Y-66692732D01*
X149486021Y-66750422D01*
X149510478Y-66765789D01*
X149618873Y-66803718D01*
X149680745Y-66825368D01*
X149680750Y-66825369D01*
X149859996Y-66845565D01*
X149860000Y-66845565D01*
X149860004Y-66845565D01*
X150039249Y-66825369D01*
X150039252Y-66825368D01*
X150039255Y-66825368D01*
X150209522Y-66765789D01*
X150362262Y-66669816D01*
X150489816Y-66542262D01*
X150585789Y-66389522D01*
X150645368Y-66219255D01*
X150665565Y-66040000D01*
X150658183Y-65974484D01*
X150661628Y-65928507D01*
X150665501Y-65914057D01*
X150665501Y-65755942D01*
X150665501Y-65748347D01*
X150665500Y-65748329D01*
X150665500Y-64610906D01*
X150685185Y-64543867D01*
X150737989Y-64498112D01*
X150807147Y-64488168D01*
X150852617Y-64504172D01*
X150924602Y-64546744D01*
X150926134Y-64547189D01*
X151082426Y-64592597D01*
X151082429Y-64592597D01*
X151082431Y-64592598D01*
X151119306Y-64595500D01*
X151119314Y-64595500D01*
X151550686Y-64595500D01*
X151550694Y-64595500D01*
X151587569Y-64592598D01*
X151587571Y-64592597D01*
X151587573Y-64592597D01*
X151646355Y-64575519D01*
X151745398Y-64546744D01*
X151886865Y-64463081D01*
X151886870Y-64463075D01*
X151893031Y-64458298D01*
X151894933Y-64460750D01*
X151943579Y-64434155D01*
X152013274Y-64439104D01*
X152045695Y-64459940D01*
X152046969Y-64458298D01*
X152053132Y-64463078D01*
X152053135Y-64463081D01*
X152194602Y-64546744D01*
X152196134Y-64547189D01*
X152352426Y-64592597D01*
X152352429Y-64592597D01*
X152352431Y-64592598D01*
X152389306Y-64595500D01*
X152389314Y-64595500D01*
X152820686Y-64595500D01*
X152820694Y-64595500D01*
X152857569Y-64592598D01*
X152857571Y-64592597D01*
X152857573Y-64592597D01*
X152916355Y-64575519D01*
X153015398Y-64546744D01*
X153156865Y-64463081D01*
X153156870Y-64463075D01*
X153163031Y-64458298D01*
X153164933Y-64460750D01*
X153213579Y-64434155D01*
X153283274Y-64439104D01*
X153315695Y-64459940D01*
X153316969Y-64458298D01*
X153323132Y-64463078D01*
X153323135Y-64463081D01*
X153464602Y-64546744D01*
X153466134Y-64547189D01*
X153622426Y-64592597D01*
X153622429Y-64592597D01*
X153622431Y-64592598D01*
X153659306Y-64595500D01*
X153659314Y-64595500D01*
X154090686Y-64595500D01*
X154090694Y-64595500D01*
X154127569Y-64592598D01*
X154127571Y-64592597D01*
X154127573Y-64592597D01*
X154186355Y-64575519D01*
X154285398Y-64546744D01*
X154426865Y-64463081D01*
X154426870Y-64463075D01*
X154433031Y-64458298D01*
X154434933Y-64460750D01*
X154483579Y-64434155D01*
X154553274Y-64439104D01*
X154585695Y-64459940D01*
X154586969Y-64458298D01*
X154593132Y-64463078D01*
X154593135Y-64463081D01*
X154734602Y-64546744D01*
X154736134Y-64547189D01*
X154892426Y-64592597D01*
X154892429Y-64592597D01*
X154892431Y-64592598D01*
X154929306Y-64595500D01*
X154929314Y-64595500D01*
X155360686Y-64595500D01*
X155360694Y-64595500D01*
X155397569Y-64592598D01*
X155397571Y-64592597D01*
X155397573Y-64592597D01*
X155456355Y-64575519D01*
X155555398Y-64546744D01*
X155696865Y-64463081D01*
X155696870Y-64463075D01*
X155703031Y-64458298D01*
X155704933Y-64460750D01*
X155753579Y-64434155D01*
X155823274Y-64439104D01*
X155855695Y-64459940D01*
X155856969Y-64458298D01*
X155863132Y-64463078D01*
X155863135Y-64463081D01*
X156004602Y-64546744D01*
X156006134Y-64547189D01*
X156162426Y-64592597D01*
X156162429Y-64592597D01*
X156162431Y-64592598D01*
X156199306Y-64595500D01*
X156199314Y-64595500D01*
X156630686Y-64595500D01*
X156630694Y-64595500D01*
X156667569Y-64592598D01*
X156667571Y-64592597D01*
X156667573Y-64592597D01*
X156726355Y-64575519D01*
X156825398Y-64546744D01*
X156966865Y-64463081D01*
X156966870Y-64463075D01*
X156973031Y-64458298D01*
X156974933Y-64460750D01*
X157023579Y-64434155D01*
X157093274Y-64439104D01*
X157125695Y-64459940D01*
X157126969Y-64458298D01*
X157133132Y-64463078D01*
X157133135Y-64463081D01*
X157274602Y-64546744D01*
X157276134Y-64547189D01*
X157432426Y-64592597D01*
X157432429Y-64592597D01*
X157432431Y-64592598D01*
X157469306Y-64595500D01*
X157469314Y-64595500D01*
X157900686Y-64595500D01*
X157900694Y-64595500D01*
X157937569Y-64592598D01*
X157937571Y-64592597D01*
X157937573Y-64592597D01*
X157996355Y-64575519D01*
X158095398Y-64546744D01*
X158236865Y-64463081D01*
X158236870Y-64463075D01*
X158243031Y-64458298D01*
X158244933Y-64460750D01*
X158293579Y-64434155D01*
X158363274Y-64439104D01*
X158395695Y-64459940D01*
X158396969Y-64458298D01*
X158403132Y-64463078D01*
X158403135Y-64463081D01*
X158544602Y-64546744D01*
X158546134Y-64547189D01*
X158702426Y-64592597D01*
X158702429Y-64592597D01*
X158702431Y-64592598D01*
X158739306Y-64595500D01*
X158739314Y-64595500D01*
X159170686Y-64595500D01*
X159170694Y-64595500D01*
X159207569Y-64592598D01*
X159207571Y-64592597D01*
X159207573Y-64592597D01*
X159266355Y-64575519D01*
X159365398Y-64546744D01*
X159437381Y-64504173D01*
X159505102Y-64486991D01*
X159571365Y-64509151D01*
X159615129Y-64563617D01*
X159624500Y-64610906D01*
X159624500Y-71884902D01*
X159604815Y-71951941D01*
X159588181Y-71972583D01*
X154727584Y-76833181D01*
X154666261Y-76866666D01*
X154639903Y-76869500D01*
X138076669Y-76869500D01*
X138076653Y-76869499D01*
X138069057Y-76869499D01*
X137910943Y-76869499D01*
X137803587Y-76898265D01*
X137758210Y-76910424D01*
X137758209Y-76910425D01*
X137708096Y-76939359D01*
X137708095Y-76939360D01*
X137664689Y-76964420D01*
X137621285Y-76989479D01*
X137621282Y-76989481D01*
X137509478Y-77101286D01*
X134824840Y-79785923D01*
X134763517Y-79819408D01*
X134696898Y-79815524D01*
X134644981Y-79797702D01*
X134416049Y-79759500D01*
X134183951Y-79759500D01*
X134142596Y-79766401D01*
X133955015Y-79797702D01*
X133735504Y-79873061D01*
X133735495Y-79873064D01*
X133531372Y-79983531D01*
X133354023Y-80121567D01*
X133289029Y-80147209D01*
X133220489Y-80133642D01*
X133170164Y-80085174D01*
X133161679Y-80067045D01*
X133143355Y-80017915D01*
X133143350Y-80017906D01*
X133057190Y-79902812D01*
X133057187Y-79902809D01*
X132942093Y-79816649D01*
X132942086Y-79816645D01*
X132807379Y-79766403D01*
X132807372Y-79766401D01*
X132747844Y-79760000D01*
X132050000Y-79760000D01*
X132050000Y-80726988D01*
X131992993Y-80694075D01*
X131865826Y-80660000D01*
X131734174Y-80660000D01*
X131607007Y-80694075D01*
X131550000Y-80726988D01*
X131550000Y-79760000D01*
X130852155Y-79760000D01*
X130792627Y-79766401D01*
X130792620Y-79766403D01*
X130657913Y-79816645D01*
X130657906Y-79816649D01*
X130542812Y-79902809D01*
X130542809Y-79902812D01*
X130456649Y-80017906D01*
X130456645Y-80017913D01*
X130406403Y-80152620D01*
X130406401Y-80152627D01*
X130400000Y-80212155D01*
X130400000Y-80910000D01*
X131366988Y-80910000D01*
X131334075Y-80967007D01*
X131300000Y-81094174D01*
X131300000Y-81225826D01*
X131334075Y-81352993D01*
X131366988Y-81410000D01*
X130400000Y-81410000D01*
X130400000Y-82107844D01*
X130406401Y-82167372D01*
X130406403Y-82167379D01*
X130456645Y-82302086D01*
X130456649Y-82302093D01*
X130542809Y-82417187D01*
X130542812Y-82417190D01*
X130657906Y-82503350D01*
X130657913Y-82503354D01*
X130710859Y-82523102D01*
X130766793Y-82564973D01*
X130791210Y-82630438D01*
X130776358Y-82698711D01*
X130758757Y-82723265D01*
X130691021Y-82796847D01*
X130691019Y-82796848D01*
X130691016Y-82796853D01*
X130564075Y-82991151D01*
X130470842Y-83203699D01*
X130413866Y-83428691D01*
X130413864Y-83428702D01*
X130394700Y-83659993D01*
X130394700Y-83660006D01*
X130413864Y-83891297D01*
X130413866Y-83891308D01*
X130470842Y-84116300D01*
X130564075Y-84328848D01*
X130691016Y-84523147D01*
X130691019Y-84523151D01*
X130691021Y-84523153D01*
X130848216Y-84693913D01*
X130848219Y-84693915D01*
X130848222Y-84693918D01*
X131031365Y-84836464D01*
X131031371Y-84836468D01*
X131031374Y-84836470D01*
X131235497Y-84946936D01*
X131349487Y-84986068D01*
X131455015Y-85022297D01*
X131455017Y-85022297D01*
X131455019Y-85022298D01*
X131683951Y-85060500D01*
X131683952Y-85060500D01*
X131916048Y-85060500D01*
X131916049Y-85060500D01*
X132144981Y-85022298D01*
X132364503Y-84946936D01*
X132568626Y-84836470D01*
X132751784Y-84693913D01*
X132908979Y-84523153D01*
X132946191Y-84466196D01*
X132999337Y-84420839D01*
X133068569Y-84411415D01*
X133131904Y-84440917D01*
X133153809Y-84466196D01*
X133191016Y-84523147D01*
X133191019Y-84523151D01*
X133191021Y-84523153D01*
X133348216Y-84693913D01*
X133348219Y-84693915D01*
X133348222Y-84693918D01*
X133531365Y-84836464D01*
X133531371Y-84836468D01*
X133531374Y-84836470D01*
X133735497Y-84946936D01*
X133849487Y-84986068D01*
X133955015Y-85022297D01*
X133955017Y-85022297D01*
X133955019Y-85022298D01*
X134183951Y-85060500D01*
X134183952Y-85060500D01*
X134416048Y-85060500D01*
X134416049Y-85060500D01*
X134644981Y-85022298D01*
X134864503Y-84946936D01*
X135068626Y-84836470D01*
X135251784Y-84693913D01*
X135408979Y-84523153D01*
X135446191Y-84466196D01*
X135499337Y-84420839D01*
X135568569Y-84411415D01*
X135631904Y-84440917D01*
X135653809Y-84466196D01*
X135691016Y-84523147D01*
X135691019Y-84523151D01*
X135691021Y-84523153D01*
X135848216Y-84693913D01*
X135848219Y-84693915D01*
X135848222Y-84693918D01*
X136031365Y-84836464D01*
X136031371Y-84836468D01*
X136031374Y-84836470D01*
X136235497Y-84946936D01*
X136349487Y-84986068D01*
X136455015Y-85022297D01*
X136455017Y-85022297D01*
X136455019Y-85022298D01*
X136683951Y-85060500D01*
X136683952Y-85060500D01*
X136916048Y-85060500D01*
X136916049Y-85060500D01*
X137144981Y-85022298D01*
X137364503Y-84946936D01*
X137568626Y-84836470D01*
X137751784Y-84693913D01*
X137908979Y-84523153D01*
X138035924Y-84328849D01*
X138129157Y-84116300D01*
X138186134Y-83891305D01*
X138205300Y-83660000D01*
X138205300Y-83659993D01*
X138186135Y-83428702D01*
X138186133Y-83428691D01*
X138129157Y-83203699D01*
X138035924Y-82991151D01*
X137908983Y-82796852D01*
X137908980Y-82796849D01*
X137908979Y-82796847D01*
X137751784Y-82626087D01*
X137599876Y-82507852D01*
X137559064Y-82451143D01*
X137555389Y-82381370D01*
X137590020Y-82320687D01*
X137599876Y-82312147D01*
X137751784Y-82193913D01*
X137908979Y-82023153D01*
X138035924Y-81828849D01*
X138129157Y-81616300D01*
X138186134Y-81391305D01*
X138205300Y-81160000D01*
X138205300Y-81159993D01*
X138186135Y-80928702D01*
X138186133Y-80928691D01*
X138129157Y-80703699D01*
X138035924Y-80491151D01*
X137908983Y-80296852D01*
X137908980Y-80296849D01*
X137908979Y-80296847D01*
X137751784Y-80126087D01*
X137751779Y-80126083D01*
X137751777Y-80126081D01*
X137568634Y-79983535D01*
X137568628Y-79983531D01*
X137364504Y-79873064D01*
X137364495Y-79873061D01*
X137144984Y-79797702D01*
X136973282Y-79769050D01*
X136916049Y-79759500D01*
X136849096Y-79759500D01*
X136782057Y-79739815D01*
X136736302Y-79687011D01*
X136726358Y-79617853D01*
X136755383Y-79554297D01*
X136761415Y-79547819D01*
X138202416Y-78106819D01*
X138263739Y-78073334D01*
X138290097Y-78070500D01*
X154853331Y-78070500D01*
X154853347Y-78070501D01*
X154860943Y-78070501D01*
X155019054Y-78070501D01*
X155019057Y-78070501D01*
X155171785Y-78029577D01*
X155221904Y-78000639D01*
X155308716Y-77950520D01*
X155420520Y-77838716D01*
X155420520Y-77838714D01*
X155430728Y-77828507D01*
X155430729Y-77828504D01*
X159217284Y-74041951D01*
X163889500Y-74041951D01*
X163916013Y-74243333D01*
X163921334Y-74283744D01*
X163921335Y-74283746D01*
X163984456Y-74519320D01*
X163984459Y-74519330D01*
X164077786Y-74744640D01*
X164077791Y-74744651D01*
X164199727Y-74955848D01*
X164199738Y-74955864D01*
X164348199Y-75149343D01*
X164348205Y-75149350D01*
X164520649Y-75321794D01*
X164520655Y-75321799D01*
X164714144Y-75470268D01*
X164714151Y-75470272D01*
X164925348Y-75592208D01*
X164925353Y-75592210D01*
X164925356Y-75592212D01*
X165067437Y-75651064D01*
X165111602Y-75669358D01*
X165150679Y-75685544D01*
X165386256Y-75748666D01*
X165628056Y-75780500D01*
X165628063Y-75780500D01*
X165871937Y-75780500D01*
X165871944Y-75780500D01*
X166113744Y-75748666D01*
X166349321Y-75685544D01*
X166574644Y-75592212D01*
X166785856Y-75470268D01*
X166979345Y-75321799D01*
X167151799Y-75149345D01*
X167300268Y-74955856D01*
X167422212Y-74744644D01*
X167515544Y-74519321D01*
X167578666Y-74283744D01*
X167610500Y-74041944D01*
X167610500Y-73278056D01*
X167578666Y-73036256D01*
X167515544Y-72800679D01*
X167422212Y-72575356D01*
X167422210Y-72575353D01*
X167422208Y-72575348D01*
X167300272Y-72364151D01*
X167300268Y-72364144D01*
X167151799Y-72170655D01*
X167151794Y-72170649D01*
X166979350Y-71998205D01*
X166979343Y-71998199D01*
X166785864Y-71849738D01*
X166785862Y-71849736D01*
X166785856Y-71849732D01*
X166785851Y-71849729D01*
X166785848Y-71849727D01*
X166574651Y-71727791D01*
X166574640Y-71727786D01*
X166349330Y-71634459D01*
X166349323Y-71634457D01*
X166349321Y-71634456D01*
X166113744Y-71571334D01*
X166073333Y-71566013D01*
X165871951Y-71539500D01*
X165871944Y-71539500D01*
X165628056Y-71539500D01*
X165628048Y-71539500D01*
X165397896Y-71569801D01*
X165386256Y-71571334D01*
X165281220Y-71599478D01*
X165150679Y-71634456D01*
X165150669Y-71634459D01*
X164925359Y-71727786D01*
X164925348Y-71727791D01*
X164714151Y-71849727D01*
X164714135Y-71849738D01*
X164520656Y-71998199D01*
X164520649Y-71998205D01*
X164348205Y-72170649D01*
X164348199Y-72170656D01*
X164199738Y-72364135D01*
X164199727Y-72364151D01*
X164077791Y-72575348D01*
X164077786Y-72575359D01*
X163984459Y-72800669D01*
X163984456Y-72800679D01*
X163921335Y-73036253D01*
X163921333Y-73036264D01*
X163889500Y-73278048D01*
X163889500Y-74041951D01*
X159217284Y-74041951D01*
X160705520Y-72553716D01*
X160784577Y-72416784D01*
X160825501Y-72264057D01*
X160825501Y-72105942D01*
X160825501Y-72098347D01*
X160825500Y-72098329D01*
X160825500Y-65020000D01*
X162792501Y-65020000D01*
X162792501Y-65056654D01*
X162802819Y-65157652D01*
X162857046Y-65321300D01*
X162857051Y-65321311D01*
X162947552Y-65468034D01*
X162947555Y-65468038D01*
X163069461Y-65589944D01*
X163069465Y-65589947D01*
X163216188Y-65680448D01*
X163216199Y-65680453D01*
X163379847Y-65734680D01*
X163480851Y-65744999D01*
X164080000Y-65744999D01*
X164179140Y-65744999D01*
X164179154Y-65744998D01*
X164280152Y-65734680D01*
X164443800Y-65680453D01*
X164443811Y-65680448D01*
X164590535Y-65589947D01*
X164604460Y-65576021D01*
X164665782Y-65542533D01*
X164735473Y-65547514D01*
X164779827Y-65576017D01*
X164794150Y-65590340D01*
X164940984Y-65680908D01*
X165104747Y-65735174D01*
X165205823Y-65745500D01*
X165904176Y-65745499D01*
X165904184Y-65745498D01*
X165904187Y-65745498D01*
X165959530Y-65739844D01*
X166005253Y-65735174D01*
X166169016Y-65680908D01*
X166315850Y-65590340D01*
X166437840Y-65468350D01*
X166461862Y-65429404D01*
X166513810Y-65382679D01*
X166567401Y-65370500D01*
X167057588Y-65370500D01*
X167124627Y-65390185D01*
X167134903Y-65397555D01*
X167137736Y-65399814D01*
X167137738Y-65399816D01*
X167210086Y-65445275D01*
X167264724Y-65479607D01*
X167290478Y-65495789D01*
X167418255Y-65540500D01*
X167460745Y-65555368D01*
X167460750Y-65555369D01*
X167639996Y-65575565D01*
X167640000Y-65575565D01*
X167640004Y-65575565D01*
X167819249Y-65555369D01*
X167819252Y-65555368D01*
X167819255Y-65555368D01*
X167989522Y-65495789D01*
X168142262Y-65399816D01*
X168269816Y-65272262D01*
X168365789Y-65119522D01*
X168425368Y-64949255D01*
X168440691Y-64813258D01*
X168445565Y-64770003D01*
X168445565Y-64769996D01*
X168425369Y-64590750D01*
X168425368Y-64590745D01*
X168419272Y-64573323D01*
X168365789Y-64420478D01*
X168269816Y-64267738D01*
X168142262Y-64140184D01*
X168095173Y-64110596D01*
X167989523Y-64044211D01*
X167819254Y-63984631D01*
X167819249Y-63984630D01*
X167640004Y-63964435D01*
X167639996Y-63964435D01*
X167460750Y-63984630D01*
X167460745Y-63984631D01*
X167290476Y-64044211D01*
X167137736Y-64140185D01*
X167134903Y-64142445D01*
X167132724Y-64143334D01*
X167131842Y-64143889D01*
X167131744Y-64143734D01*
X167070217Y-64168855D01*
X167057588Y-64169500D01*
X166567401Y-64169500D01*
X166500362Y-64149815D01*
X166461862Y-64110596D01*
X166437840Y-64071650D01*
X166315851Y-63949661D01*
X166315850Y-63949660D01*
X166224629Y-63893395D01*
X166169018Y-63859093D01*
X166169013Y-63859091D01*
X166167569Y-63858612D01*
X166005253Y-63804826D01*
X166005251Y-63804825D01*
X165904178Y-63794500D01*
X165205830Y-63794500D01*
X165205812Y-63794501D01*
X165104747Y-63804825D01*
X164940984Y-63859092D01*
X164940981Y-63859093D01*
X164794148Y-63949661D01*
X164779825Y-63963984D01*
X164718501Y-63997468D01*
X164648809Y-63992482D01*
X164604465Y-63963982D01*
X164590538Y-63950055D01*
X164590534Y-63950052D01*
X164443811Y-63859551D01*
X164443800Y-63859546D01*
X164280152Y-63805319D01*
X164179154Y-63795000D01*
X164080000Y-63795000D01*
X164080000Y-65744999D01*
X163480851Y-65744999D01*
X163580000Y-65744998D01*
X163580000Y-65020000D01*
X162792501Y-65020000D01*
X160825500Y-65020000D01*
X160825500Y-64610326D01*
X160845185Y-64543287D01*
X160897989Y-64497532D01*
X160967147Y-64487588D01*
X161012621Y-64503594D01*
X161084801Y-64546281D01*
X161242514Y-64592100D01*
X161242511Y-64592100D01*
X161244998Y-64592295D01*
X161245000Y-64592295D01*
X161245000Y-63320000D01*
X161745000Y-63320000D01*
X161745000Y-64592295D01*
X161745001Y-64592295D01*
X161747486Y-64592100D01*
X161905198Y-64546281D01*
X161949637Y-64520000D01*
X162792500Y-64520000D01*
X163580000Y-64520000D01*
X163580000Y-63794999D01*
X163480860Y-63795000D01*
X163480844Y-63795001D01*
X163379847Y-63805319D01*
X163216199Y-63859546D01*
X163216188Y-63859551D01*
X163069465Y-63950052D01*
X163069461Y-63950055D01*
X162947555Y-64071961D01*
X162947552Y-64071965D01*
X162857051Y-64218688D01*
X162857046Y-64218699D01*
X162802819Y-64382347D01*
X162792500Y-64483345D01*
X162792500Y-64520000D01*
X161949637Y-64520000D01*
X162046552Y-64462685D01*
X162046561Y-64462678D01*
X162162678Y-64346561D01*
X162162685Y-64346552D01*
X162246282Y-64205196D01*
X162246283Y-64205193D01*
X162292099Y-64047495D01*
X162292100Y-64047489D01*
X162294999Y-64010649D01*
X162295000Y-64010634D01*
X162295000Y-63320000D01*
X161745000Y-63320000D01*
X161245000Y-63320000D01*
X161245000Y-62944000D01*
X161264685Y-62876961D01*
X161317489Y-62831206D01*
X161369000Y-62820000D01*
X162295000Y-62820000D01*
X162295000Y-62129365D01*
X162294999Y-62129350D01*
X162292100Y-62092510D01*
X162292099Y-62092504D01*
X162246283Y-61934806D01*
X162246282Y-61934803D01*
X162162685Y-61793447D01*
X162162678Y-61793438D01*
X162141421Y-61772181D01*
X162107936Y-61710858D01*
X162112920Y-61641166D01*
X162154792Y-61585233D01*
X162220256Y-61560816D01*
X162229102Y-61560500D01*
X167339903Y-61560500D01*
X167406942Y-61580185D01*
X167427584Y-61596819D01*
X169863181Y-64032416D01*
X169896666Y-64093739D01*
X169899500Y-64120097D01*
X169899500Y-79818655D01*
X169879815Y-79885694D01*
X169834519Y-79927709D01*
X169731376Y-79983528D01*
X169731372Y-79983530D01*
X169554023Y-80121567D01*
X169489029Y-80147209D01*
X169420489Y-80133642D01*
X169370164Y-80085174D01*
X169361679Y-80067045D01*
X169343355Y-80017915D01*
X169343350Y-80017906D01*
X169257190Y-79902812D01*
X169257187Y-79902809D01*
X169142093Y-79816649D01*
X169142086Y-79816645D01*
X169007379Y-79766403D01*
X169007372Y-79766401D01*
X168947844Y-79760000D01*
X168250000Y-79760000D01*
X168250000Y-80726988D01*
X168192993Y-80694075D01*
X168065826Y-80660000D01*
X167934174Y-80660000D01*
X167807007Y-80694075D01*
X167750000Y-80726988D01*
X167750000Y-79760000D01*
X167052155Y-79760000D01*
X166992627Y-79766401D01*
X166992620Y-79766403D01*
X166857913Y-79816645D01*
X166857906Y-79816649D01*
X166742812Y-79902809D01*
X166742809Y-79902812D01*
X166656649Y-80017906D01*
X166656645Y-80017913D01*
X166606403Y-80152620D01*
X166606401Y-80152627D01*
X166600000Y-80212155D01*
X166600000Y-80910000D01*
X167566988Y-80910000D01*
X167534075Y-80967007D01*
X167500000Y-81094174D01*
X167500000Y-81225826D01*
X167534075Y-81352993D01*
X167566988Y-81410000D01*
X166600000Y-81410000D01*
X166600000Y-82107844D01*
X166606401Y-82167372D01*
X166606403Y-82167379D01*
X166656645Y-82302086D01*
X166656649Y-82302093D01*
X166742809Y-82417187D01*
X166742812Y-82417190D01*
X166857906Y-82503350D01*
X166857913Y-82503354D01*
X166910859Y-82523102D01*
X166966793Y-82564973D01*
X166991210Y-82630438D01*
X166976358Y-82698711D01*
X166958757Y-82723265D01*
X166891021Y-82796847D01*
X166891019Y-82796848D01*
X166891016Y-82796853D01*
X166764075Y-82991151D01*
X166670842Y-83203699D01*
X166613866Y-83428691D01*
X166613864Y-83428702D01*
X166594700Y-83659993D01*
X166594700Y-83660006D01*
X166613864Y-83891297D01*
X166613866Y-83891308D01*
X166670842Y-84116300D01*
X166764075Y-84328848D01*
X166891016Y-84523147D01*
X166891019Y-84523151D01*
X166891021Y-84523153D01*
X167048216Y-84693913D01*
X167048219Y-84693915D01*
X167048222Y-84693918D01*
X167231365Y-84836464D01*
X167231371Y-84836468D01*
X167231374Y-84836470D01*
X167435497Y-84946936D01*
X167549487Y-84986068D01*
X167655015Y-85022297D01*
X167655017Y-85022297D01*
X167655019Y-85022298D01*
X167883951Y-85060500D01*
X167883952Y-85060500D01*
X168116048Y-85060500D01*
X168116049Y-85060500D01*
X168344981Y-85022298D01*
X168564503Y-84946936D01*
X168768626Y-84836470D01*
X168951784Y-84693913D01*
X169108979Y-84523153D01*
X169146191Y-84466196D01*
X169199337Y-84420839D01*
X169268569Y-84411415D01*
X169331904Y-84440917D01*
X169353809Y-84466196D01*
X169391016Y-84523147D01*
X169391019Y-84523151D01*
X169391021Y-84523153D01*
X169548216Y-84693913D01*
X169548219Y-84693915D01*
X169548222Y-84693918D01*
X169731365Y-84836464D01*
X169731371Y-84836468D01*
X169731374Y-84836470D01*
X169935497Y-84946936D01*
X170049487Y-84986068D01*
X170155015Y-85022297D01*
X170155017Y-85022297D01*
X170155019Y-85022298D01*
X170383951Y-85060500D01*
X170383952Y-85060500D01*
X170616048Y-85060500D01*
X170616049Y-85060500D01*
X170844981Y-85022298D01*
X171064503Y-84946936D01*
X171268626Y-84836470D01*
X171451784Y-84693913D01*
X171608979Y-84523153D01*
X171646191Y-84466196D01*
X171699337Y-84420839D01*
X171768569Y-84411415D01*
X171831904Y-84440917D01*
X171853809Y-84466196D01*
X171891016Y-84523147D01*
X171891019Y-84523151D01*
X171891021Y-84523153D01*
X172048216Y-84693913D01*
X172048219Y-84693915D01*
X172048222Y-84693918D01*
X172231365Y-84836464D01*
X172231371Y-84836468D01*
X172231374Y-84836470D01*
X172435497Y-84946936D01*
X172549487Y-84986068D01*
X172655015Y-85022297D01*
X172655017Y-85022297D01*
X172655019Y-85022298D01*
X172883951Y-85060500D01*
X172883952Y-85060500D01*
X173116048Y-85060500D01*
X173116049Y-85060500D01*
X173344981Y-85022298D01*
X173564503Y-84946936D01*
X173768626Y-84836470D01*
X173951784Y-84693913D01*
X174108979Y-84523153D01*
X174235924Y-84328849D01*
X174329157Y-84116300D01*
X174386134Y-83891305D01*
X174405300Y-83660000D01*
X174405300Y-83659993D01*
X174386135Y-83428702D01*
X174386133Y-83428691D01*
X174329157Y-83203699D01*
X174235924Y-82991151D01*
X174108983Y-82796852D01*
X174108980Y-82796849D01*
X174108979Y-82796847D01*
X173951784Y-82626087D01*
X173799876Y-82507852D01*
X173759064Y-82451143D01*
X173755389Y-82381370D01*
X173790020Y-82320687D01*
X173799876Y-82312147D01*
X173951784Y-82193913D01*
X174108979Y-82023153D01*
X174235924Y-81828849D01*
X174329157Y-81616300D01*
X174386134Y-81391305D01*
X174405300Y-81160000D01*
X174405300Y-81159993D01*
X174386135Y-80928702D01*
X174386133Y-80928691D01*
X174329157Y-80703699D01*
X174235924Y-80491151D01*
X174108983Y-80296852D01*
X174108980Y-80296849D01*
X174108979Y-80296847D01*
X173951784Y-80126087D01*
X173951779Y-80126083D01*
X173951777Y-80126081D01*
X173768634Y-79983535D01*
X173768628Y-79983531D01*
X173564504Y-79873064D01*
X173564495Y-79873061D01*
X173344984Y-79797702D01*
X173173282Y-79769050D01*
X173116049Y-79759500D01*
X172883951Y-79759500D01*
X172842596Y-79766401D01*
X172655015Y-79797702D01*
X172435504Y-79873061D01*
X172435495Y-79873064D01*
X172231371Y-79983531D01*
X172231365Y-79983535D01*
X172048222Y-80126081D01*
X172048219Y-80126084D01*
X172048216Y-80126086D01*
X172048216Y-80126087D01*
X172023785Y-80152627D01*
X171891015Y-80296854D01*
X171853808Y-80353804D01*
X171800662Y-80399161D01*
X171731430Y-80408584D01*
X171668095Y-80379082D01*
X171646192Y-80353804D01*
X171608984Y-80296854D01*
X171608982Y-80296852D01*
X171608979Y-80296847D01*
X171451784Y-80126087D01*
X171451779Y-80126083D01*
X171451777Y-80126081D01*
X171268634Y-79983535D01*
X171268623Y-79983528D01*
X171165481Y-79927709D01*
X171115891Y-79878489D01*
X171100500Y-79818655D01*
X171100500Y-74041951D01*
X173389500Y-74041951D01*
X173416013Y-74243333D01*
X173421334Y-74283744D01*
X173421335Y-74283746D01*
X173484456Y-74519320D01*
X173484459Y-74519330D01*
X173577786Y-74744640D01*
X173577791Y-74744651D01*
X173699727Y-74955848D01*
X173699738Y-74955864D01*
X173848199Y-75149343D01*
X173848205Y-75149350D01*
X174020649Y-75321794D01*
X174020655Y-75321799D01*
X174214144Y-75470268D01*
X174214151Y-75470272D01*
X174425348Y-75592208D01*
X174425353Y-75592210D01*
X174425356Y-75592212D01*
X174567437Y-75651064D01*
X174611602Y-75669358D01*
X174650679Y-75685544D01*
X174886256Y-75748666D01*
X175128056Y-75780500D01*
X175128063Y-75780500D01*
X175371937Y-75780500D01*
X175371944Y-75780500D01*
X175613744Y-75748666D01*
X175849321Y-75685544D01*
X176074644Y-75592212D01*
X176285856Y-75470268D01*
X176479345Y-75321799D01*
X176651799Y-75149345D01*
X176800268Y-74955856D01*
X176922212Y-74744644D01*
X177015544Y-74519321D01*
X177078666Y-74283744D01*
X177110499Y-74041951D01*
X200089500Y-74041951D01*
X200116013Y-74243333D01*
X200121334Y-74283744D01*
X200121335Y-74283746D01*
X200184456Y-74519320D01*
X200184459Y-74519330D01*
X200277786Y-74744640D01*
X200277791Y-74744651D01*
X200399727Y-74955848D01*
X200399738Y-74955864D01*
X200548199Y-75149343D01*
X200548205Y-75149350D01*
X200720649Y-75321794D01*
X200720655Y-75321799D01*
X200914144Y-75470268D01*
X200914151Y-75470272D01*
X201125348Y-75592208D01*
X201125353Y-75592210D01*
X201125356Y-75592212D01*
X201267437Y-75651064D01*
X201311602Y-75669358D01*
X201350679Y-75685544D01*
X201586256Y-75748666D01*
X201828056Y-75780500D01*
X201828063Y-75780500D01*
X202071937Y-75780500D01*
X202071944Y-75780500D01*
X202313744Y-75748666D01*
X202549321Y-75685544D01*
X202774644Y-75592212D01*
X202985856Y-75470268D01*
X203179345Y-75321799D01*
X203351799Y-75149345D01*
X203500268Y-74955856D01*
X203622212Y-74744644D01*
X203715544Y-74519321D01*
X203778666Y-74283744D01*
X203810500Y-74041944D01*
X203810500Y-73278056D01*
X203778666Y-73036256D01*
X203715544Y-72800679D01*
X203622212Y-72575356D01*
X203622210Y-72575353D01*
X203622208Y-72575348D01*
X203500272Y-72364151D01*
X203500268Y-72364144D01*
X203351799Y-72170655D01*
X203351794Y-72170649D01*
X203179350Y-71998205D01*
X203179343Y-71998199D01*
X202985864Y-71849738D01*
X202985862Y-71849736D01*
X202985856Y-71849732D01*
X202985851Y-71849729D01*
X202985848Y-71849727D01*
X202774651Y-71727791D01*
X202774640Y-71727786D01*
X202549330Y-71634459D01*
X202549323Y-71634457D01*
X202549321Y-71634456D01*
X202313744Y-71571334D01*
X202273333Y-71566013D01*
X202071951Y-71539500D01*
X202071944Y-71539500D01*
X201828056Y-71539500D01*
X201828048Y-71539500D01*
X201597896Y-71569801D01*
X201586256Y-71571334D01*
X201481220Y-71599478D01*
X201350679Y-71634456D01*
X201350669Y-71634459D01*
X201125359Y-71727786D01*
X201125348Y-71727791D01*
X200914151Y-71849727D01*
X200914135Y-71849738D01*
X200720656Y-71998199D01*
X200720649Y-71998205D01*
X200548205Y-72170649D01*
X200548199Y-72170656D01*
X200399738Y-72364135D01*
X200399727Y-72364151D01*
X200277791Y-72575348D01*
X200277786Y-72575359D01*
X200184459Y-72800669D01*
X200184456Y-72800679D01*
X200121335Y-73036253D01*
X200121333Y-73036264D01*
X200089500Y-73278048D01*
X200089500Y-74041951D01*
X177110499Y-74041951D01*
X177110500Y-74041944D01*
X177110500Y-73278056D01*
X177078666Y-73036256D01*
X177015544Y-72800679D01*
X176922212Y-72575356D01*
X176922210Y-72575353D01*
X176922208Y-72575348D01*
X176800272Y-72364151D01*
X176800268Y-72364144D01*
X176651799Y-72170655D01*
X176651794Y-72170649D01*
X176479350Y-71998205D01*
X176479343Y-71998199D01*
X176285864Y-71849738D01*
X176285862Y-71849736D01*
X176285856Y-71849732D01*
X176285851Y-71849729D01*
X176285848Y-71849727D01*
X176074651Y-71727791D01*
X176074640Y-71727786D01*
X175849330Y-71634459D01*
X175849323Y-71634457D01*
X175849321Y-71634456D01*
X175613744Y-71571334D01*
X175573333Y-71566013D01*
X175371951Y-71539500D01*
X175371944Y-71539500D01*
X175128056Y-71539500D01*
X175128048Y-71539500D01*
X174897896Y-71569801D01*
X174886256Y-71571334D01*
X174781220Y-71599478D01*
X174650679Y-71634456D01*
X174650669Y-71634459D01*
X174425359Y-71727786D01*
X174425348Y-71727791D01*
X174214151Y-71849727D01*
X174214135Y-71849738D01*
X174020656Y-71998199D01*
X174020649Y-71998205D01*
X173848205Y-72170649D01*
X173848199Y-72170656D01*
X173699738Y-72364135D01*
X173699727Y-72364151D01*
X173577791Y-72575348D01*
X173577786Y-72575359D01*
X173484459Y-72800669D01*
X173484456Y-72800679D01*
X173421335Y-73036253D01*
X173421333Y-73036264D01*
X173389500Y-73278048D01*
X173389500Y-74041951D01*
X171100500Y-74041951D01*
X171100500Y-63909060D01*
X171100501Y-63909047D01*
X171100501Y-63740945D01*
X171100501Y-63740943D01*
X171059577Y-63588215D01*
X170980520Y-63451284D01*
X168127589Y-60598354D01*
X168127588Y-60598352D01*
X168031417Y-60502181D01*
X167997932Y-60440858D01*
X168002916Y-60371166D01*
X168044788Y-60315233D01*
X168110252Y-60290816D01*
X168119098Y-60290500D01*
X174959903Y-60290500D01*
X175026942Y-60310185D01*
X175047584Y-60326819D01*
X176045139Y-61324374D01*
X176045149Y-61324385D01*
X176049479Y-61328715D01*
X176049480Y-61328716D01*
X176161284Y-61440520D01*
X176239061Y-61485424D01*
X176271600Y-61504211D01*
X176298215Y-61519577D01*
X176450942Y-61560500D01*
X176450943Y-61560500D01*
X195279903Y-61560500D01*
X195346942Y-61580185D01*
X195367584Y-61596819D01*
X206063181Y-72292416D01*
X206096666Y-72353739D01*
X206099500Y-72380097D01*
X206099500Y-79818655D01*
X206079815Y-79885694D01*
X206034519Y-79927709D01*
X205931376Y-79983528D01*
X205931372Y-79983530D01*
X205754023Y-80121567D01*
X205689029Y-80147209D01*
X205620489Y-80133642D01*
X205570164Y-80085174D01*
X205561679Y-80067045D01*
X205543355Y-80017915D01*
X205543350Y-80017906D01*
X205457190Y-79902812D01*
X205457187Y-79902809D01*
X205342093Y-79816649D01*
X205342086Y-79816645D01*
X205207379Y-79766403D01*
X205207372Y-79766401D01*
X205147844Y-79760000D01*
X204450000Y-79760000D01*
X204450000Y-80726988D01*
X204392993Y-80694075D01*
X204265826Y-80660000D01*
X204134174Y-80660000D01*
X204007007Y-80694075D01*
X203950000Y-80726988D01*
X203950000Y-79760000D01*
X203252155Y-79760000D01*
X203192627Y-79766401D01*
X203192620Y-79766403D01*
X203057913Y-79816645D01*
X203057906Y-79816649D01*
X202942812Y-79902809D01*
X202942809Y-79902812D01*
X202856649Y-80017906D01*
X202856645Y-80017913D01*
X202806403Y-80152620D01*
X202806401Y-80152627D01*
X202800000Y-80212155D01*
X202800000Y-80910000D01*
X203766988Y-80910000D01*
X203734075Y-80967007D01*
X203700000Y-81094174D01*
X203700000Y-81225826D01*
X203734075Y-81352993D01*
X203766988Y-81410000D01*
X202800000Y-81410000D01*
X202800000Y-82107844D01*
X202806401Y-82167372D01*
X202806403Y-82167379D01*
X202856645Y-82302086D01*
X202856649Y-82302093D01*
X202942809Y-82417187D01*
X202942812Y-82417190D01*
X203057906Y-82503350D01*
X203057913Y-82503354D01*
X203110859Y-82523102D01*
X203166793Y-82564973D01*
X203191210Y-82630438D01*
X203176358Y-82698711D01*
X203158757Y-82723265D01*
X203091021Y-82796847D01*
X203091019Y-82796848D01*
X203091016Y-82796853D01*
X202964075Y-82991151D01*
X202870842Y-83203699D01*
X202813866Y-83428691D01*
X202813864Y-83428702D01*
X202794700Y-83659993D01*
X202794700Y-83660006D01*
X202813864Y-83891297D01*
X202813866Y-83891308D01*
X202870842Y-84116300D01*
X202964075Y-84328848D01*
X203091016Y-84523147D01*
X203091019Y-84523151D01*
X203091021Y-84523153D01*
X203248216Y-84693913D01*
X203248219Y-84693915D01*
X203248222Y-84693918D01*
X203431365Y-84836464D01*
X203431371Y-84836468D01*
X203431374Y-84836470D01*
X203635497Y-84946936D01*
X203749487Y-84986068D01*
X203855015Y-85022297D01*
X203855017Y-85022297D01*
X203855019Y-85022298D01*
X204083951Y-85060500D01*
X204083952Y-85060500D01*
X204316048Y-85060500D01*
X204316049Y-85060500D01*
X204544981Y-85022298D01*
X204764503Y-84946936D01*
X204968626Y-84836470D01*
X205151784Y-84693913D01*
X205308979Y-84523153D01*
X205346191Y-84466196D01*
X205399337Y-84420839D01*
X205468569Y-84411415D01*
X205531904Y-84440917D01*
X205553809Y-84466196D01*
X205591016Y-84523147D01*
X205591019Y-84523151D01*
X205591021Y-84523153D01*
X205748216Y-84693913D01*
X205748219Y-84693915D01*
X205748222Y-84693918D01*
X205931365Y-84836464D01*
X205931371Y-84836468D01*
X205931374Y-84836470D01*
X206135497Y-84946936D01*
X206249487Y-84986068D01*
X206355015Y-85022297D01*
X206355017Y-85022297D01*
X206355019Y-85022298D01*
X206583951Y-85060500D01*
X206583952Y-85060500D01*
X206816048Y-85060500D01*
X206816049Y-85060500D01*
X207044981Y-85022298D01*
X207264503Y-84946936D01*
X207468626Y-84836470D01*
X207651784Y-84693913D01*
X207808979Y-84523153D01*
X207846191Y-84466196D01*
X207899337Y-84420839D01*
X207968569Y-84411415D01*
X208031904Y-84440917D01*
X208053809Y-84466196D01*
X208091016Y-84523147D01*
X208091019Y-84523151D01*
X208091021Y-84523153D01*
X208248216Y-84693913D01*
X208248219Y-84693915D01*
X208248222Y-84693918D01*
X208431365Y-84836464D01*
X208431371Y-84836468D01*
X208431374Y-84836470D01*
X208635497Y-84946936D01*
X208749487Y-84986068D01*
X208855015Y-85022297D01*
X208855017Y-85022297D01*
X208855019Y-85022298D01*
X209083951Y-85060500D01*
X209083952Y-85060500D01*
X209316048Y-85060500D01*
X209316049Y-85060500D01*
X209544981Y-85022298D01*
X209764503Y-84946936D01*
X209968626Y-84836470D01*
X210151784Y-84693913D01*
X210308979Y-84523153D01*
X210435924Y-84328849D01*
X210529157Y-84116300D01*
X210586134Y-83891305D01*
X210605300Y-83660000D01*
X210605300Y-83659993D01*
X210586135Y-83428702D01*
X210586133Y-83428691D01*
X210529157Y-83203699D01*
X210435924Y-82991151D01*
X210308983Y-82796852D01*
X210308980Y-82796849D01*
X210308979Y-82796847D01*
X210151784Y-82626087D01*
X209999876Y-82507852D01*
X209959064Y-82451143D01*
X209955389Y-82381370D01*
X209990020Y-82320687D01*
X209999876Y-82312147D01*
X210151784Y-82193913D01*
X210308979Y-82023153D01*
X210435924Y-81828849D01*
X210529157Y-81616300D01*
X210586134Y-81391305D01*
X210605300Y-81160000D01*
X210605300Y-81159993D01*
X210586135Y-80928702D01*
X210586133Y-80928691D01*
X210529157Y-80703699D01*
X210435924Y-80491151D01*
X210308983Y-80296852D01*
X210308980Y-80296849D01*
X210308979Y-80296847D01*
X210151784Y-80126087D01*
X210151779Y-80126083D01*
X210151777Y-80126081D01*
X209968634Y-79983535D01*
X209968628Y-79983531D01*
X209764504Y-79873064D01*
X209764495Y-79873061D01*
X209544984Y-79797702D01*
X209373282Y-79769050D01*
X209316049Y-79759500D01*
X209083951Y-79759500D01*
X209042596Y-79766401D01*
X208855015Y-79797702D01*
X208635504Y-79873061D01*
X208635495Y-79873064D01*
X208431371Y-79983531D01*
X208431365Y-79983535D01*
X208248222Y-80126081D01*
X208248219Y-80126084D01*
X208248216Y-80126086D01*
X208248216Y-80126087D01*
X208223785Y-80152627D01*
X208091015Y-80296854D01*
X208053808Y-80353804D01*
X208000662Y-80399161D01*
X207931430Y-80408584D01*
X207868095Y-80379082D01*
X207846192Y-80353804D01*
X207808984Y-80296854D01*
X207808982Y-80296852D01*
X207808979Y-80296847D01*
X207651784Y-80126087D01*
X207651779Y-80126083D01*
X207651777Y-80126081D01*
X207468634Y-79983535D01*
X207468623Y-79983528D01*
X207365481Y-79927709D01*
X207315891Y-79878489D01*
X207300500Y-79818655D01*
X207300500Y-74041951D01*
X209589500Y-74041951D01*
X209616013Y-74243333D01*
X209621334Y-74283744D01*
X209621335Y-74283746D01*
X209684456Y-74519320D01*
X209684459Y-74519330D01*
X209777786Y-74744640D01*
X209777791Y-74744651D01*
X209899727Y-74955848D01*
X209899738Y-74955864D01*
X210048199Y-75149343D01*
X210048205Y-75149350D01*
X210220649Y-75321794D01*
X210220655Y-75321799D01*
X210414144Y-75470268D01*
X210414151Y-75470272D01*
X210625348Y-75592208D01*
X210625353Y-75592210D01*
X210625356Y-75592212D01*
X210767437Y-75651064D01*
X210811602Y-75669358D01*
X210850679Y-75685544D01*
X211086256Y-75748666D01*
X211328056Y-75780500D01*
X211328063Y-75780500D01*
X211571937Y-75780500D01*
X211571944Y-75780500D01*
X211813744Y-75748666D01*
X212049321Y-75685544D01*
X212274644Y-75592212D01*
X212485856Y-75470268D01*
X212679345Y-75321799D01*
X212851799Y-75149345D01*
X213000268Y-74955856D01*
X213122212Y-74744644D01*
X213215544Y-74519321D01*
X213278666Y-74283744D01*
X213310499Y-74041951D01*
X236289500Y-74041951D01*
X236316013Y-74243333D01*
X236321334Y-74283744D01*
X236321335Y-74283746D01*
X236384456Y-74519320D01*
X236384459Y-74519330D01*
X236477786Y-74744640D01*
X236477791Y-74744651D01*
X236599727Y-74955848D01*
X236599738Y-74955864D01*
X236748199Y-75149343D01*
X236748205Y-75149350D01*
X236920649Y-75321794D01*
X236920655Y-75321799D01*
X237114144Y-75470268D01*
X237114151Y-75470272D01*
X237325348Y-75592208D01*
X237325353Y-75592210D01*
X237325356Y-75592212D01*
X237467437Y-75651064D01*
X237511602Y-75669358D01*
X237550679Y-75685544D01*
X237786256Y-75748666D01*
X238028056Y-75780500D01*
X238028063Y-75780500D01*
X238271937Y-75780500D01*
X238271944Y-75780500D01*
X238513744Y-75748666D01*
X238749321Y-75685544D01*
X238974644Y-75592212D01*
X239185856Y-75470268D01*
X239379345Y-75321799D01*
X239551799Y-75149345D01*
X239700268Y-74955856D01*
X239822212Y-74744644D01*
X239915544Y-74519321D01*
X239978666Y-74283744D01*
X240010500Y-74041944D01*
X240010500Y-73278056D01*
X239978666Y-73036256D01*
X239915544Y-72800679D01*
X239822212Y-72575356D01*
X239822210Y-72575353D01*
X239822208Y-72575348D01*
X239700272Y-72364151D01*
X239700268Y-72364144D01*
X239551799Y-72170655D01*
X239551794Y-72170649D01*
X239379350Y-71998205D01*
X239379343Y-71998199D01*
X239185864Y-71849738D01*
X239185862Y-71849736D01*
X239185856Y-71849732D01*
X239185851Y-71849729D01*
X239185848Y-71849727D01*
X238974651Y-71727791D01*
X238974640Y-71727786D01*
X238749330Y-71634459D01*
X238749323Y-71634457D01*
X238749321Y-71634456D01*
X238513744Y-71571334D01*
X238473333Y-71566013D01*
X238271951Y-71539500D01*
X238271944Y-71539500D01*
X238028056Y-71539500D01*
X238028048Y-71539500D01*
X237797896Y-71569801D01*
X237786256Y-71571334D01*
X237681220Y-71599478D01*
X237550679Y-71634456D01*
X237550669Y-71634459D01*
X237325359Y-71727786D01*
X237325348Y-71727791D01*
X237114151Y-71849727D01*
X237114135Y-71849738D01*
X236920656Y-71998199D01*
X236920649Y-71998205D01*
X236748205Y-72170649D01*
X236748199Y-72170656D01*
X236599738Y-72364135D01*
X236599727Y-72364151D01*
X236477791Y-72575348D01*
X236477786Y-72575359D01*
X236384459Y-72800669D01*
X236384456Y-72800679D01*
X236321335Y-73036253D01*
X236321333Y-73036264D01*
X236289500Y-73278048D01*
X236289500Y-74041951D01*
X213310499Y-74041951D01*
X213310500Y-74041944D01*
X213310500Y-73278056D01*
X213278666Y-73036256D01*
X213215544Y-72800679D01*
X213122212Y-72575356D01*
X213122210Y-72575353D01*
X213122208Y-72575348D01*
X213000272Y-72364151D01*
X213000268Y-72364144D01*
X212851799Y-72170655D01*
X212851794Y-72170649D01*
X212679350Y-71998205D01*
X212679343Y-71998199D01*
X212485864Y-71849738D01*
X212485862Y-71849736D01*
X212485856Y-71849732D01*
X212485851Y-71849729D01*
X212485848Y-71849727D01*
X212274651Y-71727791D01*
X212274640Y-71727786D01*
X212049330Y-71634459D01*
X212049323Y-71634457D01*
X212049321Y-71634456D01*
X211813744Y-71571334D01*
X211773333Y-71566013D01*
X211571951Y-71539500D01*
X211571944Y-71539500D01*
X211328056Y-71539500D01*
X211328048Y-71539500D01*
X211097896Y-71569801D01*
X211086256Y-71571334D01*
X210981220Y-71599478D01*
X210850679Y-71634456D01*
X210850669Y-71634459D01*
X210625359Y-71727786D01*
X210625348Y-71727791D01*
X210414151Y-71849727D01*
X210414135Y-71849738D01*
X210220656Y-71998199D01*
X210220649Y-71998205D01*
X210048205Y-72170649D01*
X210048199Y-72170656D01*
X209899738Y-72364135D01*
X209899727Y-72364151D01*
X209777791Y-72575348D01*
X209777786Y-72575359D01*
X209684459Y-72800669D01*
X209684456Y-72800679D01*
X209621335Y-73036253D01*
X209621333Y-73036264D01*
X209589500Y-73278048D01*
X209589500Y-74041951D01*
X207300500Y-74041951D01*
X207300500Y-72169059D01*
X207300501Y-72169046D01*
X207300501Y-72000945D01*
X207300501Y-72000943D01*
X207259577Y-71848215D01*
X207230639Y-71798095D01*
X207180520Y-71711284D01*
X207068716Y-71599480D01*
X207068715Y-71599479D01*
X207064385Y-71595149D01*
X207064374Y-71595139D01*
X196067590Y-60598355D01*
X196067588Y-60598352D01*
X195948717Y-60479481D01*
X195948716Y-60479480D01*
X195861904Y-60429360D01*
X195861904Y-60429359D01*
X195861900Y-60429358D01*
X195811785Y-60400423D01*
X195659057Y-60359499D01*
X195500943Y-60359499D01*
X195493347Y-60359499D01*
X195493331Y-60359500D01*
X176830097Y-60359500D01*
X176763058Y-60339815D01*
X176742416Y-60323181D01*
X175747590Y-59328355D01*
X175747588Y-59328352D01*
X175651417Y-59232181D01*
X175617932Y-59170858D01*
X175622916Y-59101166D01*
X175664788Y-59045233D01*
X175730252Y-59020816D01*
X175739098Y-59020500D01*
X209249903Y-59020500D01*
X209316942Y-59040185D01*
X209337583Y-59056818D01*
X218071284Y-67790520D01*
X218071286Y-67790521D01*
X218071290Y-67790524D01*
X218208209Y-67869573D01*
X218208216Y-67869577D01*
X218360943Y-67910501D01*
X218360945Y-67910501D01*
X218526654Y-67910501D01*
X218526670Y-67910500D01*
X240999903Y-67910500D01*
X241066942Y-67930185D01*
X241087584Y-67946819D01*
X242263181Y-69122416D01*
X242296666Y-69183739D01*
X242299500Y-69210097D01*
X242299500Y-79818655D01*
X242279815Y-79885694D01*
X242234519Y-79927709D01*
X242131376Y-79983528D01*
X242131372Y-79983530D01*
X241954023Y-80121567D01*
X241889029Y-80147209D01*
X241820489Y-80133642D01*
X241770164Y-80085174D01*
X241761679Y-80067045D01*
X241743355Y-80017915D01*
X241743350Y-80017906D01*
X241657190Y-79902812D01*
X241657187Y-79902809D01*
X241542093Y-79816649D01*
X241542086Y-79816645D01*
X241407379Y-79766403D01*
X241407372Y-79766401D01*
X241347844Y-79760000D01*
X240650000Y-79760000D01*
X240650000Y-80726988D01*
X240592993Y-80694075D01*
X240465826Y-80660000D01*
X240334174Y-80660000D01*
X240207007Y-80694075D01*
X240150000Y-80726988D01*
X240150000Y-79760000D01*
X239452155Y-79760000D01*
X239392627Y-79766401D01*
X239392620Y-79766403D01*
X239257913Y-79816645D01*
X239257906Y-79816649D01*
X239142812Y-79902809D01*
X239142809Y-79902812D01*
X239056649Y-80017906D01*
X239056645Y-80017913D01*
X239006403Y-80152620D01*
X239006401Y-80152627D01*
X239000000Y-80212155D01*
X239000000Y-80910000D01*
X239966988Y-80910000D01*
X239934075Y-80967007D01*
X239900000Y-81094174D01*
X239900000Y-81225826D01*
X239934075Y-81352993D01*
X239966988Y-81410000D01*
X239000000Y-81410000D01*
X239000000Y-82107844D01*
X239006401Y-82167372D01*
X239006403Y-82167379D01*
X239056645Y-82302086D01*
X239056649Y-82302093D01*
X239142809Y-82417187D01*
X239142812Y-82417190D01*
X239257906Y-82503350D01*
X239257913Y-82503354D01*
X239310859Y-82523102D01*
X239366793Y-82564973D01*
X239391210Y-82630438D01*
X239376358Y-82698711D01*
X239358757Y-82723265D01*
X239291021Y-82796847D01*
X239291019Y-82796848D01*
X239291016Y-82796853D01*
X239164075Y-82991151D01*
X239070842Y-83203699D01*
X239013866Y-83428691D01*
X239013864Y-83428702D01*
X238994700Y-83659993D01*
X238994700Y-83660006D01*
X239013864Y-83891297D01*
X239013866Y-83891308D01*
X239070842Y-84116300D01*
X239164075Y-84328848D01*
X239291016Y-84523147D01*
X239291019Y-84523151D01*
X239291021Y-84523153D01*
X239448216Y-84693913D01*
X239448219Y-84693915D01*
X239448222Y-84693918D01*
X239631365Y-84836464D01*
X239631371Y-84836468D01*
X239631374Y-84836470D01*
X239835497Y-84946936D01*
X239949487Y-84986068D01*
X240055015Y-85022297D01*
X240055017Y-85022297D01*
X240055019Y-85022298D01*
X240283951Y-85060500D01*
X240283952Y-85060500D01*
X240516048Y-85060500D01*
X240516049Y-85060500D01*
X240744981Y-85022298D01*
X240964503Y-84946936D01*
X241168626Y-84836470D01*
X241351784Y-84693913D01*
X241508979Y-84523153D01*
X241546191Y-84466196D01*
X241599337Y-84420839D01*
X241668569Y-84411415D01*
X241731904Y-84440917D01*
X241753809Y-84466196D01*
X241791016Y-84523147D01*
X241791019Y-84523151D01*
X241791021Y-84523153D01*
X241948216Y-84693913D01*
X241948219Y-84693915D01*
X241948222Y-84693918D01*
X242131365Y-84836464D01*
X242131371Y-84836468D01*
X242131374Y-84836470D01*
X242335497Y-84946936D01*
X242449487Y-84986068D01*
X242555015Y-85022297D01*
X242555017Y-85022297D01*
X242555019Y-85022298D01*
X242783951Y-85060500D01*
X242783952Y-85060500D01*
X243016048Y-85060500D01*
X243016049Y-85060500D01*
X243244981Y-85022298D01*
X243464503Y-84946936D01*
X243668626Y-84836470D01*
X243851784Y-84693913D01*
X244008979Y-84523153D01*
X244046191Y-84466196D01*
X244099337Y-84420839D01*
X244168569Y-84411415D01*
X244231904Y-84440917D01*
X244253809Y-84466196D01*
X244291016Y-84523147D01*
X244291019Y-84523151D01*
X244291021Y-84523153D01*
X244448216Y-84693913D01*
X244448219Y-84693915D01*
X244448222Y-84693918D01*
X244631365Y-84836464D01*
X244631371Y-84836468D01*
X244631374Y-84836470D01*
X244835497Y-84946936D01*
X244949487Y-84986068D01*
X245055015Y-85022297D01*
X245055017Y-85022297D01*
X245055019Y-85022298D01*
X245283951Y-85060500D01*
X245283952Y-85060500D01*
X245516048Y-85060500D01*
X245516049Y-85060500D01*
X245744981Y-85022298D01*
X245964503Y-84946936D01*
X246168626Y-84836470D01*
X246351784Y-84693913D01*
X246508979Y-84523153D01*
X246635924Y-84328849D01*
X246729157Y-84116300D01*
X246786134Y-83891305D01*
X246805300Y-83660000D01*
X246805300Y-83659993D01*
X246786135Y-83428702D01*
X246786133Y-83428691D01*
X246729157Y-83203699D01*
X246635924Y-82991151D01*
X246508983Y-82796852D01*
X246508980Y-82796849D01*
X246508979Y-82796847D01*
X246351784Y-82626087D01*
X246199876Y-82507852D01*
X246159064Y-82451143D01*
X246155389Y-82381370D01*
X246190020Y-82320687D01*
X246199876Y-82312147D01*
X246351784Y-82193913D01*
X246508979Y-82023153D01*
X246635924Y-81828849D01*
X246729157Y-81616300D01*
X246786134Y-81391305D01*
X246805300Y-81160000D01*
X246805300Y-81159993D01*
X246786135Y-80928702D01*
X246786133Y-80928691D01*
X246729157Y-80703699D01*
X246635924Y-80491151D01*
X246508983Y-80296852D01*
X246508980Y-80296849D01*
X246508979Y-80296847D01*
X246351784Y-80126087D01*
X246351779Y-80126083D01*
X246351777Y-80126081D01*
X246168634Y-79983535D01*
X246168628Y-79983531D01*
X245964504Y-79873064D01*
X245964495Y-79873061D01*
X245744984Y-79797702D01*
X245573282Y-79769050D01*
X245516049Y-79759500D01*
X245283951Y-79759500D01*
X245242596Y-79766401D01*
X245055015Y-79797702D01*
X244835504Y-79873061D01*
X244835495Y-79873064D01*
X244631371Y-79983531D01*
X244631365Y-79983535D01*
X244448222Y-80126081D01*
X244448219Y-80126084D01*
X244448216Y-80126086D01*
X244448216Y-80126087D01*
X244423785Y-80152627D01*
X244291015Y-80296854D01*
X244253808Y-80353804D01*
X244200662Y-80399161D01*
X244131430Y-80408584D01*
X244068095Y-80379082D01*
X244046192Y-80353804D01*
X244008984Y-80296854D01*
X244008982Y-80296852D01*
X244008979Y-80296847D01*
X243851784Y-80126087D01*
X243851779Y-80126083D01*
X243851777Y-80126081D01*
X243668634Y-79983535D01*
X243668623Y-79983528D01*
X243565481Y-79927709D01*
X243515891Y-79878489D01*
X243500500Y-79818655D01*
X243500500Y-74041951D01*
X245789500Y-74041951D01*
X245816013Y-74243333D01*
X245821334Y-74283744D01*
X245821335Y-74283746D01*
X245884456Y-74519320D01*
X245884459Y-74519330D01*
X245977786Y-74744640D01*
X245977791Y-74744651D01*
X246099727Y-74955848D01*
X246099738Y-74955864D01*
X246248199Y-75149343D01*
X246248205Y-75149350D01*
X246420649Y-75321794D01*
X246420655Y-75321799D01*
X246614144Y-75470268D01*
X246614151Y-75470272D01*
X246825348Y-75592208D01*
X246825353Y-75592210D01*
X246825356Y-75592212D01*
X246967437Y-75651064D01*
X247011602Y-75669358D01*
X247050679Y-75685544D01*
X247286256Y-75748666D01*
X247528056Y-75780500D01*
X247528063Y-75780500D01*
X247771937Y-75780500D01*
X247771944Y-75780500D01*
X248013744Y-75748666D01*
X248249321Y-75685544D01*
X248474644Y-75592212D01*
X248685856Y-75470268D01*
X248879345Y-75321799D01*
X249051799Y-75149345D01*
X249200268Y-74955856D01*
X249322212Y-74744644D01*
X249415544Y-74519321D01*
X249478666Y-74283744D01*
X249510500Y-74041944D01*
X249510500Y-73278056D01*
X249478666Y-73036256D01*
X249415544Y-72800679D01*
X249322212Y-72575356D01*
X249322210Y-72575353D01*
X249322208Y-72575348D01*
X249200272Y-72364151D01*
X249200268Y-72364144D01*
X249051799Y-72170655D01*
X249051794Y-72170649D01*
X248879350Y-71998205D01*
X248879343Y-71998199D01*
X248685864Y-71849738D01*
X248685862Y-71849736D01*
X248685856Y-71849732D01*
X248685851Y-71849729D01*
X248685848Y-71849727D01*
X248474651Y-71727791D01*
X248474640Y-71727786D01*
X248249330Y-71634459D01*
X248249323Y-71634457D01*
X248249321Y-71634456D01*
X248013744Y-71571334D01*
X247973333Y-71566013D01*
X247771951Y-71539500D01*
X247771944Y-71539500D01*
X247528056Y-71539500D01*
X247528048Y-71539500D01*
X247297896Y-71569801D01*
X247286256Y-71571334D01*
X247181220Y-71599478D01*
X247050679Y-71634456D01*
X247050669Y-71634459D01*
X246825359Y-71727786D01*
X246825348Y-71727791D01*
X246614151Y-71849727D01*
X246614135Y-71849738D01*
X246420656Y-71998199D01*
X246420649Y-71998205D01*
X246248205Y-72170649D01*
X246248199Y-72170656D01*
X246099738Y-72364135D01*
X246099727Y-72364151D01*
X245977791Y-72575348D01*
X245977786Y-72575359D01*
X245884459Y-72800669D01*
X245884456Y-72800679D01*
X245821335Y-73036253D01*
X245821333Y-73036264D01*
X245789500Y-73278048D01*
X245789500Y-74041951D01*
X243500500Y-74041951D01*
X243500500Y-68999060D01*
X243500501Y-68999047D01*
X243500501Y-68830944D01*
X243459576Y-68678214D01*
X243459573Y-68678209D01*
X243380524Y-68541290D01*
X243380518Y-68541282D01*
X241787590Y-66948355D01*
X241787588Y-66948352D01*
X241668717Y-66829481D01*
X241668716Y-66829480D01*
X241558400Y-66765789D01*
X241558398Y-66765788D01*
X241531785Y-66750423D01*
X241531784Y-66750422D01*
X241531783Y-66750422D01*
X241475881Y-66735443D01*
X241379057Y-66709499D01*
X241220943Y-66709499D01*
X241213347Y-66709499D01*
X241213331Y-66709500D01*
X218740098Y-66709500D01*
X218673059Y-66689815D01*
X218652417Y-66673181D01*
X210037590Y-58058355D01*
X210037588Y-58058352D01*
X209918717Y-57939481D01*
X209918716Y-57939480D01*
X209831904Y-57889360D01*
X209831904Y-57889359D01*
X209831900Y-57889358D01*
X209781785Y-57860423D01*
X209629057Y-57819499D01*
X209470943Y-57819499D01*
X209463347Y-57819499D01*
X209463331Y-57819500D01*
X158836670Y-57819500D01*
X158836654Y-57819499D01*
X158829058Y-57819499D01*
X158670943Y-57819499D01*
X158594579Y-57839961D01*
X158518214Y-57860423D01*
X158518209Y-57860426D01*
X158381290Y-57939475D01*
X158381282Y-57939481D01*
X155934481Y-60386282D01*
X155934479Y-60386285D01*
X155884361Y-60473094D01*
X155884359Y-60473096D01*
X155855425Y-60523209D01*
X155855424Y-60523210D01*
X155855423Y-60523215D01*
X155814499Y-60675943D01*
X155814499Y-60675945D01*
X155814499Y-60844046D01*
X155814500Y-60844059D01*
X155814500Y-61529093D01*
X155794815Y-61596132D01*
X155742011Y-61641887D01*
X155672853Y-61651831D01*
X155627380Y-61635825D01*
X155555400Y-61593257D01*
X155555393Y-61593254D01*
X155397573Y-61547402D01*
X155397567Y-61547401D01*
X155360701Y-61544500D01*
X155360694Y-61544500D01*
X154929306Y-61544500D01*
X154929298Y-61544500D01*
X154892432Y-61547401D01*
X154892426Y-61547402D01*
X154734606Y-61593254D01*
X154734603Y-61593255D01*
X154593137Y-61676917D01*
X154586969Y-61681702D01*
X154585072Y-61679256D01*
X154536358Y-61705857D01*
X154466666Y-61700873D01*
X154434296Y-61680069D01*
X154433031Y-61681702D01*
X154426867Y-61676921D01*
X154426865Y-61676919D01*
X154426861Y-61676916D01*
X154426859Y-61676915D01*
X154408159Y-61665855D01*
X154360477Y-61614785D01*
X154347975Y-61546043D01*
X154374622Y-61481454D01*
X154409281Y-61451739D01*
X154428715Y-61440520D01*
X154540519Y-61328716D01*
X154540519Y-61328714D01*
X154550723Y-61318511D01*
X154550727Y-61318506D01*
X160583505Y-55285727D01*
X160583515Y-55285720D01*
X160593714Y-55275519D01*
X160593716Y-55275519D01*
X160595913Y-55273321D01*
X160628823Y-55250955D01*
X160628682Y-55250716D01*
X160632496Y-55248459D01*
X160634367Y-55247189D01*
X160635384Y-55246747D01*
X160635398Y-55246744D01*
X160776865Y-55163081D01*
X160776869Y-55163076D01*
X160783031Y-55158298D01*
X160784933Y-55160750D01*
X160833579Y-55134155D01*
X160903274Y-55139104D01*
X160935695Y-55159940D01*
X160936969Y-55158298D01*
X160943132Y-55163078D01*
X160943135Y-55163081D01*
X161084602Y-55246744D01*
X161102793Y-55252029D01*
X161242426Y-55292597D01*
X161242429Y-55292597D01*
X161242431Y-55292598D01*
X161279306Y-55295500D01*
X161279314Y-55295500D01*
X161710686Y-55295500D01*
X161710694Y-55295500D01*
X161747569Y-55292598D01*
X161747571Y-55292597D01*
X161747573Y-55292597D01*
X161806355Y-55275519D01*
X161905398Y-55246744D01*
X162046865Y-55163081D01*
X162163081Y-55046865D01*
X162246744Y-54905398D01*
X162292598Y-54747569D01*
X162295500Y-54710694D01*
X162295500Y-54064500D01*
X162315185Y-53997461D01*
X162367989Y-53951706D01*
X162419500Y-53940500D01*
X163247588Y-53940500D01*
X163314627Y-53960185D01*
X163324903Y-53967555D01*
X163327736Y-53969814D01*
X163327738Y-53969816D01*
X163390895Y-54009500D01*
X163478426Y-54064500D01*
X163480478Y-54065789D01*
X163650745Y-54125368D01*
X163650750Y-54125369D01*
X163829996Y-54145565D01*
X163830000Y-54145565D01*
X163830004Y-54145565D01*
X164009249Y-54125369D01*
X164009252Y-54125368D01*
X164009255Y-54125368D01*
X164179522Y-54065789D01*
X164332262Y-53969816D01*
X164459816Y-53842262D01*
X164555789Y-53689522D01*
X164615368Y-53519255D01*
X164615369Y-53519249D01*
X164635565Y-53340003D01*
X164635565Y-53339996D01*
X164615369Y-53160750D01*
X164615368Y-53160745D01*
X164591056Y-53091265D01*
X164555789Y-52990478D01*
X164459816Y-52837738D01*
X164332262Y-52710184D01*
X164273616Y-52673334D01*
X164179523Y-52614211D01*
X164009254Y-52554631D01*
X164009249Y-52554630D01*
X163830004Y-52534435D01*
X163829996Y-52534435D01*
X163650750Y-52554630D01*
X163650745Y-52554631D01*
X163480476Y-52614211D01*
X163327736Y-52710185D01*
X163324903Y-52712445D01*
X163322724Y-52713334D01*
X163321842Y-52713889D01*
X163321744Y-52713734D01*
X163260217Y-52738855D01*
X163247588Y-52739500D01*
X162370322Y-52739500D01*
X162303283Y-52719815D01*
X162257528Y-52667011D01*
X162251246Y-52650096D01*
X162246745Y-52634605D01*
X162246744Y-52634603D01*
X162246744Y-52634602D01*
X162163081Y-52493135D01*
X162163079Y-52493133D01*
X162163076Y-52493129D01*
X162046870Y-52376923D01*
X162046862Y-52376917D01*
X161905396Y-52293255D01*
X161905393Y-52293254D01*
X161747573Y-52247402D01*
X161747567Y-52247401D01*
X161710701Y-52244500D01*
X161710694Y-52244500D01*
X161279306Y-52244500D01*
X161279298Y-52244500D01*
X161242432Y-52247401D01*
X161242426Y-52247402D01*
X161084606Y-52293254D01*
X161084603Y-52293255D01*
X160943137Y-52376917D01*
X160936969Y-52381702D01*
X160935072Y-52379256D01*
X160886358Y-52405857D01*
X160816666Y-52400873D01*
X160784296Y-52380069D01*
X160783031Y-52381702D01*
X160776862Y-52376917D01*
X160635396Y-52293255D01*
X160635393Y-52293253D01*
X160542742Y-52266336D01*
X160483856Y-52228730D01*
X160454650Y-52165257D01*
X160464396Y-52096071D01*
X160489653Y-52059582D01*
X161112418Y-51436819D01*
X161173741Y-51403334D01*
X161200099Y-51400500D01*
X189143331Y-51400500D01*
X189143347Y-51400501D01*
X189150943Y-51400501D01*
X189309054Y-51400501D01*
X189309057Y-51400501D01*
X189461785Y-51359577D01*
X189511904Y-51330639D01*
X189598716Y-51280520D01*
X189710520Y-51168716D01*
X189710520Y-51168714D01*
X189720728Y-51158507D01*
X189720729Y-51158504D01*
X199602417Y-41276819D01*
X199663740Y-41243334D01*
X199690098Y-41240500D01*
X205439903Y-41240500D01*
X205506942Y-41260185D01*
X205527584Y-41276819D01*
X206063181Y-41812416D01*
X206096666Y-41873739D01*
X206099500Y-41900097D01*
X206099500Y-42503655D01*
X206079815Y-42570694D01*
X206034519Y-42612709D01*
X205931376Y-42668528D01*
X205931372Y-42668530D01*
X205754023Y-42806567D01*
X205689029Y-42832209D01*
X205620489Y-42818642D01*
X205570164Y-42770174D01*
X205561679Y-42752045D01*
X205543355Y-42702915D01*
X205543350Y-42702906D01*
X205457190Y-42587812D01*
X205457187Y-42587809D01*
X205342093Y-42501649D01*
X205342086Y-42501645D01*
X205207379Y-42451403D01*
X205207372Y-42451401D01*
X205147844Y-42445000D01*
X204450000Y-42445000D01*
X204450000Y-43411988D01*
X204392993Y-43379075D01*
X204265826Y-43345000D01*
X204134174Y-43345000D01*
X204007007Y-43379075D01*
X203950000Y-43411988D01*
X203950000Y-42445000D01*
X203252155Y-42445000D01*
X203192627Y-42451401D01*
X203192620Y-42451403D01*
X203057913Y-42501645D01*
X203057906Y-42501649D01*
X202942812Y-42587809D01*
X202942809Y-42587812D01*
X202856649Y-42702906D01*
X202856645Y-42702913D01*
X202806403Y-42837620D01*
X202806401Y-42837627D01*
X202800000Y-42897155D01*
X202800000Y-43595000D01*
X203766988Y-43595000D01*
X203734075Y-43652007D01*
X203700000Y-43779174D01*
X203700000Y-43910826D01*
X203734075Y-44037993D01*
X203766988Y-44095000D01*
X202800000Y-44095000D01*
X202800000Y-44792844D01*
X202806401Y-44852372D01*
X202806403Y-44852379D01*
X202856645Y-44987086D01*
X202856649Y-44987093D01*
X202942809Y-45102187D01*
X202942812Y-45102190D01*
X203057906Y-45188350D01*
X203057913Y-45188354D01*
X203110859Y-45208102D01*
X203166793Y-45249973D01*
X203191210Y-45315438D01*
X203176358Y-45383711D01*
X203158757Y-45408265D01*
X203091021Y-45481847D01*
X203091019Y-45481848D01*
X203091016Y-45481853D01*
X202964075Y-45676151D01*
X202870842Y-45888699D01*
X202813866Y-46113691D01*
X202813864Y-46113702D01*
X202794700Y-46344993D01*
X202794700Y-46345006D01*
X202813864Y-46576297D01*
X202813866Y-46576308D01*
X202870842Y-46801300D01*
X202964075Y-47013848D01*
X203091016Y-47208147D01*
X203091019Y-47208151D01*
X203091021Y-47208153D01*
X203248216Y-47378913D01*
X203248219Y-47378915D01*
X203248222Y-47378918D01*
X203431365Y-47521464D01*
X203431371Y-47521468D01*
X203431374Y-47521470D01*
X203510203Y-47564130D01*
X203632259Y-47630184D01*
X203635497Y-47631936D01*
X203749487Y-47671068D01*
X203855015Y-47707297D01*
X203855017Y-47707297D01*
X203855019Y-47707298D01*
X204083951Y-47745500D01*
X204083952Y-47745500D01*
X204316048Y-47745500D01*
X204316049Y-47745500D01*
X204544981Y-47707298D01*
X204764503Y-47631936D01*
X204968626Y-47521470D01*
X205151784Y-47378913D01*
X205308979Y-47208153D01*
X205346191Y-47151196D01*
X205399337Y-47105839D01*
X205468569Y-47096415D01*
X205531904Y-47125917D01*
X205553809Y-47151196D01*
X205591016Y-47208147D01*
X205591019Y-47208151D01*
X205591021Y-47208153D01*
X205748216Y-47378913D01*
X205748219Y-47378915D01*
X205748222Y-47378918D01*
X205931365Y-47521464D01*
X205931371Y-47521468D01*
X205931374Y-47521470D01*
X206010203Y-47564130D01*
X206132259Y-47630184D01*
X206135497Y-47631936D01*
X206249487Y-47671068D01*
X206355015Y-47707297D01*
X206355017Y-47707297D01*
X206355019Y-47707298D01*
X206583951Y-47745500D01*
X206583952Y-47745500D01*
X206816048Y-47745500D01*
X206816049Y-47745500D01*
X207044981Y-47707298D01*
X207264503Y-47631936D01*
X207468626Y-47521470D01*
X207651784Y-47378913D01*
X207808979Y-47208153D01*
X207846191Y-47151196D01*
X207899337Y-47105839D01*
X207968569Y-47096415D01*
X208031904Y-47125917D01*
X208053809Y-47151196D01*
X208091016Y-47208147D01*
X208091019Y-47208151D01*
X208091021Y-47208153D01*
X208248216Y-47378913D01*
X208248219Y-47378915D01*
X208248222Y-47378918D01*
X208431365Y-47521464D01*
X208431371Y-47521468D01*
X208431374Y-47521470D01*
X208510203Y-47564130D01*
X208632259Y-47630184D01*
X208635497Y-47631936D01*
X208749487Y-47671068D01*
X208855015Y-47707297D01*
X208855017Y-47707297D01*
X208855019Y-47707298D01*
X209083951Y-47745500D01*
X209083952Y-47745500D01*
X209316048Y-47745500D01*
X209316049Y-47745500D01*
X209544981Y-47707298D01*
X209764503Y-47631936D01*
X209968626Y-47521470D01*
X210151784Y-47378913D01*
X210308979Y-47208153D01*
X210435924Y-47013849D01*
X210529157Y-46801300D01*
X210586134Y-46576305D01*
X210586135Y-46576297D01*
X210605300Y-46345006D01*
X210605300Y-46344993D01*
X210586135Y-46113702D01*
X210586133Y-46113691D01*
X210529157Y-45888699D01*
X210435924Y-45676151D01*
X210308983Y-45481852D01*
X210308980Y-45481849D01*
X210308979Y-45481847D01*
X210151784Y-45311087D01*
X209999876Y-45192852D01*
X209959064Y-45136143D01*
X209955389Y-45066370D01*
X209990020Y-45005687D01*
X209999876Y-44997147D01*
X210151784Y-44878913D01*
X210308979Y-44708153D01*
X210435924Y-44513849D01*
X210529157Y-44301300D01*
X210586134Y-44076305D01*
X210605300Y-43845000D01*
X210605300Y-43844993D01*
X210586135Y-43613702D01*
X210586133Y-43613691D01*
X210529157Y-43388699D01*
X210435924Y-43176151D01*
X210308983Y-42981852D01*
X210308980Y-42981849D01*
X210308979Y-42981847D01*
X210151784Y-42811087D01*
X210151779Y-42811083D01*
X210151777Y-42811081D01*
X209968634Y-42668535D01*
X209968628Y-42668531D01*
X209764504Y-42558064D01*
X209764495Y-42558061D01*
X209544984Y-42482702D01*
X209357404Y-42451401D01*
X209316049Y-42444500D01*
X209083951Y-42444500D01*
X209042596Y-42451401D01*
X208855015Y-42482702D01*
X208635504Y-42558061D01*
X208635495Y-42558064D01*
X208431371Y-42668531D01*
X208431365Y-42668535D01*
X208248222Y-42811081D01*
X208248219Y-42811084D01*
X208248216Y-42811086D01*
X208248216Y-42811087D01*
X208223785Y-42837627D01*
X208091015Y-42981854D01*
X208053808Y-43038804D01*
X208000662Y-43084161D01*
X207931430Y-43093584D01*
X207868095Y-43064082D01*
X207846192Y-43038804D01*
X207808984Y-42981854D01*
X207808982Y-42981852D01*
X207808979Y-42981847D01*
X207651784Y-42811087D01*
X207651779Y-42811083D01*
X207651777Y-42811081D01*
X207468634Y-42668535D01*
X207468623Y-42668528D01*
X207365481Y-42612709D01*
X207315891Y-42563489D01*
X207300500Y-42503655D01*
X207300500Y-41689059D01*
X207300501Y-41689046D01*
X207300501Y-41520945D01*
X207300501Y-41520943D01*
X207259577Y-41368215D01*
X207225677Y-41309499D01*
X207180520Y-41231284D01*
X207068716Y-41119480D01*
X207068715Y-41119479D01*
X207064385Y-41115149D01*
X207064374Y-41115139D01*
X206227590Y-40278355D01*
X206227588Y-40278352D01*
X206108717Y-40159481D01*
X206108716Y-40159480D01*
X206021904Y-40109360D01*
X206021904Y-40109359D01*
X206021900Y-40109358D01*
X205971785Y-40080423D01*
X205819057Y-40039499D01*
X205660943Y-40039499D01*
X205653347Y-40039499D01*
X205653331Y-40039500D01*
X199476670Y-40039500D01*
X199476654Y-40039499D01*
X199469058Y-40039499D01*
X199310943Y-40039499D01*
X199158215Y-40080423D01*
X199158213Y-40080423D01*
X199158213Y-40080424D01*
X199021281Y-40159482D01*
X189017584Y-50163181D01*
X188956261Y-50196666D01*
X188929903Y-50199500D01*
X160986671Y-50199500D01*
X160986655Y-50199499D01*
X160979059Y-50199499D01*
X160820944Y-50199499D01*
X160668216Y-50240423D01*
X160538408Y-50315368D01*
X160531282Y-50319482D01*
X158586286Y-52264479D01*
X158586266Y-52264499D01*
X158584062Y-52266702D01*
X158551174Y-52289049D01*
X158551315Y-52289286D01*
X158547547Y-52291513D01*
X158545658Y-52292798D01*
X158544607Y-52293252D01*
X158472620Y-52335825D01*
X158404896Y-52353006D01*
X158338634Y-52330846D01*
X158294871Y-52276380D01*
X158285500Y-52229092D01*
X158285500Y-43275097D01*
X158305185Y-43208058D01*
X158321819Y-43187416D01*
X160232417Y-41276819D01*
X160293740Y-41243334D01*
X160320098Y-41240500D01*
X168609903Y-41240500D01*
X168676942Y-41260185D01*
X168697584Y-41276819D01*
X169846024Y-42425259D01*
X169879509Y-42486582D01*
X169874525Y-42556274D01*
X169832653Y-42612207D01*
X169817362Y-42621994D01*
X169731376Y-42668528D01*
X169731372Y-42668530D01*
X169554023Y-42806567D01*
X169489029Y-42832209D01*
X169420489Y-42818642D01*
X169370164Y-42770174D01*
X169361679Y-42752045D01*
X169343355Y-42702915D01*
X169343350Y-42702906D01*
X169257190Y-42587812D01*
X169257187Y-42587809D01*
X169142093Y-42501649D01*
X169142086Y-42501645D01*
X169007379Y-42451403D01*
X169007372Y-42451401D01*
X168947844Y-42445000D01*
X168250000Y-42445000D01*
X168250000Y-43411988D01*
X168192993Y-43379075D01*
X168065826Y-43345000D01*
X167934174Y-43345000D01*
X167807007Y-43379075D01*
X167750000Y-43411988D01*
X167750000Y-42445000D01*
X167052155Y-42445000D01*
X166992627Y-42451401D01*
X166992620Y-42451403D01*
X166857913Y-42501645D01*
X166857906Y-42501649D01*
X166742812Y-42587809D01*
X166742809Y-42587812D01*
X166656649Y-42702906D01*
X166656645Y-42702913D01*
X166606403Y-42837620D01*
X166606401Y-42837627D01*
X166600000Y-42897155D01*
X166600000Y-43595000D01*
X167566988Y-43595000D01*
X167534075Y-43652007D01*
X167500000Y-43779174D01*
X167500000Y-43910826D01*
X167534075Y-44037993D01*
X167566988Y-44095000D01*
X166600000Y-44095000D01*
X166600000Y-44792844D01*
X166606401Y-44852372D01*
X166606403Y-44852379D01*
X166656645Y-44987086D01*
X166656649Y-44987093D01*
X166742809Y-45102187D01*
X166742812Y-45102190D01*
X166857906Y-45188350D01*
X166857913Y-45188354D01*
X166910859Y-45208102D01*
X166966793Y-45249973D01*
X166991210Y-45315438D01*
X166976358Y-45383711D01*
X166958757Y-45408265D01*
X166891021Y-45481847D01*
X166891019Y-45481848D01*
X166891016Y-45481853D01*
X166764075Y-45676151D01*
X166670842Y-45888699D01*
X166613866Y-46113691D01*
X166613864Y-46113702D01*
X166594700Y-46344993D01*
X166594700Y-46345006D01*
X166613864Y-46576297D01*
X166613866Y-46576308D01*
X166670842Y-46801300D01*
X166764075Y-47013848D01*
X166891016Y-47208147D01*
X166891019Y-47208151D01*
X166891021Y-47208153D01*
X167048216Y-47378913D01*
X167048219Y-47378915D01*
X167048222Y-47378918D01*
X167231365Y-47521464D01*
X167231371Y-47521468D01*
X167231374Y-47521470D01*
X167310203Y-47564130D01*
X167432259Y-47630184D01*
X167435497Y-47631936D01*
X167549487Y-47671068D01*
X167655015Y-47707297D01*
X167655017Y-47707297D01*
X167655019Y-47707298D01*
X167883951Y-47745500D01*
X167883952Y-47745500D01*
X168116048Y-47745500D01*
X168116049Y-47745500D01*
X168344981Y-47707298D01*
X168564503Y-47631936D01*
X168768626Y-47521470D01*
X168951784Y-47378913D01*
X169108979Y-47208153D01*
X169146191Y-47151196D01*
X169199337Y-47105839D01*
X169268569Y-47096415D01*
X169331904Y-47125917D01*
X169353809Y-47151196D01*
X169391016Y-47208147D01*
X169391019Y-47208151D01*
X169391021Y-47208153D01*
X169548216Y-47378913D01*
X169548219Y-47378915D01*
X169548222Y-47378918D01*
X169731365Y-47521464D01*
X169731371Y-47521468D01*
X169731374Y-47521470D01*
X169810203Y-47564130D01*
X169932259Y-47630184D01*
X169935497Y-47631936D01*
X170049487Y-47671068D01*
X170155015Y-47707297D01*
X170155017Y-47707297D01*
X170155019Y-47707298D01*
X170383951Y-47745500D01*
X170383952Y-47745500D01*
X170616048Y-47745500D01*
X170616049Y-47745500D01*
X170844981Y-47707298D01*
X171064503Y-47631936D01*
X171268626Y-47521470D01*
X171451784Y-47378913D01*
X171608979Y-47208153D01*
X171646191Y-47151196D01*
X171699337Y-47105839D01*
X171768569Y-47096415D01*
X171831904Y-47125917D01*
X171853809Y-47151196D01*
X171891016Y-47208147D01*
X171891019Y-47208151D01*
X171891021Y-47208153D01*
X172048216Y-47378913D01*
X172048219Y-47378915D01*
X172048222Y-47378918D01*
X172231365Y-47521464D01*
X172231371Y-47521468D01*
X172231374Y-47521470D01*
X172310203Y-47564130D01*
X172432259Y-47630184D01*
X172435497Y-47631936D01*
X172549487Y-47671068D01*
X172655015Y-47707297D01*
X172655017Y-47707297D01*
X172655019Y-47707298D01*
X172883951Y-47745500D01*
X172883952Y-47745500D01*
X173116048Y-47745500D01*
X173116049Y-47745500D01*
X173344981Y-47707298D01*
X173564503Y-47631936D01*
X173768626Y-47521470D01*
X173951784Y-47378913D01*
X174108979Y-47208153D01*
X174235924Y-47013849D01*
X174329157Y-46801300D01*
X174386134Y-46576305D01*
X174386135Y-46576297D01*
X174405300Y-46345006D01*
X174405300Y-46344993D01*
X174386135Y-46113702D01*
X174386133Y-46113691D01*
X174329157Y-45888699D01*
X174235924Y-45676151D01*
X174108983Y-45481852D01*
X174108980Y-45481849D01*
X174108979Y-45481847D01*
X173951784Y-45311087D01*
X173799876Y-45192852D01*
X173759064Y-45136143D01*
X173755389Y-45066370D01*
X173790020Y-45005687D01*
X173799876Y-44997147D01*
X173951784Y-44878913D01*
X174108979Y-44708153D01*
X174235924Y-44513849D01*
X174329157Y-44301300D01*
X174386134Y-44076305D01*
X174405300Y-43845000D01*
X174405300Y-43844993D01*
X174386135Y-43613702D01*
X174386133Y-43613691D01*
X174329157Y-43388699D01*
X174235924Y-43176151D01*
X174108983Y-42981852D01*
X174108980Y-42981849D01*
X174108979Y-42981847D01*
X173951784Y-42811087D01*
X173951779Y-42811083D01*
X173951777Y-42811081D01*
X173768634Y-42668535D01*
X173768628Y-42668531D01*
X173564504Y-42558064D01*
X173564495Y-42558061D01*
X173344984Y-42482702D01*
X173157404Y-42451401D01*
X173116049Y-42444500D01*
X172883951Y-42444500D01*
X172842596Y-42451401D01*
X172655015Y-42482702D01*
X172435504Y-42558061D01*
X172435495Y-42558064D01*
X172231371Y-42668531D01*
X172231365Y-42668535D01*
X172048222Y-42811081D01*
X172048219Y-42811084D01*
X172048216Y-42811086D01*
X172048216Y-42811087D01*
X172023785Y-42837627D01*
X171891015Y-42981854D01*
X171853808Y-43038804D01*
X171800662Y-43084161D01*
X171731430Y-43093584D01*
X171668095Y-43064082D01*
X171646192Y-43038804D01*
X171608984Y-42981854D01*
X171608982Y-42981852D01*
X171608979Y-42981847D01*
X171451784Y-42811087D01*
X171451779Y-42811083D01*
X171451777Y-42811081D01*
X171268634Y-42668535D01*
X171268623Y-42668528D01*
X171165481Y-42612709D01*
X171115891Y-42563489D01*
X171100500Y-42503655D01*
X171100500Y-42319060D01*
X171100501Y-42319047D01*
X171100501Y-42150944D01*
X171059576Y-41998214D01*
X171059573Y-41998209D01*
X170980524Y-41861290D01*
X170980518Y-41861282D01*
X169397590Y-40278355D01*
X169397588Y-40278352D01*
X169278717Y-40159481D01*
X169278716Y-40159480D01*
X169191904Y-40109360D01*
X169191904Y-40109359D01*
X169191900Y-40109358D01*
X169141785Y-40080423D01*
X168989057Y-40039499D01*
X168830943Y-40039499D01*
X168823347Y-40039499D01*
X168823331Y-40039500D01*
X160106670Y-40039500D01*
X160106654Y-40039499D01*
X160099058Y-40039499D01*
X159940943Y-40039499D01*
X159864579Y-40059961D01*
X159788214Y-40080423D01*
X159788209Y-40080426D01*
X159651290Y-40159475D01*
X159651282Y-40159481D01*
X157204481Y-42606282D01*
X157204479Y-42606285D01*
X157168544Y-42668528D01*
X157168543Y-42668530D01*
X157125423Y-42743214D01*
X157125423Y-42743215D01*
X157084499Y-42895943D01*
X157084499Y-42895945D01*
X157084499Y-43064046D01*
X157084500Y-43064059D01*
X157084500Y-47985901D01*
X157064815Y-48052940D01*
X157012011Y-48098695D01*
X156942853Y-48108639D01*
X156879297Y-48079614D01*
X156872819Y-48073582D01*
X156779397Y-47980160D01*
X156779374Y-47980139D01*
X154500700Y-45701465D01*
X154467215Y-45640142D01*
X154465163Y-45627686D01*
X154455368Y-45540745D01*
X154395789Y-45370478D01*
X154299816Y-45217738D01*
X154172262Y-45090184D01*
X154134499Y-45066456D01*
X154019523Y-44994211D01*
X153849254Y-44934631D01*
X153849249Y-44934630D01*
X153670004Y-44914435D01*
X153669996Y-44914435D01*
X153490750Y-44934630D01*
X153490742Y-44934632D01*
X153370454Y-44976723D01*
X153300676Y-44980284D01*
X153240048Y-44945555D01*
X153207821Y-44883562D01*
X153205500Y-44859681D01*
X153205500Y-44545097D01*
X153225185Y-44478058D01*
X153241819Y-44457416D01*
X160972284Y-36726951D01*
X163889500Y-36726951D01*
X163916013Y-36928333D01*
X163921334Y-36968744D01*
X163921335Y-36968746D01*
X163984456Y-37204320D01*
X163984459Y-37204330D01*
X164077786Y-37429640D01*
X164077791Y-37429651D01*
X164199727Y-37640848D01*
X164199738Y-37640864D01*
X164348199Y-37834343D01*
X164348205Y-37834350D01*
X164520649Y-38006794D01*
X164520655Y-38006799D01*
X164714144Y-38155268D01*
X164714151Y-38155272D01*
X164925348Y-38277208D01*
X164925353Y-38277210D01*
X164925356Y-38277212D01*
X165150679Y-38370544D01*
X165386256Y-38433666D01*
X165628056Y-38465500D01*
X165628063Y-38465500D01*
X165871937Y-38465500D01*
X165871944Y-38465500D01*
X166113744Y-38433666D01*
X166349321Y-38370544D01*
X166574644Y-38277212D01*
X166785856Y-38155268D01*
X166979345Y-38006799D01*
X167151799Y-37834345D01*
X167300268Y-37640856D01*
X167422212Y-37429644D01*
X167515544Y-37204321D01*
X167578666Y-36968744D01*
X167610499Y-36726951D01*
X173389500Y-36726951D01*
X173416013Y-36928333D01*
X173421334Y-36968744D01*
X173421335Y-36968746D01*
X173484456Y-37204320D01*
X173484459Y-37204330D01*
X173577786Y-37429640D01*
X173577791Y-37429651D01*
X173699727Y-37640848D01*
X173699738Y-37640864D01*
X173848199Y-37834343D01*
X173848205Y-37834350D01*
X174020649Y-38006794D01*
X174020655Y-38006799D01*
X174214144Y-38155268D01*
X174214151Y-38155272D01*
X174425348Y-38277208D01*
X174425353Y-38277210D01*
X174425356Y-38277212D01*
X174650679Y-38370544D01*
X174886256Y-38433666D01*
X175128056Y-38465500D01*
X175128063Y-38465500D01*
X175371937Y-38465500D01*
X175371944Y-38465500D01*
X175613744Y-38433666D01*
X175849321Y-38370544D01*
X176074644Y-38277212D01*
X176285856Y-38155268D01*
X176479345Y-38006799D01*
X176651799Y-37834345D01*
X176800268Y-37640856D01*
X176922212Y-37429644D01*
X177015544Y-37204321D01*
X177078666Y-36968744D01*
X177110499Y-36726951D01*
X200089500Y-36726951D01*
X200116013Y-36928333D01*
X200121334Y-36968744D01*
X200121335Y-36968746D01*
X200184456Y-37204320D01*
X200184459Y-37204330D01*
X200277786Y-37429640D01*
X200277791Y-37429651D01*
X200399727Y-37640848D01*
X200399738Y-37640864D01*
X200548199Y-37834343D01*
X200548205Y-37834350D01*
X200720649Y-38006794D01*
X200720655Y-38006799D01*
X200914144Y-38155268D01*
X200914151Y-38155272D01*
X201125348Y-38277208D01*
X201125353Y-38277210D01*
X201125356Y-38277212D01*
X201350679Y-38370544D01*
X201586256Y-38433666D01*
X201828056Y-38465500D01*
X201828063Y-38465500D01*
X202071937Y-38465500D01*
X202071944Y-38465500D01*
X202313744Y-38433666D01*
X202549321Y-38370544D01*
X202774644Y-38277212D01*
X202985856Y-38155268D01*
X203179345Y-38006799D01*
X203351799Y-37834345D01*
X203500268Y-37640856D01*
X203622212Y-37429644D01*
X203715544Y-37204321D01*
X203778666Y-36968744D01*
X203810499Y-36726951D01*
X209589500Y-36726951D01*
X209616013Y-36928333D01*
X209621334Y-36968744D01*
X209621335Y-36968746D01*
X209684456Y-37204320D01*
X209684459Y-37204330D01*
X209777786Y-37429640D01*
X209777791Y-37429651D01*
X209899727Y-37640848D01*
X209899738Y-37640864D01*
X210048199Y-37834343D01*
X210048205Y-37834350D01*
X210220649Y-38006794D01*
X210220655Y-38006799D01*
X210414144Y-38155268D01*
X210414151Y-38155272D01*
X210625348Y-38277208D01*
X210625353Y-38277210D01*
X210625356Y-38277212D01*
X210850679Y-38370544D01*
X211086256Y-38433666D01*
X211328056Y-38465500D01*
X211328063Y-38465500D01*
X211571937Y-38465500D01*
X211571944Y-38465500D01*
X211813744Y-38433666D01*
X212049321Y-38370544D01*
X212274644Y-38277212D01*
X212485856Y-38155268D01*
X212679345Y-38006799D01*
X212851799Y-37834345D01*
X213000268Y-37640856D01*
X213122212Y-37429644D01*
X213215544Y-37204321D01*
X213278666Y-36968744D01*
X213310500Y-36726944D01*
X213310500Y-35963056D01*
X213278666Y-35721256D01*
X213215544Y-35485679D01*
X213122212Y-35260356D01*
X213122210Y-35260353D01*
X213122208Y-35260348D01*
X213000272Y-35049151D01*
X213000268Y-35049144D01*
X212851799Y-34855655D01*
X212851794Y-34855649D01*
X212679350Y-34683205D01*
X212679343Y-34683199D01*
X212485864Y-34534738D01*
X212485862Y-34534736D01*
X212485856Y-34534732D01*
X212485851Y-34534729D01*
X212485848Y-34534727D01*
X212274651Y-34412791D01*
X212274640Y-34412786D01*
X212049330Y-34319459D01*
X212049323Y-34319457D01*
X212049321Y-34319456D01*
X211813744Y-34256334D01*
X211773333Y-34251013D01*
X211571951Y-34224500D01*
X211571944Y-34224500D01*
X211328056Y-34224500D01*
X211328048Y-34224500D01*
X211097896Y-34254801D01*
X211086256Y-34256334D01*
X210850679Y-34319456D01*
X210850669Y-34319459D01*
X210625359Y-34412786D01*
X210625348Y-34412791D01*
X210414151Y-34534727D01*
X210414135Y-34534738D01*
X210220656Y-34683199D01*
X210220649Y-34683205D01*
X210048205Y-34855649D01*
X210048199Y-34855656D01*
X209899738Y-35049135D01*
X209899727Y-35049151D01*
X209777791Y-35260348D01*
X209777786Y-35260359D01*
X209684459Y-35485669D01*
X209684456Y-35485679D01*
X209621335Y-35721253D01*
X209621333Y-35721264D01*
X209589500Y-35963048D01*
X209589500Y-36726951D01*
X203810499Y-36726951D01*
X203810500Y-36726944D01*
X203810500Y-35963056D01*
X203778666Y-35721256D01*
X203715544Y-35485679D01*
X203622212Y-35260356D01*
X203622210Y-35260353D01*
X203622208Y-35260348D01*
X203500272Y-35049151D01*
X203500268Y-35049144D01*
X203351799Y-34855655D01*
X203351794Y-34855649D01*
X203179350Y-34683205D01*
X203179343Y-34683199D01*
X202985864Y-34534738D01*
X202985862Y-34534736D01*
X202985856Y-34534732D01*
X202985851Y-34534729D01*
X202985848Y-34534727D01*
X202774651Y-34412791D01*
X202774640Y-34412786D01*
X202549330Y-34319459D01*
X202549323Y-34319457D01*
X202549321Y-34319456D01*
X202313744Y-34256334D01*
X202273333Y-34251013D01*
X202071951Y-34224500D01*
X202071944Y-34224500D01*
X201828056Y-34224500D01*
X201828048Y-34224500D01*
X201597896Y-34254801D01*
X201586256Y-34256334D01*
X201350679Y-34319456D01*
X201350669Y-34319459D01*
X201125359Y-34412786D01*
X201125348Y-34412791D01*
X200914151Y-34534727D01*
X200914135Y-34534738D01*
X200720656Y-34683199D01*
X200720649Y-34683205D01*
X200548205Y-34855649D01*
X200548199Y-34855656D01*
X200399738Y-35049135D01*
X200399727Y-35049151D01*
X200277791Y-35260348D01*
X200277786Y-35260359D01*
X200184459Y-35485669D01*
X200184456Y-35485679D01*
X200121335Y-35721253D01*
X200121333Y-35721264D01*
X200089500Y-35963048D01*
X200089500Y-36726951D01*
X177110499Y-36726951D01*
X177110500Y-36726944D01*
X177110500Y-35963056D01*
X177078666Y-35721256D01*
X177015544Y-35485679D01*
X176922212Y-35260356D01*
X176922210Y-35260353D01*
X176922208Y-35260348D01*
X176800272Y-35049151D01*
X176800268Y-35049144D01*
X176651799Y-34855655D01*
X176651794Y-34855649D01*
X176479350Y-34683205D01*
X176479343Y-34683199D01*
X176285864Y-34534738D01*
X176285862Y-34534736D01*
X176285856Y-34534732D01*
X176285851Y-34534729D01*
X176285848Y-34534727D01*
X176074651Y-34412791D01*
X176074640Y-34412786D01*
X175849330Y-34319459D01*
X175849323Y-34319457D01*
X175849321Y-34319456D01*
X175613744Y-34256334D01*
X175573333Y-34251013D01*
X175371951Y-34224500D01*
X175371944Y-34224500D01*
X175128056Y-34224500D01*
X175128048Y-34224500D01*
X174897896Y-34254801D01*
X174886256Y-34256334D01*
X174650679Y-34319456D01*
X174650669Y-34319459D01*
X174425359Y-34412786D01*
X174425348Y-34412791D01*
X174214151Y-34534727D01*
X174214135Y-34534738D01*
X174020656Y-34683199D01*
X174020649Y-34683205D01*
X173848205Y-34855649D01*
X173848199Y-34855656D01*
X173699738Y-35049135D01*
X173699727Y-35049151D01*
X173577791Y-35260348D01*
X173577786Y-35260359D01*
X173484459Y-35485669D01*
X173484456Y-35485679D01*
X173421335Y-35721253D01*
X173421333Y-35721264D01*
X173389500Y-35963048D01*
X173389500Y-36726951D01*
X167610499Y-36726951D01*
X167610500Y-36726944D01*
X167610500Y-35963056D01*
X167578666Y-35721256D01*
X167515544Y-35485679D01*
X167422212Y-35260356D01*
X167422210Y-35260353D01*
X167422208Y-35260348D01*
X167300272Y-35049151D01*
X167300268Y-35049144D01*
X167151799Y-34855655D01*
X167151794Y-34855649D01*
X166979350Y-34683205D01*
X166979343Y-34683199D01*
X166785864Y-34534738D01*
X166785862Y-34534736D01*
X166785856Y-34534732D01*
X166785851Y-34534729D01*
X166785848Y-34534727D01*
X166574651Y-34412791D01*
X166574640Y-34412786D01*
X166349330Y-34319459D01*
X166349323Y-34319457D01*
X166349321Y-34319456D01*
X166113744Y-34256334D01*
X166073333Y-34251013D01*
X165871951Y-34224500D01*
X165871944Y-34224500D01*
X165628056Y-34224500D01*
X165628048Y-34224500D01*
X165397896Y-34254801D01*
X165386256Y-34256334D01*
X165150679Y-34319456D01*
X165150669Y-34319459D01*
X164925359Y-34412786D01*
X164925348Y-34412791D01*
X164714151Y-34534727D01*
X164714135Y-34534738D01*
X164520656Y-34683199D01*
X164520649Y-34683205D01*
X164348205Y-34855649D01*
X164348199Y-34855656D01*
X164199738Y-35049135D01*
X164199727Y-35049151D01*
X164077791Y-35260348D01*
X164077786Y-35260359D01*
X163984459Y-35485669D01*
X163984456Y-35485679D01*
X163921335Y-35721253D01*
X163921333Y-35721264D01*
X163889500Y-35963048D01*
X163889500Y-36726951D01*
X160972284Y-36726951D01*
X164042416Y-33656819D01*
X164103739Y-33623334D01*
X164130097Y-33620500D01*
X224489903Y-33620500D01*
X224556942Y-33640185D01*
X224577584Y-33656819D01*
X231925139Y-41004374D01*
X231925149Y-41004385D01*
X231929479Y-41008715D01*
X231929480Y-41008716D01*
X232041284Y-41120520D01*
X232041286Y-41120521D01*
X232041290Y-41120524D01*
X232178209Y-41199573D01*
X232178216Y-41199577D01*
X232290019Y-41229534D01*
X232330942Y-41240500D01*
X232330943Y-41240500D01*
X239394903Y-41240500D01*
X239461942Y-41260185D01*
X239482584Y-41276819D01*
X240613681Y-42407916D01*
X240647166Y-42469239D01*
X240650000Y-42495597D01*
X240650000Y-43411988D01*
X240592993Y-43379075D01*
X240465826Y-43345000D01*
X240334174Y-43345000D01*
X240207007Y-43379075D01*
X240150000Y-43411988D01*
X240150000Y-42445000D01*
X239452155Y-42445000D01*
X239392627Y-42451401D01*
X239392620Y-42451403D01*
X239257913Y-42501645D01*
X239257906Y-42501649D01*
X239142812Y-42587809D01*
X239142809Y-42587812D01*
X239056649Y-42702906D01*
X239056645Y-42702913D01*
X239006403Y-42837620D01*
X239006401Y-42837627D01*
X239000000Y-42897155D01*
X239000000Y-43595000D01*
X239966988Y-43595000D01*
X239934075Y-43652007D01*
X239900000Y-43779174D01*
X239900000Y-43910826D01*
X239934075Y-44037993D01*
X239966988Y-44095000D01*
X239000000Y-44095000D01*
X239000000Y-44792844D01*
X239006401Y-44852372D01*
X239006403Y-44852379D01*
X239056645Y-44987086D01*
X239056649Y-44987093D01*
X239142809Y-45102187D01*
X239142812Y-45102190D01*
X239257906Y-45188350D01*
X239257913Y-45188354D01*
X239310859Y-45208102D01*
X239366793Y-45249973D01*
X239391210Y-45315438D01*
X239376358Y-45383711D01*
X239358757Y-45408265D01*
X239291021Y-45481847D01*
X239291019Y-45481848D01*
X239291016Y-45481853D01*
X239164075Y-45676151D01*
X239070842Y-45888699D01*
X239013866Y-46113691D01*
X239013864Y-46113702D01*
X238994700Y-46344993D01*
X238994700Y-46345006D01*
X239013864Y-46576297D01*
X239013866Y-46576308D01*
X239070842Y-46801300D01*
X239164075Y-47013848D01*
X239291016Y-47208147D01*
X239291019Y-47208151D01*
X239291021Y-47208153D01*
X239448216Y-47378913D01*
X239448219Y-47378915D01*
X239448222Y-47378918D01*
X239631365Y-47521464D01*
X239631371Y-47521468D01*
X239631374Y-47521470D01*
X239710203Y-47564130D01*
X239832259Y-47630184D01*
X239835497Y-47631936D01*
X239949487Y-47671068D01*
X240055015Y-47707297D01*
X240055017Y-47707297D01*
X240055019Y-47707298D01*
X240283951Y-47745500D01*
X240283952Y-47745500D01*
X240516048Y-47745500D01*
X240516049Y-47745500D01*
X240744981Y-47707298D01*
X240964503Y-47631936D01*
X241168626Y-47521470D01*
X241351784Y-47378913D01*
X241508979Y-47208153D01*
X241546191Y-47151196D01*
X241599337Y-47105839D01*
X241668569Y-47096415D01*
X241731904Y-47125917D01*
X241753809Y-47151196D01*
X241791016Y-47208147D01*
X241791019Y-47208151D01*
X241791021Y-47208153D01*
X241948216Y-47378913D01*
X241948219Y-47378915D01*
X241948222Y-47378918D01*
X242131365Y-47521464D01*
X242131371Y-47521468D01*
X242131374Y-47521470D01*
X242210203Y-47564130D01*
X242332259Y-47630184D01*
X242335497Y-47631936D01*
X242449487Y-47671068D01*
X242555015Y-47707297D01*
X242555017Y-47707297D01*
X242555019Y-47707298D01*
X242783951Y-47745500D01*
X242783952Y-47745500D01*
X243016048Y-47745500D01*
X243016049Y-47745500D01*
X243244981Y-47707298D01*
X243464503Y-47631936D01*
X243668626Y-47521470D01*
X243851784Y-47378913D01*
X244008979Y-47208153D01*
X244046191Y-47151196D01*
X244099337Y-47105839D01*
X244168569Y-47096415D01*
X244231904Y-47125917D01*
X244253809Y-47151196D01*
X244291016Y-47208147D01*
X244291019Y-47208151D01*
X244291021Y-47208153D01*
X244448216Y-47378913D01*
X244448219Y-47378915D01*
X244448222Y-47378918D01*
X244631365Y-47521464D01*
X244631371Y-47521468D01*
X244631374Y-47521470D01*
X244710203Y-47564130D01*
X244832259Y-47630184D01*
X244835497Y-47631936D01*
X244949487Y-47671068D01*
X245055015Y-47707297D01*
X245055017Y-47707297D01*
X245055019Y-47707298D01*
X245283951Y-47745500D01*
X245283952Y-47745500D01*
X245516048Y-47745500D01*
X245516049Y-47745500D01*
X245744981Y-47707298D01*
X245964503Y-47631936D01*
X246168626Y-47521470D01*
X246351784Y-47378913D01*
X246508979Y-47208153D01*
X246635924Y-47013849D01*
X246729157Y-46801300D01*
X246786134Y-46576305D01*
X246786135Y-46576297D01*
X246805300Y-46345006D01*
X246805300Y-46344993D01*
X246786135Y-46113702D01*
X246786133Y-46113691D01*
X246729157Y-45888699D01*
X246635924Y-45676151D01*
X246508983Y-45481852D01*
X246508980Y-45481849D01*
X246508979Y-45481847D01*
X246351784Y-45311087D01*
X246199876Y-45192852D01*
X246159064Y-45136143D01*
X246155389Y-45066370D01*
X246190020Y-45005687D01*
X246199876Y-44997147D01*
X246351784Y-44878913D01*
X246508979Y-44708153D01*
X246635924Y-44513849D01*
X246729157Y-44301300D01*
X246786134Y-44076305D01*
X246805300Y-43845000D01*
X246805300Y-43844993D01*
X246786135Y-43613702D01*
X246786133Y-43613691D01*
X246729157Y-43388699D01*
X246635924Y-43176151D01*
X246508983Y-42981852D01*
X246508980Y-42981849D01*
X246508979Y-42981847D01*
X246351784Y-42811087D01*
X246351779Y-42811083D01*
X246351777Y-42811081D01*
X246168634Y-42668535D01*
X246168628Y-42668531D01*
X245964504Y-42558064D01*
X245964495Y-42558061D01*
X245744984Y-42482702D01*
X245557404Y-42451401D01*
X245516049Y-42444500D01*
X245283951Y-42444500D01*
X245242596Y-42451401D01*
X245055015Y-42482702D01*
X244835504Y-42558061D01*
X244835495Y-42558064D01*
X244631371Y-42668531D01*
X244631365Y-42668535D01*
X244448222Y-42811081D01*
X244448219Y-42811084D01*
X244448216Y-42811086D01*
X244448216Y-42811087D01*
X244423785Y-42837627D01*
X244291015Y-42981854D01*
X244253808Y-43038804D01*
X244200662Y-43084161D01*
X244131430Y-43093584D01*
X244068095Y-43064082D01*
X244046192Y-43038804D01*
X244008984Y-42981854D01*
X244008982Y-42981852D01*
X244008979Y-42981847D01*
X243851784Y-42811087D01*
X243851779Y-42811083D01*
X243851777Y-42811081D01*
X243668634Y-42668535D01*
X243668628Y-42668531D01*
X243464504Y-42558064D01*
X243464495Y-42558061D01*
X243244984Y-42482702D01*
X243057404Y-42451401D01*
X243016049Y-42444500D01*
X242783951Y-42444500D01*
X242745795Y-42450867D01*
X242555014Y-42482702D01*
X242503098Y-42500524D01*
X242433300Y-42503672D01*
X242375158Y-42470923D01*
X240182590Y-40278355D01*
X240182588Y-40278352D01*
X240063717Y-40159481D01*
X240063716Y-40159480D01*
X239976904Y-40109360D01*
X239976904Y-40109359D01*
X239976900Y-40109358D01*
X239926785Y-40080423D01*
X239774057Y-40039499D01*
X239615943Y-40039499D01*
X239608347Y-40039499D01*
X239608331Y-40039500D01*
X232710097Y-40039500D01*
X232643058Y-40019815D01*
X232622416Y-40003181D01*
X229346186Y-36726951D01*
X236289500Y-36726951D01*
X236316013Y-36928333D01*
X236321334Y-36968744D01*
X236321335Y-36968746D01*
X236384456Y-37204320D01*
X236384459Y-37204330D01*
X236477786Y-37429640D01*
X236477791Y-37429651D01*
X236599727Y-37640848D01*
X236599738Y-37640864D01*
X236748199Y-37834343D01*
X236748205Y-37834350D01*
X236920649Y-38006794D01*
X236920655Y-38006799D01*
X237114144Y-38155268D01*
X237114151Y-38155272D01*
X237325348Y-38277208D01*
X237325353Y-38277210D01*
X237325356Y-38277212D01*
X237550679Y-38370544D01*
X237786256Y-38433666D01*
X238028056Y-38465500D01*
X238028063Y-38465500D01*
X238271937Y-38465500D01*
X238271944Y-38465500D01*
X238513744Y-38433666D01*
X238749321Y-38370544D01*
X238974644Y-38277212D01*
X239185856Y-38155268D01*
X239379345Y-38006799D01*
X239551799Y-37834345D01*
X239700268Y-37640856D01*
X239822212Y-37429644D01*
X239915544Y-37204321D01*
X239978666Y-36968744D01*
X240010499Y-36726951D01*
X245789500Y-36726951D01*
X245816013Y-36928333D01*
X245821334Y-36968744D01*
X245821335Y-36968746D01*
X245884456Y-37204320D01*
X245884459Y-37204330D01*
X245977786Y-37429640D01*
X245977791Y-37429651D01*
X246099727Y-37640848D01*
X246099738Y-37640864D01*
X246248199Y-37834343D01*
X246248205Y-37834350D01*
X246420649Y-38006794D01*
X246420655Y-38006799D01*
X246614144Y-38155268D01*
X246614151Y-38155272D01*
X246825348Y-38277208D01*
X246825353Y-38277210D01*
X246825356Y-38277212D01*
X247050679Y-38370544D01*
X247286256Y-38433666D01*
X247528056Y-38465500D01*
X247528063Y-38465500D01*
X247771937Y-38465500D01*
X247771944Y-38465500D01*
X248013744Y-38433666D01*
X248249321Y-38370544D01*
X248474644Y-38277212D01*
X248685856Y-38155268D01*
X248879345Y-38006799D01*
X249051799Y-37834345D01*
X249200268Y-37640856D01*
X249322212Y-37429644D01*
X249415544Y-37204321D01*
X249478666Y-36968744D01*
X249510500Y-36726944D01*
X249510500Y-35963056D01*
X249478666Y-35721256D01*
X249415544Y-35485679D01*
X249322212Y-35260356D01*
X249322210Y-35260353D01*
X249322208Y-35260348D01*
X249200272Y-35049151D01*
X249200268Y-35049144D01*
X249051799Y-34855655D01*
X249051794Y-34855649D01*
X248879350Y-34683205D01*
X248879343Y-34683199D01*
X248685864Y-34534738D01*
X248685862Y-34534736D01*
X248685856Y-34534732D01*
X248685851Y-34534729D01*
X248685848Y-34534727D01*
X248474651Y-34412791D01*
X248474640Y-34412786D01*
X248249330Y-34319459D01*
X248249323Y-34319457D01*
X248249321Y-34319456D01*
X248013744Y-34256334D01*
X247973333Y-34251013D01*
X247771951Y-34224500D01*
X247771944Y-34224500D01*
X247528056Y-34224500D01*
X247528048Y-34224500D01*
X247297896Y-34254801D01*
X247286256Y-34256334D01*
X247050679Y-34319456D01*
X247050669Y-34319459D01*
X246825359Y-34412786D01*
X246825348Y-34412791D01*
X246614151Y-34534727D01*
X246614135Y-34534738D01*
X246420656Y-34683199D01*
X246420649Y-34683205D01*
X246248205Y-34855649D01*
X246248199Y-34855656D01*
X246099738Y-35049135D01*
X246099727Y-35049151D01*
X245977791Y-35260348D01*
X245977786Y-35260359D01*
X245884459Y-35485669D01*
X245884456Y-35485679D01*
X245821335Y-35721253D01*
X245821333Y-35721264D01*
X245789500Y-35963048D01*
X245789500Y-36726951D01*
X240010499Y-36726951D01*
X240010500Y-36726944D01*
X240010500Y-35963056D01*
X239978666Y-35721256D01*
X239915544Y-35485679D01*
X239822212Y-35260356D01*
X239822210Y-35260353D01*
X239822208Y-35260348D01*
X239700272Y-35049151D01*
X239700268Y-35049144D01*
X239551799Y-34855655D01*
X239551794Y-34855649D01*
X239379350Y-34683205D01*
X239379343Y-34683199D01*
X239185864Y-34534738D01*
X239185862Y-34534736D01*
X239185856Y-34534732D01*
X239185851Y-34534729D01*
X239185848Y-34534727D01*
X238974651Y-34412791D01*
X238974640Y-34412786D01*
X238749330Y-34319459D01*
X238749323Y-34319457D01*
X238749321Y-34319456D01*
X238513744Y-34256334D01*
X238473333Y-34251013D01*
X238271951Y-34224500D01*
X238271944Y-34224500D01*
X238028056Y-34224500D01*
X238028048Y-34224500D01*
X237797896Y-34254801D01*
X237786256Y-34256334D01*
X237550679Y-34319456D01*
X237550669Y-34319459D01*
X237325359Y-34412786D01*
X237325348Y-34412791D01*
X237114151Y-34534727D01*
X237114135Y-34534738D01*
X236920656Y-34683199D01*
X236920649Y-34683205D01*
X236748205Y-34855649D01*
X236748199Y-34855656D01*
X236599738Y-35049135D01*
X236599727Y-35049151D01*
X236477791Y-35260348D01*
X236477786Y-35260359D01*
X236384459Y-35485669D01*
X236384456Y-35485679D01*
X236321335Y-35721253D01*
X236321333Y-35721264D01*
X236289500Y-35963048D01*
X236289500Y-36726951D01*
X229346186Y-36726951D01*
X225277590Y-32658355D01*
X225277588Y-32658352D01*
X225158717Y-32539481D01*
X225158716Y-32539480D01*
X225071904Y-32489360D01*
X225071904Y-32489359D01*
X225071900Y-32489358D01*
X225021785Y-32460423D01*
X224869057Y-32419499D01*
X224710943Y-32419499D01*
X224703347Y-32419499D01*
X224703331Y-32419500D01*
X163909057Y-32419500D01*
X163750942Y-32419500D01*
X163598215Y-32460423D01*
X163598214Y-32460423D01*
X163598212Y-32460424D01*
X163598209Y-32460425D01*
X163548096Y-32489359D01*
X163548095Y-32489360D01*
X163504689Y-32514420D01*
X163461285Y-32539479D01*
X163461282Y-32539481D01*
X152124481Y-43876282D01*
X152124479Y-43876285D01*
X152085651Y-43943539D01*
X152085650Y-43943540D01*
X152069796Y-43971000D01*
X152045423Y-44013215D01*
X152004499Y-44165943D01*
X152004499Y-44165945D01*
X152004499Y-44334046D01*
X152004500Y-44334059D01*
X152004500Y-45176736D01*
X151984815Y-45243775D01*
X151932011Y-45289530D01*
X151862853Y-45299474D01*
X151799297Y-45270449D01*
X151775507Y-45242709D01*
X151759817Y-45217740D01*
X151759815Y-45217737D01*
X151632262Y-45090184D01*
X151479523Y-44994211D01*
X151309254Y-44934631D01*
X151309249Y-44934630D01*
X151130004Y-44914435D01*
X151129996Y-44914435D01*
X150950750Y-44934630D01*
X150950745Y-44934631D01*
X150780476Y-44994211D01*
X150627736Y-45090185D01*
X150624903Y-45092445D01*
X150622724Y-45093334D01*
X150621842Y-45093889D01*
X150621744Y-45093734D01*
X150560217Y-45118855D01*
X150547588Y-45119500D01*
X145080097Y-45119500D01*
X145013058Y-45099815D01*
X144992416Y-45083181D01*
X140187590Y-40278355D01*
X140187588Y-40278352D01*
X140068717Y-40159481D01*
X140068716Y-40159480D01*
X139981904Y-40109360D01*
X139981904Y-40109359D01*
X139981900Y-40109358D01*
X139931785Y-40080423D01*
X139779057Y-40039499D01*
X139620943Y-40039499D01*
X139613347Y-40039499D01*
X139613331Y-40039500D01*
X137425940Y-40039500D01*
X137385019Y-40050464D01*
X137385019Y-40050465D01*
X137347751Y-40060451D01*
X137273214Y-40080423D01*
X137273209Y-40080426D01*
X137136290Y-40159475D01*
X137136282Y-40159481D01*
X137024478Y-40271286D01*
X134824840Y-42470923D01*
X134763517Y-42504408D01*
X134696898Y-42500524D01*
X134644981Y-42482702D01*
X134574393Y-42470923D01*
X134416049Y-42444500D01*
X134183951Y-42444500D01*
X134142596Y-42451401D01*
X133955015Y-42482702D01*
X133735504Y-42558061D01*
X133735495Y-42558064D01*
X133531372Y-42668531D01*
X133354023Y-42806567D01*
X133289029Y-42832209D01*
X133220489Y-42818642D01*
X133170164Y-42770174D01*
X133161679Y-42752045D01*
X133143355Y-42702915D01*
X133143350Y-42702906D01*
X133057190Y-42587812D01*
X133057187Y-42587809D01*
X132942093Y-42501649D01*
X132942086Y-42501645D01*
X132807379Y-42451403D01*
X132807372Y-42451401D01*
X132747844Y-42445000D01*
X132050000Y-42445000D01*
X132050000Y-43411988D01*
X131992993Y-43379075D01*
X131865826Y-43345000D01*
X131734174Y-43345000D01*
X131607007Y-43379075D01*
X131550000Y-43411988D01*
X131550000Y-42445000D01*
X130852155Y-42445000D01*
X130792627Y-42451401D01*
X130792620Y-42451403D01*
X130657913Y-42501645D01*
X130657906Y-42501649D01*
X130542812Y-42587809D01*
X130542809Y-42587812D01*
X130456649Y-42702906D01*
X130456645Y-42702913D01*
X130406403Y-42837620D01*
X130406401Y-42837627D01*
X130400000Y-42897155D01*
X130400000Y-43595000D01*
X131366988Y-43595000D01*
X131334075Y-43652007D01*
X131300000Y-43779174D01*
X131300000Y-43910826D01*
X131334075Y-44037993D01*
X131366988Y-44095000D01*
X130400000Y-44095000D01*
X130400000Y-44792844D01*
X130406401Y-44852372D01*
X130406403Y-44852379D01*
X130456645Y-44987086D01*
X130456649Y-44987093D01*
X130542809Y-45102187D01*
X130542812Y-45102190D01*
X130657906Y-45188350D01*
X130657913Y-45188354D01*
X130710859Y-45208102D01*
X130766793Y-45249973D01*
X130791210Y-45315438D01*
X130776358Y-45383711D01*
X130758757Y-45408265D01*
X130691021Y-45481847D01*
X130691019Y-45481848D01*
X130691016Y-45481853D01*
X130564075Y-45676151D01*
X130470842Y-45888699D01*
X130413866Y-46113691D01*
X130413864Y-46113702D01*
X130394700Y-46344993D01*
X130394700Y-46345006D01*
X130413864Y-46576297D01*
X130413866Y-46576308D01*
X130470842Y-46801300D01*
X130564075Y-47013848D01*
X130691016Y-47208147D01*
X130691019Y-47208151D01*
X130691021Y-47208153D01*
X130848216Y-47378913D01*
X130923677Y-47437646D01*
X130964490Y-47494357D01*
X130968165Y-47564130D01*
X130933534Y-47624813D01*
X130871592Y-47657140D01*
X130847515Y-47659500D01*
X112060097Y-47659500D01*
X111993058Y-47639815D01*
X111972416Y-47623181D01*
X105897590Y-41548355D01*
X105897588Y-41548352D01*
X105778717Y-41429481D01*
X105778716Y-41429480D01*
X105672601Y-41368215D01*
X105672600Y-41368214D01*
X105641783Y-41350422D01*
X105585881Y-41335443D01*
X105489057Y-41309499D01*
X105330943Y-41309499D01*
X105323347Y-41309499D01*
X105323331Y-41309500D01*
X100114057Y-41309500D01*
X99955942Y-41309500D01*
X99803215Y-41350423D01*
X99778910Y-41364455D01*
X99772397Y-41368216D01*
X99772396Y-41368215D01*
X99666287Y-41429477D01*
X99666282Y-41429481D01*
X99554478Y-41541286D01*
X98624840Y-42470923D01*
X98563517Y-42504408D01*
X98496898Y-42500524D01*
X98444981Y-42482702D01*
X98374393Y-42470923D01*
X98216049Y-42444500D01*
X97983951Y-42444500D01*
X97942596Y-42451401D01*
X97755015Y-42482702D01*
X97535504Y-42558061D01*
X97535495Y-42558064D01*
X97331372Y-42668531D01*
X97154023Y-42806567D01*
X97089029Y-42832209D01*
X97020489Y-42818642D01*
X96970164Y-42770174D01*
X96961679Y-42752045D01*
X96943355Y-42702915D01*
X96943350Y-42702906D01*
X96857190Y-42587812D01*
X96857187Y-42587809D01*
X96742093Y-42501649D01*
X96742086Y-42501645D01*
X96607379Y-42451403D01*
X96607372Y-42451401D01*
X96547844Y-42445000D01*
X95850000Y-42445000D01*
X95850000Y-43411988D01*
X95792993Y-43379075D01*
X95665826Y-43345000D01*
X95534174Y-43345000D01*
X95407007Y-43379075D01*
X95350000Y-43411988D01*
X95350000Y-42445000D01*
X94652155Y-42445000D01*
X94592627Y-42451401D01*
X94592620Y-42451403D01*
X94457913Y-42501645D01*
X94457906Y-42501649D01*
X94342812Y-42587809D01*
X94342809Y-42587812D01*
X94256649Y-42702906D01*
X94256645Y-42702913D01*
X94206403Y-42837620D01*
X94206401Y-42837627D01*
X94200000Y-42897155D01*
X94200000Y-43595000D01*
X95166988Y-43595000D01*
X95134075Y-43652007D01*
X95100000Y-43779174D01*
X95100000Y-43910826D01*
X95134075Y-44037993D01*
X95166988Y-44095000D01*
X94200000Y-44095000D01*
X94200000Y-44792844D01*
X94206401Y-44852372D01*
X94206403Y-44852379D01*
X94256645Y-44987086D01*
X94256649Y-44987093D01*
X94342809Y-45102187D01*
X94342812Y-45102190D01*
X94457906Y-45188350D01*
X94457913Y-45188354D01*
X94510859Y-45208102D01*
X94566793Y-45249973D01*
X94591210Y-45315438D01*
X94576358Y-45383711D01*
X94558757Y-45408265D01*
X94491021Y-45481847D01*
X94491019Y-45481848D01*
X94491016Y-45481853D01*
X94364075Y-45676151D01*
X94270842Y-45888699D01*
X94213866Y-46113691D01*
X94213864Y-46113702D01*
X94194700Y-46344993D01*
X94194700Y-46345006D01*
X94213864Y-46576297D01*
X94213866Y-46576308D01*
X94270842Y-46801300D01*
X94364075Y-47013848D01*
X94491016Y-47208147D01*
X94491019Y-47208151D01*
X94491021Y-47208153D01*
X94648216Y-47378913D01*
X94723677Y-47437646D01*
X94764490Y-47494357D01*
X94768165Y-47564130D01*
X94733534Y-47624813D01*
X94671592Y-47657140D01*
X94647515Y-47659500D01*
X91740097Y-47659500D01*
X91673058Y-47639815D01*
X91652416Y-47623181D01*
X85577590Y-41548355D01*
X85577588Y-41548352D01*
X85458717Y-41429481D01*
X85458716Y-41429480D01*
X85352601Y-41368215D01*
X85352600Y-41368214D01*
X85321783Y-41350422D01*
X85265881Y-41335443D01*
X85169057Y-41309499D01*
X85010943Y-41309499D01*
X85003347Y-41309499D01*
X85003331Y-41309500D01*
X63914057Y-41309500D01*
X63755942Y-41309500D01*
X63603215Y-41350423D01*
X63578910Y-41364455D01*
X63572397Y-41368216D01*
X63572396Y-41368215D01*
X63466287Y-41429477D01*
X63466282Y-41429481D01*
X63354478Y-41541286D01*
X62424840Y-42470923D01*
X62363517Y-42504408D01*
X62296898Y-42500524D01*
X62244981Y-42482702D01*
X62174393Y-42470923D01*
X62016049Y-42444500D01*
X61783951Y-42444500D01*
X61742596Y-42451401D01*
X61555015Y-42482702D01*
X61335504Y-42558061D01*
X61335495Y-42558064D01*
X61131372Y-42668531D01*
X60954023Y-42806567D01*
X60889029Y-42832209D01*
X60820489Y-42818642D01*
X60770164Y-42770174D01*
X60761679Y-42752045D01*
X60743355Y-42702915D01*
X60743350Y-42702906D01*
X60657190Y-42587812D01*
X60657187Y-42587809D01*
X60542093Y-42501649D01*
X60542086Y-42501645D01*
X60407379Y-42451403D01*
X60407372Y-42451401D01*
X60347844Y-42445000D01*
X59650000Y-42445000D01*
X59650000Y-43411988D01*
X59592993Y-43379075D01*
X59465826Y-43345000D01*
X59334174Y-43345000D01*
X59207007Y-43379075D01*
X59150000Y-43411988D01*
X59150000Y-42445000D01*
X58452155Y-42445000D01*
X58392627Y-42451401D01*
X58392620Y-42451403D01*
X58257913Y-42501645D01*
X58257906Y-42501649D01*
X58142812Y-42587809D01*
X58142809Y-42587812D01*
X58056649Y-42702906D01*
X58056645Y-42702913D01*
X58006403Y-42837620D01*
X58006401Y-42837627D01*
X58000000Y-42897155D01*
X58000000Y-43595000D01*
X58966988Y-43595000D01*
X58934075Y-43652007D01*
X58900000Y-43779174D01*
X58900000Y-43910826D01*
X58934075Y-44037993D01*
X58966988Y-44095000D01*
X58000000Y-44095000D01*
X58000000Y-44792844D01*
X58006401Y-44852372D01*
X58006403Y-44852379D01*
X58056645Y-44987086D01*
X58056649Y-44987093D01*
X58142809Y-45102187D01*
X58142812Y-45102190D01*
X58257906Y-45188350D01*
X58257913Y-45188354D01*
X58310859Y-45208102D01*
X58366793Y-45249973D01*
X58391210Y-45315438D01*
X58376358Y-45383711D01*
X58358757Y-45408265D01*
X58291021Y-45481847D01*
X58291019Y-45481848D01*
X58291016Y-45481853D01*
X58164075Y-45676151D01*
X58070842Y-45888699D01*
X58013866Y-46113691D01*
X58013864Y-46113702D01*
X57994700Y-46344993D01*
X57994700Y-46345006D01*
X58013864Y-46576297D01*
X58013866Y-46576308D01*
X58070842Y-46801300D01*
X58164075Y-47013848D01*
X58291016Y-47208147D01*
X58291019Y-47208151D01*
X58291021Y-47208153D01*
X58448216Y-47378913D01*
X58448219Y-47378915D01*
X58448222Y-47378918D01*
X58631365Y-47521464D01*
X58631371Y-47521468D01*
X58631374Y-47521470D01*
X58710203Y-47564130D01*
X58832259Y-47630184D01*
X58835497Y-47631936D01*
X58949487Y-47671068D01*
X59055015Y-47707297D01*
X59055017Y-47707297D01*
X59055019Y-47707298D01*
X59283951Y-47745500D01*
X59283952Y-47745500D01*
X59516048Y-47745500D01*
X59516049Y-47745500D01*
X59744981Y-47707298D01*
X59964503Y-47631936D01*
X60168626Y-47521470D01*
X60351784Y-47378913D01*
X60508979Y-47208153D01*
X60546191Y-47151196D01*
X60599337Y-47105839D01*
X60668569Y-47096415D01*
X60731904Y-47125917D01*
X60753809Y-47151196D01*
X60791016Y-47208147D01*
X60791019Y-47208151D01*
X60791021Y-47208153D01*
X60948216Y-47378913D01*
X60948219Y-47378915D01*
X60948222Y-47378918D01*
X61131365Y-47521464D01*
X61131371Y-47521468D01*
X61131374Y-47521470D01*
X61210203Y-47564130D01*
X61332259Y-47630184D01*
X61335497Y-47631936D01*
X61449487Y-47671068D01*
X61555015Y-47707297D01*
X61555017Y-47707297D01*
X61555019Y-47707298D01*
X61783951Y-47745500D01*
X61783952Y-47745500D01*
X62016048Y-47745500D01*
X62016049Y-47745500D01*
X62244981Y-47707298D01*
X62464503Y-47631936D01*
X62668626Y-47521470D01*
X62851784Y-47378913D01*
X63008979Y-47208153D01*
X63046191Y-47151196D01*
X63099337Y-47105839D01*
X63168569Y-47096415D01*
X63231904Y-47125917D01*
X63253809Y-47151196D01*
X63291016Y-47208147D01*
X63291019Y-47208151D01*
X63291021Y-47208153D01*
X63448216Y-47378913D01*
X63448219Y-47378915D01*
X63448222Y-47378918D01*
X63631365Y-47521464D01*
X63631371Y-47521468D01*
X63631374Y-47521470D01*
X63710203Y-47564130D01*
X63832259Y-47630184D01*
X63835497Y-47631936D01*
X63949487Y-47671068D01*
X64055015Y-47707297D01*
X64055017Y-47707297D01*
X64055019Y-47707298D01*
X64283951Y-47745500D01*
X64283952Y-47745500D01*
X64516048Y-47745500D01*
X64516049Y-47745500D01*
X64744981Y-47707298D01*
X64964503Y-47631936D01*
X65168626Y-47521470D01*
X65351784Y-47378913D01*
X65508979Y-47208153D01*
X65635924Y-47013849D01*
X65729157Y-46801300D01*
X65786134Y-46576305D01*
X65786135Y-46576297D01*
X65805300Y-46345006D01*
X65805300Y-46344993D01*
X65786135Y-46113702D01*
X65786133Y-46113691D01*
X65749745Y-45970000D01*
X81920001Y-45970000D01*
X81920001Y-46006654D01*
X81930319Y-46107652D01*
X81984546Y-46271300D01*
X81984551Y-46271311D01*
X82075052Y-46418034D01*
X82075055Y-46418038D01*
X82196961Y-46539944D01*
X82196965Y-46539947D01*
X82343688Y-46630448D01*
X82343699Y-46630453D01*
X82507347Y-46684680D01*
X82608351Y-46694999D01*
X82707500Y-46694998D01*
X82707500Y-45970000D01*
X81920001Y-45970000D01*
X65749745Y-45970000D01*
X65729157Y-45888699D01*
X65635924Y-45676151D01*
X65508983Y-45481852D01*
X65508980Y-45481849D01*
X65508979Y-45481847D01*
X65498073Y-45470000D01*
X81920000Y-45470000D01*
X82707500Y-45470000D01*
X82707500Y-44744999D01*
X82608360Y-44745000D01*
X82608344Y-44745001D01*
X82507347Y-44755319D01*
X82343699Y-44809546D01*
X82343688Y-44809551D01*
X82196965Y-44900052D01*
X82196961Y-44900055D01*
X82075055Y-45021961D01*
X82075052Y-45021965D01*
X81984551Y-45168688D01*
X81984546Y-45168699D01*
X81930319Y-45332347D01*
X81920000Y-45433345D01*
X81920000Y-45470000D01*
X65498073Y-45470000D01*
X65351784Y-45311087D01*
X65199876Y-45192852D01*
X65159064Y-45136143D01*
X65155389Y-45066370D01*
X65190020Y-45005687D01*
X65199876Y-44997147D01*
X65351784Y-44878913D01*
X65508979Y-44708153D01*
X65635924Y-44513849D01*
X65729157Y-44301300D01*
X65786134Y-44076305D01*
X65805300Y-43845000D01*
X65805300Y-43844993D01*
X65786135Y-43613702D01*
X65786133Y-43613691D01*
X65729157Y-43388699D01*
X65635924Y-43176151D01*
X65508983Y-42981852D01*
X65508980Y-42981849D01*
X65508979Y-42981847D01*
X65351784Y-42811087D01*
X65250626Y-42732353D01*
X65209814Y-42675643D01*
X65206139Y-42605870D01*
X65240770Y-42545187D01*
X65302712Y-42512860D01*
X65326789Y-42510500D01*
X84789903Y-42510500D01*
X84856942Y-42530185D01*
X84877584Y-42546819D01*
X90955139Y-48624374D01*
X90955149Y-48624385D01*
X90959479Y-48628715D01*
X90959480Y-48628716D01*
X91071284Y-48740520D01*
X91158095Y-48790639D01*
X91158097Y-48790641D01*
X91196151Y-48812611D01*
X91208215Y-48819577D01*
X91360943Y-48860500D01*
X91519057Y-48860500D01*
X110894217Y-48860500D01*
X110961256Y-48880185D01*
X110981898Y-48896819D01*
X111109453Y-49024374D01*
X111109463Y-49024385D01*
X111113793Y-49028715D01*
X111113794Y-49028716D01*
X111225598Y-49140520D01*
X111225600Y-49140521D01*
X111225604Y-49140524D01*
X111362523Y-49219573D01*
X111362530Y-49219577D01*
X111474333Y-49249534D01*
X111515256Y-49260500D01*
X111515257Y-49260500D01*
X141056627Y-49260500D01*
X141214742Y-49260501D01*
X141367469Y-49219577D01*
X141468436Y-49161284D01*
X141504401Y-49140520D01*
X141616205Y-49028716D01*
X141616205Y-49028715D01*
X141633638Y-49011282D01*
X141633647Y-49011272D01*
X141748104Y-48896818D01*
X141809427Y-48863333D01*
X141835784Y-48860500D01*
X150380905Y-48860500D01*
X150447944Y-48880185D01*
X150493699Y-48932989D01*
X150503643Y-49002147D01*
X150485899Y-49050472D01*
X150404210Y-49180478D01*
X150344630Y-49350750D01*
X150334837Y-49437668D01*
X150307770Y-49502082D01*
X150299298Y-49511465D01*
X149647584Y-50163181D01*
X149586261Y-50196666D01*
X149559903Y-50199500D01*
X141056670Y-50199500D01*
X141056654Y-50199499D01*
X141049058Y-50199499D01*
X140890943Y-50199499D01*
X140814579Y-50219961D01*
X140738214Y-50240423D01*
X140738209Y-50240426D01*
X140601290Y-50319475D01*
X140601282Y-50319481D01*
X136947584Y-53973181D01*
X136886261Y-54006666D01*
X136859903Y-54009500D01*
X66340097Y-54009500D01*
X66273058Y-53989815D01*
X66252416Y-53973181D01*
X65406819Y-53127584D01*
X65373334Y-53066261D01*
X65370500Y-53039903D01*
X65370500Y-52117391D01*
X65390185Y-52050352D01*
X65442989Y-52004597D01*
X65512147Y-51994653D01*
X65546902Y-52005008D01*
X65593504Y-52026739D01*
X65813308Y-52085635D01*
X65975230Y-52099801D01*
X66039998Y-52105468D01*
X66040000Y-52105468D01*
X66040002Y-52105468D01*
X66096673Y-52100509D01*
X66266692Y-52085635D01*
X66486496Y-52026739D01*
X66692734Y-51930568D01*
X66879139Y-51800047D01*
X67040047Y-51639139D01*
X67170568Y-51452734D01*
X67197618Y-51394724D01*
X67243790Y-51342285D01*
X67310983Y-51323133D01*
X67377865Y-51343348D01*
X67422382Y-51394725D01*
X67449429Y-51452728D01*
X67449432Y-51452734D01*
X67579954Y-51639141D01*
X67740858Y-51800045D01*
X67740861Y-51800047D01*
X67927266Y-51930568D01*
X68133504Y-52026739D01*
X68353308Y-52085635D01*
X68515230Y-52099801D01*
X68579998Y-52105468D01*
X68580000Y-52105468D01*
X68580002Y-52105468D01*
X68636673Y-52100509D01*
X68806692Y-52085635D01*
X69026496Y-52026739D01*
X69232734Y-51930568D01*
X69419139Y-51800047D01*
X69580047Y-51639139D01*
X69710568Y-51452734D01*
X69737618Y-51394724D01*
X69783790Y-51342285D01*
X69850983Y-51323133D01*
X69917865Y-51343348D01*
X69962382Y-51394725D01*
X69989429Y-51452728D01*
X69989432Y-51452734D01*
X70119954Y-51639141D01*
X70280858Y-51800045D01*
X70280861Y-51800047D01*
X70467266Y-51930568D01*
X70673504Y-52026739D01*
X70893308Y-52085635D01*
X71055230Y-52099801D01*
X71119998Y-52105468D01*
X71120000Y-52105468D01*
X71120002Y-52105468D01*
X71176673Y-52100509D01*
X71346692Y-52085635D01*
X71566496Y-52026739D01*
X71772734Y-51930568D01*
X71959139Y-51800047D01*
X72120047Y-51639139D01*
X72250568Y-51452734D01*
X72277618Y-51394724D01*
X72323790Y-51342285D01*
X72390983Y-51323133D01*
X72457865Y-51343348D01*
X72502382Y-51394725D01*
X72529429Y-51452728D01*
X72529432Y-51452734D01*
X72659954Y-51639141D01*
X72820858Y-51800045D01*
X72820861Y-51800047D01*
X73007266Y-51930568D01*
X73213504Y-52026739D01*
X73433308Y-52085635D01*
X73595230Y-52099801D01*
X73659998Y-52105468D01*
X73660000Y-52105468D01*
X73660002Y-52105468D01*
X73716673Y-52100509D01*
X73886692Y-52085635D01*
X74106496Y-52026739D01*
X74312734Y-51930568D01*
X74499139Y-51800047D01*
X74660047Y-51639139D01*
X74790568Y-51452734D01*
X74817618Y-51394724D01*
X74863790Y-51342285D01*
X74930983Y-51323133D01*
X74997865Y-51343348D01*
X75042382Y-51394725D01*
X75069429Y-51452728D01*
X75069432Y-51452734D01*
X75199954Y-51639141D01*
X75360858Y-51800045D01*
X75360861Y-51800047D01*
X75547266Y-51930568D01*
X75753504Y-52026739D01*
X75973308Y-52085635D01*
X76135230Y-52099801D01*
X76199998Y-52105468D01*
X76200000Y-52105468D01*
X76200002Y-52105468D01*
X76256673Y-52100509D01*
X76426692Y-52085635D01*
X76646496Y-52026739D01*
X76852734Y-51930568D01*
X77039139Y-51800047D01*
X77200047Y-51639139D01*
X77330568Y-51452734D01*
X77357618Y-51394724D01*
X77403790Y-51342285D01*
X77470983Y-51323133D01*
X77537865Y-51343348D01*
X77582382Y-51394725D01*
X77609429Y-51452728D01*
X77609432Y-51452734D01*
X77739954Y-51639141D01*
X77900858Y-51800045D01*
X77900861Y-51800047D01*
X78087266Y-51930568D01*
X78293504Y-52026739D01*
X78513308Y-52085635D01*
X78675230Y-52099801D01*
X78739998Y-52105468D01*
X78740000Y-52105468D01*
X78740002Y-52105468D01*
X78796673Y-52100509D01*
X78966692Y-52085635D01*
X79186496Y-52026739D01*
X79392734Y-51930568D01*
X79579139Y-51800047D01*
X79740047Y-51639139D01*
X79870568Y-51452734D01*
X79897618Y-51394724D01*
X79943790Y-51342285D01*
X80010983Y-51323133D01*
X80077865Y-51343348D01*
X80122382Y-51394725D01*
X80149429Y-51452728D01*
X80149432Y-51452734D01*
X80279954Y-51639141D01*
X80440858Y-51800045D01*
X80440861Y-51800047D01*
X80627266Y-51930568D01*
X80833504Y-52026739D01*
X81053308Y-52085635D01*
X81215230Y-52099801D01*
X81279998Y-52105468D01*
X81280000Y-52105468D01*
X81280002Y-52105468D01*
X81336673Y-52100509D01*
X81506692Y-52085635D01*
X81726496Y-52026739D01*
X81932734Y-51930568D01*
X82119139Y-51800047D01*
X82280047Y-51639139D01*
X82410568Y-51452734D01*
X82437895Y-51394129D01*
X82484064Y-51341695D01*
X82551257Y-51322542D01*
X82618139Y-51342757D01*
X82662657Y-51394133D01*
X82689865Y-51452482D01*
X82820342Y-51638820D01*
X82981179Y-51799657D01*
X83167517Y-51930134D01*
X83373673Y-52026265D01*
X83373682Y-52026269D01*
X83569999Y-52078872D01*
X83570000Y-52078871D01*
X83570000Y-51233012D01*
X83627007Y-51265925D01*
X83754174Y-51300000D01*
X83885826Y-51300000D01*
X84012993Y-51265925D01*
X84070000Y-51233012D01*
X84070000Y-52078872D01*
X84266317Y-52026269D01*
X84266326Y-52026265D01*
X84472482Y-51930134D01*
X84658820Y-51799657D01*
X84819657Y-51638820D01*
X84950132Y-51452484D01*
X84977341Y-51394134D01*
X85023513Y-51341695D01*
X85090707Y-51322542D01*
X85157588Y-51342757D01*
X85202106Y-51394133D01*
X85229431Y-51452732D01*
X85229432Y-51452734D01*
X85359954Y-51639141D01*
X85520858Y-51800045D01*
X85520861Y-51800047D01*
X85707266Y-51930568D01*
X85913504Y-52026739D01*
X86133308Y-52085635D01*
X86295230Y-52099801D01*
X86359998Y-52105468D01*
X86360000Y-52105468D01*
X86360002Y-52105468D01*
X86416673Y-52100509D01*
X86586692Y-52085635D01*
X86806496Y-52026739D01*
X87012734Y-51930568D01*
X87199139Y-51800047D01*
X87360047Y-51639139D01*
X87490568Y-51452734D01*
X87517618Y-51394724D01*
X87563790Y-51342285D01*
X87630983Y-51323133D01*
X87697865Y-51343348D01*
X87742382Y-51394725D01*
X87769429Y-51452728D01*
X87769432Y-51452734D01*
X87899954Y-51639141D01*
X88060858Y-51800045D01*
X88060861Y-51800047D01*
X88247266Y-51930568D01*
X88453504Y-52026739D01*
X88673308Y-52085635D01*
X88835230Y-52099801D01*
X88899998Y-52105468D01*
X88900000Y-52105468D01*
X88900002Y-52105468D01*
X88956673Y-52100509D01*
X89126692Y-52085635D01*
X89346496Y-52026739D01*
X89552734Y-51930568D01*
X89739139Y-51800047D01*
X89900047Y-51639139D01*
X90030568Y-51452734D01*
X90057618Y-51394724D01*
X90103790Y-51342285D01*
X90170983Y-51323133D01*
X90237865Y-51343348D01*
X90282382Y-51394725D01*
X90309429Y-51452728D01*
X90309432Y-51452734D01*
X90439954Y-51639141D01*
X90600858Y-51800045D01*
X90600861Y-51800047D01*
X90787266Y-51930568D01*
X90993504Y-52026739D01*
X91213308Y-52085635D01*
X91375230Y-52099801D01*
X91439998Y-52105468D01*
X91440000Y-52105468D01*
X91440002Y-52105468D01*
X91496673Y-52100509D01*
X91666692Y-52085635D01*
X91886496Y-52026739D01*
X92092734Y-51930568D01*
X92279139Y-51800047D01*
X92440047Y-51639139D01*
X92570568Y-51452734D01*
X92666739Y-51246496D01*
X92725635Y-51026692D01*
X92745468Y-50800000D01*
X92725635Y-50573308D01*
X92666739Y-50353504D01*
X92570568Y-50147266D01*
X92440047Y-49960861D01*
X92440045Y-49960858D01*
X92279141Y-49799954D01*
X92092734Y-49669432D01*
X92092732Y-49669431D01*
X91886497Y-49573261D01*
X91886488Y-49573258D01*
X91666697Y-49514366D01*
X91666693Y-49514365D01*
X91666692Y-49514365D01*
X91666691Y-49514364D01*
X91666686Y-49514364D01*
X91440002Y-49494532D01*
X91439998Y-49494532D01*
X91213313Y-49514364D01*
X91213302Y-49514366D01*
X90993511Y-49573258D01*
X90993502Y-49573261D01*
X90787267Y-49669431D01*
X90787265Y-49669432D01*
X90600858Y-49799954D01*
X90439954Y-49960858D01*
X90309432Y-50147265D01*
X90309431Y-50147267D01*
X90282382Y-50205275D01*
X90236209Y-50257714D01*
X90169016Y-50276866D01*
X90102135Y-50256650D01*
X90057618Y-50205275D01*
X90054925Y-50199499D01*
X90030568Y-50147266D01*
X89900047Y-49960861D01*
X89900045Y-49960858D01*
X89739141Y-49799954D01*
X89552734Y-49669432D01*
X89552732Y-49669431D01*
X89346497Y-49573261D01*
X89346488Y-49573258D01*
X89126697Y-49514366D01*
X89126693Y-49514365D01*
X89126692Y-49514365D01*
X89126691Y-49514364D01*
X89126686Y-49514364D01*
X88900002Y-49494532D01*
X88899998Y-49494532D01*
X88673313Y-49514364D01*
X88673302Y-49514366D01*
X88577067Y-49540152D01*
X88507217Y-49538489D01*
X88457293Y-49508058D01*
X85554143Y-46604908D01*
X85520658Y-46543585D01*
X85525642Y-46473893D01*
X85554144Y-46429545D01*
X85565340Y-46418350D01*
X85655908Y-46271516D01*
X85710174Y-46107753D01*
X85720500Y-46006677D01*
X85720499Y-45433324D01*
X85717939Y-45408267D01*
X85710174Y-45332247D01*
X85689696Y-45270449D01*
X85655908Y-45168484D01*
X85565340Y-45021650D01*
X85443350Y-44899660D01*
X85352129Y-44843395D01*
X85296518Y-44809093D01*
X85296513Y-44809091D01*
X85295069Y-44808612D01*
X85132753Y-44754826D01*
X85132751Y-44754825D01*
X85031678Y-44744500D01*
X84333330Y-44744500D01*
X84333312Y-44744501D01*
X84232247Y-44754825D01*
X84068484Y-44809092D01*
X84068481Y-44809093D01*
X83921648Y-44899661D01*
X83907325Y-44913984D01*
X83846001Y-44947468D01*
X83776309Y-44942482D01*
X83731965Y-44913982D01*
X83718038Y-44900055D01*
X83718034Y-44900052D01*
X83571311Y-44809551D01*
X83571300Y-44809546D01*
X83407652Y-44755319D01*
X83306654Y-44745000D01*
X83207500Y-44745000D01*
X83207500Y-46694999D01*
X83306640Y-46694999D01*
X83306654Y-46694998D01*
X83407652Y-46684680D01*
X83571300Y-46630453D01*
X83571311Y-46630448D01*
X83718035Y-46539947D01*
X83731960Y-46526021D01*
X83793282Y-46492533D01*
X83862973Y-46497514D01*
X83907327Y-46526017D01*
X83921650Y-46540340D01*
X84032909Y-46608965D01*
X84079633Y-46660912D01*
X84087584Y-46682402D01*
X84090960Y-46694998D01*
X84122923Y-46814285D01*
X84151858Y-46864400D01*
X84151859Y-46864404D01*
X84151860Y-46864404D01*
X84201979Y-46951214D01*
X84201981Y-46951217D01*
X84320849Y-47070085D01*
X84320855Y-47070090D01*
X86541335Y-49290571D01*
X86574820Y-49351894D01*
X86569836Y-49421586D01*
X86527964Y-49477519D01*
X86462500Y-49501936D01*
X86442847Y-49501780D01*
X86360002Y-49494532D01*
X86359998Y-49494532D01*
X86133313Y-49514364D01*
X86133302Y-49514366D01*
X85913511Y-49573258D01*
X85913502Y-49573261D01*
X85707267Y-49669431D01*
X85707265Y-49669432D01*
X85520858Y-49799954D01*
X85359954Y-49960858D01*
X85229433Y-50147264D01*
X85229432Y-50147266D01*
X85229315Y-50147518D01*
X85202106Y-50205867D01*
X85155933Y-50258306D01*
X85088739Y-50277457D01*
X85021858Y-50257241D01*
X84977342Y-50205865D01*
X84950135Y-50147520D01*
X84950134Y-50147518D01*
X84819657Y-49961179D01*
X84658820Y-49800342D01*
X84472482Y-49669865D01*
X84266328Y-49573734D01*
X84070000Y-49521127D01*
X84070000Y-50366988D01*
X84012993Y-50334075D01*
X83885826Y-50300000D01*
X83754174Y-50300000D01*
X83627007Y-50334075D01*
X83570000Y-50366988D01*
X83570000Y-49521127D01*
X83373671Y-49573734D01*
X83167517Y-49669865D01*
X82981179Y-49800342D01*
X82820342Y-49961179D01*
X82689867Y-50147515D01*
X82662657Y-50205867D01*
X82616484Y-50258306D01*
X82549290Y-50277457D01*
X82482409Y-50257241D01*
X82437893Y-50205865D01*
X82434924Y-50199499D01*
X82410568Y-50147266D01*
X82280047Y-49960861D01*
X82280045Y-49960858D01*
X82119141Y-49799954D01*
X81932734Y-49669432D01*
X81932732Y-49669431D01*
X81726497Y-49573261D01*
X81726488Y-49573258D01*
X81506697Y-49514366D01*
X81506693Y-49514365D01*
X81506692Y-49514365D01*
X81506691Y-49514364D01*
X81506686Y-49514364D01*
X81280002Y-49494532D01*
X81279998Y-49494532D01*
X81053313Y-49514364D01*
X81053302Y-49514366D01*
X80833511Y-49573258D01*
X80833502Y-49573261D01*
X80627267Y-49669431D01*
X80627265Y-49669432D01*
X80440858Y-49799954D01*
X80279954Y-49960858D01*
X80149432Y-50147265D01*
X80149431Y-50147267D01*
X80122382Y-50205275D01*
X80076209Y-50257714D01*
X80009016Y-50276866D01*
X79942135Y-50256650D01*
X79897618Y-50205275D01*
X79894925Y-50199499D01*
X79870568Y-50147266D01*
X79740047Y-49960861D01*
X79740045Y-49960858D01*
X79579141Y-49799954D01*
X79392734Y-49669432D01*
X79392732Y-49669431D01*
X79186497Y-49573261D01*
X79186488Y-49573258D01*
X78966697Y-49514366D01*
X78966693Y-49514365D01*
X78966692Y-49514365D01*
X78966691Y-49514364D01*
X78966686Y-49514364D01*
X78740002Y-49494532D01*
X78739998Y-49494532D01*
X78513313Y-49514364D01*
X78513302Y-49514366D01*
X78293511Y-49573258D01*
X78293502Y-49573261D01*
X78087267Y-49669431D01*
X78087265Y-49669432D01*
X77900858Y-49799954D01*
X77739954Y-49960858D01*
X77609432Y-50147265D01*
X77609431Y-50147267D01*
X77582382Y-50205275D01*
X77536209Y-50257714D01*
X77469016Y-50276866D01*
X77402135Y-50256650D01*
X77357618Y-50205275D01*
X77354925Y-50199499D01*
X77330568Y-50147266D01*
X77200047Y-49960861D01*
X77200045Y-49960858D01*
X77039141Y-49799954D01*
X76852734Y-49669432D01*
X76852732Y-49669431D01*
X76646497Y-49573261D01*
X76646488Y-49573258D01*
X76426697Y-49514366D01*
X76426693Y-49514365D01*
X76426692Y-49514365D01*
X76426691Y-49514364D01*
X76426686Y-49514364D01*
X76200002Y-49494532D01*
X76199998Y-49494532D01*
X75973313Y-49514364D01*
X75973302Y-49514366D01*
X75753511Y-49573258D01*
X75753502Y-49573261D01*
X75547267Y-49669431D01*
X75547265Y-49669432D01*
X75360858Y-49799954D01*
X75199954Y-49960858D01*
X75069432Y-50147265D01*
X75069431Y-50147267D01*
X75042382Y-50205275D01*
X74996209Y-50257714D01*
X74929016Y-50276866D01*
X74862135Y-50256650D01*
X74817618Y-50205275D01*
X74814925Y-50199499D01*
X74790568Y-50147266D01*
X74660047Y-49960861D01*
X74660045Y-49960858D01*
X74499141Y-49799954D01*
X74312734Y-49669432D01*
X74312732Y-49669431D01*
X74106497Y-49573261D01*
X74106488Y-49573258D01*
X73886697Y-49514366D01*
X73886693Y-49514365D01*
X73886692Y-49514365D01*
X73886691Y-49514364D01*
X73886686Y-49514364D01*
X73660002Y-49494532D01*
X73659998Y-49494532D01*
X73433313Y-49514364D01*
X73433302Y-49514366D01*
X73213511Y-49573258D01*
X73213502Y-49573261D01*
X73007267Y-49669431D01*
X73007265Y-49669432D01*
X72820858Y-49799954D01*
X72659954Y-49960858D01*
X72529432Y-50147265D01*
X72529431Y-50147267D01*
X72502382Y-50205275D01*
X72456209Y-50257714D01*
X72389016Y-50276866D01*
X72322135Y-50256650D01*
X72277618Y-50205275D01*
X72274925Y-50199499D01*
X72250568Y-50147266D01*
X72120047Y-49960861D01*
X72120045Y-49960858D01*
X71959141Y-49799954D01*
X71772734Y-49669432D01*
X71772732Y-49669431D01*
X71566497Y-49573261D01*
X71566488Y-49573258D01*
X71346697Y-49514366D01*
X71346693Y-49514365D01*
X71346692Y-49514365D01*
X71346691Y-49514364D01*
X71346686Y-49514364D01*
X71120002Y-49494532D01*
X71119998Y-49494532D01*
X70893313Y-49514364D01*
X70893302Y-49514366D01*
X70673511Y-49573258D01*
X70673502Y-49573261D01*
X70467267Y-49669431D01*
X70467265Y-49669432D01*
X70280858Y-49799954D01*
X70119954Y-49960858D01*
X69989432Y-50147265D01*
X69989431Y-50147267D01*
X69962382Y-50205275D01*
X69916209Y-50257714D01*
X69849016Y-50276866D01*
X69782135Y-50256650D01*
X69737618Y-50205275D01*
X69734925Y-50199499D01*
X69710568Y-50147266D01*
X69580047Y-49960861D01*
X69580045Y-49960858D01*
X69419141Y-49799954D01*
X69232734Y-49669432D01*
X69232732Y-49669431D01*
X69026497Y-49573261D01*
X69026488Y-49573258D01*
X68806697Y-49514366D01*
X68806693Y-49514365D01*
X68806692Y-49514365D01*
X68806691Y-49514364D01*
X68806686Y-49514364D01*
X68580002Y-49494532D01*
X68579998Y-49494532D01*
X68353313Y-49514364D01*
X68353302Y-49514366D01*
X68133511Y-49573258D01*
X68133502Y-49573261D01*
X67927267Y-49669431D01*
X67927265Y-49669432D01*
X67740858Y-49799954D01*
X67579954Y-49960858D01*
X67449432Y-50147265D01*
X67449431Y-50147267D01*
X67422382Y-50205275D01*
X67376209Y-50257714D01*
X67309016Y-50276866D01*
X67242135Y-50256650D01*
X67197618Y-50205275D01*
X67194925Y-50199499D01*
X67170568Y-50147266D01*
X67040047Y-49960861D01*
X67040045Y-49960858D01*
X66879141Y-49799954D01*
X66692734Y-49669432D01*
X66692732Y-49669431D01*
X66486497Y-49573261D01*
X66486488Y-49573258D01*
X66266697Y-49514366D01*
X66266693Y-49514365D01*
X66266692Y-49514365D01*
X66266691Y-49514364D01*
X66266686Y-49514364D01*
X66040002Y-49494532D01*
X66039998Y-49494532D01*
X65813313Y-49514364D01*
X65813302Y-49514366D01*
X65593511Y-49573258D01*
X65593502Y-49573261D01*
X65387267Y-49669431D01*
X65387265Y-49669432D01*
X65200858Y-49799954D01*
X65039954Y-49960858D01*
X64909432Y-50147265D01*
X64909431Y-50147267D01*
X64882382Y-50205275D01*
X64836209Y-50257714D01*
X64769016Y-50276866D01*
X64702135Y-50256650D01*
X64657618Y-50205275D01*
X64654925Y-50199499D01*
X64630568Y-50147266D01*
X64500047Y-49960861D01*
X64500045Y-49960858D01*
X64339141Y-49799954D01*
X64152734Y-49669432D01*
X64152732Y-49669431D01*
X63946497Y-49573261D01*
X63946488Y-49573258D01*
X63726697Y-49514366D01*
X63726693Y-49514365D01*
X63726692Y-49514365D01*
X63726691Y-49514364D01*
X63726686Y-49514364D01*
X63500002Y-49494532D01*
X63499998Y-49494532D01*
X63273313Y-49514364D01*
X63273302Y-49514366D01*
X63053511Y-49573258D01*
X63053502Y-49573261D01*
X62847267Y-49669431D01*
X62847265Y-49669432D01*
X62660858Y-49799954D01*
X62499954Y-49960858D01*
X62369432Y-50147265D01*
X62369431Y-50147267D01*
X62342382Y-50205275D01*
X62296209Y-50257714D01*
X62229016Y-50276866D01*
X62162135Y-50256650D01*
X62117618Y-50205275D01*
X62114925Y-50199499D01*
X62090568Y-50147266D01*
X61960047Y-49960861D01*
X61960045Y-49960858D01*
X61799141Y-49799954D01*
X61612734Y-49669432D01*
X61612732Y-49669431D01*
X61406497Y-49573261D01*
X61406488Y-49573258D01*
X61186697Y-49514366D01*
X61186693Y-49514365D01*
X61186692Y-49514365D01*
X61186691Y-49514364D01*
X61186686Y-49514364D01*
X60960002Y-49494532D01*
X60959998Y-49494532D01*
X60733313Y-49514364D01*
X60733302Y-49514366D01*
X60513511Y-49573258D01*
X60513502Y-49573261D01*
X60307267Y-49669431D01*
X60307265Y-49669432D01*
X60120858Y-49799954D01*
X59959954Y-49960858D01*
X59829432Y-50147265D01*
X59829431Y-50147267D01*
X59802382Y-50205275D01*
X59756209Y-50257714D01*
X59689016Y-50276866D01*
X59622135Y-50256650D01*
X59577618Y-50205275D01*
X59574925Y-50199499D01*
X59550568Y-50147266D01*
X59420047Y-49960861D01*
X59420045Y-49960858D01*
X59259141Y-49799954D01*
X59072734Y-49669432D01*
X59072732Y-49669431D01*
X58866497Y-49573261D01*
X58866488Y-49573258D01*
X58646697Y-49514366D01*
X58646693Y-49514365D01*
X58646692Y-49514365D01*
X58646691Y-49514364D01*
X58646686Y-49514364D01*
X58420002Y-49494532D01*
X58419998Y-49494532D01*
X58193313Y-49514364D01*
X58193302Y-49514366D01*
X57973511Y-49573258D01*
X57973502Y-49573261D01*
X57767267Y-49669431D01*
X57767265Y-49669432D01*
X57580858Y-49799954D01*
X57419954Y-49960858D01*
X57289432Y-50147265D01*
X57289431Y-50147267D01*
X57262382Y-50205275D01*
X57216209Y-50257714D01*
X57149016Y-50276866D01*
X57082135Y-50256650D01*
X57037618Y-50205275D01*
X57034925Y-50199499D01*
X57010568Y-50147266D01*
X56880047Y-49960861D01*
X56880045Y-49960858D01*
X56719141Y-49799954D01*
X56532734Y-49669432D01*
X56532732Y-49669431D01*
X56326497Y-49573261D01*
X56326488Y-49573258D01*
X56106697Y-49514366D01*
X56106693Y-49514365D01*
X56106692Y-49514365D01*
X56106691Y-49514364D01*
X56106686Y-49514364D01*
X55880002Y-49494532D01*
X55879998Y-49494532D01*
X55653313Y-49514364D01*
X55653302Y-49514366D01*
X55433511Y-49573258D01*
X55433502Y-49573261D01*
X55227267Y-49669431D01*
X55227265Y-49669432D01*
X55040858Y-49799954D01*
X54879954Y-49960858D01*
X54749432Y-50147265D01*
X54749431Y-50147267D01*
X54653261Y-50353502D01*
X54653258Y-50353511D01*
X54594366Y-50573302D01*
X54594364Y-50573313D01*
X54574532Y-50799998D01*
X54574532Y-50800001D01*
X54594364Y-51026686D01*
X54594366Y-51026697D01*
X54653258Y-51246488D01*
X54653261Y-51246497D01*
X54749431Y-51452732D01*
X54749432Y-51452734D01*
X54879954Y-51639141D01*
X55040858Y-51800045D01*
X55040861Y-51800047D01*
X55227266Y-51930568D01*
X55433504Y-52026739D01*
X55653308Y-52085635D01*
X55815230Y-52099801D01*
X55879998Y-52105468D01*
X55880000Y-52105468D01*
X55880002Y-52105468D01*
X55936673Y-52100509D01*
X56106692Y-52085635D01*
X56326496Y-52026739D01*
X56532734Y-51930568D01*
X56719139Y-51800047D01*
X56880047Y-51639139D01*
X57010568Y-51452734D01*
X57037618Y-51394724D01*
X57083790Y-51342285D01*
X57150983Y-51323133D01*
X57217865Y-51343348D01*
X57262382Y-51394725D01*
X57289429Y-51452728D01*
X57289432Y-51452734D01*
X57419954Y-51639141D01*
X57580858Y-51800045D01*
X57580861Y-51800047D01*
X57767266Y-51930568D01*
X57973504Y-52026739D01*
X58193308Y-52085635D01*
X58355230Y-52099801D01*
X58419998Y-52105468D01*
X58420000Y-52105468D01*
X58420002Y-52105468D01*
X58476673Y-52100509D01*
X58646692Y-52085635D01*
X58866496Y-52026739D01*
X59072734Y-51930568D01*
X59259139Y-51800047D01*
X59420047Y-51639139D01*
X59550568Y-51452734D01*
X59577618Y-51394724D01*
X59623790Y-51342285D01*
X59690983Y-51323133D01*
X59757865Y-51343348D01*
X59802382Y-51394725D01*
X59829429Y-51452728D01*
X59829432Y-51452734D01*
X59959954Y-51639141D01*
X60120858Y-51800045D01*
X60120861Y-51800047D01*
X60307266Y-51930568D01*
X60513504Y-52026739D01*
X60733308Y-52085635D01*
X60895230Y-52099801D01*
X60959998Y-52105468D01*
X60960000Y-52105468D01*
X60960002Y-52105468D01*
X61016673Y-52100509D01*
X61186692Y-52085635D01*
X61406496Y-52026739D01*
X61612734Y-51930568D01*
X61799139Y-51800047D01*
X61960047Y-51639139D01*
X62090568Y-51452734D01*
X62117618Y-51394724D01*
X62163790Y-51342285D01*
X62230983Y-51323133D01*
X62297865Y-51343348D01*
X62342382Y-51394725D01*
X62369429Y-51452728D01*
X62369432Y-51452734D01*
X62499954Y-51639141D01*
X62660858Y-51800045D01*
X62660861Y-51800047D01*
X62847266Y-51930568D01*
X63053504Y-52026739D01*
X63273308Y-52085635D01*
X63435230Y-52099801D01*
X63499998Y-52105468D01*
X63500000Y-52105468D01*
X63500002Y-52105468D01*
X63556673Y-52100509D01*
X63726692Y-52085635D01*
X63822932Y-52059847D01*
X63892781Y-52061510D01*
X63942706Y-52091941D01*
X64133181Y-52282416D01*
X64166666Y-52343739D01*
X64169500Y-52370097D01*
X64169500Y-53253330D01*
X64169499Y-53253348D01*
X64169499Y-53419054D01*
X64169498Y-53419054D01*
X64210423Y-53571785D01*
X64239358Y-53621900D01*
X64239359Y-53621904D01*
X64239360Y-53621904D01*
X64289479Y-53708714D01*
X64289481Y-53708717D01*
X64408349Y-53827585D01*
X64408355Y-53827590D01*
X65555139Y-54974374D01*
X65555149Y-54974385D01*
X65559479Y-54978715D01*
X65559480Y-54978716D01*
X65648584Y-55067820D01*
X65682068Y-55129141D01*
X65677084Y-55198833D01*
X65635213Y-55254767D01*
X65569749Y-55279184D01*
X65560902Y-55279500D01*
X60880940Y-55279500D01*
X60840019Y-55290464D01*
X60840019Y-55290465D01*
X60813298Y-55297625D01*
X60728214Y-55320423D01*
X60728209Y-55320426D01*
X60591290Y-55399475D01*
X60591282Y-55399481D01*
X53551681Y-62439083D01*
X53490358Y-62472568D01*
X53420666Y-62467584D01*
X53364733Y-62425712D01*
X53340316Y-62360248D01*
X53340000Y-62351402D01*
X53340000Y-36726951D01*
X55289500Y-36726951D01*
X55316013Y-36928333D01*
X55321334Y-36968744D01*
X55321335Y-36968746D01*
X55384456Y-37204320D01*
X55384459Y-37204330D01*
X55477786Y-37429640D01*
X55477791Y-37429651D01*
X55599727Y-37640848D01*
X55599738Y-37640864D01*
X55748199Y-37834343D01*
X55748205Y-37834350D01*
X55920649Y-38006794D01*
X55920655Y-38006799D01*
X56114144Y-38155268D01*
X56114151Y-38155272D01*
X56325348Y-38277208D01*
X56325353Y-38277210D01*
X56325356Y-38277212D01*
X56550679Y-38370544D01*
X56786256Y-38433666D01*
X57028056Y-38465500D01*
X57028063Y-38465500D01*
X57271937Y-38465500D01*
X57271944Y-38465500D01*
X57513744Y-38433666D01*
X57749321Y-38370544D01*
X57974644Y-38277212D01*
X58185856Y-38155268D01*
X58379345Y-38006799D01*
X58551799Y-37834345D01*
X58700268Y-37640856D01*
X58822212Y-37429644D01*
X58915544Y-37204321D01*
X58978666Y-36968744D01*
X59010499Y-36726951D01*
X64789500Y-36726951D01*
X64816013Y-36928333D01*
X64821334Y-36968744D01*
X64821335Y-36968746D01*
X64884456Y-37204320D01*
X64884459Y-37204330D01*
X64977786Y-37429640D01*
X64977791Y-37429651D01*
X65099727Y-37640848D01*
X65099738Y-37640864D01*
X65248199Y-37834343D01*
X65248205Y-37834350D01*
X65420649Y-38006794D01*
X65420655Y-38006799D01*
X65614144Y-38155268D01*
X65614151Y-38155272D01*
X65825348Y-38277208D01*
X65825353Y-38277210D01*
X65825356Y-38277212D01*
X66050679Y-38370544D01*
X66286256Y-38433666D01*
X66528056Y-38465500D01*
X66528063Y-38465500D01*
X66771937Y-38465500D01*
X66771944Y-38465500D01*
X67013744Y-38433666D01*
X67249321Y-38370544D01*
X67474644Y-38277212D01*
X67685856Y-38155268D01*
X67879345Y-38006799D01*
X68051799Y-37834345D01*
X68200268Y-37640856D01*
X68322212Y-37429644D01*
X68415544Y-37204321D01*
X68478666Y-36968744D01*
X68510499Y-36726951D01*
X91489500Y-36726951D01*
X91516013Y-36928333D01*
X91521334Y-36968744D01*
X91521335Y-36968746D01*
X91584456Y-37204320D01*
X91584459Y-37204330D01*
X91677786Y-37429640D01*
X91677791Y-37429651D01*
X91799727Y-37640848D01*
X91799738Y-37640864D01*
X91948199Y-37834343D01*
X91948205Y-37834350D01*
X92120649Y-38006794D01*
X92120655Y-38006799D01*
X92314144Y-38155268D01*
X92314151Y-38155272D01*
X92525348Y-38277208D01*
X92525353Y-38277210D01*
X92525356Y-38277212D01*
X92750679Y-38370544D01*
X92986256Y-38433666D01*
X93228056Y-38465500D01*
X93228063Y-38465500D01*
X93471937Y-38465500D01*
X93471944Y-38465500D01*
X93713744Y-38433666D01*
X93949321Y-38370544D01*
X94174644Y-38277212D01*
X94385856Y-38155268D01*
X94579345Y-38006799D01*
X94751799Y-37834345D01*
X94900268Y-37640856D01*
X95022212Y-37429644D01*
X95115544Y-37204321D01*
X95178666Y-36968744D01*
X95210499Y-36726951D01*
X100989500Y-36726951D01*
X101016013Y-36928333D01*
X101021334Y-36968744D01*
X101021335Y-36968746D01*
X101084456Y-37204320D01*
X101084459Y-37204330D01*
X101177786Y-37429640D01*
X101177791Y-37429651D01*
X101299727Y-37640848D01*
X101299738Y-37640864D01*
X101448199Y-37834343D01*
X101448205Y-37834350D01*
X101620649Y-38006794D01*
X101620655Y-38006799D01*
X101814144Y-38155268D01*
X101814151Y-38155272D01*
X102025348Y-38277208D01*
X102025353Y-38277210D01*
X102025356Y-38277212D01*
X102250679Y-38370544D01*
X102486256Y-38433666D01*
X102728056Y-38465500D01*
X102728063Y-38465500D01*
X102971937Y-38465500D01*
X102971944Y-38465500D01*
X103213744Y-38433666D01*
X103449321Y-38370544D01*
X103674644Y-38277212D01*
X103885856Y-38155268D01*
X104079345Y-38006799D01*
X104251799Y-37834345D01*
X104400268Y-37640856D01*
X104522212Y-37429644D01*
X104615544Y-37204321D01*
X104678666Y-36968744D01*
X104710499Y-36726951D01*
X127689500Y-36726951D01*
X127716013Y-36928333D01*
X127721334Y-36968744D01*
X127721335Y-36968746D01*
X127784456Y-37204320D01*
X127784459Y-37204330D01*
X127877786Y-37429640D01*
X127877791Y-37429651D01*
X127999727Y-37640848D01*
X127999738Y-37640864D01*
X128148199Y-37834343D01*
X128148205Y-37834350D01*
X128320649Y-38006794D01*
X128320655Y-38006799D01*
X128514144Y-38155268D01*
X128514151Y-38155272D01*
X128725348Y-38277208D01*
X128725353Y-38277210D01*
X128725356Y-38277212D01*
X128950679Y-38370544D01*
X129186256Y-38433666D01*
X129428056Y-38465500D01*
X129428063Y-38465500D01*
X129671937Y-38465500D01*
X129671944Y-38465500D01*
X129913744Y-38433666D01*
X130149321Y-38370544D01*
X130374644Y-38277212D01*
X130585856Y-38155268D01*
X130779345Y-38006799D01*
X130951799Y-37834345D01*
X131100268Y-37640856D01*
X131222212Y-37429644D01*
X131315544Y-37204321D01*
X131378666Y-36968744D01*
X131410499Y-36726951D01*
X137189500Y-36726951D01*
X137216013Y-36928333D01*
X137221334Y-36968744D01*
X137221335Y-36968746D01*
X137284456Y-37204320D01*
X137284459Y-37204330D01*
X137377786Y-37429640D01*
X137377791Y-37429651D01*
X137499727Y-37640848D01*
X137499738Y-37640864D01*
X137648199Y-37834343D01*
X137648205Y-37834350D01*
X137820649Y-38006794D01*
X137820655Y-38006799D01*
X138014144Y-38155268D01*
X138014151Y-38155272D01*
X138225348Y-38277208D01*
X138225353Y-38277210D01*
X138225356Y-38277212D01*
X138450679Y-38370544D01*
X138686256Y-38433666D01*
X138928056Y-38465500D01*
X138928063Y-38465500D01*
X139171937Y-38465500D01*
X139171944Y-38465500D01*
X139413744Y-38433666D01*
X139649321Y-38370544D01*
X139874644Y-38277212D01*
X140085856Y-38155268D01*
X140279345Y-38006799D01*
X140451799Y-37834345D01*
X140600268Y-37640856D01*
X140722212Y-37429644D01*
X140815544Y-37204321D01*
X140878666Y-36968744D01*
X140910500Y-36726944D01*
X140910500Y-35963056D01*
X140878666Y-35721256D01*
X140815544Y-35485679D01*
X140722212Y-35260356D01*
X140722210Y-35260353D01*
X140722208Y-35260348D01*
X140600272Y-35049151D01*
X140600268Y-35049144D01*
X140451799Y-34855655D01*
X140451794Y-34855649D01*
X140279350Y-34683205D01*
X140279343Y-34683199D01*
X140085864Y-34534738D01*
X140085862Y-34534736D01*
X140085856Y-34534732D01*
X140085851Y-34534729D01*
X140085848Y-34534727D01*
X139874651Y-34412791D01*
X139874640Y-34412786D01*
X139649330Y-34319459D01*
X139649323Y-34319457D01*
X139649321Y-34319456D01*
X139413744Y-34256334D01*
X139373333Y-34251013D01*
X139171951Y-34224500D01*
X139171944Y-34224500D01*
X138928056Y-34224500D01*
X138928048Y-34224500D01*
X138697896Y-34254801D01*
X138686256Y-34256334D01*
X138450679Y-34319456D01*
X138450669Y-34319459D01*
X138225359Y-34412786D01*
X138225348Y-34412791D01*
X138014151Y-34534727D01*
X138014135Y-34534738D01*
X137820656Y-34683199D01*
X137820649Y-34683205D01*
X137648205Y-34855649D01*
X137648199Y-34855656D01*
X137499738Y-35049135D01*
X137499727Y-35049151D01*
X137377791Y-35260348D01*
X137377786Y-35260359D01*
X137284459Y-35485669D01*
X137284456Y-35485679D01*
X137221335Y-35721253D01*
X137221333Y-35721264D01*
X137189500Y-35963048D01*
X137189500Y-36726951D01*
X131410499Y-36726951D01*
X131410500Y-36726944D01*
X131410500Y-35963056D01*
X131378666Y-35721256D01*
X131315544Y-35485679D01*
X131222212Y-35260356D01*
X131222210Y-35260353D01*
X131222208Y-35260348D01*
X131100272Y-35049151D01*
X131100268Y-35049144D01*
X130951799Y-34855655D01*
X130951794Y-34855649D01*
X130779350Y-34683205D01*
X130779343Y-34683199D01*
X130585864Y-34534738D01*
X130585862Y-34534736D01*
X130585856Y-34534732D01*
X130585851Y-34534729D01*
X130585848Y-34534727D01*
X130374651Y-34412791D01*
X130374640Y-34412786D01*
X130149330Y-34319459D01*
X130149323Y-34319457D01*
X130149321Y-34319456D01*
X129913744Y-34256334D01*
X129873333Y-34251013D01*
X129671951Y-34224500D01*
X129671944Y-34224500D01*
X129428056Y-34224500D01*
X129428048Y-34224500D01*
X129197896Y-34254801D01*
X129186256Y-34256334D01*
X128950679Y-34319456D01*
X128950669Y-34319459D01*
X128725359Y-34412786D01*
X128725348Y-34412791D01*
X128514151Y-34534727D01*
X128514135Y-34534738D01*
X128320656Y-34683199D01*
X128320649Y-34683205D01*
X128148205Y-34855649D01*
X128148199Y-34855656D01*
X127999738Y-35049135D01*
X127999727Y-35049151D01*
X127877791Y-35260348D01*
X127877786Y-35260359D01*
X127784459Y-35485669D01*
X127784456Y-35485679D01*
X127721335Y-35721253D01*
X127721333Y-35721264D01*
X127689500Y-35963048D01*
X127689500Y-36726951D01*
X104710499Y-36726951D01*
X104710500Y-36726944D01*
X104710500Y-35963056D01*
X104678666Y-35721256D01*
X104615544Y-35485679D01*
X104522212Y-35260356D01*
X104522210Y-35260353D01*
X104522208Y-35260348D01*
X104400272Y-35049151D01*
X104400268Y-35049144D01*
X104251799Y-34855655D01*
X104251794Y-34855649D01*
X104079350Y-34683205D01*
X104079343Y-34683199D01*
X103885864Y-34534738D01*
X103885862Y-34534736D01*
X103885856Y-34534732D01*
X103885851Y-34534729D01*
X103885848Y-34534727D01*
X103674651Y-34412791D01*
X103674640Y-34412786D01*
X103449330Y-34319459D01*
X103449323Y-34319457D01*
X103449321Y-34319456D01*
X103213744Y-34256334D01*
X103173333Y-34251013D01*
X102971951Y-34224500D01*
X102971944Y-34224500D01*
X102728056Y-34224500D01*
X102728048Y-34224500D01*
X102497896Y-34254801D01*
X102486256Y-34256334D01*
X102250679Y-34319456D01*
X102250669Y-34319459D01*
X102025359Y-34412786D01*
X102025348Y-34412791D01*
X101814151Y-34534727D01*
X101814135Y-34534738D01*
X101620656Y-34683199D01*
X101620649Y-34683205D01*
X101448205Y-34855649D01*
X101448199Y-34855656D01*
X101299738Y-35049135D01*
X101299727Y-35049151D01*
X101177791Y-35260348D01*
X101177786Y-35260359D01*
X101084459Y-35485669D01*
X101084456Y-35485679D01*
X101021335Y-35721253D01*
X101021333Y-35721264D01*
X100989500Y-35963048D01*
X100989500Y-36726951D01*
X95210499Y-36726951D01*
X95210500Y-36726944D01*
X95210500Y-35963056D01*
X95178666Y-35721256D01*
X95115544Y-35485679D01*
X95022212Y-35260356D01*
X95022210Y-35260353D01*
X95022208Y-35260348D01*
X94900272Y-35049151D01*
X94900268Y-35049144D01*
X94751799Y-34855655D01*
X94751794Y-34855649D01*
X94579350Y-34683205D01*
X94579343Y-34683199D01*
X94385864Y-34534738D01*
X94385862Y-34534736D01*
X94385856Y-34534732D01*
X94385851Y-34534729D01*
X94385848Y-34534727D01*
X94174651Y-34412791D01*
X94174640Y-34412786D01*
X93949330Y-34319459D01*
X93949323Y-34319457D01*
X93949321Y-34319456D01*
X93713744Y-34256334D01*
X93673333Y-34251013D01*
X93471951Y-34224500D01*
X93471944Y-34224500D01*
X93228056Y-34224500D01*
X93228048Y-34224500D01*
X92997896Y-34254801D01*
X92986256Y-34256334D01*
X92750679Y-34319456D01*
X92750669Y-34319459D01*
X92525359Y-34412786D01*
X92525348Y-34412791D01*
X92314151Y-34534727D01*
X92314135Y-34534738D01*
X92120656Y-34683199D01*
X92120649Y-34683205D01*
X91948205Y-34855649D01*
X91948199Y-34855656D01*
X91799738Y-35049135D01*
X91799727Y-35049151D01*
X91677791Y-35260348D01*
X91677786Y-35260359D01*
X91584459Y-35485669D01*
X91584456Y-35485679D01*
X91521335Y-35721253D01*
X91521333Y-35721264D01*
X91489500Y-35963048D01*
X91489500Y-36726951D01*
X68510499Y-36726951D01*
X68510500Y-36726944D01*
X68510500Y-35963056D01*
X68478666Y-35721256D01*
X68415544Y-35485679D01*
X68322212Y-35260356D01*
X68322210Y-35260353D01*
X68322208Y-35260348D01*
X68200272Y-35049151D01*
X68200268Y-35049144D01*
X68051799Y-34855655D01*
X68051794Y-34855649D01*
X67879350Y-34683205D01*
X67879343Y-34683199D01*
X67685864Y-34534738D01*
X67685862Y-34534736D01*
X67685856Y-34534732D01*
X67685851Y-34534729D01*
X67685848Y-34534727D01*
X67474651Y-34412791D01*
X67474640Y-34412786D01*
X67249330Y-34319459D01*
X67249323Y-34319457D01*
X67249321Y-34319456D01*
X67013744Y-34256334D01*
X66973333Y-34251013D01*
X66771951Y-34224500D01*
X66771944Y-34224500D01*
X66528056Y-34224500D01*
X66528048Y-34224500D01*
X66297896Y-34254801D01*
X66286256Y-34256334D01*
X66050679Y-34319456D01*
X66050669Y-34319459D01*
X65825359Y-34412786D01*
X65825348Y-34412791D01*
X65614151Y-34534727D01*
X65614135Y-34534738D01*
X65420656Y-34683199D01*
X65420649Y-34683205D01*
X65248205Y-34855649D01*
X65248199Y-34855656D01*
X65099738Y-35049135D01*
X65099727Y-35049151D01*
X64977791Y-35260348D01*
X64977786Y-35260359D01*
X64884459Y-35485669D01*
X64884456Y-35485679D01*
X64821335Y-35721253D01*
X64821333Y-35721264D01*
X64789500Y-35963048D01*
X64789500Y-36726951D01*
X59010499Y-36726951D01*
X59010500Y-36726944D01*
X59010500Y-35963056D01*
X58978666Y-35721256D01*
X58915544Y-35485679D01*
X58822212Y-35260356D01*
X58822210Y-35260353D01*
X58822208Y-35260348D01*
X58700272Y-35049151D01*
X58700268Y-35049144D01*
X58551799Y-34855655D01*
X58551794Y-34855649D01*
X58379350Y-34683205D01*
X58379343Y-34683199D01*
X58185864Y-34534738D01*
X58185862Y-34534736D01*
X58185856Y-34534732D01*
X58185851Y-34534729D01*
X58185848Y-34534727D01*
X57974651Y-34412791D01*
X57974640Y-34412786D01*
X57749330Y-34319459D01*
X57749323Y-34319457D01*
X57749321Y-34319456D01*
X57513744Y-34256334D01*
X57473333Y-34251013D01*
X57271951Y-34224500D01*
X57271944Y-34224500D01*
X57028056Y-34224500D01*
X57028048Y-34224500D01*
X56797896Y-34254801D01*
X56786256Y-34256334D01*
X56550679Y-34319456D01*
X56550669Y-34319459D01*
X56325359Y-34412786D01*
X56325348Y-34412791D01*
X56114151Y-34534727D01*
X56114135Y-34534738D01*
X55920656Y-34683199D01*
X55920649Y-34683205D01*
X55748205Y-34855649D01*
X55748199Y-34855656D01*
X55599738Y-35049135D01*
X55599727Y-35049151D01*
X55477791Y-35260348D01*
X55477786Y-35260359D01*
X55384459Y-35485669D01*
X55384456Y-35485679D01*
X55321335Y-35721253D01*
X55321333Y-35721264D01*
X55289500Y-35963048D01*
X55289500Y-36726951D01*
X53340000Y-36726951D01*
X53340000Y-28064000D01*
X53359685Y-27996961D01*
X53412489Y-27951206D01*
X53464000Y-27940000D01*
X251336000Y-27940000D01*
X251403039Y-27959685D01*
G37*
%TD.AperFunction*%
%TD*%
M02*
