M48
; DRILL file {KiCad 8.0.1} date 2024-06-25T20:54:44-0500
; FORMAT={-:-/ absolute / inch / decimal}
; #@! TF.CreationDate,2024-06-25T20:54:44-05:00
; #@! TF.GenerationSoftware,Kicad,Pcbnew,8.0.1
; #@! TF.FileFunction,Plated,1,2,PTH
FMAT,2
INCH
; #@! TA.AperFunction,Plated,PTH,ViaDrill
T1C0.0118
; #@! TA.AperFunction,Plated,PTH,ComponentDrill
T2C0.0394
; #@! TA.AperFunction,Plated,PTH,ComponentDrill
T3C0.0433
%
G90
G05
T1
X3.15Y-2.45
X3.45Y-2.45
X3.9Y-2.45
X3.9Y-2.75
X5.7Y-2.15
X5.9Y-2.6
X5.95Y-1.8
X5.95Y-1.85
X5.95Y-1.9
X5.95Y-1.95
X6.05Y-1.8
X6.05Y-1.85
X6.05Y-1.9
X6.45Y-2.1
X6.6Y-2.55
T2
X2.2Y-2.0
X2.2Y-2.6
X2.3Y-2.0
X2.3Y-2.6
X2.3386Y-1.7262
X2.3386Y-1.8246
X2.3386Y-3.1953
X2.3386Y-3.2937
X2.4Y-2.0
X2.4Y-2.6
X2.437Y-1.7262
X2.437Y-1.8246
X2.437Y-3.1953
X2.437Y-3.2937
X2.5Y-2.0
X2.5Y-2.6
X2.5354Y-1.7262
X2.5354Y-1.8246
X2.5354Y-3.1953
X2.5354Y-3.2937
X2.6Y-2.0
X2.6Y-2.6
X2.7Y-2.0
X2.7Y-2.6
X2.8Y-2.0
X2.8Y-2.6
X2.9Y-2.0
X2.9Y-2.6
X3.0Y-2.0
X3.0Y-2.6
X3.1Y-2.0
X3.1Y-2.6
X3.2Y-2.0
X3.2Y-2.6
X3.3Y-2.0
X3.3Y-2.6
X3.4Y-2.0
X3.4Y-2.6
X3.5Y-2.0
X3.5Y-2.6
X3.6Y-2.0
X3.6Y-2.6
X3.7638Y-1.7262
X3.7638Y-1.8246
X3.7638Y-3.1953
X3.7638Y-3.2937
X3.8622Y-1.7262
X3.8622Y-1.8246
X3.8622Y-3.1953
X3.8622Y-3.2937
X3.9606Y-1.7262
X3.9606Y-1.8246
X3.9606Y-3.1953
X3.9606Y-3.2937
X5.189Y-1.7262
X5.189Y-1.8246
X5.189Y-3.1953
X5.189Y-3.2937
X5.2874Y-1.7262
X5.2874Y-1.8246
X5.2874Y-3.1953
X5.2874Y-3.2937
X5.3858Y-1.7262
X5.3858Y-1.8246
X5.3858Y-3.1953
X5.3858Y-3.2937
X6.6142Y-1.7262
X6.6142Y-1.8246
X6.6142Y-3.1953
X6.6142Y-3.2937
X6.7126Y-1.7262
X6.7126Y-1.8246
X6.7126Y-3.1953
X6.7126Y-3.2937
X6.811Y-1.7262
X6.811Y-1.8246
X6.811Y-3.1953
X6.811Y-3.2937
X8.0394Y-1.7262
X8.0394Y-1.8246
X8.0394Y-3.1953
X8.0394Y-3.2937
X8.1378Y-1.7262
X8.1378Y-1.8246
X8.1378Y-3.1953
X8.1378Y-3.2937
X8.2362Y-1.7262
X8.2362Y-1.8246
X8.2362Y-3.1953
X8.2362Y-3.2937
X9.4646Y-1.7262
X9.4646Y-1.8246
X9.4646Y-3.1953
X9.4646Y-3.2937
X9.563Y-1.7262
X9.563Y-1.8246
X9.563Y-3.1953
X9.563Y-3.2937
X9.6614Y-1.7262
X9.6614Y-1.8246
X9.6614Y-3.1953
X9.6614Y-3.2937
T3
G00X2.25Y-1.4447
M15
G01X2.25Y-1.4171
M16
G05
G00X2.25Y-2.9138
M15
G01X2.25Y-2.8862
M16
G05
G00X2.624Y-1.4447
M15
G01X2.624Y-1.4171
M16
G05
G00X2.624Y-2.9138
M15
G01X2.624Y-2.8862
M16
G05
G00X3.6752Y-1.4447
M15
G01X3.6752Y-1.4171
M16
G05
G00X3.6752Y-2.9138
M15
G01X3.6752Y-2.8862
M16
G05
G00X4.0492Y-1.4447
M15
G01X4.0492Y-1.4171
M16
G05
G00X4.0492Y-2.9138
M15
G01X4.0492Y-2.8862
M16
G05
G00X5.1004Y-1.4447
M15
G01X5.1004Y-1.4171
M16
G05
G00X5.1004Y-2.9138
M15
G01X5.1004Y-2.8862
M16
G05
G00X5.4744Y-1.4447
M15
G01X5.4744Y-1.4171
M16
G05
G00X5.4744Y-2.9138
M15
G01X5.4744Y-2.8862
M16
G05
G00X6.5256Y-1.4447
M15
G01X6.5256Y-1.4171
M16
G05
G00X6.5256Y-2.9138
M15
G01X6.5256Y-2.8862
M16
G05
G00X6.8996Y-1.4447
M15
G01X6.8996Y-1.4171
M16
G05
G00X6.8996Y-2.9138
M15
G01X6.8996Y-2.8862
M16
G05
G00X7.9508Y-1.4447
M15
G01X7.9508Y-1.4171
M16
G05
G00X7.9508Y-2.9138
M15
G01X7.9508Y-2.8862
M16
G05
G00X8.3248Y-1.4447
M15
G01X8.3248Y-1.4171
M16
G05
G00X8.3248Y-2.9138
M15
G01X8.3248Y-2.8862
M16
G05
G00X9.376Y-1.4447
M15
G01X9.376Y-1.4171
M16
G05
G00X9.376Y-2.9138
M15
G01X9.376Y-2.8862
M16
G05
G00X9.75Y-1.4447
M15
G01X9.75Y-1.4171
M16
G05
G00X9.75Y-2.9138
M15
G01X9.75Y-2.8862
M16
G05
M30
